<?xml version="1.0" encoding="UTF-8"?>
<svg xmlns="http://www.w3.org/2000/svg" width="256" height="256" viewBox="0 0 256 256" shape-rendering="crispEdges">
<rect x="78" y="89" width="100" height="102" fill="#0b1320" />
<rect x="79" y="90" width="98" height="100" fill="#cc4d72" />
<rect x="79" y="90" width="98" height="1" fill="#de6f90" />
<rect x="79" y="90" width="1" height="100" fill="#de6f90" />
<rect x="79" y="189" width="98" height="1" fill="#8a2c48" />
<rect x="176" y="90" width="1" height="100" fill="#8a2c48" />
<rect x="86" y="99" width="84" height="18" fill="#8a2c48" />
<rect x="91" y="101" width="1" height="1" fill="#cc4d72" />
<rect x="97" y="101" width="1" height="1" fill="#cc4d72" />
<rect x="103" y="101" width="1" height="1" fill="#cc4d72" />
<rect x="109" y="101" width="1" height="1" fill="#cc4d72" />
<rect x="115" y="101" width="1" height="1" fill="#cc4d72" />
<rect x="121" y="101" width="1" height="1" fill="#cc4d72" />
<rect x="127" y="101" width="1" height="1" fill="#cc4d72" />
<rect x="133" y="101" width="1" height="1" fill="#cc4d72" />
<rect x="139" y="101" width="1" height="1" fill="#cc4d72" />
<rect x="145" y="101" width="1" height="1" fill="#cc4d72" />
<rect x="151" y="101" width="1" height="1" fill="#cc4d72" />
<rect x="157" y="101" width="1" height="1" fill="#cc4d72" />
<rect x="163" y="101" width="1" height="1" fill="#cc4d72" />
<rect x="88" y="104" width="1" height="1" fill="#cc4d72" />
<rect x="94" y="104" width="1" height="1" fill="#cc4d72" />
<rect x="100" y="104" width="1" height="1" fill="#cc4d72" />
<rect x="106" y="104" width="1" height="1" fill="#cc4d72" />
<rect x="112" y="104" width="1" height="1" fill="#cc4d72" />
<rect x="118" y="104" width="1" height="1" fill="#cc4d72" />
<rect x="124" y="104" width="1" height="1" fill="#cc4d72" />
<rect x="130" y="104" width="1" height="1" fill="#cc4d72" />
<rect x="136" y="104" width="1" height="1" fill="#cc4d72" />
<rect x="142" y="104" width="1" height="1" fill="#cc4d72" />
<rect x="148" y="104" width="1" height="1" fill="#cc4d72" />
<rect x="154" y="104" width="1" height="1" fill="#cc4d72" />
<rect x="160" y="104" width="1" height="1" fill="#cc4d72" />
<rect x="166" y="104" width="1" height="1" fill="#cc4d72" />
<rect x="91" y="107" width="1" height="1" fill="#cc4d72" />
<rect x="97" y="107" width="1" height="1" fill="#cc4d72" />
<rect x="103" y="107" width="1" height="1" fill="#cc4d72" />
<rect x="109" y="107" width="1" height="1" fill="#cc4d72" />
<rect x="115" y="107" width="1" height="1" fill="#cc4d72" />
<rect x="121" y="107" width="1" height="1" fill="#cc4d72" />
<rect x="127" y="107" width="1" height="1" fill="#cc4d72" />
<rect x="133" y="107" width="1" height="1" fill="#cc4d72" />
<rect x="139" y="107" width="1" height="1" fill="#cc4d72" />
<rect x="145" y="107" width="1" height="1" fill="#cc4d72" />
<rect x="151" y="107" width="1" height="1" fill="#cc4d72" />
<rect x="157" y="107" width="1" height="1" fill="#cc4d72" />
<rect x="163" y="107" width="1" height="1" fill="#cc4d72" />
<rect x="88" y="110" width="1" height="1" fill="#cc4d72" />
<rect x="94" y="110" width="1" height="1" fill="#cc4d72" />
<rect x="100" y="110" width="1" height="1" fill="#cc4d72" />
<rect x="106" y="110" width="1" height="1" fill="#cc4d72" />
<rect x="112" y="110" width="1" height="1" fill="#cc4d72" />
<rect x="118" y="110" width="1" height="1" fill="#cc4d72" />
<rect x="124" y="110" width="1" height="1" fill="#cc4d72" />
<rect x="130" y="110" width="1" height="1" fill="#cc4d72" />
<rect x="136" y="110" width="1" height="1" fill="#cc4d72" />
<rect x="142" y="110" width="1" height="1" fill="#cc4d72" />
<rect x="148" y="110" width="1" height="1" fill="#cc4d72" />
<rect x="154" y="110" width="1" height="1" fill="#cc4d72" />
<rect x="160" y="110" width="1" height="1" fill="#cc4d72" />
<rect x="166" y="110" width="1" height="1" fill="#cc4d72" />
<rect x="91" y="113" width="1" height="1" fill="#cc4d72" />
<rect x="97" y="113" width="1" height="1" fill="#cc4d72" />
<rect x="103" y="113" width="1" height="1" fill="#cc4d72" />
<rect x="109" y="113" width="1" height="1" fill="#cc4d72" />
<rect x="115" y="113" width="1" height="1" fill="#cc4d72" />
<rect x="121" y="113" width="1" height="1" fill="#cc4d72" />
<rect x="127" y="113" width="1" height="1" fill="#cc4d72" />
<rect x="133" y="113" width="1" height="1" fill="#cc4d72" />
<rect x="139" y="113" width="1" height="1" fill="#cc4d72" />
<rect x="145" y="113" width="1" height="1" fill="#cc4d72" />
<rect x="151" y="113" width="1" height="1" fill="#cc4d72" />
<rect x="157" y="113" width="1" height="1" fill="#cc4d72" />
<rect x="163" y="113" width="1" height="1" fill="#cc4d72" />
<rect x="94" y="121" width="68" height="1" fill="#8a2c48" />
<rect x="94" y="129" width="68" height="1" fill="#8a2c48" />
<rect x="94" y="137" width="68" height="1" fill="#8a2c48" />
<rect x="94" y="145" width="68" height="1" fill="#8a2c48" />
<rect x="98" y="63" width="60" height="36" fill="#0b1320" />
<rect x="99" y="64" width="58" height="34" fill="#e5edf8" />
<rect x="99" y="64" width="58" height="1" fill="#f6fbff" />
<rect x="99" y="64" width="1" height="34" fill="#f6fbff" />
<rect x="99" y="97" width="58" height="1" fill="#c4d0de" />
<rect x="156" y="64" width="1" height="34" fill="#c4d0de" />
<rect x="94" y="57" width="68" height="8" fill="#a4314a" />
<rect x="96" y="63" width="64" height="2" fill="#0b1320" />
<circle cx="102" cy="59" r="1.2" fill="#8a2c48" />
<circle cx="114" cy="59" r="1.2" fill="#8a2c48" />
<circle cx="126" cy="59" r="1.2" fill="#8a2c48" />
<circle cx="138" cy="59" r="1.2" fill="#8a2c48" />
<circle cx="150" cy="59" r="1.2" fill="#8a2c48" />
<rect x="74" y="103" width="18" height="66" fill="#0b1320" />
<rect x="75" y="104" width="16" height="64" fill="#712a3d" />
<rect x="75" y="104" width="16" height="1" fill="#cc4d72" />
<rect x="75" y="104" width="1" height="64" fill="#cc4d72" />
<rect x="75" y="167" width="16" height="1" fill="#8a2c48" />
<rect x="90" y="104" width="1" height="64" fill="#8a2c48" />
<rect x="172" y="103" width="18" height="66" fill="#0b1320" />
<rect x="173" y="104" width="16" height="64" fill="#712a3d" />
<rect x="173" y="104" width="16" height="1" fill="#cc4d72" />
<rect x="173" y="104" width="1" height="64" fill="#cc4d72" />
<rect x="173" y="167" width="16" height="1" fill="#8a2c48" />
<rect x="188" y="104" width="1" height="64" fill="#8a2c48" />
<rect x="76" y="117" width="14" height="6" fill="#8a2c48" />
<rect x="174" y="117" width="14" height="6" fill="#8a2c48" />
<rect x="76" y="135" width="14" height="6" fill="#8a2c48" />
<rect x="174" y="135" width="14" height="6" fill="#8a2c48" />
<rect x="90" y="181" width="34" height="62" fill="#0b1320" />
<rect x="91" y="182" width="32" height="60" fill="#3c1523" />
<rect x="91" y="182" width="32" height="1" fill="#cc4d72" />
<rect x="91" y="182" width="1" height="60" fill="#cc4d72" />
<rect x="91" y="241" width="32" height="1" fill="#712a3d" />
<rect x="122" y="182" width="1" height="60" fill="#712a3d" />
<rect x="132" y="183" width="34" height="62" fill="#0b1320" />
<rect x="133" y="184" width="32" height="60" fill="#3c1523" />
<rect x="133" y="184" width="32" height="1" fill="#cc4d72" />
<rect x="133" y="184" width="1" height="60" fill="#cc4d72" />
<rect x="133" y="243" width="32" height="1" fill="#712a3d" />
<rect x="164" y="184" width="1" height="60" fill="#712a3d" />
<rect x="94" y="185" width="1" height="1" fill="#712a3d" />
<rect x="100" y="185" width="1" height="1" fill="#712a3d" />
<rect x="106" y="185" width="1" height="1" fill="#712a3d" />
<rect x="112" y="185" width="1" height="1" fill="#712a3d" />
<rect x="118" y="185" width="1" height="1" fill="#712a3d" />
<rect x="97" y="188" width="1" height="1" fill="#712a3d" />
<rect x="103" y="188" width="1" height="1" fill="#712a3d" />
<rect x="109" y="188" width="1" height="1" fill="#712a3d" />
<rect x="115" y="188" width="1" height="1" fill="#712a3d" />
<rect x="94" y="191" width="1" height="1" fill="#712a3d" />
<rect x="100" y="191" width="1" height="1" fill="#712a3d" />
<rect x="106" y="191" width="1" height="1" fill="#712a3d" />
<rect x="112" y="191" width="1" height="1" fill="#712a3d" />
<rect x="118" y="191" width="1" height="1" fill="#712a3d" />
<rect x="97" y="194" width="1" height="1" fill="#712a3d" />
<rect x="103" y="194" width="1" height="1" fill="#712a3d" />
<rect x="109" y="194" width="1" height="1" fill="#712a3d" />
<rect x="115" y="194" width="1" height="1" fill="#712a3d" />
<rect x="94" y="197" width="1" height="1" fill="#712a3d" />
<rect x="100" y="197" width="1" height="1" fill="#712a3d" />
<rect x="106" y="197" width="1" height="1" fill="#712a3d" />
<rect x="112" y="197" width="1" height="1" fill="#712a3d" />
<rect x="118" y="197" width="1" height="1" fill="#712a3d" />
<rect x="97" y="200" width="1" height="1" fill="#712a3d" />
<rect x="103" y="200" width="1" height="1" fill="#712a3d" />
<rect x="109" y="200" width="1" height="1" fill="#712a3d" />
<rect x="115" y="200" width="1" height="1" fill="#712a3d" />
<rect x="94" y="203" width="1" height="1" fill="#712a3d" />
<rect x="100" y="203" width="1" height="1" fill="#712a3d" />
<rect x="106" y="203" width="1" height="1" fill="#712a3d" />
<rect x="112" y="203" width="1" height="1" fill="#712a3d" />
<rect x="118" y="203" width="1" height="1" fill="#712a3d" />
<rect x="97" y="206" width="1" height="1" fill="#712a3d" />
<rect x="103" y="206" width="1" height="1" fill="#712a3d" />
<rect x="109" y="206" width="1" height="1" fill="#712a3d" />
<rect x="115" y="206" width="1" height="1" fill="#712a3d" />
<rect x="94" y="209" width="1" height="1" fill="#712a3d" />
<rect x="100" y="209" width="1" height="1" fill="#712a3d" />
<rect x="106" y="209" width="1" height="1" fill="#712a3d" />
<rect x="112" y="209" width="1" height="1" fill="#712a3d" />
<rect x="118" y="209" width="1" height="1" fill="#712a3d" />
<rect x="97" y="212" width="1" height="1" fill="#712a3d" />
<rect x="103" y="212" width="1" height="1" fill="#712a3d" />
<rect x="109" y="212" width="1" height="1" fill="#712a3d" />
<rect x="115" y="212" width="1" height="1" fill="#712a3d" />
<rect x="94" y="215" width="1" height="1" fill="#712a3d" />
<rect x="100" y="215" width="1" height="1" fill="#712a3d" />
<rect x="106" y="215" width="1" height="1" fill="#712a3d" />
<rect x="112" y="215" width="1" height="1" fill="#712a3d" />
<rect x="118" y="215" width="1" height="1" fill="#712a3d" />
<rect x="97" y="218" width="1" height="1" fill="#712a3d" />
<rect x="103" y="218" width="1" height="1" fill="#712a3d" />
<rect x="109" y="218" width="1" height="1" fill="#712a3d" />
<rect x="115" y="218" width="1" height="1" fill="#712a3d" />
<rect x="94" y="221" width="1" height="1" fill="#712a3d" />
<rect x="100" y="221" width="1" height="1" fill="#712a3d" />
<rect x="106" y="221" width="1" height="1" fill="#712a3d" />
<rect x="112" y="221" width="1" height="1" fill="#712a3d" />
<rect x="118" y="221" width="1" height="1" fill="#712a3d" />
<rect x="97" y="224" width="1" height="1" fill="#712a3d" />
<rect x="103" y="224" width="1" height="1" fill="#712a3d" />
<rect x="109" y="224" width="1" height="1" fill="#712a3d" />
<rect x="115" y="224" width="1" height="1" fill="#712a3d" />
<rect x="139" y="187" width="1" height="1" fill="#712a3d" />
<rect x="145" y="187" width="1" height="1" fill="#712a3d" />
<rect x="151" y="187" width="1" height="1" fill="#712a3d" />
<rect x="157" y="187" width="1" height="1" fill="#712a3d" />
<rect x="136" y="190" width="1" height="1" fill="#712a3d" />
<rect x="142" y="190" width="1" height="1" fill="#712a3d" />
<rect x="148" y="190" width="1" height="1" fill="#712a3d" />
<rect x="154" y="190" width="1" height="1" fill="#712a3d" />
<rect x="160" y="190" width="1" height="1" fill="#712a3d" />
<rect x="139" y="193" width="1" height="1" fill="#712a3d" />
<rect x="145" y="193" width="1" height="1" fill="#712a3d" />
<rect x="151" y="193" width="1" height="1" fill="#712a3d" />
<rect x="157" y="193" width="1" height="1" fill="#712a3d" />
<rect x="136" y="196" width="1" height="1" fill="#712a3d" />
<rect x="142" y="196" width="1" height="1" fill="#712a3d" />
<rect x="148" y="196" width="1" height="1" fill="#712a3d" />
<rect x="154" y="196" width="1" height="1" fill="#712a3d" />
<rect x="160" y="196" width="1" height="1" fill="#712a3d" />
<rect x="139" y="199" width="1" height="1" fill="#712a3d" />
<rect x="145" y="199" width="1" height="1" fill="#712a3d" />
<rect x="151" y="199" width="1" height="1" fill="#712a3d" />
<rect x="157" y="199" width="1" height="1" fill="#712a3d" />
<rect x="136" y="202" width="1" height="1" fill="#712a3d" />
<rect x="142" y="202" width="1" height="1" fill="#712a3d" />
<rect x="148" y="202" width="1" height="1" fill="#712a3d" />
<rect x="154" y="202" width="1" height="1" fill="#712a3d" />
<rect x="160" y="202" width="1" height="1" fill="#712a3d" />
<rect x="139" y="205" width="1" height="1" fill="#712a3d" />
<rect x="145" y="205" width="1" height="1" fill="#712a3d" />
<rect x="151" y="205" width="1" height="1" fill="#712a3d" />
<rect x="157" y="205" width="1" height="1" fill="#712a3d" />
<rect x="136" y="208" width="1" height="1" fill="#712a3d" />
<rect x="142" y="208" width="1" height="1" fill="#712a3d" />
<rect x="148" y="208" width="1" height="1" fill="#712a3d" />
<rect x="154" y="208" width="1" height="1" fill="#712a3d" />
<rect x="160" y="208" width="1" height="1" fill="#712a3d" />
<rect x="139" y="211" width="1" height="1" fill="#712a3d" />
<rect x="145" y="211" width="1" height="1" fill="#712a3d" />
<rect x="151" y="211" width="1" height="1" fill="#712a3d" />
<rect x="157" y="211" width="1" height="1" fill="#712a3d" />
<rect x="136" y="214" width="1" height="1" fill="#712a3d" />
<rect x="142" y="214" width="1" height="1" fill="#712a3d" />
<rect x="148" y="214" width="1" height="1" fill="#712a3d" />
<rect x="154" y="214" width="1" height="1" fill="#712a3d" />
<rect x="160" y="214" width="1" height="1" fill="#712a3d" />
<rect x="139" y="217" width="1" height="1" fill="#712a3d" />
<rect x="145" y="217" width="1" height="1" fill="#712a3d" />
<rect x="151" y="217" width="1" height="1" fill="#712a3d" />
<rect x="157" y="217" width="1" height="1" fill="#712a3d" />
<rect x="136" y="220" width="1" height="1" fill="#712a3d" />
<rect x="142" y="220" width="1" height="1" fill="#712a3d" />
<rect x="148" y="220" width="1" height="1" fill="#712a3d" />
<rect x="154" y="220" width="1" height="1" fill="#712a3d" />
<rect x="160" y="220" width="1" height="1" fill="#712a3d" />
<rect x="139" y="223" width="1" height="1" fill="#712a3d" />
<rect x="145" y="223" width="1" height="1" fill="#712a3d" />
<rect x="151" y="223" width="1" height="1" fill="#712a3d" />
<rect x="157" y="223" width="1" height="1" fill="#712a3d" />
<rect x="136" y="226" width="1" height="1" fill="#712a3d" />
<rect x="142" y="226" width="1" height="1" fill="#712a3d" />
<rect x="148" y="226" width="1" height="1" fill="#712a3d" />
<rect x="154" y="226" width="1" height="1" fill="#712a3d" />
<rect x="160" y="226" width="1" height="1" fill="#712a3d" />
<rect x="86" y="238" width="50" height="14" fill="#0b1320" />
<rect x="87" y="239" width="48" height="12" fill="#712a3d" />
<rect x="87" y="239" width="48" height="1" fill="#cc4d72" />
<rect x="87" y="239" width="1" height="12" fill="#cc4d72" />
<rect x="87" y="250" width="48" height="1" fill="#0b1320" />
<rect x="134" y="239" width="1" height="12" fill="#0b1320" />
<rect x="128" y="238" width="50" height="14" fill="#0b1320" />
<rect x="129" y="239" width="48" height="12" fill="#712a3d" />
<rect x="129" y="239" width="48" height="1" fill="#cc4d72" />
<rect x="129" y="239" width="1" height="12" fill="#cc4d72" />
<rect x="129" y="250" width="48" height="1" fill="#0b1320" />
<rect x="176" y="239" width="1" height="12" fill="#0b1320" />
<circle cx="90" cy="244" r="1" fill="#712a3d" />
<circle cx="96" cy="244" r="1" fill="#712a3d" />
<circle cx="102" cy="244" r="1" fill="#712a3d" />
<circle cx="108" cy="244" r="1" fill="#712a3d" />
<circle cx="114" cy="244" r="1" fill="#712a3d" />
<circle cx="120" cy="244" r="1" fill="#712a3d" />
<circle cx="132" cy="244" r="1" fill="#712a3d" />
<circle cx="138" cy="244" r="1" fill="#712a3d" />
<circle cx="144" cy="244" r="1" fill="#712a3d" />
<circle cx="150" cy="244" r="1" fill="#712a3d" />
<circle cx="156" cy="244" r="1" fill="#712a3d" />
<circle cx="162" cy="244" r="1" fill="#712a3d" />
<rect x="148" y="151" width="64" height="12" fill="#0b1320" />
<rect x="149" y="152" width="62" height="10" fill="#d3deee" />
<rect x="149" y="152" width="62" height="1" fill="#f0f5ff" />
<rect x="149" y="152" width="1" height="10" fill="#f0f5ff" />
<rect x="149" y="161" width="62" height="1" fill="#7485a4" />
<rect x="210" y="152" width="1" height="10" fill="#7485a4" />
<rect x="202" y="153" width="20" height="8" fill="#7485a4" />
<rect x="150" y="159" width="58" height="2" fill="#0b1320" />
<rect x="154" y="153" width="10" height="2" fill="#4f7fd9" />
<rect x="116" y="81" width="24" height="6" fill="#ffd7a1" />
<rect x="108" y="91" width="12" height="2" fill="#8a2c48" />
<rect x="136" y="91" width="12" height="2" fill="#8a2c48" />
</svg>
