<?xml version="1.0" encoding="UTF-8"?>
<svg xmlns="http://www.w3.org/2000/svg" width="256" height="256" viewBox="0 0 256 256" shape-rendering="crispEdges">
<rect x="66" y="73" width="124" height="122" fill="#0b1320" />
<rect x="67" y="74" width="122" height="120" fill="#bd5f3f" />
<rect x="67" y="74" width="122" height="1" fill="#df8765" />
<rect x="67" y="74" width="1" height="120" fill="#df8765" />
<rect x="67" y="193" width="122" height="1" fill="#6d3527" />
<rect x="188" y="74" width="1" height="120" fill="#6d3527" />
<rect x="76" y="85" width="104" height="18" fill="#df8765" />
<rect x="83" y="87" width="1" height="1" fill="#bd5f3f" />
<rect x="89" y="87" width="1" height="1" fill="#bd5f3f" />
<rect x="95" y="87" width="1" height="1" fill="#bd5f3f" />
<rect x="101" y="87" width="1" height="1" fill="#bd5f3f" />
<rect x="107" y="87" width="1" height="1" fill="#bd5f3f" />
<rect x="113" y="87" width="1" height="1" fill="#bd5f3f" />
<rect x="119" y="87" width="1" height="1" fill="#bd5f3f" />
<rect x="125" y="87" width="1" height="1" fill="#bd5f3f" />
<rect x="131" y="87" width="1" height="1" fill="#bd5f3f" />
<rect x="137" y="87" width="1" height="1" fill="#bd5f3f" />
<rect x="143" y="87" width="1" height="1" fill="#bd5f3f" />
<rect x="149" y="87" width="1" height="1" fill="#bd5f3f" />
<rect x="155" y="87" width="1" height="1" fill="#bd5f3f" />
<rect x="161" y="87" width="1" height="1" fill="#bd5f3f" />
<rect x="167" y="87" width="1" height="1" fill="#bd5f3f" />
<rect x="173" y="87" width="1" height="1" fill="#bd5f3f" />
<rect x="80" y="90" width="1" height="1" fill="#bd5f3f" />
<rect x="86" y="90" width="1" height="1" fill="#bd5f3f" />
<rect x="92" y="90" width="1" height="1" fill="#bd5f3f" />
<rect x="98" y="90" width="1" height="1" fill="#bd5f3f" />
<rect x="104" y="90" width="1" height="1" fill="#bd5f3f" />
<rect x="110" y="90" width="1" height="1" fill="#bd5f3f" />
<rect x="116" y="90" width="1" height="1" fill="#bd5f3f" />
<rect x="122" y="90" width="1" height="1" fill="#bd5f3f" />
<rect x="128" y="90" width="1" height="1" fill="#bd5f3f" />
<rect x="134" y="90" width="1" height="1" fill="#bd5f3f" />
<rect x="140" y="90" width="1" height="1" fill="#bd5f3f" />
<rect x="146" y="90" width="1" height="1" fill="#bd5f3f" />
<rect x="152" y="90" width="1" height="1" fill="#bd5f3f" />
<rect x="158" y="90" width="1" height="1" fill="#bd5f3f" />
<rect x="164" y="90" width="1" height="1" fill="#bd5f3f" />
<rect x="170" y="90" width="1" height="1" fill="#bd5f3f" />
<rect x="83" y="93" width="1" height="1" fill="#bd5f3f" />
<rect x="89" y="93" width="1" height="1" fill="#bd5f3f" />
<rect x="95" y="93" width="1" height="1" fill="#bd5f3f" />
<rect x="101" y="93" width="1" height="1" fill="#bd5f3f" />
<rect x="107" y="93" width="1" height="1" fill="#bd5f3f" />
<rect x="113" y="93" width="1" height="1" fill="#bd5f3f" />
<rect x="119" y="93" width="1" height="1" fill="#bd5f3f" />
<rect x="125" y="93" width="1" height="1" fill="#bd5f3f" />
<rect x="131" y="93" width="1" height="1" fill="#bd5f3f" />
<rect x="137" y="93" width="1" height="1" fill="#bd5f3f" />
<rect x="143" y="93" width="1" height="1" fill="#bd5f3f" />
<rect x="149" y="93" width="1" height="1" fill="#bd5f3f" />
<rect x="155" y="93" width="1" height="1" fill="#bd5f3f" />
<rect x="161" y="93" width="1" height="1" fill="#bd5f3f" />
<rect x="167" y="93" width="1" height="1" fill="#bd5f3f" />
<rect x="173" y="93" width="1" height="1" fill="#bd5f3f" />
<rect x="80" y="96" width="1" height="1" fill="#bd5f3f" />
<rect x="86" y="96" width="1" height="1" fill="#bd5f3f" />
<rect x="92" y="96" width="1" height="1" fill="#bd5f3f" />
<rect x="98" y="96" width="1" height="1" fill="#bd5f3f" />
<rect x="104" y="96" width="1" height="1" fill="#bd5f3f" />
<rect x="110" y="96" width="1" height="1" fill="#bd5f3f" />
<rect x="116" y="96" width="1" height="1" fill="#bd5f3f" />
<rect x="122" y="96" width="1" height="1" fill="#bd5f3f" />
<rect x="128" y="96" width="1" height="1" fill="#bd5f3f" />
<rect x="134" y="96" width="1" height="1" fill="#bd5f3f" />
<rect x="140" y="96" width="1" height="1" fill="#bd5f3f" />
<rect x="146" y="96" width="1" height="1" fill="#bd5f3f" />
<rect x="152" y="96" width="1" height="1" fill="#bd5f3f" />
<rect x="158" y="96" width="1" height="1" fill="#bd5f3f" />
<rect x="164" y="96" width="1" height="1" fill="#bd5f3f" />
<rect x="170" y="96" width="1" height="1" fill="#bd5f3f" />
<rect x="83" y="99" width="1" height="1" fill="#bd5f3f" />
<rect x="89" y="99" width="1" height="1" fill="#bd5f3f" />
<rect x="95" y="99" width="1" height="1" fill="#bd5f3f" />
<rect x="101" y="99" width="1" height="1" fill="#bd5f3f" />
<rect x="107" y="99" width="1" height="1" fill="#bd5f3f" />
<rect x="113" y="99" width="1" height="1" fill="#bd5f3f" />
<rect x="119" y="99" width="1" height="1" fill="#bd5f3f" />
<rect x="125" y="99" width="1" height="1" fill="#bd5f3f" />
<rect x="131" y="99" width="1" height="1" fill="#bd5f3f" />
<rect x="137" y="99" width="1" height="1" fill="#bd5f3f" />
<rect x="143" y="99" width="1" height="1" fill="#bd5f3f" />
<rect x="149" y="99" width="1" height="1" fill="#bd5f3f" />
<rect x="155" y="99" width="1" height="1" fill="#bd5f3f" />
<rect x="161" y="99" width="1" height="1" fill="#bd5f3f" />
<rect x="167" y="99" width="1" height="1" fill="#bd5f3f" />
<rect x="173" y="99" width="1" height="1" fill="#bd5f3f" />
<rect x="82" y="111" width="92" height="1" fill="#6d3527" />
<rect x="82" y="118" width="92" height="1" fill="#6d3527" />
<rect x="82" y="125" width="92" height="1" fill="#6d3527" />
<rect x="82" y="132" width="92" height="1" fill="#6d3527" />
<rect x="82" y="139" width="92" height="1" fill="#6d3527" />
<rect x="92" y="97" width="72" height="48" fill="#6d3527" />
<rect x="96" y="103" width="64" height="8" fill="#bd5f3f" />
<rect x="96" y="115" width="64" height="4" fill="#df8765" />
<circle cx="98" cy="129" r="1.2" fill="#df8765" />
<circle cx="108" cy="129" r="1.2" fill="#df8765" />
<circle cx="118" cy="129" r="1.2" fill="#df8765" />
<circle cx="128" cy="129" r="1.2" fill="#df8765" />
<circle cx="138" cy="129" r="1.2" fill="#df8765" />
<circle cx="148" cy="129" r="1.2" fill="#df8765" />
<rect x="54" y="93" width="20" height="84" fill="#0b1320" />
<rect x="55" y="94" width="18" height="82" fill="#6d3527" />
<rect x="55" y="94" width="18" height="1" fill="#df8765" />
<rect x="55" y="94" width="1" height="82" fill="#df8765" />
<rect x="55" y="175" width="18" height="1" fill="#6d3527" />
<rect x="72" y="94" width="1" height="82" fill="#6d3527" />
<rect x="186" y="93" width="20" height="84" fill="#0b1320" />
<rect x="187" y="94" width="18" height="82" fill="#6d3527" />
<rect x="187" y="94" width="18" height="1" fill="#df8765" />
<rect x="187" y="94" width="1" height="82" fill="#df8765" />
<rect x="187" y="175" width="18" height="1" fill="#6d3527" />
<rect x="204" y="94" width="1" height="82" fill="#6d3527" />
<rect x="56" y="107" width="16" height="8" fill="#df8765" />
<rect x="188" y="107" width="16" height="8" fill="#df8765" />
<rect x="56" y="127" width="16" height="8" fill="#df8765" />
<rect x="188" y="127" width="16" height="8" fill="#df8765" />
<rect x="74" y="191" width="44" height="54" fill="#0b1320" />
<rect x="75" y="192" width="42" height="52" fill="#6d3527" />
<rect x="75" y="192" width="42" height="1" fill="#df8765" />
<rect x="75" y="192" width="1" height="52" fill="#df8765" />
<rect x="75" y="243" width="42" height="1" fill="#0b1320" />
<rect x="116" y="192" width="1" height="52" fill="#0b1320" />
<rect x="138" y="197" width="44" height="54" fill="#0b1320" />
<rect x="139" y="198" width="42" height="52" fill="#6d3527" />
<rect x="139" y="198" width="42" height="1" fill="#df8765" />
<rect x="139" y="198" width="1" height="52" fill="#df8765" />
<rect x="139" y="249" width="42" height="1" fill="#0b1320" />
<rect x="180" y="198" width="1" height="52" fill="#0b1320" />
<rect x="78" y="195" width="1" height="1" fill="#bd5f3f" />
<rect x="84" y="195" width="1" height="1" fill="#bd5f3f" />
<rect x="90" y="195" width="1" height="1" fill="#bd5f3f" />
<rect x="96" y="195" width="1" height="1" fill="#bd5f3f" />
<rect x="102" y="195" width="1" height="1" fill="#bd5f3f" />
<rect x="108" y="195" width="1" height="1" fill="#bd5f3f" />
<rect x="81" y="198" width="1" height="1" fill="#bd5f3f" />
<rect x="87" y="198" width="1" height="1" fill="#bd5f3f" />
<rect x="93" y="198" width="1" height="1" fill="#bd5f3f" />
<rect x="99" y="198" width="1" height="1" fill="#bd5f3f" />
<rect x="105" y="198" width="1" height="1" fill="#bd5f3f" />
<rect x="111" y="198" width="1" height="1" fill="#bd5f3f" />
<rect x="78" y="201" width="1" height="1" fill="#bd5f3f" />
<rect x="84" y="201" width="1" height="1" fill="#bd5f3f" />
<rect x="90" y="201" width="1" height="1" fill="#bd5f3f" />
<rect x="96" y="201" width="1" height="1" fill="#bd5f3f" />
<rect x="102" y="201" width="1" height="1" fill="#bd5f3f" />
<rect x="108" y="201" width="1" height="1" fill="#bd5f3f" />
<rect x="81" y="204" width="1" height="1" fill="#bd5f3f" />
<rect x="87" y="204" width="1" height="1" fill="#bd5f3f" />
<rect x="93" y="204" width="1" height="1" fill="#bd5f3f" />
<rect x="99" y="204" width="1" height="1" fill="#bd5f3f" />
<rect x="105" y="204" width="1" height="1" fill="#bd5f3f" />
<rect x="111" y="204" width="1" height="1" fill="#bd5f3f" />
<rect x="78" y="207" width="1" height="1" fill="#bd5f3f" />
<rect x="84" y="207" width="1" height="1" fill="#bd5f3f" />
<rect x="90" y="207" width="1" height="1" fill="#bd5f3f" />
<rect x="96" y="207" width="1" height="1" fill="#bd5f3f" />
<rect x="102" y="207" width="1" height="1" fill="#bd5f3f" />
<rect x="108" y="207" width="1" height="1" fill="#bd5f3f" />
<rect x="81" y="210" width="1" height="1" fill="#bd5f3f" />
<rect x="87" y="210" width="1" height="1" fill="#bd5f3f" />
<rect x="93" y="210" width="1" height="1" fill="#bd5f3f" />
<rect x="99" y="210" width="1" height="1" fill="#bd5f3f" />
<rect x="105" y="210" width="1" height="1" fill="#bd5f3f" />
<rect x="111" y="210" width="1" height="1" fill="#bd5f3f" />
<rect x="78" y="213" width="1" height="1" fill="#bd5f3f" />
<rect x="84" y="213" width="1" height="1" fill="#bd5f3f" />
<rect x="90" y="213" width="1" height="1" fill="#bd5f3f" />
<rect x="96" y="213" width="1" height="1" fill="#bd5f3f" />
<rect x="102" y="213" width="1" height="1" fill="#bd5f3f" />
<rect x="108" y="213" width="1" height="1" fill="#bd5f3f" />
<rect x="81" y="216" width="1" height="1" fill="#bd5f3f" />
<rect x="87" y="216" width="1" height="1" fill="#bd5f3f" />
<rect x="93" y="216" width="1" height="1" fill="#bd5f3f" />
<rect x="99" y="216" width="1" height="1" fill="#bd5f3f" />
<rect x="105" y="216" width="1" height="1" fill="#bd5f3f" />
<rect x="111" y="216" width="1" height="1" fill="#bd5f3f" />
<rect x="78" y="219" width="1" height="1" fill="#bd5f3f" />
<rect x="84" y="219" width="1" height="1" fill="#bd5f3f" />
<rect x="90" y="219" width="1" height="1" fill="#bd5f3f" />
<rect x="96" y="219" width="1" height="1" fill="#bd5f3f" />
<rect x="102" y="219" width="1" height="1" fill="#bd5f3f" />
<rect x="108" y="219" width="1" height="1" fill="#bd5f3f" />
<rect x="81" y="222" width="1" height="1" fill="#bd5f3f" />
<rect x="87" y="222" width="1" height="1" fill="#bd5f3f" />
<rect x="93" y="222" width="1" height="1" fill="#bd5f3f" />
<rect x="99" y="222" width="1" height="1" fill="#bd5f3f" />
<rect x="105" y="222" width="1" height="1" fill="#bd5f3f" />
<rect x="111" y="222" width="1" height="1" fill="#bd5f3f" />
<rect x="78" y="225" width="1" height="1" fill="#bd5f3f" />
<rect x="84" y="225" width="1" height="1" fill="#bd5f3f" />
<rect x="90" y="225" width="1" height="1" fill="#bd5f3f" />
<rect x="96" y="225" width="1" height="1" fill="#bd5f3f" />
<rect x="102" y="225" width="1" height="1" fill="#bd5f3f" />
<rect x="108" y="225" width="1" height="1" fill="#bd5f3f" />
<rect x="81" y="228" width="1" height="1" fill="#bd5f3f" />
<rect x="87" y="228" width="1" height="1" fill="#bd5f3f" />
<rect x="93" y="228" width="1" height="1" fill="#bd5f3f" />
<rect x="99" y="228" width="1" height="1" fill="#bd5f3f" />
<rect x="105" y="228" width="1" height="1" fill="#bd5f3f" />
<rect x="111" y="228" width="1" height="1" fill="#bd5f3f" />
<rect x="78" y="231" width="1" height="1" fill="#bd5f3f" />
<rect x="84" y="231" width="1" height="1" fill="#bd5f3f" />
<rect x="90" y="231" width="1" height="1" fill="#bd5f3f" />
<rect x="96" y="231" width="1" height="1" fill="#bd5f3f" />
<rect x="102" y="231" width="1" height="1" fill="#bd5f3f" />
<rect x="108" y="231" width="1" height="1" fill="#bd5f3f" />
<rect x="145" y="201" width="1" height="1" fill="#bd5f3f" />
<rect x="151" y="201" width="1" height="1" fill="#bd5f3f" />
<rect x="157" y="201" width="1" height="1" fill="#bd5f3f" />
<rect x="163" y="201" width="1" height="1" fill="#bd5f3f" />
<rect x="169" y="201" width="1" height="1" fill="#bd5f3f" />
<rect x="175" y="201" width="1" height="1" fill="#bd5f3f" />
<rect x="142" y="204" width="1" height="1" fill="#bd5f3f" />
<rect x="148" y="204" width="1" height="1" fill="#bd5f3f" />
<rect x="154" y="204" width="1" height="1" fill="#bd5f3f" />
<rect x="160" y="204" width="1" height="1" fill="#bd5f3f" />
<rect x="166" y="204" width="1" height="1" fill="#bd5f3f" />
<rect x="172" y="204" width="1" height="1" fill="#bd5f3f" />
<rect x="145" y="207" width="1" height="1" fill="#bd5f3f" />
<rect x="151" y="207" width="1" height="1" fill="#bd5f3f" />
<rect x="157" y="207" width="1" height="1" fill="#bd5f3f" />
<rect x="163" y="207" width="1" height="1" fill="#bd5f3f" />
<rect x="169" y="207" width="1" height="1" fill="#bd5f3f" />
<rect x="175" y="207" width="1" height="1" fill="#bd5f3f" />
<rect x="142" y="210" width="1" height="1" fill="#bd5f3f" />
<rect x="148" y="210" width="1" height="1" fill="#bd5f3f" />
<rect x="154" y="210" width="1" height="1" fill="#bd5f3f" />
<rect x="160" y="210" width="1" height="1" fill="#bd5f3f" />
<rect x="166" y="210" width="1" height="1" fill="#bd5f3f" />
<rect x="172" y="210" width="1" height="1" fill="#bd5f3f" />
<rect x="145" y="213" width="1" height="1" fill="#bd5f3f" />
<rect x="151" y="213" width="1" height="1" fill="#bd5f3f" />
<rect x="157" y="213" width="1" height="1" fill="#bd5f3f" />
<rect x="163" y="213" width="1" height="1" fill="#bd5f3f" />
<rect x="169" y="213" width="1" height="1" fill="#bd5f3f" />
<rect x="175" y="213" width="1" height="1" fill="#bd5f3f" />
<rect x="142" y="216" width="1" height="1" fill="#bd5f3f" />
<rect x="148" y="216" width="1" height="1" fill="#bd5f3f" />
<rect x="154" y="216" width="1" height="1" fill="#bd5f3f" />
<rect x="160" y="216" width="1" height="1" fill="#bd5f3f" />
<rect x="166" y="216" width="1" height="1" fill="#bd5f3f" />
<rect x="172" y="216" width="1" height="1" fill="#bd5f3f" />
<rect x="145" y="219" width="1" height="1" fill="#bd5f3f" />
<rect x="151" y="219" width="1" height="1" fill="#bd5f3f" />
<rect x="157" y="219" width="1" height="1" fill="#bd5f3f" />
<rect x="163" y="219" width="1" height="1" fill="#bd5f3f" />
<rect x="169" y="219" width="1" height="1" fill="#bd5f3f" />
<rect x="175" y="219" width="1" height="1" fill="#bd5f3f" />
<rect x="142" y="222" width="1" height="1" fill="#bd5f3f" />
<rect x="148" y="222" width="1" height="1" fill="#bd5f3f" />
<rect x="154" y="222" width="1" height="1" fill="#bd5f3f" />
<rect x="160" y="222" width="1" height="1" fill="#bd5f3f" />
<rect x="166" y="222" width="1" height="1" fill="#bd5f3f" />
<rect x="172" y="222" width="1" height="1" fill="#bd5f3f" />
<rect x="145" y="225" width="1" height="1" fill="#bd5f3f" />
<rect x="151" y="225" width="1" height="1" fill="#bd5f3f" />
<rect x="157" y="225" width="1" height="1" fill="#bd5f3f" />
<rect x="163" y="225" width="1" height="1" fill="#bd5f3f" />
<rect x="169" y="225" width="1" height="1" fill="#bd5f3f" />
<rect x="175" y="225" width="1" height="1" fill="#bd5f3f" />
<rect x="142" y="228" width="1" height="1" fill="#bd5f3f" />
<rect x="148" y="228" width="1" height="1" fill="#bd5f3f" />
<rect x="154" y="228" width="1" height="1" fill="#bd5f3f" />
<rect x="160" y="228" width="1" height="1" fill="#bd5f3f" />
<rect x="166" y="228" width="1" height="1" fill="#bd5f3f" />
<rect x="172" y="228" width="1" height="1" fill="#bd5f3f" />
<rect x="145" y="231" width="1" height="1" fill="#bd5f3f" />
<rect x="151" y="231" width="1" height="1" fill="#bd5f3f" />
<rect x="157" y="231" width="1" height="1" fill="#bd5f3f" />
<rect x="163" y="231" width="1" height="1" fill="#bd5f3f" />
<rect x="169" y="231" width="1" height="1" fill="#bd5f3f" />
<rect x="175" y="231" width="1" height="1" fill="#bd5f3f" />
<rect x="142" y="234" width="1" height="1" fill="#bd5f3f" />
<rect x="148" y="234" width="1" height="1" fill="#bd5f3f" />
<rect x="154" y="234" width="1" height="1" fill="#bd5f3f" />
<rect x="160" y="234" width="1" height="1" fill="#bd5f3f" />
<rect x="166" y="234" width="1" height="1" fill="#bd5f3f" />
<rect x="172" y="234" width="1" height="1" fill="#bd5f3f" />
<rect x="145" y="237" width="1" height="1" fill="#bd5f3f" />
<rect x="151" y="237" width="1" height="1" fill="#bd5f3f" />
<rect x="157" y="237" width="1" height="1" fill="#bd5f3f" />
<rect x="163" y="237" width="1" height="1" fill="#bd5f3f" />
<rect x="169" y="237" width="1" height="1" fill="#bd5f3f" />
<rect x="175" y="237" width="1" height="1" fill="#bd5f3f" />
<rect x="184" y="125" width="44" height="16" fill="#0b1320" />
<rect x="185" y="126" width="42" height="14" fill="#d3deee" />
<rect x="185" y="126" width="42" height="1" fill="#f1f7ff" />
<rect x="185" y="126" width="1" height="14" fill="#f1f7ff" />
<rect x="185" y="139" width="42" height="1" fill="#7485a4" />
<rect x="226" y="126" width="1" height="14" fill="#7485a4" />
<rect x="214" y="127" width="16" height="10" fill="#7485a4" />
<rect x="86" y="69" width="84" height="8" fill="#df8765" />
<rect x="88" y="71" width="80" height="2" fill="#0b1320" />
<rect x="114" y="117" width="10" height="6" fill="#142033" />
<rect x="142" y="117" width="10" height="6" fill="#142033" />
<rect x="122" y="123" width="22" height="4" fill="#69ddff" />
</svg>
