<?xml version="1.0" encoding="UTF-8"?>
<svg xmlns="http://www.w3.org/2000/svg" width="256" height="256" viewBox="0 0 256 256" shape-rendering="crispEdges">
<polygon points="98,61 132,57 148,65 148,89 120,95 104,83" fill="#0b1320" />
<polygon points="102,63 130,59 144,67 144,87 120,93 108,81" fill="#cb9975" />
<polygon points="98,55 126,49 144,57 148,67 140,71 108,67" fill="#433846" />
<polygon points="100,69 112,67 110,89 98,85" fill="#6b5c73" />
<polygon points="104,87 112,99 122,95 118,83" fill="#231d26" />
<rect x="112" y="90" width="9" height="7" fill="#996846" />
<rect x="118" y="71" width="8" height="2" fill="#0b1320" />
<rect x="122" y="74" width="6" height="4" fill="#142033" />
<rect x="132" y="75" width="7" height="2" fill="#996846" />
<polygon points="96,105 132,99 156,109 158,155 108,161" fill="#0b1320" />
<polygon points="100,107 130,103 152,111 154,153 110,157" fill="#87555a" />
<rect x="104" y="113" width="26" height="8" fill="#de7a92" />
<rect x="108" y="125" width="34" height="3" fill="#593338" />
<rect x="110" y="135" width="34" height="3" fill="#593338" />
<rect x="106" y="115" width="5" height="18" fill="#cb9975" />
<polygon points="108,105 120,103 134,133 124,135" fill="#4a2a2e" />
<rect x="122" y="139" width="14" height="11" fill="#4a2a2e" />
<polygon points="96,121 108,117 110,153 100,155" fill="#996846" />
<rect x="98" y="127" width="6" height="18" fill="#4a2a2e" />
<rect x="94" y="149" width="9" height="6" fill="#cb9975" />
<polygon points="128,115 142,117 126,121 118,123" fill="#996846" />
<polygon points="134,131 148,131 130,129 124,133" fill="#4a2a2e" />
<rect x="122" y="120" width="7" height="7" fill="#cb9975" />
<rect x="152" y="119" width="7" height="7" fill="#cb9975" />
<rect x="134" y="115" width="70" height="10" fill="#0b1320" />
<rect x="135" y="116" width="68" height="8" fill="#a8b2bf" />
<rect x="135" y="116" width="68" height="1" fill="#f3f8ff" />
<rect x="135" y="116" width="1" height="8" fill="#f3f8ff" />
<rect x="135" y="123" width="68" height="1" fill="#62707c" />
<rect x="202" y="116" width="1" height="8" fill="#62707c" />
<rect x="140" y="117" width="58" height="2" fill="#edf6ff" />
<rect x="124" y="117" width="14" height="6" fill="#62707c" />
<rect x="198" y="117" width="18" height="6" fill="#62707c" />
<rect x="154" y="125" width="10" height="16" fill="#62707c" />
<polygon points="150,125 158,139 168,139 162,125" fill="#62707c" />
<rect x="144" y="123" width="18" height="2" fill="#0b1320" />
<rect x="100" y="159" width="20" height="60" fill="#0b1320" />
<rect x="101" y="160" width="18" height="58" fill="#2b1719" />
<rect x="101" y="160" width="18" height="1" fill="#87555a" />
<rect x="101" y="160" width="1" height="58" fill="#87555a" />
<rect x="101" y="217" width="18" height="1" fill="#4a2a2e" />
<rect x="118" y="160" width="1" height="58" fill="#4a2a2e" />
<rect x="123" y="153" width="22" height="62" fill="#0b1320" />
<rect x="124" y="154" width="20" height="60" fill="#593338" />
<rect x="124" y="154" width="20" height="1" fill="#87555a" />
<rect x="124" y="154" width="1" height="60" fill="#87555a" />
<rect x="124" y="213" width="20" height="1" fill="#4a2a2e" />
<rect x="143" y="154" width="1" height="60" fill="#4a2a2e" />
<rect x="102" y="165" width="1" height="1" fill="#4a2a2e" />
<rect x="108" y="165" width="1" height="1" fill="#4a2a2e" />
<rect x="114" y="165" width="1" height="1" fill="#4a2a2e" />
<rect x="105" y="168" width="1" height="1" fill="#4a2a2e" />
<rect x="111" y="168" width="1" height="1" fill="#4a2a2e" />
<rect x="102" y="171" width="1" height="1" fill="#4a2a2e" />
<rect x="108" y="171" width="1" height="1" fill="#4a2a2e" />
<rect x="114" y="171" width="1" height="1" fill="#4a2a2e" />
<rect x="105" y="174" width="1" height="1" fill="#4a2a2e" />
<rect x="111" y="174" width="1" height="1" fill="#4a2a2e" />
<rect x="102" y="177" width="1" height="1" fill="#4a2a2e" />
<rect x="108" y="177" width="1" height="1" fill="#4a2a2e" />
<rect x="114" y="177" width="1" height="1" fill="#4a2a2e" />
<rect x="105" y="180" width="1" height="1" fill="#4a2a2e" />
<rect x="111" y="180" width="1" height="1" fill="#4a2a2e" />
<rect x="102" y="183" width="1" height="1" fill="#4a2a2e" />
<rect x="108" y="183" width="1" height="1" fill="#4a2a2e" />
<rect x="114" y="183" width="1" height="1" fill="#4a2a2e" />
<rect x="105" y="186" width="1" height="1" fill="#4a2a2e" />
<rect x="111" y="186" width="1" height="1" fill="#4a2a2e" />
<rect x="102" y="189" width="1" height="1" fill="#4a2a2e" />
<rect x="108" y="189" width="1" height="1" fill="#4a2a2e" />
<rect x="114" y="189" width="1" height="1" fill="#4a2a2e" />
<rect x="105" y="192" width="1" height="1" fill="#4a2a2e" />
<rect x="111" y="192" width="1" height="1" fill="#4a2a2e" />
<rect x="102" y="195" width="1" height="1" fill="#4a2a2e" />
<rect x="108" y="195" width="1" height="1" fill="#4a2a2e" />
<rect x="114" y="195" width="1" height="1" fill="#4a2a2e" />
<rect x="105" y="198" width="1" height="1" fill="#4a2a2e" />
<rect x="111" y="198" width="1" height="1" fill="#4a2a2e" />
<rect x="102" y="201" width="1" height="1" fill="#4a2a2e" />
<rect x="108" y="201" width="1" height="1" fill="#4a2a2e" />
<rect x="114" y="201" width="1" height="1" fill="#4a2a2e" />
<rect x="105" y="204" width="1" height="1" fill="#4a2a2e" />
<rect x="111" y="204" width="1" height="1" fill="#4a2a2e" />
<rect x="130" y="159" width="1" height="1" fill="#4a2a2e" />
<rect x="136" y="159" width="1" height="1" fill="#4a2a2e" />
<rect x="127" y="162" width="1" height="1" fill="#4a2a2e" />
<rect x="133" y="162" width="1" height="1" fill="#4a2a2e" />
<rect x="139" y="162" width="1" height="1" fill="#4a2a2e" />
<rect x="130" y="165" width="1" height="1" fill="#4a2a2e" />
<rect x="136" y="165" width="1" height="1" fill="#4a2a2e" />
<rect x="127" y="168" width="1" height="1" fill="#4a2a2e" />
<rect x="133" y="168" width="1" height="1" fill="#4a2a2e" />
<rect x="139" y="168" width="1" height="1" fill="#4a2a2e" />
<rect x="130" y="171" width="1" height="1" fill="#4a2a2e" />
<rect x="136" y="171" width="1" height="1" fill="#4a2a2e" />
<rect x="127" y="174" width="1" height="1" fill="#4a2a2e" />
<rect x="133" y="174" width="1" height="1" fill="#4a2a2e" />
<rect x="139" y="174" width="1" height="1" fill="#4a2a2e" />
<rect x="130" y="177" width="1" height="1" fill="#4a2a2e" />
<rect x="136" y="177" width="1" height="1" fill="#4a2a2e" />
<rect x="127" y="180" width="1" height="1" fill="#4a2a2e" />
<rect x="133" y="180" width="1" height="1" fill="#4a2a2e" />
<rect x="139" y="180" width="1" height="1" fill="#4a2a2e" />
<rect x="130" y="183" width="1" height="1" fill="#4a2a2e" />
<rect x="136" y="183" width="1" height="1" fill="#4a2a2e" />
<rect x="127" y="186" width="1" height="1" fill="#4a2a2e" />
<rect x="133" y="186" width="1" height="1" fill="#4a2a2e" />
<rect x="139" y="186" width="1" height="1" fill="#4a2a2e" />
<rect x="130" y="189" width="1" height="1" fill="#4a2a2e" />
<rect x="136" y="189" width="1" height="1" fill="#4a2a2e" />
<rect x="127" y="192" width="1" height="1" fill="#4a2a2e" />
<rect x="133" y="192" width="1" height="1" fill="#4a2a2e" />
<rect x="139" y="192" width="1" height="1" fill="#4a2a2e" />
<rect x="130" y="195" width="1" height="1" fill="#4a2a2e" />
<rect x="136" y="195" width="1" height="1" fill="#4a2a2e" />
<rect x="127" y="198" width="1" height="1" fill="#4a2a2e" />
<rect x="133" y="198" width="1" height="1" fill="#4a2a2e" />
<rect x="139" y="198" width="1" height="1" fill="#4a2a2e" />
<rect x="98" y="236" width="34" height="12" fill="#0b1320" />
<rect x="99" y="237" width="32" height="10" fill="#231d26" />
<rect x="99" y="237" width="32" height="1" fill="#4a2a2e" />
<rect x="99" y="237" width="1" height="10" fill="#4a2a2e" />
<rect x="99" y="246" width="32" height="1" fill="#0b1320" />
<rect x="130" y="237" width="1" height="10" fill="#0b1320" />
<rect x="121" y="236" width="38" height="12" fill="#0b1320" />
<rect x="122" y="237" width="36" height="10" fill="#231d26" />
<rect x="122" y="237" width="36" height="1" fill="#4a2a2e" />
<rect x="122" y="237" width="1" height="10" fill="#4a2a2e" />
<rect x="122" y="246" width="36" height="1" fill="#0b1320" />
<rect x="157" y="237" width="1" height="10" fill="#0b1320" />
</svg>
