<?xml version="1.0" encoding="UTF-8"?>
<svg xmlns="http://www.w3.org/2000/svg" width="256" height="256" viewBox="0 0 256 256" shape-rendering="crispEdges">
<rect x="66" y="74" width="124" height="122" fill="#0b1320" />
<rect x="67" y="75" width="122" height="120" fill="#a0735f" />
<rect x="67" y="75" width="122" height="1" fill="#be8c73" />
<rect x="67" y="75" width="1" height="120" fill="#be8c73" />
<rect x="67" y="194" width="122" height="1" fill="#55382f" />
<rect x="188" y="75" width="1" height="120" fill="#55382f" />
<rect x="76" y="86" width="104" height="18" fill="#be8c73" />
<rect x="83" y="88" width="1" height="1" fill="#a0735f" />
<rect x="89" y="88" width="1" height="1" fill="#a0735f" />
<rect x="95" y="88" width="1" height="1" fill="#a0735f" />
<rect x="101" y="88" width="1" height="1" fill="#a0735f" />
<rect x="107" y="88" width="1" height="1" fill="#a0735f" />
<rect x="113" y="88" width="1" height="1" fill="#a0735f" />
<rect x="119" y="88" width="1" height="1" fill="#a0735f" />
<rect x="125" y="88" width="1" height="1" fill="#a0735f" />
<rect x="131" y="88" width="1" height="1" fill="#a0735f" />
<rect x="137" y="88" width="1" height="1" fill="#a0735f" />
<rect x="143" y="88" width="1" height="1" fill="#a0735f" />
<rect x="149" y="88" width="1" height="1" fill="#a0735f" />
<rect x="155" y="88" width="1" height="1" fill="#a0735f" />
<rect x="161" y="88" width="1" height="1" fill="#a0735f" />
<rect x="167" y="88" width="1" height="1" fill="#a0735f" />
<rect x="173" y="88" width="1" height="1" fill="#a0735f" />
<rect x="80" y="91" width="1" height="1" fill="#a0735f" />
<rect x="86" y="91" width="1" height="1" fill="#a0735f" />
<rect x="92" y="91" width="1" height="1" fill="#a0735f" />
<rect x="98" y="91" width="1" height="1" fill="#a0735f" />
<rect x="104" y="91" width="1" height="1" fill="#a0735f" />
<rect x="110" y="91" width="1" height="1" fill="#a0735f" />
<rect x="116" y="91" width="1" height="1" fill="#a0735f" />
<rect x="122" y="91" width="1" height="1" fill="#a0735f" />
<rect x="128" y="91" width="1" height="1" fill="#a0735f" />
<rect x="134" y="91" width="1" height="1" fill="#a0735f" />
<rect x="140" y="91" width="1" height="1" fill="#a0735f" />
<rect x="146" y="91" width="1" height="1" fill="#a0735f" />
<rect x="152" y="91" width="1" height="1" fill="#a0735f" />
<rect x="158" y="91" width="1" height="1" fill="#a0735f" />
<rect x="164" y="91" width="1" height="1" fill="#a0735f" />
<rect x="170" y="91" width="1" height="1" fill="#a0735f" />
<rect x="83" y="94" width="1" height="1" fill="#a0735f" />
<rect x="89" y="94" width="1" height="1" fill="#a0735f" />
<rect x="95" y="94" width="1" height="1" fill="#a0735f" />
<rect x="101" y="94" width="1" height="1" fill="#a0735f" />
<rect x="107" y="94" width="1" height="1" fill="#a0735f" />
<rect x="113" y="94" width="1" height="1" fill="#a0735f" />
<rect x="119" y="94" width="1" height="1" fill="#a0735f" />
<rect x="125" y="94" width="1" height="1" fill="#a0735f" />
<rect x="131" y="94" width="1" height="1" fill="#a0735f" />
<rect x="137" y="94" width="1" height="1" fill="#a0735f" />
<rect x="143" y="94" width="1" height="1" fill="#a0735f" />
<rect x="149" y="94" width="1" height="1" fill="#a0735f" />
<rect x="155" y="94" width="1" height="1" fill="#a0735f" />
<rect x="161" y="94" width="1" height="1" fill="#a0735f" />
<rect x="167" y="94" width="1" height="1" fill="#a0735f" />
<rect x="173" y="94" width="1" height="1" fill="#a0735f" />
<rect x="80" y="97" width="1" height="1" fill="#a0735f" />
<rect x="86" y="97" width="1" height="1" fill="#a0735f" />
<rect x="92" y="97" width="1" height="1" fill="#a0735f" />
<rect x="98" y="97" width="1" height="1" fill="#a0735f" />
<rect x="104" y="97" width="1" height="1" fill="#a0735f" />
<rect x="110" y="97" width="1" height="1" fill="#a0735f" />
<rect x="116" y="97" width="1" height="1" fill="#a0735f" />
<rect x="122" y="97" width="1" height="1" fill="#a0735f" />
<rect x="128" y="97" width="1" height="1" fill="#a0735f" />
<rect x="134" y="97" width="1" height="1" fill="#a0735f" />
<rect x="140" y="97" width="1" height="1" fill="#a0735f" />
<rect x="146" y="97" width="1" height="1" fill="#a0735f" />
<rect x="152" y="97" width="1" height="1" fill="#a0735f" />
<rect x="158" y="97" width="1" height="1" fill="#a0735f" />
<rect x="164" y="97" width="1" height="1" fill="#a0735f" />
<rect x="170" y="97" width="1" height="1" fill="#a0735f" />
<rect x="83" y="100" width="1" height="1" fill="#a0735f" />
<rect x="89" y="100" width="1" height="1" fill="#a0735f" />
<rect x="95" y="100" width="1" height="1" fill="#a0735f" />
<rect x="101" y="100" width="1" height="1" fill="#a0735f" />
<rect x="107" y="100" width="1" height="1" fill="#a0735f" />
<rect x="113" y="100" width="1" height="1" fill="#a0735f" />
<rect x="119" y="100" width="1" height="1" fill="#a0735f" />
<rect x="125" y="100" width="1" height="1" fill="#a0735f" />
<rect x="131" y="100" width="1" height="1" fill="#a0735f" />
<rect x="137" y="100" width="1" height="1" fill="#a0735f" />
<rect x="143" y="100" width="1" height="1" fill="#a0735f" />
<rect x="149" y="100" width="1" height="1" fill="#a0735f" />
<rect x="155" y="100" width="1" height="1" fill="#a0735f" />
<rect x="161" y="100" width="1" height="1" fill="#a0735f" />
<rect x="167" y="100" width="1" height="1" fill="#a0735f" />
<rect x="173" y="100" width="1" height="1" fill="#a0735f" />
<rect x="82" y="112" width="92" height="1" fill="#55382f" />
<rect x="82" y="119" width="92" height="1" fill="#55382f" />
<rect x="82" y="126" width="92" height="1" fill="#55382f" />
<rect x="82" y="133" width="92" height="1" fill="#55382f" />
<rect x="82" y="140" width="92" height="1" fill="#55382f" />
<rect x="92" y="98" width="72" height="48" fill="#55382f" />
<rect x="96" y="104" width="64" height="8" fill="#a0735f" />
<rect x="96" y="116" width="64" height="4" fill="#be8c73" />
<circle cx="98" cy="130" r="1.2" fill="#be8c73" />
<circle cx="108" cy="130" r="1.2" fill="#be8c73" />
<circle cx="118" cy="130" r="1.2" fill="#be8c73" />
<circle cx="128" cy="130" r="1.2" fill="#be8c73" />
<circle cx="138" cy="130" r="1.2" fill="#be8c73" />
<circle cx="148" cy="130" r="1.2" fill="#be8c73" />
<rect x="54" y="94" width="20" height="84" fill="#0b1320" />
<rect x="55" y="95" width="18" height="82" fill="#55382f" />
<rect x="55" y="95" width="18" height="1" fill="#be8c73" />
<rect x="55" y="95" width="1" height="82" fill="#be8c73" />
<rect x="55" y="176" width="18" height="1" fill="#55382f" />
<rect x="72" y="95" width="1" height="82" fill="#55382f" />
<rect x="186" y="94" width="20" height="84" fill="#0b1320" />
<rect x="187" y="95" width="18" height="82" fill="#55382f" />
<rect x="187" y="95" width="18" height="1" fill="#be8c73" />
<rect x="187" y="95" width="1" height="82" fill="#be8c73" />
<rect x="187" y="176" width="18" height="1" fill="#55382f" />
<rect x="204" y="95" width="1" height="82" fill="#55382f" />
<rect x="56" y="108" width="16" height="8" fill="#be8c73" />
<rect x="188" y="108" width="16" height="8" fill="#be8c73" />
<rect x="56" y="128" width="16" height="8" fill="#be8c73" />
<rect x="188" y="128" width="16" height="8" fill="#be8c73" />
<rect x="74" y="188" width="44" height="54" fill="#0b1320" />
<rect x="75" y="189" width="42" height="52" fill="#55382f" />
<rect x="75" y="189" width="42" height="1" fill="#be8c73" />
<rect x="75" y="189" width="1" height="52" fill="#be8c73" />
<rect x="75" y="240" width="42" height="1" fill="#0b1320" />
<rect x="116" y="189" width="1" height="52" fill="#0b1320" />
<rect x="138" y="200" width="44" height="54" fill="#0b1320" />
<rect x="139" y="201" width="42" height="52" fill="#55382f" />
<rect x="139" y="201" width="42" height="1" fill="#be8c73" />
<rect x="139" y="201" width="1" height="52" fill="#be8c73" />
<rect x="139" y="252" width="42" height="1" fill="#0b1320" />
<rect x="180" y="201" width="1" height="52" fill="#0b1320" />
<rect x="78" y="192" width="1" height="1" fill="#a0735f" />
<rect x="84" y="192" width="1" height="1" fill="#a0735f" />
<rect x="90" y="192" width="1" height="1" fill="#a0735f" />
<rect x="96" y="192" width="1" height="1" fill="#a0735f" />
<rect x="102" y="192" width="1" height="1" fill="#a0735f" />
<rect x="108" y="192" width="1" height="1" fill="#a0735f" />
<rect x="81" y="195" width="1" height="1" fill="#a0735f" />
<rect x="87" y="195" width="1" height="1" fill="#a0735f" />
<rect x="93" y="195" width="1" height="1" fill="#a0735f" />
<rect x="99" y="195" width="1" height="1" fill="#a0735f" />
<rect x="105" y="195" width="1" height="1" fill="#a0735f" />
<rect x="111" y="195" width="1" height="1" fill="#a0735f" />
<rect x="78" y="198" width="1" height="1" fill="#a0735f" />
<rect x="84" y="198" width="1" height="1" fill="#a0735f" />
<rect x="90" y="198" width="1" height="1" fill="#a0735f" />
<rect x="96" y="198" width="1" height="1" fill="#a0735f" />
<rect x="102" y="198" width="1" height="1" fill="#a0735f" />
<rect x="108" y="198" width="1" height="1" fill="#a0735f" />
<rect x="81" y="201" width="1" height="1" fill="#a0735f" />
<rect x="87" y="201" width="1" height="1" fill="#a0735f" />
<rect x="93" y="201" width="1" height="1" fill="#a0735f" />
<rect x="99" y="201" width="1" height="1" fill="#a0735f" />
<rect x="105" y="201" width="1" height="1" fill="#a0735f" />
<rect x="111" y="201" width="1" height="1" fill="#a0735f" />
<rect x="78" y="204" width="1" height="1" fill="#a0735f" />
<rect x="84" y="204" width="1" height="1" fill="#a0735f" />
<rect x="90" y="204" width="1" height="1" fill="#a0735f" />
<rect x="96" y="204" width="1" height="1" fill="#a0735f" />
<rect x="102" y="204" width="1" height="1" fill="#a0735f" />
<rect x="108" y="204" width="1" height="1" fill="#a0735f" />
<rect x="81" y="207" width="1" height="1" fill="#a0735f" />
<rect x="87" y="207" width="1" height="1" fill="#a0735f" />
<rect x="93" y="207" width="1" height="1" fill="#a0735f" />
<rect x="99" y="207" width="1" height="1" fill="#a0735f" />
<rect x="105" y="207" width="1" height="1" fill="#a0735f" />
<rect x="111" y="207" width="1" height="1" fill="#a0735f" />
<rect x="78" y="210" width="1" height="1" fill="#a0735f" />
<rect x="84" y="210" width="1" height="1" fill="#a0735f" />
<rect x="90" y="210" width="1" height="1" fill="#a0735f" />
<rect x="96" y="210" width="1" height="1" fill="#a0735f" />
<rect x="102" y="210" width="1" height="1" fill="#a0735f" />
<rect x="108" y="210" width="1" height="1" fill="#a0735f" />
<rect x="81" y="213" width="1" height="1" fill="#a0735f" />
<rect x="87" y="213" width="1" height="1" fill="#a0735f" />
<rect x="93" y="213" width="1" height="1" fill="#a0735f" />
<rect x="99" y="213" width="1" height="1" fill="#a0735f" />
<rect x="105" y="213" width="1" height="1" fill="#a0735f" />
<rect x="111" y="213" width="1" height="1" fill="#a0735f" />
<rect x="78" y="216" width="1" height="1" fill="#a0735f" />
<rect x="84" y="216" width="1" height="1" fill="#a0735f" />
<rect x="90" y="216" width="1" height="1" fill="#a0735f" />
<rect x="96" y="216" width="1" height="1" fill="#a0735f" />
<rect x="102" y="216" width="1" height="1" fill="#a0735f" />
<rect x="108" y="216" width="1" height="1" fill="#a0735f" />
<rect x="81" y="219" width="1" height="1" fill="#a0735f" />
<rect x="87" y="219" width="1" height="1" fill="#a0735f" />
<rect x="93" y="219" width="1" height="1" fill="#a0735f" />
<rect x="99" y="219" width="1" height="1" fill="#a0735f" />
<rect x="105" y="219" width="1" height="1" fill="#a0735f" />
<rect x="111" y="219" width="1" height="1" fill="#a0735f" />
<rect x="78" y="222" width="1" height="1" fill="#a0735f" />
<rect x="84" y="222" width="1" height="1" fill="#a0735f" />
<rect x="90" y="222" width="1" height="1" fill="#a0735f" />
<rect x="96" y="222" width="1" height="1" fill="#a0735f" />
<rect x="102" y="222" width="1" height="1" fill="#a0735f" />
<rect x="108" y="222" width="1" height="1" fill="#a0735f" />
<rect x="81" y="225" width="1" height="1" fill="#a0735f" />
<rect x="87" y="225" width="1" height="1" fill="#a0735f" />
<rect x="93" y="225" width="1" height="1" fill="#a0735f" />
<rect x="99" y="225" width="1" height="1" fill="#a0735f" />
<rect x="105" y="225" width="1" height="1" fill="#a0735f" />
<rect x="111" y="225" width="1" height="1" fill="#a0735f" />
<rect x="78" y="228" width="1" height="1" fill="#a0735f" />
<rect x="84" y="228" width="1" height="1" fill="#a0735f" />
<rect x="90" y="228" width="1" height="1" fill="#a0735f" />
<rect x="96" y="228" width="1" height="1" fill="#a0735f" />
<rect x="102" y="228" width="1" height="1" fill="#a0735f" />
<rect x="108" y="228" width="1" height="1" fill="#a0735f" />
<rect x="145" y="204" width="1" height="1" fill="#a0735f" />
<rect x="151" y="204" width="1" height="1" fill="#a0735f" />
<rect x="157" y="204" width="1" height="1" fill="#a0735f" />
<rect x="163" y="204" width="1" height="1" fill="#a0735f" />
<rect x="169" y="204" width="1" height="1" fill="#a0735f" />
<rect x="175" y="204" width="1" height="1" fill="#a0735f" />
<rect x="142" y="207" width="1" height="1" fill="#a0735f" />
<rect x="148" y="207" width="1" height="1" fill="#a0735f" />
<rect x="154" y="207" width="1" height="1" fill="#a0735f" />
<rect x="160" y="207" width="1" height="1" fill="#a0735f" />
<rect x="166" y="207" width="1" height="1" fill="#a0735f" />
<rect x="172" y="207" width="1" height="1" fill="#a0735f" />
<rect x="145" y="210" width="1" height="1" fill="#a0735f" />
<rect x="151" y="210" width="1" height="1" fill="#a0735f" />
<rect x="157" y="210" width="1" height="1" fill="#a0735f" />
<rect x="163" y="210" width="1" height="1" fill="#a0735f" />
<rect x="169" y="210" width="1" height="1" fill="#a0735f" />
<rect x="175" y="210" width="1" height="1" fill="#a0735f" />
<rect x="142" y="213" width="1" height="1" fill="#a0735f" />
<rect x="148" y="213" width="1" height="1" fill="#a0735f" />
<rect x="154" y="213" width="1" height="1" fill="#a0735f" />
<rect x="160" y="213" width="1" height="1" fill="#a0735f" />
<rect x="166" y="213" width="1" height="1" fill="#a0735f" />
<rect x="172" y="213" width="1" height="1" fill="#a0735f" />
<rect x="145" y="216" width="1" height="1" fill="#a0735f" />
<rect x="151" y="216" width="1" height="1" fill="#a0735f" />
<rect x="157" y="216" width="1" height="1" fill="#a0735f" />
<rect x="163" y="216" width="1" height="1" fill="#a0735f" />
<rect x="169" y="216" width="1" height="1" fill="#a0735f" />
<rect x="175" y="216" width="1" height="1" fill="#a0735f" />
<rect x="142" y="219" width="1" height="1" fill="#a0735f" />
<rect x="148" y="219" width="1" height="1" fill="#a0735f" />
<rect x="154" y="219" width="1" height="1" fill="#a0735f" />
<rect x="160" y="219" width="1" height="1" fill="#a0735f" />
<rect x="166" y="219" width="1" height="1" fill="#a0735f" />
<rect x="172" y="219" width="1" height="1" fill="#a0735f" />
<rect x="145" y="222" width="1" height="1" fill="#a0735f" />
<rect x="151" y="222" width="1" height="1" fill="#a0735f" />
<rect x="157" y="222" width="1" height="1" fill="#a0735f" />
<rect x="163" y="222" width="1" height="1" fill="#a0735f" />
<rect x="169" y="222" width="1" height="1" fill="#a0735f" />
<rect x="175" y="222" width="1" height="1" fill="#a0735f" />
<rect x="142" y="225" width="1" height="1" fill="#a0735f" />
<rect x="148" y="225" width="1" height="1" fill="#a0735f" />
<rect x="154" y="225" width="1" height="1" fill="#a0735f" />
<rect x="160" y="225" width="1" height="1" fill="#a0735f" />
<rect x="166" y="225" width="1" height="1" fill="#a0735f" />
<rect x="172" y="225" width="1" height="1" fill="#a0735f" />
<rect x="145" y="228" width="1" height="1" fill="#a0735f" />
<rect x="151" y="228" width="1" height="1" fill="#a0735f" />
<rect x="157" y="228" width="1" height="1" fill="#a0735f" />
<rect x="163" y="228" width="1" height="1" fill="#a0735f" />
<rect x="169" y="228" width="1" height="1" fill="#a0735f" />
<rect x="175" y="228" width="1" height="1" fill="#a0735f" />
<rect x="142" y="231" width="1" height="1" fill="#a0735f" />
<rect x="148" y="231" width="1" height="1" fill="#a0735f" />
<rect x="154" y="231" width="1" height="1" fill="#a0735f" />
<rect x="160" y="231" width="1" height="1" fill="#a0735f" />
<rect x="166" y="231" width="1" height="1" fill="#a0735f" />
<rect x="172" y="231" width="1" height="1" fill="#a0735f" />
<rect x="145" y="234" width="1" height="1" fill="#a0735f" />
<rect x="151" y="234" width="1" height="1" fill="#a0735f" />
<rect x="157" y="234" width="1" height="1" fill="#a0735f" />
<rect x="163" y="234" width="1" height="1" fill="#a0735f" />
<rect x="169" y="234" width="1" height="1" fill="#a0735f" />
<rect x="175" y="234" width="1" height="1" fill="#a0735f" />
<rect x="142" y="237" width="1" height="1" fill="#a0735f" />
<rect x="148" y="237" width="1" height="1" fill="#a0735f" />
<rect x="154" y="237" width="1" height="1" fill="#a0735f" />
<rect x="160" y="237" width="1" height="1" fill="#a0735f" />
<rect x="166" y="237" width="1" height="1" fill="#a0735f" />
<rect x="172" y="237" width="1" height="1" fill="#a0735f" />
<rect x="145" y="240" width="1" height="1" fill="#a0735f" />
<rect x="151" y="240" width="1" height="1" fill="#a0735f" />
<rect x="157" y="240" width="1" height="1" fill="#a0735f" />
<rect x="163" y="240" width="1" height="1" fill="#a0735f" />
<rect x="169" y="240" width="1" height="1" fill="#a0735f" />
<rect x="175" y="240" width="1" height="1" fill="#a0735f" />
<rect x="184" y="126" width="44" height="16" fill="#0b1320" />
<rect x="185" y="127" width="42" height="14" fill="#a8b2bf" />
<rect x="185" y="127" width="42" height="1" fill="#f1f7ff" />
<rect x="185" y="127" width="1" height="14" fill="#f1f7ff" />
<rect x="185" y="140" width="42" height="1" fill="#62707c" />
<rect x="226" y="127" width="1" height="14" fill="#62707c" />
<rect x="214" y="128" width="16" height="10" fill="#62707c" />
<rect x="86" y="70" width="84" height="8" fill="#be8c73" />
<rect x="88" y="72" width="80" height="2" fill="#0b1320" />
<rect x="114" y="118" width="10" height="6" fill="#142033" />
<rect x="142" y="118" width="10" height="6" fill="#142033" />
<rect x="122" y="124" width="22" height="4" fill="#91afba" />
</svg>
