<?xml version="1.0" encoding="UTF-8"?>
<svg xmlns="http://www.w3.org/2000/svg" width="256" height="256" viewBox="0 0 256 256" shape-rendering="crispEdges">
<polygon points="98,63 132,59 148,67 148,91 120,97 104,85" fill="#0b1320" />
<polygon points="102,65 130,61 144,69 144,89 120,95 108,83" fill="#cb9975" />
<polygon points="98,57 126,51 144,59 148,69 140,73 108,69" fill="#433846" />
<polygon points="100,71 112,69 110,91 98,87" fill="#6b5c73" />
<polygon points="104,89 112,101 122,97 118,85" fill="#231d26" />
<rect x="112" y="92" width="9" height="7" fill="#996846" />
<rect x="118" y="73" width="8" height="2" fill="#0b1320" />
<rect x="122" y="76" width="6" height="4" fill="#142033" />
<rect x="132" y="77" width="7" height="2" fill="#996846" />
<polygon points="96,107 132,101 156,111 158,157 108,163" fill="#0b1320" />
<polygon points="100,109 130,105 152,113 154,155 110,159" fill="#87555a" />
<rect x="104" y="115" width="26" height="8" fill="#de7a92" />
<rect x="108" y="127" width="34" height="3" fill="#593338" />
<rect x="110" y="137" width="34" height="3" fill="#593338" />
<rect x="106" y="117" width="5" height="18" fill="#cb9975" />
<polygon points="108,107 120,105 134,135 124,137" fill="#4a2a2e" />
<rect x="122" y="141" width="14" height="11" fill="#4a2a2e" />
<polygon points="96,123 108,119 110,155 100,157" fill="#996846" />
<rect x="98" y="129" width="6" height="18" fill="#4a2a2e" />
<rect x="94" y="151" width="9" height="6" fill="#cb9975" />
<polygon points="128,117 142,119 126,123 118,125" fill="#996846" />
<polygon points="134,133 148,133 130,131 124,135" fill="#4a2a2e" />
<rect x="122" y="122" width="7" height="7" fill="#cb9975" />
<rect x="152" y="121" width="7" height="7" fill="#cb9975" />
<rect x="134" y="117" width="70" height="10" fill="#0b1320" />
<rect x="135" y="118" width="68" height="8" fill="#a8b2bf" />
<rect x="135" y="118" width="68" height="1" fill="#f3f8ff" />
<rect x="135" y="118" width="1" height="8" fill="#f3f8ff" />
<rect x="135" y="125" width="68" height="1" fill="#62707c" />
<rect x="202" y="118" width="1" height="8" fill="#62707c" />
<rect x="140" y="119" width="58" height="2" fill="#edf6ff" />
<rect x="124" y="119" width="14" height="6" fill="#62707c" />
<rect x="198" y="119" width="18" height="6" fill="#62707c" />
<rect x="154" y="127" width="10" height="16" fill="#62707c" />
<polygon points="150,127 158,141 168,141 162,127" fill="#62707c" />
<rect x="144" y="125" width="18" height="2" fill="#0b1320" />
<rect x="101" y="163" width="20" height="60" fill="#0b1320" />
<rect x="102" y="164" width="18" height="58" fill="#2b1719" />
<rect x="102" y="164" width="18" height="1" fill="#87555a" />
<rect x="102" y="164" width="1" height="58" fill="#87555a" />
<rect x="102" y="221" width="18" height="1" fill="#4a2a2e" />
<rect x="119" y="164" width="1" height="58" fill="#4a2a2e" />
<rect x="121" y="157" width="22" height="62" fill="#0b1320" />
<rect x="122" y="158" width="20" height="60" fill="#593338" />
<rect x="122" y="158" width="20" height="1" fill="#87555a" />
<rect x="122" y="158" width="1" height="60" fill="#87555a" />
<rect x="122" y="217" width="20" height="1" fill="#4a2a2e" />
<rect x="141" y="158" width="1" height="60" fill="#4a2a2e" />
<rect x="103" y="169" width="1" height="1" fill="#4a2a2e" />
<rect x="109" y="169" width="1" height="1" fill="#4a2a2e" />
<rect x="115" y="169" width="1" height="1" fill="#4a2a2e" />
<rect x="106" y="172" width="1" height="1" fill="#4a2a2e" />
<rect x="112" y="172" width="1" height="1" fill="#4a2a2e" />
<rect x="103" y="175" width="1" height="1" fill="#4a2a2e" />
<rect x="109" y="175" width="1" height="1" fill="#4a2a2e" />
<rect x="115" y="175" width="1" height="1" fill="#4a2a2e" />
<rect x="106" y="178" width="1" height="1" fill="#4a2a2e" />
<rect x="112" y="178" width="1" height="1" fill="#4a2a2e" />
<rect x="103" y="181" width="1" height="1" fill="#4a2a2e" />
<rect x="109" y="181" width="1" height="1" fill="#4a2a2e" />
<rect x="115" y="181" width="1" height="1" fill="#4a2a2e" />
<rect x="106" y="184" width="1" height="1" fill="#4a2a2e" />
<rect x="112" y="184" width="1" height="1" fill="#4a2a2e" />
<rect x="103" y="187" width="1" height="1" fill="#4a2a2e" />
<rect x="109" y="187" width="1" height="1" fill="#4a2a2e" />
<rect x="115" y="187" width="1" height="1" fill="#4a2a2e" />
<rect x="106" y="190" width="1" height="1" fill="#4a2a2e" />
<rect x="112" y="190" width="1" height="1" fill="#4a2a2e" />
<rect x="103" y="193" width="1" height="1" fill="#4a2a2e" />
<rect x="109" y="193" width="1" height="1" fill="#4a2a2e" />
<rect x="115" y="193" width="1" height="1" fill="#4a2a2e" />
<rect x="106" y="196" width="1" height="1" fill="#4a2a2e" />
<rect x="112" y="196" width="1" height="1" fill="#4a2a2e" />
<rect x="103" y="199" width="1" height="1" fill="#4a2a2e" />
<rect x="109" y="199" width="1" height="1" fill="#4a2a2e" />
<rect x="115" y="199" width="1" height="1" fill="#4a2a2e" />
<rect x="106" y="202" width="1" height="1" fill="#4a2a2e" />
<rect x="112" y="202" width="1" height="1" fill="#4a2a2e" />
<rect x="103" y="205" width="1" height="1" fill="#4a2a2e" />
<rect x="109" y="205" width="1" height="1" fill="#4a2a2e" />
<rect x="115" y="205" width="1" height="1" fill="#4a2a2e" />
<rect x="106" y="208" width="1" height="1" fill="#4a2a2e" />
<rect x="112" y="208" width="1" height="1" fill="#4a2a2e" />
<rect x="128" y="163" width="1" height="1" fill="#4a2a2e" />
<rect x="134" y="163" width="1" height="1" fill="#4a2a2e" />
<rect x="125" y="166" width="1" height="1" fill="#4a2a2e" />
<rect x="131" y="166" width="1" height="1" fill="#4a2a2e" />
<rect x="137" y="166" width="1" height="1" fill="#4a2a2e" />
<rect x="128" y="169" width="1" height="1" fill="#4a2a2e" />
<rect x="134" y="169" width="1" height="1" fill="#4a2a2e" />
<rect x="125" y="172" width="1" height="1" fill="#4a2a2e" />
<rect x="131" y="172" width="1" height="1" fill="#4a2a2e" />
<rect x="137" y="172" width="1" height="1" fill="#4a2a2e" />
<rect x="128" y="175" width="1" height="1" fill="#4a2a2e" />
<rect x="134" y="175" width="1" height="1" fill="#4a2a2e" />
<rect x="125" y="178" width="1" height="1" fill="#4a2a2e" />
<rect x="131" y="178" width="1" height="1" fill="#4a2a2e" />
<rect x="137" y="178" width="1" height="1" fill="#4a2a2e" />
<rect x="128" y="181" width="1" height="1" fill="#4a2a2e" />
<rect x="134" y="181" width="1" height="1" fill="#4a2a2e" />
<rect x="125" y="184" width="1" height="1" fill="#4a2a2e" />
<rect x="131" y="184" width="1" height="1" fill="#4a2a2e" />
<rect x="137" y="184" width="1" height="1" fill="#4a2a2e" />
<rect x="128" y="187" width="1" height="1" fill="#4a2a2e" />
<rect x="134" y="187" width="1" height="1" fill="#4a2a2e" />
<rect x="125" y="190" width="1" height="1" fill="#4a2a2e" />
<rect x="131" y="190" width="1" height="1" fill="#4a2a2e" />
<rect x="137" y="190" width="1" height="1" fill="#4a2a2e" />
<rect x="128" y="193" width="1" height="1" fill="#4a2a2e" />
<rect x="134" y="193" width="1" height="1" fill="#4a2a2e" />
<rect x="125" y="196" width="1" height="1" fill="#4a2a2e" />
<rect x="131" y="196" width="1" height="1" fill="#4a2a2e" />
<rect x="137" y="196" width="1" height="1" fill="#4a2a2e" />
<rect x="128" y="199" width="1" height="1" fill="#4a2a2e" />
<rect x="134" y="199" width="1" height="1" fill="#4a2a2e" />
<rect x="125" y="202" width="1" height="1" fill="#4a2a2e" />
<rect x="131" y="202" width="1" height="1" fill="#4a2a2e" />
<rect x="137" y="202" width="1" height="1" fill="#4a2a2e" />
<rect x="99" y="238" width="34" height="12" fill="#0b1320" />
<rect x="100" y="239" width="32" height="10" fill="#231d26" />
<rect x="100" y="239" width="32" height="1" fill="#4a2a2e" />
<rect x="100" y="239" width="1" height="10" fill="#4a2a2e" />
<rect x="100" y="248" width="32" height="1" fill="#0b1320" />
<rect x="131" y="239" width="1" height="10" fill="#0b1320" />
<rect x="119" y="238" width="38" height="12" fill="#0b1320" />
<rect x="120" y="239" width="36" height="10" fill="#231d26" />
<rect x="120" y="239" width="36" height="1" fill="#4a2a2e" />
<rect x="120" y="239" width="1" height="10" fill="#4a2a2e" />
<rect x="120" y="248" width="36" height="1" fill="#0b1320" />
<rect x="155" y="239" width="1" height="10" fill="#0b1320" />
</svg>
