<?xml version="1.0" encoding="UTF-8"?>
<svg xmlns="http://www.w3.org/2000/svg" width="256" height="256" viewBox="0 0 256 256" shape-rendering="crispEdges">
<polygon points="98,62 132,58 148,66 148,90 120,96 104,84" fill="#0b1320" />
<polygon points="102,64 130,60 144,68 144,88 120,94 108,82" fill="#cb9975" />
<polygon points="98,56 126,50 144,58 148,68 140,72 108,68" fill="#433846" />
<polygon points="100,70 112,68 110,90 98,86" fill="#6b5c73" />
<polygon points="104,88 112,100 122,96 118,84" fill="#231d26" />
<rect x="112" y="91" width="9" height="7" fill="#996846" />
<rect x="118" y="72" width="8" height="2" fill="#0b1320" />
<rect x="122" y="75" width="6" height="4" fill="#142033" />
<rect x="132" y="76" width="7" height="2" fill="#996846" />
<polygon points="96,106 132,100 156,110 158,156 108,162" fill="#0b1320" />
<polygon points="100,108 130,104 152,112 154,154 110,158" fill="#87555a" />
<rect x="104" y="114" width="26" height="8" fill="#de7a92" />
<rect x="108" y="126" width="34" height="3" fill="#593338" />
<rect x="110" y="136" width="34" height="3" fill="#593338" />
<rect x="106" y="116" width="5" height="18" fill="#cb9975" />
<polygon points="108,106 120,104 134,134 124,136" fill="#4a2a2e" />
<rect x="122" y="140" width="14" height="11" fill="#4a2a2e" />
<polygon points="96,122 108,118 110,154 100,156" fill="#996846" />
<rect x="98" y="128" width="6" height="18" fill="#4a2a2e" />
<rect x="94" y="150" width="9" height="6" fill="#cb9975" />
<polygon points="128,116 142,118 126,123 118,125" fill="#996846" />
<polygon points="134,132 148,132 130,131 124,135" fill="#4a2a2e" />
<rect x="122" y="122" width="7" height="7" fill="#cb9975" />
<rect x="152" y="121" width="7" height="7" fill="#cb9975" />
<rect x="134" y="117" width="70" height="10" fill="#0b1320" />
<rect x="135" y="118" width="68" height="8" fill="#a8b2bf" />
<rect x="135" y="118" width="68" height="1" fill="#f3f8ff" />
<rect x="135" y="118" width="1" height="8" fill="#f3f8ff" />
<rect x="135" y="125" width="68" height="1" fill="#62707c" />
<rect x="202" y="118" width="1" height="8" fill="#62707c" />
<rect x="140" y="119" width="58" height="2" fill="#edf6ff" />
<rect x="124" y="119" width="14" height="6" fill="#62707c" />
<rect x="198" y="119" width="18" height="6" fill="#62707c" />
<rect x="154" y="127" width="10" height="16" fill="#62707c" />
<polygon points="150,127 158,141 168,141 162,127" fill="#62707c" />
<rect x="144" y="125" width="18" height="2" fill="#0b1320" />
<rect x="102" y="166" width="20" height="60" fill="#0b1320" />
<rect x="103" y="167" width="18" height="58" fill="#2b1719" />
<rect x="103" y="167" width="18" height="1" fill="#87555a" />
<rect x="103" y="167" width="1" height="58" fill="#87555a" />
<rect x="103" y="224" width="18" height="1" fill="#4a2a2e" />
<rect x="120" y="167" width="1" height="58" fill="#4a2a2e" />
<rect x="120" y="158" width="22" height="62" fill="#0b1320" />
<rect x="121" y="159" width="20" height="60" fill="#593338" />
<rect x="121" y="159" width="20" height="1" fill="#87555a" />
<rect x="121" y="159" width="1" height="60" fill="#87555a" />
<rect x="121" y="218" width="20" height="1" fill="#4a2a2e" />
<rect x="140" y="159" width="1" height="60" fill="#4a2a2e" />
<rect x="104" y="172" width="1" height="1" fill="#4a2a2e" />
<rect x="110" y="172" width="1" height="1" fill="#4a2a2e" />
<rect x="116" y="172" width="1" height="1" fill="#4a2a2e" />
<rect x="107" y="175" width="1" height="1" fill="#4a2a2e" />
<rect x="113" y="175" width="1" height="1" fill="#4a2a2e" />
<rect x="104" y="178" width="1" height="1" fill="#4a2a2e" />
<rect x="110" y="178" width="1" height="1" fill="#4a2a2e" />
<rect x="116" y="178" width="1" height="1" fill="#4a2a2e" />
<rect x="107" y="181" width="1" height="1" fill="#4a2a2e" />
<rect x="113" y="181" width="1" height="1" fill="#4a2a2e" />
<rect x="104" y="184" width="1" height="1" fill="#4a2a2e" />
<rect x="110" y="184" width="1" height="1" fill="#4a2a2e" />
<rect x="116" y="184" width="1" height="1" fill="#4a2a2e" />
<rect x="107" y="187" width="1" height="1" fill="#4a2a2e" />
<rect x="113" y="187" width="1" height="1" fill="#4a2a2e" />
<rect x="104" y="190" width="1" height="1" fill="#4a2a2e" />
<rect x="110" y="190" width="1" height="1" fill="#4a2a2e" />
<rect x="116" y="190" width="1" height="1" fill="#4a2a2e" />
<rect x="107" y="193" width="1" height="1" fill="#4a2a2e" />
<rect x="113" y="193" width="1" height="1" fill="#4a2a2e" />
<rect x="104" y="196" width="1" height="1" fill="#4a2a2e" />
<rect x="110" y="196" width="1" height="1" fill="#4a2a2e" />
<rect x="116" y="196" width="1" height="1" fill="#4a2a2e" />
<rect x="107" y="199" width="1" height="1" fill="#4a2a2e" />
<rect x="113" y="199" width="1" height="1" fill="#4a2a2e" />
<rect x="104" y="202" width="1" height="1" fill="#4a2a2e" />
<rect x="110" y="202" width="1" height="1" fill="#4a2a2e" />
<rect x="116" y="202" width="1" height="1" fill="#4a2a2e" />
<rect x="107" y="205" width="1" height="1" fill="#4a2a2e" />
<rect x="113" y="205" width="1" height="1" fill="#4a2a2e" />
<rect x="104" y="208" width="1" height="1" fill="#4a2a2e" />
<rect x="110" y="208" width="1" height="1" fill="#4a2a2e" />
<rect x="116" y="208" width="1" height="1" fill="#4a2a2e" />
<rect x="107" y="211" width="1" height="1" fill="#4a2a2e" />
<rect x="113" y="211" width="1" height="1" fill="#4a2a2e" />
<rect x="127" y="164" width="1" height="1" fill="#4a2a2e" />
<rect x="133" y="164" width="1" height="1" fill="#4a2a2e" />
<rect x="124" y="167" width="1" height="1" fill="#4a2a2e" />
<rect x="130" y="167" width="1" height="1" fill="#4a2a2e" />
<rect x="136" y="167" width="1" height="1" fill="#4a2a2e" />
<rect x="127" y="170" width="1" height="1" fill="#4a2a2e" />
<rect x="133" y="170" width="1" height="1" fill="#4a2a2e" />
<rect x="124" y="173" width="1" height="1" fill="#4a2a2e" />
<rect x="130" y="173" width="1" height="1" fill="#4a2a2e" />
<rect x="136" y="173" width="1" height="1" fill="#4a2a2e" />
<rect x="127" y="176" width="1" height="1" fill="#4a2a2e" />
<rect x="133" y="176" width="1" height="1" fill="#4a2a2e" />
<rect x="124" y="179" width="1" height="1" fill="#4a2a2e" />
<rect x="130" y="179" width="1" height="1" fill="#4a2a2e" />
<rect x="136" y="179" width="1" height="1" fill="#4a2a2e" />
<rect x="127" y="182" width="1" height="1" fill="#4a2a2e" />
<rect x="133" y="182" width="1" height="1" fill="#4a2a2e" />
<rect x="124" y="185" width="1" height="1" fill="#4a2a2e" />
<rect x="130" y="185" width="1" height="1" fill="#4a2a2e" />
<rect x="136" y="185" width="1" height="1" fill="#4a2a2e" />
<rect x="127" y="188" width="1" height="1" fill="#4a2a2e" />
<rect x="133" y="188" width="1" height="1" fill="#4a2a2e" />
<rect x="124" y="191" width="1" height="1" fill="#4a2a2e" />
<rect x="130" y="191" width="1" height="1" fill="#4a2a2e" />
<rect x="136" y="191" width="1" height="1" fill="#4a2a2e" />
<rect x="127" y="194" width="1" height="1" fill="#4a2a2e" />
<rect x="133" y="194" width="1" height="1" fill="#4a2a2e" />
<rect x="124" y="197" width="1" height="1" fill="#4a2a2e" />
<rect x="130" y="197" width="1" height="1" fill="#4a2a2e" />
<rect x="136" y="197" width="1" height="1" fill="#4a2a2e" />
<rect x="127" y="200" width="1" height="1" fill="#4a2a2e" />
<rect x="133" y="200" width="1" height="1" fill="#4a2a2e" />
<rect x="124" y="203" width="1" height="1" fill="#4a2a2e" />
<rect x="130" y="203" width="1" height="1" fill="#4a2a2e" />
<rect x="136" y="203" width="1" height="1" fill="#4a2a2e" />
<rect x="100" y="242" width="34" height="12" fill="#0b1320" />
<rect x="101" y="243" width="32" height="10" fill="#231d26" />
<rect x="101" y="243" width="32" height="1" fill="#4a2a2e" />
<rect x="101" y="243" width="1" height="10" fill="#4a2a2e" />
<rect x="101" y="252" width="32" height="1" fill="#0b1320" />
<rect x="132" y="243" width="1" height="10" fill="#0b1320" />
<rect x="118" y="240" width="38" height="12" fill="#0b1320" />
<rect x="119" y="241" width="36" height="10" fill="#231d26" />
<rect x="119" y="241" width="36" height="1" fill="#4a2a2e" />
<rect x="119" y="241" width="1" height="10" fill="#4a2a2e" />
<rect x="119" y="250" width="36" height="1" fill="#0b1320" />
<rect x="154" y="241" width="1" height="10" fill="#0b1320" />
</svg>
