<?xml version="1.0" encoding="UTF-8"?>
<svg xmlns="http://www.w3.org/2000/svg" width="256" height="256" viewBox="0 0 256 256" shape-rendering="crispEdges">
<rect x="66" y="75" width="124" height="122" fill="#0b1320" />
<rect x="67" y="76" width="122" height="120" fill="#bd5f3f" />
<rect x="67" y="76" width="122" height="1" fill="#df8765" />
<rect x="67" y="76" width="1" height="120" fill="#df8765" />
<rect x="67" y="195" width="122" height="1" fill="#6d3527" />
<rect x="188" y="76" width="1" height="120" fill="#6d3527" />
<rect x="76" y="87" width="104" height="18" fill="#df8765" />
<rect x="83" y="89" width="1" height="1" fill="#bd5f3f" />
<rect x="89" y="89" width="1" height="1" fill="#bd5f3f" />
<rect x="95" y="89" width="1" height="1" fill="#bd5f3f" />
<rect x="101" y="89" width="1" height="1" fill="#bd5f3f" />
<rect x="107" y="89" width="1" height="1" fill="#bd5f3f" />
<rect x="113" y="89" width="1" height="1" fill="#bd5f3f" />
<rect x="119" y="89" width="1" height="1" fill="#bd5f3f" />
<rect x="125" y="89" width="1" height="1" fill="#bd5f3f" />
<rect x="131" y="89" width="1" height="1" fill="#bd5f3f" />
<rect x="137" y="89" width="1" height="1" fill="#bd5f3f" />
<rect x="143" y="89" width="1" height="1" fill="#bd5f3f" />
<rect x="149" y="89" width="1" height="1" fill="#bd5f3f" />
<rect x="155" y="89" width="1" height="1" fill="#bd5f3f" />
<rect x="161" y="89" width="1" height="1" fill="#bd5f3f" />
<rect x="167" y="89" width="1" height="1" fill="#bd5f3f" />
<rect x="173" y="89" width="1" height="1" fill="#bd5f3f" />
<rect x="80" y="92" width="1" height="1" fill="#bd5f3f" />
<rect x="86" y="92" width="1" height="1" fill="#bd5f3f" />
<rect x="92" y="92" width="1" height="1" fill="#bd5f3f" />
<rect x="98" y="92" width="1" height="1" fill="#bd5f3f" />
<rect x="104" y="92" width="1" height="1" fill="#bd5f3f" />
<rect x="110" y="92" width="1" height="1" fill="#bd5f3f" />
<rect x="116" y="92" width="1" height="1" fill="#bd5f3f" />
<rect x="122" y="92" width="1" height="1" fill="#bd5f3f" />
<rect x="128" y="92" width="1" height="1" fill="#bd5f3f" />
<rect x="134" y="92" width="1" height="1" fill="#bd5f3f" />
<rect x="140" y="92" width="1" height="1" fill="#bd5f3f" />
<rect x="146" y="92" width="1" height="1" fill="#bd5f3f" />
<rect x="152" y="92" width="1" height="1" fill="#bd5f3f" />
<rect x="158" y="92" width="1" height="1" fill="#bd5f3f" />
<rect x="164" y="92" width="1" height="1" fill="#bd5f3f" />
<rect x="170" y="92" width="1" height="1" fill="#bd5f3f" />
<rect x="83" y="95" width="1" height="1" fill="#bd5f3f" />
<rect x="89" y="95" width="1" height="1" fill="#bd5f3f" />
<rect x="95" y="95" width="1" height="1" fill="#bd5f3f" />
<rect x="101" y="95" width="1" height="1" fill="#bd5f3f" />
<rect x="107" y="95" width="1" height="1" fill="#bd5f3f" />
<rect x="113" y="95" width="1" height="1" fill="#bd5f3f" />
<rect x="119" y="95" width="1" height="1" fill="#bd5f3f" />
<rect x="125" y="95" width="1" height="1" fill="#bd5f3f" />
<rect x="131" y="95" width="1" height="1" fill="#bd5f3f" />
<rect x="137" y="95" width="1" height="1" fill="#bd5f3f" />
<rect x="143" y="95" width="1" height="1" fill="#bd5f3f" />
<rect x="149" y="95" width="1" height="1" fill="#bd5f3f" />
<rect x="155" y="95" width="1" height="1" fill="#bd5f3f" />
<rect x="161" y="95" width="1" height="1" fill="#bd5f3f" />
<rect x="167" y="95" width="1" height="1" fill="#bd5f3f" />
<rect x="173" y="95" width="1" height="1" fill="#bd5f3f" />
<rect x="80" y="98" width="1" height="1" fill="#bd5f3f" />
<rect x="86" y="98" width="1" height="1" fill="#bd5f3f" />
<rect x="92" y="98" width="1" height="1" fill="#bd5f3f" />
<rect x="98" y="98" width="1" height="1" fill="#bd5f3f" />
<rect x="104" y="98" width="1" height="1" fill="#bd5f3f" />
<rect x="110" y="98" width="1" height="1" fill="#bd5f3f" />
<rect x="116" y="98" width="1" height="1" fill="#bd5f3f" />
<rect x="122" y="98" width="1" height="1" fill="#bd5f3f" />
<rect x="128" y="98" width="1" height="1" fill="#bd5f3f" />
<rect x="134" y="98" width="1" height="1" fill="#bd5f3f" />
<rect x="140" y="98" width="1" height="1" fill="#bd5f3f" />
<rect x="146" y="98" width="1" height="1" fill="#bd5f3f" />
<rect x="152" y="98" width="1" height="1" fill="#bd5f3f" />
<rect x="158" y="98" width="1" height="1" fill="#bd5f3f" />
<rect x="164" y="98" width="1" height="1" fill="#bd5f3f" />
<rect x="170" y="98" width="1" height="1" fill="#bd5f3f" />
<rect x="83" y="101" width="1" height="1" fill="#bd5f3f" />
<rect x="89" y="101" width="1" height="1" fill="#bd5f3f" />
<rect x="95" y="101" width="1" height="1" fill="#bd5f3f" />
<rect x="101" y="101" width="1" height="1" fill="#bd5f3f" />
<rect x="107" y="101" width="1" height="1" fill="#bd5f3f" />
<rect x="113" y="101" width="1" height="1" fill="#bd5f3f" />
<rect x="119" y="101" width="1" height="1" fill="#bd5f3f" />
<rect x="125" y="101" width="1" height="1" fill="#bd5f3f" />
<rect x="131" y="101" width="1" height="1" fill="#bd5f3f" />
<rect x="137" y="101" width="1" height="1" fill="#bd5f3f" />
<rect x="143" y="101" width="1" height="1" fill="#bd5f3f" />
<rect x="149" y="101" width="1" height="1" fill="#bd5f3f" />
<rect x="155" y="101" width="1" height="1" fill="#bd5f3f" />
<rect x="161" y="101" width="1" height="1" fill="#bd5f3f" />
<rect x="167" y="101" width="1" height="1" fill="#bd5f3f" />
<rect x="173" y="101" width="1" height="1" fill="#bd5f3f" />
<rect x="82" y="113" width="92" height="1" fill="#6d3527" />
<rect x="82" y="120" width="92" height="1" fill="#6d3527" />
<rect x="82" y="127" width="92" height="1" fill="#6d3527" />
<rect x="82" y="134" width="92" height="1" fill="#6d3527" />
<rect x="82" y="141" width="92" height="1" fill="#6d3527" />
<rect x="92" y="99" width="72" height="48" fill="#6d3527" />
<rect x="96" y="105" width="64" height="8" fill="#bd5f3f" />
<rect x="96" y="117" width="64" height="4" fill="#df8765" />
<circle cx="98" cy="131" r="1.2" fill="#df8765" />
<circle cx="108" cy="131" r="1.2" fill="#df8765" />
<circle cx="118" cy="131" r="1.2" fill="#df8765" />
<circle cx="128" cy="131" r="1.2" fill="#df8765" />
<circle cx="138" cy="131" r="1.2" fill="#df8765" />
<circle cx="148" cy="131" r="1.2" fill="#df8765" />
<rect x="54" y="95" width="20" height="84" fill="#0b1320" />
<rect x="55" y="96" width="18" height="82" fill="#6d3527" />
<rect x="55" y="96" width="18" height="1" fill="#df8765" />
<rect x="55" y="96" width="1" height="82" fill="#df8765" />
<rect x="55" y="177" width="18" height="1" fill="#6d3527" />
<rect x="72" y="96" width="1" height="82" fill="#6d3527" />
<rect x="186" y="95" width="20" height="84" fill="#0b1320" />
<rect x="187" y="96" width="18" height="82" fill="#6d3527" />
<rect x="187" y="96" width="18" height="1" fill="#df8765" />
<rect x="187" y="96" width="1" height="82" fill="#df8765" />
<rect x="187" y="177" width="18" height="1" fill="#6d3527" />
<rect x="204" y="96" width="1" height="82" fill="#6d3527" />
<rect x="56" y="109" width="16" height="8" fill="#df8765" />
<rect x="188" y="109" width="16" height="8" fill="#df8765" />
<rect x="56" y="129" width="16" height="8" fill="#df8765" />
<rect x="188" y="129" width="16" height="8" fill="#df8765" />
<rect x="74" y="197" width="44" height="54" fill="#0b1320" />
<rect x="75" y="198" width="42" height="52" fill="#6d3527" />
<rect x="75" y="198" width="42" height="1" fill="#df8765" />
<rect x="75" y="198" width="1" height="52" fill="#df8765" />
<rect x="75" y="249" width="42" height="1" fill="#0b1320" />
<rect x="116" y="198" width="1" height="52" fill="#0b1320" />
<rect x="138" y="193" width="44" height="54" fill="#0b1320" />
<rect x="139" y="194" width="42" height="52" fill="#6d3527" />
<rect x="139" y="194" width="42" height="1" fill="#df8765" />
<rect x="139" y="194" width="1" height="52" fill="#df8765" />
<rect x="139" y="245" width="42" height="1" fill="#0b1320" />
<rect x="180" y="194" width="1" height="52" fill="#0b1320" />
<rect x="78" y="201" width="1" height="1" fill="#bd5f3f" />
<rect x="84" y="201" width="1" height="1" fill="#bd5f3f" />
<rect x="90" y="201" width="1" height="1" fill="#bd5f3f" />
<rect x="96" y="201" width="1" height="1" fill="#bd5f3f" />
<rect x="102" y="201" width="1" height="1" fill="#bd5f3f" />
<rect x="108" y="201" width="1" height="1" fill="#bd5f3f" />
<rect x="81" y="204" width="1" height="1" fill="#bd5f3f" />
<rect x="87" y="204" width="1" height="1" fill="#bd5f3f" />
<rect x="93" y="204" width="1" height="1" fill="#bd5f3f" />
<rect x="99" y="204" width="1" height="1" fill="#bd5f3f" />
<rect x="105" y="204" width="1" height="1" fill="#bd5f3f" />
<rect x="111" y="204" width="1" height="1" fill="#bd5f3f" />
<rect x="78" y="207" width="1" height="1" fill="#bd5f3f" />
<rect x="84" y="207" width="1" height="1" fill="#bd5f3f" />
<rect x="90" y="207" width="1" height="1" fill="#bd5f3f" />
<rect x="96" y="207" width="1" height="1" fill="#bd5f3f" />
<rect x="102" y="207" width="1" height="1" fill="#bd5f3f" />
<rect x="108" y="207" width="1" height="1" fill="#bd5f3f" />
<rect x="81" y="210" width="1" height="1" fill="#bd5f3f" />
<rect x="87" y="210" width="1" height="1" fill="#bd5f3f" />
<rect x="93" y="210" width="1" height="1" fill="#bd5f3f" />
<rect x="99" y="210" width="1" height="1" fill="#bd5f3f" />
<rect x="105" y="210" width="1" height="1" fill="#bd5f3f" />
<rect x="111" y="210" width="1" height="1" fill="#bd5f3f" />
<rect x="78" y="213" width="1" height="1" fill="#bd5f3f" />
<rect x="84" y="213" width="1" height="1" fill="#bd5f3f" />
<rect x="90" y="213" width="1" height="1" fill="#bd5f3f" />
<rect x="96" y="213" width="1" height="1" fill="#bd5f3f" />
<rect x="102" y="213" width="1" height="1" fill="#bd5f3f" />
<rect x="108" y="213" width="1" height="1" fill="#bd5f3f" />
<rect x="81" y="216" width="1" height="1" fill="#bd5f3f" />
<rect x="87" y="216" width="1" height="1" fill="#bd5f3f" />
<rect x="93" y="216" width="1" height="1" fill="#bd5f3f" />
<rect x="99" y="216" width="1" height="1" fill="#bd5f3f" />
<rect x="105" y="216" width="1" height="1" fill="#bd5f3f" />
<rect x="111" y="216" width="1" height="1" fill="#bd5f3f" />
<rect x="78" y="219" width="1" height="1" fill="#bd5f3f" />
<rect x="84" y="219" width="1" height="1" fill="#bd5f3f" />
<rect x="90" y="219" width="1" height="1" fill="#bd5f3f" />
<rect x="96" y="219" width="1" height="1" fill="#bd5f3f" />
<rect x="102" y="219" width="1" height="1" fill="#bd5f3f" />
<rect x="108" y="219" width="1" height="1" fill="#bd5f3f" />
<rect x="81" y="222" width="1" height="1" fill="#bd5f3f" />
<rect x="87" y="222" width="1" height="1" fill="#bd5f3f" />
<rect x="93" y="222" width="1" height="1" fill="#bd5f3f" />
<rect x="99" y="222" width="1" height="1" fill="#bd5f3f" />
<rect x="105" y="222" width="1" height="1" fill="#bd5f3f" />
<rect x="111" y="222" width="1" height="1" fill="#bd5f3f" />
<rect x="78" y="225" width="1" height="1" fill="#bd5f3f" />
<rect x="84" y="225" width="1" height="1" fill="#bd5f3f" />
<rect x="90" y="225" width="1" height="1" fill="#bd5f3f" />
<rect x="96" y="225" width="1" height="1" fill="#bd5f3f" />
<rect x="102" y="225" width="1" height="1" fill="#bd5f3f" />
<rect x="108" y="225" width="1" height="1" fill="#bd5f3f" />
<rect x="81" y="228" width="1" height="1" fill="#bd5f3f" />
<rect x="87" y="228" width="1" height="1" fill="#bd5f3f" />
<rect x="93" y="228" width="1" height="1" fill="#bd5f3f" />
<rect x="99" y="228" width="1" height="1" fill="#bd5f3f" />
<rect x="105" y="228" width="1" height="1" fill="#bd5f3f" />
<rect x="111" y="228" width="1" height="1" fill="#bd5f3f" />
<rect x="78" y="231" width="1" height="1" fill="#bd5f3f" />
<rect x="84" y="231" width="1" height="1" fill="#bd5f3f" />
<rect x="90" y="231" width="1" height="1" fill="#bd5f3f" />
<rect x="96" y="231" width="1" height="1" fill="#bd5f3f" />
<rect x="102" y="231" width="1" height="1" fill="#bd5f3f" />
<rect x="108" y="231" width="1" height="1" fill="#bd5f3f" />
<rect x="81" y="234" width="1" height="1" fill="#bd5f3f" />
<rect x="87" y="234" width="1" height="1" fill="#bd5f3f" />
<rect x="93" y="234" width="1" height="1" fill="#bd5f3f" />
<rect x="99" y="234" width="1" height="1" fill="#bd5f3f" />
<rect x="105" y="234" width="1" height="1" fill="#bd5f3f" />
<rect x="111" y="234" width="1" height="1" fill="#bd5f3f" />
<rect x="78" y="237" width="1" height="1" fill="#bd5f3f" />
<rect x="84" y="237" width="1" height="1" fill="#bd5f3f" />
<rect x="90" y="237" width="1" height="1" fill="#bd5f3f" />
<rect x="96" y="237" width="1" height="1" fill="#bd5f3f" />
<rect x="102" y="237" width="1" height="1" fill="#bd5f3f" />
<rect x="108" y="237" width="1" height="1" fill="#bd5f3f" />
<rect x="145" y="197" width="1" height="1" fill="#bd5f3f" />
<rect x="151" y="197" width="1" height="1" fill="#bd5f3f" />
<rect x="157" y="197" width="1" height="1" fill="#bd5f3f" />
<rect x="163" y="197" width="1" height="1" fill="#bd5f3f" />
<rect x="169" y="197" width="1" height="1" fill="#bd5f3f" />
<rect x="175" y="197" width="1" height="1" fill="#bd5f3f" />
<rect x="142" y="200" width="1" height="1" fill="#bd5f3f" />
<rect x="148" y="200" width="1" height="1" fill="#bd5f3f" />
<rect x="154" y="200" width="1" height="1" fill="#bd5f3f" />
<rect x="160" y="200" width="1" height="1" fill="#bd5f3f" />
<rect x="166" y="200" width="1" height="1" fill="#bd5f3f" />
<rect x="172" y="200" width="1" height="1" fill="#bd5f3f" />
<rect x="145" y="203" width="1" height="1" fill="#bd5f3f" />
<rect x="151" y="203" width="1" height="1" fill="#bd5f3f" />
<rect x="157" y="203" width="1" height="1" fill="#bd5f3f" />
<rect x="163" y="203" width="1" height="1" fill="#bd5f3f" />
<rect x="169" y="203" width="1" height="1" fill="#bd5f3f" />
<rect x="175" y="203" width="1" height="1" fill="#bd5f3f" />
<rect x="142" y="206" width="1" height="1" fill="#bd5f3f" />
<rect x="148" y="206" width="1" height="1" fill="#bd5f3f" />
<rect x="154" y="206" width="1" height="1" fill="#bd5f3f" />
<rect x="160" y="206" width="1" height="1" fill="#bd5f3f" />
<rect x="166" y="206" width="1" height="1" fill="#bd5f3f" />
<rect x="172" y="206" width="1" height="1" fill="#bd5f3f" />
<rect x="145" y="209" width="1" height="1" fill="#bd5f3f" />
<rect x="151" y="209" width="1" height="1" fill="#bd5f3f" />
<rect x="157" y="209" width="1" height="1" fill="#bd5f3f" />
<rect x="163" y="209" width="1" height="1" fill="#bd5f3f" />
<rect x="169" y="209" width="1" height="1" fill="#bd5f3f" />
<rect x="175" y="209" width="1" height="1" fill="#bd5f3f" />
<rect x="142" y="212" width="1" height="1" fill="#bd5f3f" />
<rect x="148" y="212" width="1" height="1" fill="#bd5f3f" />
<rect x="154" y="212" width="1" height="1" fill="#bd5f3f" />
<rect x="160" y="212" width="1" height="1" fill="#bd5f3f" />
<rect x="166" y="212" width="1" height="1" fill="#bd5f3f" />
<rect x="172" y="212" width="1" height="1" fill="#bd5f3f" />
<rect x="145" y="215" width="1" height="1" fill="#bd5f3f" />
<rect x="151" y="215" width="1" height="1" fill="#bd5f3f" />
<rect x="157" y="215" width="1" height="1" fill="#bd5f3f" />
<rect x="163" y="215" width="1" height="1" fill="#bd5f3f" />
<rect x="169" y="215" width="1" height="1" fill="#bd5f3f" />
<rect x="175" y="215" width="1" height="1" fill="#bd5f3f" />
<rect x="142" y="218" width="1" height="1" fill="#bd5f3f" />
<rect x="148" y="218" width="1" height="1" fill="#bd5f3f" />
<rect x="154" y="218" width="1" height="1" fill="#bd5f3f" />
<rect x="160" y="218" width="1" height="1" fill="#bd5f3f" />
<rect x="166" y="218" width="1" height="1" fill="#bd5f3f" />
<rect x="172" y="218" width="1" height="1" fill="#bd5f3f" />
<rect x="145" y="221" width="1" height="1" fill="#bd5f3f" />
<rect x="151" y="221" width="1" height="1" fill="#bd5f3f" />
<rect x="157" y="221" width="1" height="1" fill="#bd5f3f" />
<rect x="163" y="221" width="1" height="1" fill="#bd5f3f" />
<rect x="169" y="221" width="1" height="1" fill="#bd5f3f" />
<rect x="175" y="221" width="1" height="1" fill="#bd5f3f" />
<rect x="142" y="224" width="1" height="1" fill="#bd5f3f" />
<rect x="148" y="224" width="1" height="1" fill="#bd5f3f" />
<rect x="154" y="224" width="1" height="1" fill="#bd5f3f" />
<rect x="160" y="224" width="1" height="1" fill="#bd5f3f" />
<rect x="166" y="224" width="1" height="1" fill="#bd5f3f" />
<rect x="172" y="224" width="1" height="1" fill="#bd5f3f" />
<rect x="145" y="227" width="1" height="1" fill="#bd5f3f" />
<rect x="151" y="227" width="1" height="1" fill="#bd5f3f" />
<rect x="157" y="227" width="1" height="1" fill="#bd5f3f" />
<rect x="163" y="227" width="1" height="1" fill="#bd5f3f" />
<rect x="169" y="227" width="1" height="1" fill="#bd5f3f" />
<rect x="175" y="227" width="1" height="1" fill="#bd5f3f" />
<rect x="142" y="230" width="1" height="1" fill="#bd5f3f" />
<rect x="148" y="230" width="1" height="1" fill="#bd5f3f" />
<rect x="154" y="230" width="1" height="1" fill="#bd5f3f" />
<rect x="160" y="230" width="1" height="1" fill="#bd5f3f" />
<rect x="166" y="230" width="1" height="1" fill="#bd5f3f" />
<rect x="172" y="230" width="1" height="1" fill="#bd5f3f" />
<rect x="145" y="233" width="1" height="1" fill="#bd5f3f" />
<rect x="151" y="233" width="1" height="1" fill="#bd5f3f" />
<rect x="157" y="233" width="1" height="1" fill="#bd5f3f" />
<rect x="163" y="233" width="1" height="1" fill="#bd5f3f" />
<rect x="169" y="233" width="1" height="1" fill="#bd5f3f" />
<rect x="175" y="233" width="1" height="1" fill="#bd5f3f" />
<rect x="184" y="127" width="44" height="16" fill="#0b1320" />
<rect x="185" y="128" width="42" height="14" fill="#d3deee" />
<rect x="185" y="128" width="42" height="1" fill="#f1f7ff" />
<rect x="185" y="128" width="1" height="14" fill="#f1f7ff" />
<rect x="185" y="141" width="42" height="1" fill="#7485a4" />
<rect x="226" y="128" width="1" height="14" fill="#7485a4" />
<rect x="214" y="129" width="16" height="10" fill="#7485a4" />
<rect x="86" y="71" width="84" height="8" fill="#df8765" />
<rect x="88" y="73" width="80" height="2" fill="#0b1320" />
<rect x="114" y="119" width="10" height="6" fill="#142033" />
<rect x="142" y="119" width="10" height="6" fill="#142033" />
<rect x="122" y="125" width="22" height="4" fill="#69ddff" />
</svg>
