<?xml version="1.0" encoding="UTF-8"?>
<svg xmlns="http://www.w3.org/2000/svg" width="256" height="256" viewBox="0 0 256 256" shape-rendering="crispEdges">
<rect x="66" y="74" width="124" height="122" fill="#0b1320" />
<rect x="67" y="75" width="122" height="120" fill="#bd5f3f" />
<rect x="67" y="75" width="122" height="1" fill="#df8765" />
<rect x="67" y="75" width="1" height="120" fill="#df8765" />
<rect x="67" y="194" width="122" height="1" fill="#6d3527" />
<rect x="188" y="75" width="1" height="120" fill="#6d3527" />
<rect x="76" y="86" width="104" height="18" fill="#df8765" />
<rect x="83" y="88" width="1" height="1" fill="#bd5f3f" />
<rect x="89" y="88" width="1" height="1" fill="#bd5f3f" />
<rect x="95" y="88" width="1" height="1" fill="#bd5f3f" />
<rect x="101" y="88" width="1" height="1" fill="#bd5f3f" />
<rect x="107" y="88" width="1" height="1" fill="#bd5f3f" />
<rect x="113" y="88" width="1" height="1" fill="#bd5f3f" />
<rect x="119" y="88" width="1" height="1" fill="#bd5f3f" />
<rect x="125" y="88" width="1" height="1" fill="#bd5f3f" />
<rect x="131" y="88" width="1" height="1" fill="#bd5f3f" />
<rect x="137" y="88" width="1" height="1" fill="#bd5f3f" />
<rect x="143" y="88" width="1" height="1" fill="#bd5f3f" />
<rect x="149" y="88" width="1" height="1" fill="#bd5f3f" />
<rect x="155" y="88" width="1" height="1" fill="#bd5f3f" />
<rect x="161" y="88" width="1" height="1" fill="#bd5f3f" />
<rect x="167" y="88" width="1" height="1" fill="#bd5f3f" />
<rect x="173" y="88" width="1" height="1" fill="#bd5f3f" />
<rect x="80" y="91" width="1" height="1" fill="#bd5f3f" />
<rect x="86" y="91" width="1" height="1" fill="#bd5f3f" />
<rect x="92" y="91" width="1" height="1" fill="#bd5f3f" />
<rect x="98" y="91" width="1" height="1" fill="#bd5f3f" />
<rect x="104" y="91" width="1" height="1" fill="#bd5f3f" />
<rect x="110" y="91" width="1" height="1" fill="#bd5f3f" />
<rect x="116" y="91" width="1" height="1" fill="#bd5f3f" />
<rect x="122" y="91" width="1" height="1" fill="#bd5f3f" />
<rect x="128" y="91" width="1" height="1" fill="#bd5f3f" />
<rect x="134" y="91" width="1" height="1" fill="#bd5f3f" />
<rect x="140" y="91" width="1" height="1" fill="#bd5f3f" />
<rect x="146" y="91" width="1" height="1" fill="#bd5f3f" />
<rect x="152" y="91" width="1" height="1" fill="#bd5f3f" />
<rect x="158" y="91" width="1" height="1" fill="#bd5f3f" />
<rect x="164" y="91" width="1" height="1" fill="#bd5f3f" />
<rect x="170" y="91" width="1" height="1" fill="#bd5f3f" />
<rect x="83" y="94" width="1" height="1" fill="#bd5f3f" />
<rect x="89" y="94" width="1" height="1" fill="#bd5f3f" />
<rect x="95" y="94" width="1" height="1" fill="#bd5f3f" />
<rect x="101" y="94" width="1" height="1" fill="#bd5f3f" />
<rect x="107" y="94" width="1" height="1" fill="#bd5f3f" />
<rect x="113" y="94" width="1" height="1" fill="#bd5f3f" />
<rect x="119" y="94" width="1" height="1" fill="#bd5f3f" />
<rect x="125" y="94" width="1" height="1" fill="#bd5f3f" />
<rect x="131" y="94" width="1" height="1" fill="#bd5f3f" />
<rect x="137" y="94" width="1" height="1" fill="#bd5f3f" />
<rect x="143" y="94" width="1" height="1" fill="#bd5f3f" />
<rect x="149" y="94" width="1" height="1" fill="#bd5f3f" />
<rect x="155" y="94" width="1" height="1" fill="#bd5f3f" />
<rect x="161" y="94" width="1" height="1" fill="#bd5f3f" />
<rect x="167" y="94" width="1" height="1" fill="#bd5f3f" />
<rect x="173" y="94" width="1" height="1" fill="#bd5f3f" />
<rect x="80" y="97" width="1" height="1" fill="#bd5f3f" />
<rect x="86" y="97" width="1" height="1" fill="#bd5f3f" />
<rect x="92" y="97" width="1" height="1" fill="#bd5f3f" />
<rect x="98" y="97" width="1" height="1" fill="#bd5f3f" />
<rect x="104" y="97" width="1" height="1" fill="#bd5f3f" />
<rect x="110" y="97" width="1" height="1" fill="#bd5f3f" />
<rect x="116" y="97" width="1" height="1" fill="#bd5f3f" />
<rect x="122" y="97" width="1" height="1" fill="#bd5f3f" />
<rect x="128" y="97" width="1" height="1" fill="#bd5f3f" />
<rect x="134" y="97" width="1" height="1" fill="#bd5f3f" />
<rect x="140" y="97" width="1" height="1" fill="#bd5f3f" />
<rect x="146" y="97" width="1" height="1" fill="#bd5f3f" />
<rect x="152" y="97" width="1" height="1" fill="#bd5f3f" />
<rect x="158" y="97" width="1" height="1" fill="#bd5f3f" />
<rect x="164" y="97" width="1" height="1" fill="#bd5f3f" />
<rect x="170" y="97" width="1" height="1" fill="#bd5f3f" />
<rect x="83" y="100" width="1" height="1" fill="#bd5f3f" />
<rect x="89" y="100" width="1" height="1" fill="#bd5f3f" />
<rect x="95" y="100" width="1" height="1" fill="#bd5f3f" />
<rect x="101" y="100" width="1" height="1" fill="#bd5f3f" />
<rect x="107" y="100" width="1" height="1" fill="#bd5f3f" />
<rect x="113" y="100" width="1" height="1" fill="#bd5f3f" />
<rect x="119" y="100" width="1" height="1" fill="#bd5f3f" />
<rect x="125" y="100" width="1" height="1" fill="#bd5f3f" />
<rect x="131" y="100" width="1" height="1" fill="#bd5f3f" />
<rect x="137" y="100" width="1" height="1" fill="#bd5f3f" />
<rect x="143" y="100" width="1" height="1" fill="#bd5f3f" />
<rect x="149" y="100" width="1" height="1" fill="#bd5f3f" />
<rect x="155" y="100" width="1" height="1" fill="#bd5f3f" />
<rect x="161" y="100" width="1" height="1" fill="#bd5f3f" />
<rect x="167" y="100" width="1" height="1" fill="#bd5f3f" />
<rect x="173" y="100" width="1" height="1" fill="#bd5f3f" />
<rect x="82" y="112" width="92" height="1" fill="#6d3527" />
<rect x="82" y="119" width="92" height="1" fill="#6d3527" />
<rect x="82" y="126" width="92" height="1" fill="#6d3527" />
<rect x="82" y="133" width="92" height="1" fill="#6d3527" />
<rect x="82" y="140" width="92" height="1" fill="#6d3527" />
<rect x="92" y="98" width="72" height="48" fill="#6d3527" />
<rect x="96" y="104" width="64" height="8" fill="#bd5f3f" />
<rect x="96" y="116" width="64" height="4" fill="#df8765" />
<circle cx="98" cy="130" r="1.2" fill="#df8765" />
<circle cx="108" cy="130" r="1.2" fill="#df8765" />
<circle cx="118" cy="130" r="1.2" fill="#df8765" />
<circle cx="128" cy="130" r="1.2" fill="#df8765" />
<circle cx="138" cy="130" r="1.2" fill="#df8765" />
<circle cx="148" cy="130" r="1.2" fill="#df8765" />
<rect x="54" y="94" width="20" height="84" fill="#0b1320" />
<rect x="55" y="95" width="18" height="82" fill="#6d3527" />
<rect x="55" y="95" width="18" height="1" fill="#df8765" />
<rect x="55" y="95" width="1" height="82" fill="#df8765" />
<rect x="55" y="176" width="18" height="1" fill="#6d3527" />
<rect x="72" y="95" width="1" height="82" fill="#6d3527" />
<rect x="186" y="94" width="20" height="84" fill="#0b1320" />
<rect x="187" y="95" width="18" height="82" fill="#6d3527" />
<rect x="187" y="95" width="18" height="1" fill="#df8765" />
<rect x="187" y="95" width="1" height="82" fill="#df8765" />
<rect x="187" y="176" width="18" height="1" fill="#6d3527" />
<rect x="204" y="95" width="1" height="82" fill="#6d3527" />
<rect x="56" y="108" width="16" height="8" fill="#df8765" />
<rect x="188" y="108" width="16" height="8" fill="#df8765" />
<rect x="56" y="128" width="16" height="8" fill="#df8765" />
<rect x="188" y="128" width="16" height="8" fill="#df8765" />
<rect x="74" y="186" width="44" height="54" fill="#0b1320" />
<rect x="75" y="187" width="42" height="52" fill="#6d3527" />
<rect x="75" y="187" width="42" height="1" fill="#df8765" />
<rect x="75" y="187" width="1" height="52" fill="#df8765" />
<rect x="75" y="238" width="42" height="1" fill="#0b1320" />
<rect x="116" y="187" width="1" height="52" fill="#0b1320" />
<rect x="138" y="202" width="44" height="54" fill="#0b1320" />
<rect x="139" y="203" width="42" height="52" fill="#6d3527" />
<rect x="139" y="203" width="42" height="1" fill="#df8765" />
<rect x="139" y="203" width="1" height="52" fill="#df8765" />
<rect x="139" y="254" width="42" height="1" fill="#0b1320" />
<rect x="180" y="203" width="1" height="52" fill="#0b1320" />
<rect x="78" y="190" width="1" height="1" fill="#bd5f3f" />
<rect x="84" y="190" width="1" height="1" fill="#bd5f3f" />
<rect x="90" y="190" width="1" height="1" fill="#bd5f3f" />
<rect x="96" y="190" width="1" height="1" fill="#bd5f3f" />
<rect x="102" y="190" width="1" height="1" fill="#bd5f3f" />
<rect x="108" y="190" width="1" height="1" fill="#bd5f3f" />
<rect x="81" y="193" width="1" height="1" fill="#bd5f3f" />
<rect x="87" y="193" width="1" height="1" fill="#bd5f3f" />
<rect x="93" y="193" width="1" height="1" fill="#bd5f3f" />
<rect x="99" y="193" width="1" height="1" fill="#bd5f3f" />
<rect x="105" y="193" width="1" height="1" fill="#bd5f3f" />
<rect x="111" y="193" width="1" height="1" fill="#bd5f3f" />
<rect x="78" y="196" width="1" height="1" fill="#bd5f3f" />
<rect x="84" y="196" width="1" height="1" fill="#bd5f3f" />
<rect x="90" y="196" width="1" height="1" fill="#bd5f3f" />
<rect x="96" y="196" width="1" height="1" fill="#bd5f3f" />
<rect x="102" y="196" width="1" height="1" fill="#bd5f3f" />
<rect x="108" y="196" width="1" height="1" fill="#bd5f3f" />
<rect x="81" y="199" width="1" height="1" fill="#bd5f3f" />
<rect x="87" y="199" width="1" height="1" fill="#bd5f3f" />
<rect x="93" y="199" width="1" height="1" fill="#bd5f3f" />
<rect x="99" y="199" width="1" height="1" fill="#bd5f3f" />
<rect x="105" y="199" width="1" height="1" fill="#bd5f3f" />
<rect x="111" y="199" width="1" height="1" fill="#bd5f3f" />
<rect x="78" y="202" width="1" height="1" fill="#bd5f3f" />
<rect x="84" y="202" width="1" height="1" fill="#bd5f3f" />
<rect x="90" y="202" width="1" height="1" fill="#bd5f3f" />
<rect x="96" y="202" width="1" height="1" fill="#bd5f3f" />
<rect x="102" y="202" width="1" height="1" fill="#bd5f3f" />
<rect x="108" y="202" width="1" height="1" fill="#bd5f3f" />
<rect x="81" y="205" width="1" height="1" fill="#bd5f3f" />
<rect x="87" y="205" width="1" height="1" fill="#bd5f3f" />
<rect x="93" y="205" width="1" height="1" fill="#bd5f3f" />
<rect x="99" y="205" width="1" height="1" fill="#bd5f3f" />
<rect x="105" y="205" width="1" height="1" fill="#bd5f3f" />
<rect x="111" y="205" width="1" height="1" fill="#bd5f3f" />
<rect x="78" y="208" width="1" height="1" fill="#bd5f3f" />
<rect x="84" y="208" width="1" height="1" fill="#bd5f3f" />
<rect x="90" y="208" width="1" height="1" fill="#bd5f3f" />
<rect x="96" y="208" width="1" height="1" fill="#bd5f3f" />
<rect x="102" y="208" width="1" height="1" fill="#bd5f3f" />
<rect x="108" y="208" width="1" height="1" fill="#bd5f3f" />
<rect x="81" y="211" width="1" height="1" fill="#bd5f3f" />
<rect x="87" y="211" width="1" height="1" fill="#bd5f3f" />
<rect x="93" y="211" width="1" height="1" fill="#bd5f3f" />
<rect x="99" y="211" width="1" height="1" fill="#bd5f3f" />
<rect x="105" y="211" width="1" height="1" fill="#bd5f3f" />
<rect x="111" y="211" width="1" height="1" fill="#bd5f3f" />
<rect x="78" y="214" width="1" height="1" fill="#bd5f3f" />
<rect x="84" y="214" width="1" height="1" fill="#bd5f3f" />
<rect x="90" y="214" width="1" height="1" fill="#bd5f3f" />
<rect x="96" y="214" width="1" height="1" fill="#bd5f3f" />
<rect x="102" y="214" width="1" height="1" fill="#bd5f3f" />
<rect x="108" y="214" width="1" height="1" fill="#bd5f3f" />
<rect x="81" y="217" width="1" height="1" fill="#bd5f3f" />
<rect x="87" y="217" width="1" height="1" fill="#bd5f3f" />
<rect x="93" y="217" width="1" height="1" fill="#bd5f3f" />
<rect x="99" y="217" width="1" height="1" fill="#bd5f3f" />
<rect x="105" y="217" width="1" height="1" fill="#bd5f3f" />
<rect x="111" y="217" width="1" height="1" fill="#bd5f3f" />
<rect x="78" y="220" width="1" height="1" fill="#bd5f3f" />
<rect x="84" y="220" width="1" height="1" fill="#bd5f3f" />
<rect x="90" y="220" width="1" height="1" fill="#bd5f3f" />
<rect x="96" y="220" width="1" height="1" fill="#bd5f3f" />
<rect x="102" y="220" width="1" height="1" fill="#bd5f3f" />
<rect x="108" y="220" width="1" height="1" fill="#bd5f3f" />
<rect x="81" y="223" width="1" height="1" fill="#bd5f3f" />
<rect x="87" y="223" width="1" height="1" fill="#bd5f3f" />
<rect x="93" y="223" width="1" height="1" fill="#bd5f3f" />
<rect x="99" y="223" width="1" height="1" fill="#bd5f3f" />
<rect x="105" y="223" width="1" height="1" fill="#bd5f3f" />
<rect x="111" y="223" width="1" height="1" fill="#bd5f3f" />
<rect x="78" y="226" width="1" height="1" fill="#bd5f3f" />
<rect x="84" y="226" width="1" height="1" fill="#bd5f3f" />
<rect x="90" y="226" width="1" height="1" fill="#bd5f3f" />
<rect x="96" y="226" width="1" height="1" fill="#bd5f3f" />
<rect x="102" y="226" width="1" height="1" fill="#bd5f3f" />
<rect x="108" y="226" width="1" height="1" fill="#bd5f3f" />
<rect x="145" y="206" width="1" height="1" fill="#bd5f3f" />
<rect x="151" y="206" width="1" height="1" fill="#bd5f3f" />
<rect x="157" y="206" width="1" height="1" fill="#bd5f3f" />
<rect x="163" y="206" width="1" height="1" fill="#bd5f3f" />
<rect x="169" y="206" width="1" height="1" fill="#bd5f3f" />
<rect x="175" y="206" width="1" height="1" fill="#bd5f3f" />
<rect x="142" y="209" width="1" height="1" fill="#bd5f3f" />
<rect x="148" y="209" width="1" height="1" fill="#bd5f3f" />
<rect x="154" y="209" width="1" height="1" fill="#bd5f3f" />
<rect x="160" y="209" width="1" height="1" fill="#bd5f3f" />
<rect x="166" y="209" width="1" height="1" fill="#bd5f3f" />
<rect x="172" y="209" width="1" height="1" fill="#bd5f3f" />
<rect x="145" y="212" width="1" height="1" fill="#bd5f3f" />
<rect x="151" y="212" width="1" height="1" fill="#bd5f3f" />
<rect x="157" y="212" width="1" height="1" fill="#bd5f3f" />
<rect x="163" y="212" width="1" height="1" fill="#bd5f3f" />
<rect x="169" y="212" width="1" height="1" fill="#bd5f3f" />
<rect x="175" y="212" width="1" height="1" fill="#bd5f3f" />
<rect x="142" y="215" width="1" height="1" fill="#bd5f3f" />
<rect x="148" y="215" width="1" height="1" fill="#bd5f3f" />
<rect x="154" y="215" width="1" height="1" fill="#bd5f3f" />
<rect x="160" y="215" width="1" height="1" fill="#bd5f3f" />
<rect x="166" y="215" width="1" height="1" fill="#bd5f3f" />
<rect x="172" y="215" width="1" height="1" fill="#bd5f3f" />
<rect x="145" y="218" width="1" height="1" fill="#bd5f3f" />
<rect x="151" y="218" width="1" height="1" fill="#bd5f3f" />
<rect x="157" y="218" width="1" height="1" fill="#bd5f3f" />
<rect x="163" y="218" width="1" height="1" fill="#bd5f3f" />
<rect x="169" y="218" width="1" height="1" fill="#bd5f3f" />
<rect x="175" y="218" width="1" height="1" fill="#bd5f3f" />
<rect x="142" y="221" width="1" height="1" fill="#bd5f3f" />
<rect x="148" y="221" width="1" height="1" fill="#bd5f3f" />
<rect x="154" y="221" width="1" height="1" fill="#bd5f3f" />
<rect x="160" y="221" width="1" height="1" fill="#bd5f3f" />
<rect x="166" y="221" width="1" height="1" fill="#bd5f3f" />
<rect x="172" y="221" width="1" height="1" fill="#bd5f3f" />
<rect x="145" y="224" width="1" height="1" fill="#bd5f3f" />
<rect x="151" y="224" width="1" height="1" fill="#bd5f3f" />
<rect x="157" y="224" width="1" height="1" fill="#bd5f3f" />
<rect x="163" y="224" width="1" height="1" fill="#bd5f3f" />
<rect x="169" y="224" width="1" height="1" fill="#bd5f3f" />
<rect x="175" y="224" width="1" height="1" fill="#bd5f3f" />
<rect x="142" y="227" width="1" height="1" fill="#bd5f3f" />
<rect x="148" y="227" width="1" height="1" fill="#bd5f3f" />
<rect x="154" y="227" width="1" height="1" fill="#bd5f3f" />
<rect x="160" y="227" width="1" height="1" fill="#bd5f3f" />
<rect x="166" y="227" width="1" height="1" fill="#bd5f3f" />
<rect x="172" y="227" width="1" height="1" fill="#bd5f3f" />
<rect x="145" y="230" width="1" height="1" fill="#bd5f3f" />
<rect x="151" y="230" width="1" height="1" fill="#bd5f3f" />
<rect x="157" y="230" width="1" height="1" fill="#bd5f3f" />
<rect x="163" y="230" width="1" height="1" fill="#bd5f3f" />
<rect x="169" y="230" width="1" height="1" fill="#bd5f3f" />
<rect x="175" y="230" width="1" height="1" fill="#bd5f3f" />
<rect x="142" y="233" width="1" height="1" fill="#bd5f3f" />
<rect x="148" y="233" width="1" height="1" fill="#bd5f3f" />
<rect x="154" y="233" width="1" height="1" fill="#bd5f3f" />
<rect x="160" y="233" width="1" height="1" fill="#bd5f3f" />
<rect x="166" y="233" width="1" height="1" fill="#bd5f3f" />
<rect x="172" y="233" width="1" height="1" fill="#bd5f3f" />
<rect x="145" y="236" width="1" height="1" fill="#bd5f3f" />
<rect x="151" y="236" width="1" height="1" fill="#bd5f3f" />
<rect x="157" y="236" width="1" height="1" fill="#bd5f3f" />
<rect x="163" y="236" width="1" height="1" fill="#bd5f3f" />
<rect x="169" y="236" width="1" height="1" fill="#bd5f3f" />
<rect x="175" y="236" width="1" height="1" fill="#bd5f3f" />
<rect x="142" y="239" width="1" height="1" fill="#bd5f3f" />
<rect x="148" y="239" width="1" height="1" fill="#bd5f3f" />
<rect x="154" y="239" width="1" height="1" fill="#bd5f3f" />
<rect x="160" y="239" width="1" height="1" fill="#bd5f3f" />
<rect x="166" y="239" width="1" height="1" fill="#bd5f3f" />
<rect x="172" y="239" width="1" height="1" fill="#bd5f3f" />
<rect x="145" y="242" width="1" height="1" fill="#bd5f3f" />
<rect x="151" y="242" width="1" height="1" fill="#bd5f3f" />
<rect x="157" y="242" width="1" height="1" fill="#bd5f3f" />
<rect x="163" y="242" width="1" height="1" fill="#bd5f3f" />
<rect x="169" y="242" width="1" height="1" fill="#bd5f3f" />
<rect x="175" y="242" width="1" height="1" fill="#bd5f3f" />
<rect x="184" y="126" width="44" height="16" fill="#0b1320" />
<rect x="185" y="127" width="42" height="14" fill="#d3deee" />
<rect x="185" y="127" width="42" height="1" fill="#f1f7ff" />
<rect x="185" y="127" width="1" height="14" fill="#f1f7ff" />
<rect x="185" y="140" width="42" height="1" fill="#7485a4" />
<rect x="226" y="127" width="1" height="14" fill="#7485a4" />
<rect x="214" y="128" width="16" height="10" fill="#7485a4" />
<rect x="86" y="70" width="84" height="8" fill="#df8765" />
<rect x="88" y="72" width="80" height="2" fill="#0b1320" />
<rect x="114" y="118" width="10" height="6" fill="#142033" />
<rect x="142" y="118" width="10" height="6" fill="#142033" />
<rect x="122" y="124" width="22" height="4" fill="#69ddff" />
</svg>
