<?xml version="1.0" encoding="UTF-8"?>
<svg xmlns="http://www.w3.org/2000/svg" width="256" height="256" viewBox="0 0 256 256" shape-rendering="crispEdges">
<polygon points="98,61 132,57 148,65 148,89 120,95 104,83" fill="#0b1320" />
<polygon points="102,63 130,59 144,67 144,87 120,93 108,81" fill="#cb9975" />
<polygon points="98,55 126,49 144,57 148,67 140,71 108,67" fill="#433846" />
<polygon points="100,69 112,67 110,89 98,85" fill="#6b5c73" />
<polygon points="104,87 112,99 122,95 118,83" fill="#231d26" />
<rect x="112" y="90" width="9" height="7" fill="#996846" />
<rect x="118" y="71" width="8" height="2" fill="#0b1320" />
<rect x="122" y="74" width="6" height="4" fill="#142033" />
<rect x="132" y="75" width="7" height="2" fill="#996846" />
<polygon points="96,105 132,99 156,109 158,155 108,161" fill="#0b1320" />
<polygon points="100,107 130,103 152,111 154,153 110,157" fill="#87555a" />
<rect x="104" y="113" width="26" height="8" fill="#de7a92" />
<rect x="108" y="125" width="34" height="3" fill="#593338" />
<rect x="110" y="135" width="34" height="3" fill="#593338" />
<rect x="106" y="115" width="5" height="18" fill="#cb9975" />
<polygon points="108,105 120,103 134,133 124,135" fill="#4a2a2e" />
<rect x="122" y="139" width="14" height="11" fill="#4a2a2e" />
<polygon points="96,121 108,117 110,153 100,155" fill="#996846" />
<rect x="98" y="127" width="6" height="18" fill="#4a2a2e" />
<rect x="94" y="149" width="9" height="6" fill="#cb9975" />
<polygon points="128,115 142,117 126,120 118,122" fill="#996846" />
<polygon points="134,131 148,131 130,128 124,132" fill="#4a2a2e" />
<rect x="122" y="119" width="7" height="7" fill="#cb9975" />
<rect x="152" y="118" width="7" height="7" fill="#cb9975" />
<rect x="134" y="114" width="70" height="10" fill="#0b1320" />
<rect x="135" y="115" width="68" height="8" fill="#a8b2bf" />
<rect x="135" y="115" width="68" height="1" fill="#f3f8ff" />
<rect x="135" y="115" width="1" height="8" fill="#f3f8ff" />
<rect x="135" y="122" width="68" height="1" fill="#62707c" />
<rect x="202" y="115" width="1" height="8" fill="#62707c" />
<rect x="140" y="116" width="58" height="2" fill="#edf6ff" />
<rect x="124" y="116" width="14" height="6" fill="#62707c" />
<rect x="198" y="116" width="18" height="6" fill="#62707c" />
<rect x="154" y="124" width="10" height="16" fill="#62707c" />
<polygon points="150,124 158,138 168,138 162,124" fill="#62707c" />
<rect x="144" y="122" width="18" height="2" fill="#0b1320" />
<rect x="99" y="159" width="20" height="60" fill="#0b1320" />
<rect x="100" y="160" width="18" height="58" fill="#2b1719" />
<rect x="100" y="160" width="18" height="1" fill="#87555a" />
<rect x="100" y="160" width="1" height="58" fill="#87555a" />
<rect x="100" y="217" width="18" height="1" fill="#4a2a2e" />
<rect x="117" y="160" width="1" height="58" fill="#4a2a2e" />
<rect x="124" y="153" width="22" height="62" fill="#0b1320" />
<rect x="125" y="154" width="20" height="60" fill="#593338" />
<rect x="125" y="154" width="20" height="1" fill="#87555a" />
<rect x="125" y="154" width="1" height="60" fill="#87555a" />
<rect x="125" y="213" width="20" height="1" fill="#4a2a2e" />
<rect x="144" y="154" width="1" height="60" fill="#4a2a2e" />
<rect x="101" y="165" width="1" height="1" fill="#4a2a2e" />
<rect x="107" y="165" width="1" height="1" fill="#4a2a2e" />
<rect x="113" y="165" width="1" height="1" fill="#4a2a2e" />
<rect x="104" y="168" width="1" height="1" fill="#4a2a2e" />
<rect x="110" y="168" width="1" height="1" fill="#4a2a2e" />
<rect x="101" y="171" width="1" height="1" fill="#4a2a2e" />
<rect x="107" y="171" width="1" height="1" fill="#4a2a2e" />
<rect x="113" y="171" width="1" height="1" fill="#4a2a2e" />
<rect x="104" y="174" width="1" height="1" fill="#4a2a2e" />
<rect x="110" y="174" width="1" height="1" fill="#4a2a2e" />
<rect x="101" y="177" width="1" height="1" fill="#4a2a2e" />
<rect x="107" y="177" width="1" height="1" fill="#4a2a2e" />
<rect x="113" y="177" width="1" height="1" fill="#4a2a2e" />
<rect x="104" y="180" width="1" height="1" fill="#4a2a2e" />
<rect x="110" y="180" width="1" height="1" fill="#4a2a2e" />
<rect x="101" y="183" width="1" height="1" fill="#4a2a2e" />
<rect x="107" y="183" width="1" height="1" fill="#4a2a2e" />
<rect x="113" y="183" width="1" height="1" fill="#4a2a2e" />
<rect x="104" y="186" width="1" height="1" fill="#4a2a2e" />
<rect x="110" y="186" width="1" height="1" fill="#4a2a2e" />
<rect x="101" y="189" width="1" height="1" fill="#4a2a2e" />
<rect x="107" y="189" width="1" height="1" fill="#4a2a2e" />
<rect x="113" y="189" width="1" height="1" fill="#4a2a2e" />
<rect x="104" y="192" width="1" height="1" fill="#4a2a2e" />
<rect x="110" y="192" width="1" height="1" fill="#4a2a2e" />
<rect x="101" y="195" width="1" height="1" fill="#4a2a2e" />
<rect x="107" y="195" width="1" height="1" fill="#4a2a2e" />
<rect x="113" y="195" width="1" height="1" fill="#4a2a2e" />
<rect x="104" y="198" width="1" height="1" fill="#4a2a2e" />
<rect x="110" y="198" width="1" height="1" fill="#4a2a2e" />
<rect x="101" y="201" width="1" height="1" fill="#4a2a2e" />
<rect x="107" y="201" width="1" height="1" fill="#4a2a2e" />
<rect x="113" y="201" width="1" height="1" fill="#4a2a2e" />
<rect x="104" y="204" width="1" height="1" fill="#4a2a2e" />
<rect x="110" y="204" width="1" height="1" fill="#4a2a2e" />
<rect x="131" y="159" width="1" height="1" fill="#4a2a2e" />
<rect x="137" y="159" width="1" height="1" fill="#4a2a2e" />
<rect x="128" y="162" width="1" height="1" fill="#4a2a2e" />
<rect x="134" y="162" width="1" height="1" fill="#4a2a2e" />
<rect x="140" y="162" width="1" height="1" fill="#4a2a2e" />
<rect x="131" y="165" width="1" height="1" fill="#4a2a2e" />
<rect x="137" y="165" width="1" height="1" fill="#4a2a2e" />
<rect x="128" y="168" width="1" height="1" fill="#4a2a2e" />
<rect x="134" y="168" width="1" height="1" fill="#4a2a2e" />
<rect x="140" y="168" width="1" height="1" fill="#4a2a2e" />
<rect x="131" y="171" width="1" height="1" fill="#4a2a2e" />
<rect x="137" y="171" width="1" height="1" fill="#4a2a2e" />
<rect x="128" y="174" width="1" height="1" fill="#4a2a2e" />
<rect x="134" y="174" width="1" height="1" fill="#4a2a2e" />
<rect x="140" y="174" width="1" height="1" fill="#4a2a2e" />
<rect x="131" y="177" width="1" height="1" fill="#4a2a2e" />
<rect x="137" y="177" width="1" height="1" fill="#4a2a2e" />
<rect x="128" y="180" width="1" height="1" fill="#4a2a2e" />
<rect x="134" y="180" width="1" height="1" fill="#4a2a2e" />
<rect x="140" y="180" width="1" height="1" fill="#4a2a2e" />
<rect x="131" y="183" width="1" height="1" fill="#4a2a2e" />
<rect x="137" y="183" width="1" height="1" fill="#4a2a2e" />
<rect x="128" y="186" width="1" height="1" fill="#4a2a2e" />
<rect x="134" y="186" width="1" height="1" fill="#4a2a2e" />
<rect x="140" y="186" width="1" height="1" fill="#4a2a2e" />
<rect x="131" y="189" width="1" height="1" fill="#4a2a2e" />
<rect x="137" y="189" width="1" height="1" fill="#4a2a2e" />
<rect x="128" y="192" width="1" height="1" fill="#4a2a2e" />
<rect x="134" y="192" width="1" height="1" fill="#4a2a2e" />
<rect x="140" y="192" width="1" height="1" fill="#4a2a2e" />
<rect x="131" y="195" width="1" height="1" fill="#4a2a2e" />
<rect x="137" y="195" width="1" height="1" fill="#4a2a2e" />
<rect x="128" y="198" width="1" height="1" fill="#4a2a2e" />
<rect x="134" y="198" width="1" height="1" fill="#4a2a2e" />
<rect x="140" y="198" width="1" height="1" fill="#4a2a2e" />
<rect x="97" y="236" width="34" height="12" fill="#0b1320" />
<rect x="98" y="237" width="32" height="10" fill="#231d26" />
<rect x="98" y="237" width="32" height="1" fill="#4a2a2e" />
<rect x="98" y="237" width="1" height="10" fill="#4a2a2e" />
<rect x="98" y="246" width="32" height="1" fill="#0b1320" />
<rect x="129" y="237" width="1" height="10" fill="#0b1320" />
<rect x="122" y="236" width="38" height="12" fill="#0b1320" />
<rect x="123" y="237" width="36" height="10" fill="#231d26" />
<rect x="123" y="237" width="36" height="1" fill="#4a2a2e" />
<rect x="123" y="237" width="1" height="10" fill="#4a2a2e" />
<rect x="123" y="246" width="36" height="1" fill="#0b1320" />
<rect x="158" y="237" width="1" height="10" fill="#0b1320" />
</svg>
