<?xml version="1.0" encoding="UTF-8"?>
<svg xmlns="http://www.w3.org/2000/svg" width="256" height="256" viewBox="0 0 256 256" shape-rendering="crispEdges">
<rect x="48" y="26" width="160" height="206" fill="#0b1320" />
<rect x="49" y="27" width="158" height="204" fill="#232d3f" />
<rect x="49" y="27" width="158" height="1" fill="#2f3f58" />
<rect x="49" y="27" width="1" height="204" fill="#2f3f58" />
<rect x="49" y="230" width="158" height="1" fill="#141b24" />
<rect x="206" y="27" width="1" height="204" fill="#141b24" />
<rect x="76" y="54" width="104" height="148" fill="#778eb6" />
<rect x="80" y="60" width="96" height="10" fill="#495c80" />
<rect x="86" y="72" width="2" height="2" fill="#495c80" />
<rect x="94" y="72" width="2" height="2" fill="#495c80" />
<rect x="102" y="72" width="2" height="2" fill="#495c80" />
<rect x="110" y="72" width="2" height="2" fill="#495c80" />
<rect x="118" y="72" width="2" height="2" fill="#495c80" />
<rect x="126" y="72" width="2" height="2" fill="#495c80" />
<rect x="134" y="72" width="2" height="2" fill="#495c80" />
<rect x="142" y="72" width="2" height="2" fill="#495c80" />
<rect x="150" y="72" width="2" height="2" fill="#495c80" />
<rect x="158" y="72" width="2" height="2" fill="#495c80" />
<rect x="166" y="72" width="2" height="2" fill="#495c80" />
<rect x="82" y="76" width="2" height="2" fill="#495c80" />
<rect x="90" y="76" width="2" height="2" fill="#495c80" />
<rect x="98" y="76" width="2" height="2" fill="#495c80" />
<rect x="106" y="76" width="2" height="2" fill="#495c80" />
<rect x="114" y="76" width="2" height="2" fill="#495c80" />
<rect x="122" y="76" width="2" height="2" fill="#495c80" />
<rect x="130" y="76" width="2" height="2" fill="#495c80" />
<rect x="138" y="76" width="2" height="2" fill="#495c80" />
<rect x="146" y="76" width="2" height="2" fill="#495c80" />
<rect x="154" y="76" width="2" height="2" fill="#495c80" />
<rect x="162" y="76" width="2" height="2" fill="#495c80" />
<rect x="170" y="76" width="2" height="2" fill="#495c80" />
<rect x="86" y="80" width="2" height="2" fill="#495c80" />
<rect x="94" y="80" width="2" height="2" fill="#495c80" />
<rect x="102" y="80" width="2" height="2" fill="#495c80" />
<rect x="110" y="80" width="2" height="2" fill="#495c80" />
<rect x="118" y="80" width="2" height="2" fill="#495c80" />
<rect x="126" y="80" width="2" height="2" fill="#495c80" />
<rect x="134" y="80" width="2" height="2" fill="#495c80" />
<rect x="142" y="80" width="2" height="2" fill="#495c80" />
<rect x="150" y="80" width="2" height="2" fill="#495c80" />
<rect x="158" y="80" width="2" height="2" fill="#495c80" />
<rect x="166" y="80" width="2" height="2" fill="#495c80" />
<rect x="82" y="84" width="2" height="2" fill="#495c80" />
<rect x="90" y="84" width="2" height="2" fill="#495c80" />
<rect x="98" y="84" width="2" height="2" fill="#495c80" />
<rect x="106" y="84" width="2" height="2" fill="#495c80" />
<rect x="114" y="84" width="2" height="2" fill="#495c80" />
<rect x="122" y="84" width="2" height="2" fill="#495c80" />
<rect x="130" y="84" width="2" height="2" fill="#495c80" />
<rect x="138" y="84" width="2" height="2" fill="#495c80" />
<rect x="146" y="84" width="2" height="2" fill="#495c80" />
<rect x="154" y="84" width="2" height="2" fill="#495c80" />
<rect x="162" y="84" width="2" height="2" fill="#495c80" />
<rect x="170" y="84" width="2" height="2" fill="#495c80" />
<rect x="86" y="88" width="2" height="2" fill="#495c80" />
<rect x="94" y="88" width="2" height="2" fill="#495c80" />
<rect x="102" y="88" width="2" height="2" fill="#495c80" />
<rect x="110" y="88" width="2" height="2" fill="#495c80" />
<rect x="118" y="88" width="2" height="2" fill="#495c80" />
<rect x="126" y="88" width="2" height="2" fill="#495c80" />
<rect x="134" y="88" width="2" height="2" fill="#495c80" />
<rect x="142" y="88" width="2" height="2" fill="#495c80" />
<rect x="150" y="88" width="2" height="2" fill="#495c80" />
<rect x="158" y="88" width="2" height="2" fill="#495c80" />
<rect x="166" y="88" width="2" height="2" fill="#495c80" />
<rect x="82" y="92" width="2" height="2" fill="#495c80" />
<rect x="90" y="92" width="2" height="2" fill="#495c80" />
<rect x="98" y="92" width="2" height="2" fill="#495c80" />
<rect x="106" y="92" width="2" height="2" fill="#495c80" />
<rect x="114" y="92" width="2" height="2" fill="#495c80" />
<rect x="122" y="92" width="2" height="2" fill="#495c80" />
<rect x="130" y="92" width="2" height="2" fill="#495c80" />
<rect x="138" y="92" width="2" height="2" fill="#495c80" />
<rect x="146" y="92" width="2" height="2" fill="#495c80" />
<rect x="154" y="92" width="2" height="2" fill="#495c80" />
<rect x="162" y="92" width="2" height="2" fill="#495c80" />
<rect x="170" y="92" width="2" height="2" fill="#495c80" />
<rect x="86" y="96" width="2" height="2" fill="#495c80" />
<rect x="94" y="96" width="2" height="2" fill="#495c80" />
<rect x="102" y="96" width="2" height="2" fill="#495c80" />
<rect x="110" y="96" width="2" height="2" fill="#495c80" />
<rect x="118" y="96" width="2" height="2" fill="#495c80" />
<rect x="126" y="96" width="2" height="2" fill="#495c80" />
<rect x="134" y="96" width="2" height="2" fill="#495c80" />
<rect x="142" y="96" width="2" height="2" fill="#495c80" />
<rect x="150" y="96" width="2" height="2" fill="#495c80" />
<rect x="158" y="96" width="2" height="2" fill="#495c80" />
<rect x="166" y="96" width="2" height="2" fill="#495c80" />
<rect x="82" y="100" width="2" height="2" fill="#495c80" />
<rect x="90" y="100" width="2" height="2" fill="#495c80" />
<rect x="98" y="100" width="2" height="2" fill="#495c80" />
<rect x="106" y="100" width="2" height="2" fill="#495c80" />
<rect x="114" y="100" width="2" height="2" fill="#495c80" />
<rect x="122" y="100" width="2" height="2" fill="#495c80" />
<rect x="130" y="100" width="2" height="2" fill="#495c80" />
<rect x="138" y="100" width="2" height="2" fill="#495c80" />
<rect x="146" y="100" width="2" height="2" fill="#495c80" />
<rect x="154" y="100" width="2" height="2" fill="#495c80" />
<rect x="162" y="100" width="2" height="2" fill="#495c80" />
<rect x="170" y="100" width="2" height="2" fill="#495c80" />
<rect x="86" y="104" width="2" height="2" fill="#495c80" />
<rect x="94" y="104" width="2" height="2" fill="#495c80" />
<rect x="102" y="104" width="2" height="2" fill="#495c80" />
<rect x="110" y="104" width="2" height="2" fill="#495c80" />
<rect x="118" y="104" width="2" height="2" fill="#495c80" />
<rect x="126" y="104" width="2" height="2" fill="#495c80" />
<rect x="134" y="104" width="2" height="2" fill="#495c80" />
<rect x="142" y="104" width="2" height="2" fill="#495c80" />
<rect x="150" y="104" width="2" height="2" fill="#495c80" />
<rect x="158" y="104" width="2" height="2" fill="#495c80" />
<rect x="166" y="104" width="2" height="2" fill="#495c80" />
<rect x="82" y="108" width="2" height="2" fill="#495c80" />
<rect x="90" y="108" width="2" height="2" fill="#495c80" />
<rect x="98" y="108" width="2" height="2" fill="#495c80" />
<rect x="106" y="108" width="2" height="2" fill="#495c80" />
<rect x="114" y="108" width="2" height="2" fill="#495c80" />
<rect x="122" y="108" width="2" height="2" fill="#495c80" />
<rect x="130" y="108" width="2" height="2" fill="#495c80" />
<rect x="138" y="108" width="2" height="2" fill="#495c80" />
<rect x="146" y="108" width="2" height="2" fill="#495c80" />
<rect x="154" y="108" width="2" height="2" fill="#495c80" />
<rect x="162" y="108" width="2" height="2" fill="#495c80" />
<rect x="170" y="108" width="2" height="2" fill="#495c80" />
<rect x="86" y="112" width="2" height="2" fill="#495c80" />
<rect x="94" y="112" width="2" height="2" fill="#495c80" />
<rect x="102" y="112" width="2" height="2" fill="#495c80" />
<rect x="110" y="112" width="2" height="2" fill="#495c80" />
<rect x="118" y="112" width="2" height="2" fill="#495c80" />
<rect x="126" y="112" width="2" height="2" fill="#495c80" />
<rect x="134" y="112" width="2" height="2" fill="#495c80" />
<rect x="142" y="112" width="2" height="2" fill="#495c80" />
<rect x="150" y="112" width="2" height="2" fill="#495c80" />
<rect x="158" y="112" width="2" height="2" fill="#495c80" />
<rect x="166" y="112" width="2" height="2" fill="#495c80" />
<rect x="82" y="116" width="2" height="2" fill="#495c80" />
<rect x="90" y="116" width="2" height="2" fill="#495c80" />
<rect x="98" y="116" width="2" height="2" fill="#495c80" />
<rect x="106" y="116" width="2" height="2" fill="#495c80" />
<rect x="114" y="116" width="2" height="2" fill="#495c80" />
<rect x="122" y="116" width="2" height="2" fill="#495c80" />
<rect x="130" y="116" width="2" height="2" fill="#495c80" />
<rect x="138" y="116" width="2" height="2" fill="#495c80" />
<rect x="146" y="116" width="2" height="2" fill="#495c80" />
<rect x="154" y="116" width="2" height="2" fill="#495c80" />
<rect x="162" y="116" width="2" height="2" fill="#495c80" />
<rect x="170" y="116" width="2" height="2" fill="#495c80" />
<rect x="86" y="120" width="2" height="2" fill="#495c80" />
<rect x="94" y="120" width="2" height="2" fill="#495c80" />
<rect x="102" y="120" width="2" height="2" fill="#495c80" />
<rect x="110" y="120" width="2" height="2" fill="#495c80" />
<rect x="118" y="120" width="2" height="2" fill="#495c80" />
<rect x="126" y="120" width="2" height="2" fill="#495c80" />
<rect x="134" y="120" width="2" height="2" fill="#495c80" />
<rect x="142" y="120" width="2" height="2" fill="#495c80" />
<rect x="150" y="120" width="2" height="2" fill="#495c80" />
<rect x="158" y="120" width="2" height="2" fill="#495c80" />
<rect x="166" y="120" width="2" height="2" fill="#495c80" />
<rect x="82" y="124" width="2" height="2" fill="#495c80" />
<rect x="90" y="124" width="2" height="2" fill="#495c80" />
<rect x="98" y="124" width="2" height="2" fill="#495c80" />
<rect x="106" y="124" width="2" height="2" fill="#495c80" />
<rect x="114" y="124" width="2" height="2" fill="#495c80" />
<rect x="122" y="124" width="2" height="2" fill="#495c80" />
<rect x="130" y="124" width="2" height="2" fill="#495c80" />
<rect x="138" y="124" width="2" height="2" fill="#495c80" />
<rect x="146" y="124" width="2" height="2" fill="#495c80" />
<rect x="154" y="124" width="2" height="2" fill="#495c80" />
<rect x="162" y="124" width="2" height="2" fill="#495c80" />
<rect x="170" y="124" width="2" height="2" fill="#495c80" />
<rect x="86" y="128" width="2" height="2" fill="#495c80" />
<rect x="94" y="128" width="2" height="2" fill="#495c80" />
<rect x="102" y="128" width="2" height="2" fill="#495c80" />
<rect x="110" y="128" width="2" height="2" fill="#495c80" />
<rect x="118" y="128" width="2" height="2" fill="#495c80" />
<rect x="126" y="128" width="2" height="2" fill="#495c80" />
<rect x="134" y="128" width="2" height="2" fill="#495c80" />
<rect x="142" y="128" width="2" height="2" fill="#495c80" />
<rect x="150" y="128" width="2" height="2" fill="#495c80" />
<rect x="158" y="128" width="2" height="2" fill="#495c80" />
<rect x="166" y="128" width="2" height="2" fill="#495c80" />
<rect x="82" y="132" width="2" height="2" fill="#495c80" />
<rect x="90" y="132" width="2" height="2" fill="#495c80" />
<rect x="98" y="132" width="2" height="2" fill="#495c80" />
<rect x="106" y="132" width="2" height="2" fill="#495c80" />
<rect x="114" y="132" width="2" height="2" fill="#495c80" />
<rect x="122" y="132" width="2" height="2" fill="#495c80" />
<rect x="130" y="132" width="2" height="2" fill="#495c80" />
<rect x="138" y="132" width="2" height="2" fill="#495c80" />
<rect x="146" y="132" width="2" height="2" fill="#495c80" />
<rect x="154" y="132" width="2" height="2" fill="#495c80" />
<rect x="162" y="132" width="2" height="2" fill="#495c80" />
<rect x="170" y="132" width="2" height="2" fill="#495c80" />
<rect x="86" y="136" width="2" height="2" fill="#495c80" />
<rect x="94" y="136" width="2" height="2" fill="#495c80" />
<rect x="102" y="136" width="2" height="2" fill="#495c80" />
<rect x="110" y="136" width="2" height="2" fill="#495c80" />
<rect x="118" y="136" width="2" height="2" fill="#495c80" />
<rect x="126" y="136" width="2" height="2" fill="#495c80" />
<rect x="134" y="136" width="2" height="2" fill="#495c80" />
<rect x="142" y="136" width="2" height="2" fill="#495c80" />
<rect x="150" y="136" width="2" height="2" fill="#495c80" />
<rect x="158" y="136" width="2" height="2" fill="#495c80" />
<rect x="166" y="136" width="2" height="2" fill="#495c80" />
<rect x="82" y="140" width="2" height="2" fill="#495c80" />
<rect x="90" y="140" width="2" height="2" fill="#495c80" />
<rect x="98" y="140" width="2" height="2" fill="#495c80" />
<rect x="106" y="140" width="2" height="2" fill="#495c80" />
<rect x="114" y="140" width="2" height="2" fill="#495c80" />
<rect x="122" y="140" width="2" height="2" fill="#495c80" />
<rect x="130" y="140" width="2" height="2" fill="#495c80" />
<rect x="138" y="140" width="2" height="2" fill="#495c80" />
<rect x="146" y="140" width="2" height="2" fill="#495c80" />
<rect x="154" y="140" width="2" height="2" fill="#495c80" />
<rect x="162" y="140" width="2" height="2" fill="#495c80" />
<rect x="170" y="140" width="2" height="2" fill="#495c80" />
<rect x="86" y="144" width="2" height="2" fill="#495c80" />
<rect x="94" y="144" width="2" height="2" fill="#495c80" />
<rect x="102" y="144" width="2" height="2" fill="#495c80" />
<rect x="110" y="144" width="2" height="2" fill="#495c80" />
<rect x="118" y="144" width="2" height="2" fill="#495c80" />
<rect x="126" y="144" width="2" height="2" fill="#495c80" />
<rect x="134" y="144" width="2" height="2" fill="#495c80" />
<rect x="142" y="144" width="2" height="2" fill="#495c80" />
<rect x="150" y="144" width="2" height="2" fill="#495c80" />
<rect x="158" y="144" width="2" height="2" fill="#495c80" />
<rect x="166" y="144" width="2" height="2" fill="#495c80" />
<rect x="82" y="148" width="2" height="2" fill="#495c80" />
<rect x="90" y="148" width="2" height="2" fill="#495c80" />
<rect x="98" y="148" width="2" height="2" fill="#495c80" />
<rect x="106" y="148" width="2" height="2" fill="#495c80" />
<rect x="114" y="148" width="2" height="2" fill="#495c80" />
<rect x="122" y="148" width="2" height="2" fill="#495c80" />
<rect x="130" y="148" width="2" height="2" fill="#495c80" />
<rect x="138" y="148" width="2" height="2" fill="#495c80" />
<rect x="146" y="148" width="2" height="2" fill="#495c80" />
<rect x="154" y="148" width="2" height="2" fill="#495c80" />
<rect x="162" y="148" width="2" height="2" fill="#495c80" />
<rect x="170" y="148" width="2" height="2" fill="#495c80" />
<rect x="86" y="152" width="2" height="2" fill="#495c80" />
<rect x="94" y="152" width="2" height="2" fill="#495c80" />
<rect x="102" y="152" width="2" height="2" fill="#495c80" />
<rect x="110" y="152" width="2" height="2" fill="#495c80" />
<rect x="118" y="152" width="2" height="2" fill="#495c80" />
<rect x="126" y="152" width="2" height="2" fill="#495c80" />
<rect x="134" y="152" width="2" height="2" fill="#495c80" />
<rect x="142" y="152" width="2" height="2" fill="#495c80" />
<rect x="150" y="152" width="2" height="2" fill="#495c80" />
<rect x="158" y="152" width="2" height="2" fill="#495c80" />
<rect x="166" y="152" width="2" height="2" fill="#495c80" />
<rect x="82" y="156" width="2" height="2" fill="#495c80" />
<rect x="90" y="156" width="2" height="2" fill="#495c80" />
<rect x="98" y="156" width="2" height="2" fill="#495c80" />
<rect x="106" y="156" width="2" height="2" fill="#495c80" />
<rect x="114" y="156" width="2" height="2" fill="#495c80" />
<rect x="122" y="156" width="2" height="2" fill="#495c80" />
<rect x="130" y="156" width="2" height="2" fill="#495c80" />
<rect x="138" y="156" width="2" height="2" fill="#495c80" />
<rect x="146" y="156" width="2" height="2" fill="#495c80" />
<rect x="154" y="156" width="2" height="2" fill="#495c80" />
<rect x="162" y="156" width="2" height="2" fill="#495c80" />
<rect x="170" y="156" width="2" height="2" fill="#495c80" />
<rect x="86" y="160" width="2" height="2" fill="#495c80" />
<rect x="94" y="160" width="2" height="2" fill="#495c80" />
<rect x="102" y="160" width="2" height="2" fill="#495c80" />
<rect x="110" y="160" width="2" height="2" fill="#495c80" />
<rect x="118" y="160" width="2" height="2" fill="#495c80" />
<rect x="126" y="160" width="2" height="2" fill="#495c80" />
<rect x="134" y="160" width="2" height="2" fill="#495c80" />
<rect x="142" y="160" width="2" height="2" fill="#495c80" />
<rect x="150" y="160" width="2" height="2" fill="#495c80" />
<rect x="158" y="160" width="2" height="2" fill="#495c80" />
<rect x="166" y="160" width="2" height="2" fill="#495c80" />
<rect x="82" y="164" width="2" height="2" fill="#495c80" />
<rect x="90" y="164" width="2" height="2" fill="#495c80" />
<rect x="98" y="164" width="2" height="2" fill="#495c80" />
<rect x="106" y="164" width="2" height="2" fill="#495c80" />
<rect x="114" y="164" width="2" height="2" fill="#495c80" />
<rect x="122" y="164" width="2" height="2" fill="#495c80" />
<rect x="130" y="164" width="2" height="2" fill="#495c80" />
<rect x="138" y="164" width="2" height="2" fill="#495c80" />
<rect x="146" y="164" width="2" height="2" fill="#495c80" />
<rect x="154" y="164" width="2" height="2" fill="#495c80" />
<rect x="162" y="164" width="2" height="2" fill="#495c80" />
<rect x="170" y="164" width="2" height="2" fill="#495c80" />
<rect x="86" y="168" width="2" height="2" fill="#495c80" />
<rect x="94" y="168" width="2" height="2" fill="#495c80" />
<rect x="102" y="168" width="2" height="2" fill="#495c80" />
<rect x="110" y="168" width="2" height="2" fill="#495c80" />
<rect x="118" y="168" width="2" height="2" fill="#495c80" />
<rect x="126" y="168" width="2" height="2" fill="#495c80" />
<rect x="134" y="168" width="2" height="2" fill="#495c80" />
<rect x="142" y="168" width="2" height="2" fill="#495c80" />
<rect x="150" y="168" width="2" height="2" fill="#495c80" />
<rect x="158" y="168" width="2" height="2" fill="#495c80" />
<rect x="166" y="168" width="2" height="2" fill="#495c80" />
<rect x="82" y="172" width="2" height="2" fill="#495c80" />
<rect x="90" y="172" width="2" height="2" fill="#495c80" />
<rect x="98" y="172" width="2" height="2" fill="#495c80" />
<rect x="106" y="172" width="2" height="2" fill="#495c80" />
<rect x="114" y="172" width="2" height="2" fill="#495c80" />
<rect x="122" y="172" width="2" height="2" fill="#495c80" />
<rect x="130" y="172" width="2" height="2" fill="#495c80" />
<rect x="138" y="172" width="2" height="2" fill="#495c80" />
<rect x="146" y="172" width="2" height="2" fill="#495c80" />
<rect x="154" y="172" width="2" height="2" fill="#495c80" />
<rect x="162" y="172" width="2" height="2" fill="#495c80" />
<rect x="170" y="172" width="2" height="2" fill="#495c80" />
<rect x="86" y="176" width="2" height="2" fill="#495c80" />
<rect x="94" y="176" width="2" height="2" fill="#495c80" />
<rect x="102" y="176" width="2" height="2" fill="#495c80" />
<rect x="110" y="176" width="2" height="2" fill="#495c80" />
<rect x="118" y="176" width="2" height="2" fill="#495c80" />
<rect x="126" y="176" width="2" height="2" fill="#495c80" />
<rect x="134" y="176" width="2" height="2" fill="#495c80" />
<rect x="142" y="176" width="2" height="2" fill="#495c80" />
<rect x="150" y="176" width="2" height="2" fill="#495c80" />
<rect x="158" y="176" width="2" height="2" fill="#495c80" />
<rect x="166" y="176" width="2" height="2" fill="#495c80" />
<rect x="82" y="180" width="2" height="2" fill="#495c80" />
<rect x="90" y="180" width="2" height="2" fill="#495c80" />
<rect x="98" y="180" width="2" height="2" fill="#495c80" />
<rect x="106" y="180" width="2" height="2" fill="#495c80" />
<rect x="114" y="180" width="2" height="2" fill="#495c80" />
<rect x="122" y="180" width="2" height="2" fill="#495c80" />
<rect x="130" y="180" width="2" height="2" fill="#495c80" />
<rect x="138" y="180" width="2" height="2" fill="#495c80" />
<rect x="146" y="180" width="2" height="2" fill="#495c80" />
<rect x="154" y="180" width="2" height="2" fill="#495c80" />
<rect x="162" y="180" width="2" height="2" fill="#495c80" />
<rect x="170" y="180" width="2" height="2" fill="#495c80" />
<rect x="86" y="184" width="2" height="2" fill="#495c80" />
<rect x="94" y="184" width="2" height="2" fill="#495c80" />
<rect x="102" y="184" width="2" height="2" fill="#495c80" />
<rect x="110" y="184" width="2" height="2" fill="#495c80" />
<rect x="118" y="184" width="2" height="2" fill="#495c80" />
<rect x="126" y="184" width="2" height="2" fill="#495c80" />
<rect x="134" y="184" width="2" height="2" fill="#495c80" />
<rect x="142" y="184" width="2" height="2" fill="#495c80" />
<rect x="150" y="184" width="2" height="2" fill="#495c80" />
<rect x="158" y="184" width="2" height="2" fill="#495c80" />
<rect x="166" y="184" width="2" height="2" fill="#495c80" />
<rect x="82" y="188" width="2" height="2" fill="#495c80" />
<rect x="90" y="188" width="2" height="2" fill="#495c80" />
<rect x="98" y="188" width="2" height="2" fill="#495c80" />
<rect x="106" y="188" width="2" height="2" fill="#495c80" />
<rect x="114" y="188" width="2" height="2" fill="#495c80" />
<rect x="122" y="188" width="2" height="2" fill="#495c80" />
<rect x="130" y="188" width="2" height="2" fill="#495c80" />
<rect x="138" y="188" width="2" height="2" fill="#495c80" />
<rect x="146" y="188" width="2" height="2" fill="#495c80" />
<rect x="154" y="188" width="2" height="2" fill="#495c80" />
<rect x="162" y="188" width="2" height="2" fill="#495c80" />
<rect x="170" y="188" width="2" height="2" fill="#495c80" />
<rect x="86" y="192" width="2" height="2" fill="#495c80" />
<rect x="94" y="192" width="2" height="2" fill="#495c80" />
<rect x="102" y="192" width="2" height="2" fill="#495c80" />
<rect x="110" y="192" width="2" height="2" fill="#495c80" />
<rect x="118" y="192" width="2" height="2" fill="#495c80" />
<rect x="126" y="192" width="2" height="2" fill="#495c80" />
<rect x="134" y="192" width="2" height="2" fill="#495c80" />
<rect x="142" y="192" width="2" height="2" fill="#495c80" />
<rect x="150" y="192" width="2" height="2" fill="#495c80" />
<rect x="158" y="192" width="2" height="2" fill="#495c80" />
<rect x="166" y="192" width="2" height="2" fill="#495c80" />
<rect x="84" y="82" width="88" height="1" fill="#778eb6" />
<rect x="84" y="94" width="88" height="1" fill="#778eb6" />
<rect x="84" y="106" width="88" height="1" fill="#778eb6" />
<rect x="84" y="118" width="88" height="1" fill="#778eb6" />
<rect x="84" y="130" width="88" height="1" fill="#778eb6" />
<rect x="84" y="142" width="88" height="1" fill="#778eb6" />
<rect x="84" y="154" width="88" height="1" fill="#778eb6" />
<rect x="84" y="166" width="88" height="1" fill="#778eb6" />
<circle cx="88" cy="66" r="1.1" fill="#778eb6" />
<circle cx="98" cy="66" r="1.1" fill="#778eb6" />
<circle cx="108" cy="66" r="1.1" fill="#778eb6" />
<circle cx="118" cy="66" r="1.1" fill="#778eb6" />
<circle cx="128" cy="66" r="1.1" fill="#778eb6" />
<circle cx="138" cy="66" r="1.1" fill="#778eb6" />
<circle cx="148" cy="66" r="1.1" fill="#778eb6" />
<circle cx="158" cy="66" r="1.1" fill="#778eb6" />
<circle cx="128" cy="128" r="52" fill="#69ddff" opacity="0.62" />
<circle cx="128" cy="128" r="25" fill="#ecfcff" />
<rect x="52" y="214" width="152" height="18" fill="#1b222c" />
<rect x="86" y="20" width="84" height="10" fill="#f19858" />
<rect x="110" y="6" width="36" height="14" fill="#f19858" />
</svg>
