<?xml version="1.0" encoding="UTF-8"?>
<svg xmlns="http://www.w3.org/2000/svg" width="256" height="256" viewBox="0 0 256 256" shape-rendering="crispEdges">
<rect x="54" y="40" width="148" height="188" fill="#0b1320" />
<rect x="55" y="41" width="146" height="186" fill="#707d8e" />
<rect x="55" y="41" width="146" height="1" fill="#9cb4d6" />
<rect x="55" y="41" width="1" height="186" fill="#9cb4d6" />
<rect x="55" y="226" width="146" height="1" fill="#4b5460" />
<rect x="200" y="41" width="1" height="186" fill="#4b5460" />
<rect x="62" y="50" width="132" height="14" fill="#4b5460" />
<rect x="82" y="68" width="92" height="132" fill="#d3deea" />
<rect x="92" y="74" width="72" height="8" fill="#4b5460" />
<rect x="84" y="76" width="2" height="2" fill="#707d8e" />
<rect x="92" y="76" width="2" height="2" fill="#707d8e" />
<rect x="100" y="76" width="2" height="2" fill="#707d8e" />
<rect x="108" y="76" width="2" height="2" fill="#707d8e" />
<rect x="116" y="76" width="2" height="2" fill="#707d8e" />
<rect x="124" y="76" width="2" height="2" fill="#707d8e" />
<rect x="132" y="76" width="2" height="2" fill="#707d8e" />
<rect x="140" y="76" width="2" height="2" fill="#707d8e" />
<rect x="148" y="76" width="2" height="2" fill="#707d8e" />
<rect x="156" y="76" width="2" height="2" fill="#707d8e" />
<rect x="164" y="76" width="2" height="2" fill="#707d8e" />
<rect x="88" y="80" width="2" height="2" fill="#707d8e" />
<rect x="96" y="80" width="2" height="2" fill="#707d8e" />
<rect x="104" y="80" width="2" height="2" fill="#707d8e" />
<rect x="112" y="80" width="2" height="2" fill="#707d8e" />
<rect x="120" y="80" width="2" height="2" fill="#707d8e" />
<rect x="128" y="80" width="2" height="2" fill="#707d8e" />
<rect x="136" y="80" width="2" height="2" fill="#707d8e" />
<rect x="144" y="80" width="2" height="2" fill="#707d8e" />
<rect x="152" y="80" width="2" height="2" fill="#707d8e" />
<rect x="160" y="80" width="2" height="2" fill="#707d8e" />
<rect x="168" y="80" width="2" height="2" fill="#707d8e" />
<rect x="84" y="84" width="2" height="2" fill="#707d8e" />
<rect x="92" y="84" width="2" height="2" fill="#707d8e" />
<rect x="100" y="84" width="2" height="2" fill="#707d8e" />
<rect x="108" y="84" width="2" height="2" fill="#707d8e" />
<rect x="116" y="84" width="2" height="2" fill="#707d8e" />
<rect x="124" y="84" width="2" height="2" fill="#707d8e" />
<rect x="132" y="84" width="2" height="2" fill="#707d8e" />
<rect x="140" y="84" width="2" height="2" fill="#707d8e" />
<rect x="148" y="84" width="2" height="2" fill="#707d8e" />
<rect x="156" y="84" width="2" height="2" fill="#707d8e" />
<rect x="164" y="84" width="2" height="2" fill="#707d8e" />
<rect x="88" y="88" width="2" height="2" fill="#707d8e" />
<rect x="96" y="88" width="2" height="2" fill="#707d8e" />
<rect x="104" y="88" width="2" height="2" fill="#707d8e" />
<rect x="112" y="88" width="2" height="2" fill="#707d8e" />
<rect x="120" y="88" width="2" height="2" fill="#707d8e" />
<rect x="128" y="88" width="2" height="2" fill="#707d8e" />
<rect x="136" y="88" width="2" height="2" fill="#707d8e" />
<rect x="144" y="88" width="2" height="2" fill="#707d8e" />
<rect x="152" y="88" width="2" height="2" fill="#707d8e" />
<rect x="160" y="88" width="2" height="2" fill="#707d8e" />
<rect x="168" y="88" width="2" height="2" fill="#707d8e" />
<rect x="84" y="92" width="2" height="2" fill="#707d8e" />
<rect x="92" y="92" width="2" height="2" fill="#707d8e" />
<rect x="100" y="92" width="2" height="2" fill="#707d8e" />
<rect x="108" y="92" width="2" height="2" fill="#707d8e" />
<rect x="116" y="92" width="2" height="2" fill="#707d8e" />
<rect x="124" y="92" width="2" height="2" fill="#707d8e" />
<rect x="132" y="92" width="2" height="2" fill="#707d8e" />
<rect x="140" y="92" width="2" height="2" fill="#707d8e" />
<rect x="148" y="92" width="2" height="2" fill="#707d8e" />
<rect x="156" y="92" width="2" height="2" fill="#707d8e" />
<rect x="164" y="92" width="2" height="2" fill="#707d8e" />
<rect x="88" y="96" width="2" height="2" fill="#707d8e" />
<rect x="96" y="96" width="2" height="2" fill="#707d8e" />
<rect x="104" y="96" width="2" height="2" fill="#707d8e" />
<rect x="112" y="96" width="2" height="2" fill="#707d8e" />
<rect x="120" y="96" width="2" height="2" fill="#707d8e" />
<rect x="128" y="96" width="2" height="2" fill="#707d8e" />
<rect x="136" y="96" width="2" height="2" fill="#707d8e" />
<rect x="144" y="96" width="2" height="2" fill="#707d8e" />
<rect x="152" y="96" width="2" height="2" fill="#707d8e" />
<rect x="160" y="96" width="2" height="2" fill="#707d8e" />
<rect x="168" y="96" width="2" height="2" fill="#707d8e" />
<rect x="84" y="100" width="2" height="2" fill="#707d8e" />
<rect x="92" y="100" width="2" height="2" fill="#707d8e" />
<rect x="100" y="100" width="2" height="2" fill="#707d8e" />
<rect x="108" y="100" width="2" height="2" fill="#707d8e" />
<rect x="116" y="100" width="2" height="2" fill="#707d8e" />
<rect x="124" y="100" width="2" height="2" fill="#707d8e" />
<rect x="132" y="100" width="2" height="2" fill="#707d8e" />
<rect x="140" y="100" width="2" height="2" fill="#707d8e" />
<rect x="148" y="100" width="2" height="2" fill="#707d8e" />
<rect x="156" y="100" width="2" height="2" fill="#707d8e" />
<rect x="164" y="100" width="2" height="2" fill="#707d8e" />
<rect x="88" y="104" width="2" height="2" fill="#707d8e" />
<rect x="96" y="104" width="2" height="2" fill="#707d8e" />
<rect x="104" y="104" width="2" height="2" fill="#707d8e" />
<rect x="112" y="104" width="2" height="2" fill="#707d8e" />
<rect x="120" y="104" width="2" height="2" fill="#707d8e" />
<rect x="128" y="104" width="2" height="2" fill="#707d8e" />
<rect x="136" y="104" width="2" height="2" fill="#707d8e" />
<rect x="144" y="104" width="2" height="2" fill="#707d8e" />
<rect x="152" y="104" width="2" height="2" fill="#707d8e" />
<rect x="160" y="104" width="2" height="2" fill="#707d8e" />
<rect x="168" y="104" width="2" height="2" fill="#707d8e" />
<rect x="84" y="108" width="2" height="2" fill="#707d8e" />
<rect x="92" y="108" width="2" height="2" fill="#707d8e" />
<rect x="100" y="108" width="2" height="2" fill="#707d8e" />
<rect x="108" y="108" width="2" height="2" fill="#707d8e" />
<rect x="116" y="108" width="2" height="2" fill="#707d8e" />
<rect x="124" y="108" width="2" height="2" fill="#707d8e" />
<rect x="132" y="108" width="2" height="2" fill="#707d8e" />
<rect x="140" y="108" width="2" height="2" fill="#707d8e" />
<rect x="148" y="108" width="2" height="2" fill="#707d8e" />
<rect x="156" y="108" width="2" height="2" fill="#707d8e" />
<rect x="164" y="108" width="2" height="2" fill="#707d8e" />
<rect x="88" y="112" width="2" height="2" fill="#707d8e" />
<rect x="96" y="112" width="2" height="2" fill="#707d8e" />
<rect x="104" y="112" width="2" height="2" fill="#707d8e" />
<rect x="112" y="112" width="2" height="2" fill="#707d8e" />
<rect x="120" y="112" width="2" height="2" fill="#707d8e" />
<rect x="128" y="112" width="2" height="2" fill="#707d8e" />
<rect x="136" y="112" width="2" height="2" fill="#707d8e" />
<rect x="144" y="112" width="2" height="2" fill="#707d8e" />
<rect x="152" y="112" width="2" height="2" fill="#707d8e" />
<rect x="160" y="112" width="2" height="2" fill="#707d8e" />
<rect x="168" y="112" width="2" height="2" fill="#707d8e" />
<rect x="84" y="116" width="2" height="2" fill="#707d8e" />
<rect x="92" y="116" width="2" height="2" fill="#707d8e" />
<rect x="100" y="116" width="2" height="2" fill="#707d8e" />
<rect x="108" y="116" width="2" height="2" fill="#707d8e" />
<rect x="116" y="116" width="2" height="2" fill="#707d8e" />
<rect x="124" y="116" width="2" height="2" fill="#707d8e" />
<rect x="132" y="116" width="2" height="2" fill="#707d8e" />
<rect x="140" y="116" width="2" height="2" fill="#707d8e" />
<rect x="148" y="116" width="2" height="2" fill="#707d8e" />
<rect x="156" y="116" width="2" height="2" fill="#707d8e" />
<rect x="164" y="116" width="2" height="2" fill="#707d8e" />
<rect x="88" y="120" width="2" height="2" fill="#707d8e" />
<rect x="96" y="120" width="2" height="2" fill="#707d8e" />
<rect x="104" y="120" width="2" height="2" fill="#707d8e" />
<rect x="112" y="120" width="2" height="2" fill="#707d8e" />
<rect x="120" y="120" width="2" height="2" fill="#707d8e" />
<rect x="128" y="120" width="2" height="2" fill="#707d8e" />
<rect x="136" y="120" width="2" height="2" fill="#707d8e" />
<rect x="144" y="120" width="2" height="2" fill="#707d8e" />
<rect x="152" y="120" width="2" height="2" fill="#707d8e" />
<rect x="160" y="120" width="2" height="2" fill="#707d8e" />
<rect x="168" y="120" width="2" height="2" fill="#707d8e" />
<rect x="84" y="124" width="2" height="2" fill="#707d8e" />
<rect x="92" y="124" width="2" height="2" fill="#707d8e" />
<rect x="100" y="124" width="2" height="2" fill="#707d8e" />
<rect x="108" y="124" width="2" height="2" fill="#707d8e" />
<rect x="116" y="124" width="2" height="2" fill="#707d8e" />
<rect x="124" y="124" width="2" height="2" fill="#707d8e" />
<rect x="132" y="124" width="2" height="2" fill="#707d8e" />
<rect x="140" y="124" width="2" height="2" fill="#707d8e" />
<rect x="148" y="124" width="2" height="2" fill="#707d8e" />
<rect x="156" y="124" width="2" height="2" fill="#707d8e" />
<rect x="164" y="124" width="2" height="2" fill="#707d8e" />
<rect x="88" y="128" width="2" height="2" fill="#707d8e" />
<rect x="96" y="128" width="2" height="2" fill="#707d8e" />
<rect x="104" y="128" width="2" height="2" fill="#707d8e" />
<rect x="112" y="128" width="2" height="2" fill="#707d8e" />
<rect x="120" y="128" width="2" height="2" fill="#707d8e" />
<rect x="128" y="128" width="2" height="2" fill="#707d8e" />
<rect x="136" y="128" width="2" height="2" fill="#707d8e" />
<rect x="144" y="128" width="2" height="2" fill="#707d8e" />
<rect x="152" y="128" width="2" height="2" fill="#707d8e" />
<rect x="160" y="128" width="2" height="2" fill="#707d8e" />
<rect x="168" y="128" width="2" height="2" fill="#707d8e" />
<rect x="84" y="132" width="2" height="2" fill="#707d8e" />
<rect x="92" y="132" width="2" height="2" fill="#707d8e" />
<rect x="100" y="132" width="2" height="2" fill="#707d8e" />
<rect x="108" y="132" width="2" height="2" fill="#707d8e" />
<rect x="116" y="132" width="2" height="2" fill="#707d8e" />
<rect x="124" y="132" width="2" height="2" fill="#707d8e" />
<rect x="132" y="132" width="2" height="2" fill="#707d8e" />
<rect x="140" y="132" width="2" height="2" fill="#707d8e" />
<rect x="148" y="132" width="2" height="2" fill="#707d8e" />
<rect x="156" y="132" width="2" height="2" fill="#707d8e" />
<rect x="164" y="132" width="2" height="2" fill="#707d8e" />
<rect x="88" y="136" width="2" height="2" fill="#707d8e" />
<rect x="96" y="136" width="2" height="2" fill="#707d8e" />
<rect x="104" y="136" width="2" height="2" fill="#707d8e" />
<rect x="112" y="136" width="2" height="2" fill="#707d8e" />
<rect x="120" y="136" width="2" height="2" fill="#707d8e" />
<rect x="128" y="136" width="2" height="2" fill="#707d8e" />
<rect x="136" y="136" width="2" height="2" fill="#707d8e" />
<rect x="144" y="136" width="2" height="2" fill="#707d8e" />
<rect x="152" y="136" width="2" height="2" fill="#707d8e" />
<rect x="160" y="136" width="2" height="2" fill="#707d8e" />
<rect x="168" y="136" width="2" height="2" fill="#707d8e" />
<rect x="84" y="140" width="2" height="2" fill="#707d8e" />
<rect x="92" y="140" width="2" height="2" fill="#707d8e" />
<rect x="100" y="140" width="2" height="2" fill="#707d8e" />
<rect x="108" y="140" width="2" height="2" fill="#707d8e" />
<rect x="116" y="140" width="2" height="2" fill="#707d8e" />
<rect x="124" y="140" width="2" height="2" fill="#707d8e" />
<rect x="132" y="140" width="2" height="2" fill="#707d8e" />
<rect x="140" y="140" width="2" height="2" fill="#707d8e" />
<rect x="148" y="140" width="2" height="2" fill="#707d8e" />
<rect x="156" y="140" width="2" height="2" fill="#707d8e" />
<rect x="164" y="140" width="2" height="2" fill="#707d8e" />
<rect x="88" y="144" width="2" height="2" fill="#707d8e" />
<rect x="96" y="144" width="2" height="2" fill="#707d8e" />
<rect x="104" y="144" width="2" height="2" fill="#707d8e" />
<rect x="112" y="144" width="2" height="2" fill="#707d8e" />
<rect x="120" y="144" width="2" height="2" fill="#707d8e" />
<rect x="128" y="144" width="2" height="2" fill="#707d8e" />
<rect x="136" y="144" width="2" height="2" fill="#707d8e" />
<rect x="144" y="144" width="2" height="2" fill="#707d8e" />
<rect x="152" y="144" width="2" height="2" fill="#707d8e" />
<rect x="160" y="144" width="2" height="2" fill="#707d8e" />
<rect x="168" y="144" width="2" height="2" fill="#707d8e" />
<rect x="84" y="148" width="2" height="2" fill="#707d8e" />
<rect x="92" y="148" width="2" height="2" fill="#707d8e" />
<rect x="100" y="148" width="2" height="2" fill="#707d8e" />
<rect x="108" y="148" width="2" height="2" fill="#707d8e" />
<rect x="116" y="148" width="2" height="2" fill="#707d8e" />
<rect x="124" y="148" width="2" height="2" fill="#707d8e" />
<rect x="132" y="148" width="2" height="2" fill="#707d8e" />
<rect x="140" y="148" width="2" height="2" fill="#707d8e" />
<rect x="148" y="148" width="2" height="2" fill="#707d8e" />
<rect x="156" y="148" width="2" height="2" fill="#707d8e" />
<rect x="164" y="148" width="2" height="2" fill="#707d8e" />
<rect x="88" y="152" width="2" height="2" fill="#707d8e" />
<rect x="96" y="152" width="2" height="2" fill="#707d8e" />
<rect x="104" y="152" width="2" height="2" fill="#707d8e" />
<rect x="112" y="152" width="2" height="2" fill="#707d8e" />
<rect x="120" y="152" width="2" height="2" fill="#707d8e" />
<rect x="128" y="152" width="2" height="2" fill="#707d8e" />
<rect x="136" y="152" width="2" height="2" fill="#707d8e" />
<rect x="144" y="152" width="2" height="2" fill="#707d8e" />
<rect x="152" y="152" width="2" height="2" fill="#707d8e" />
<rect x="160" y="152" width="2" height="2" fill="#707d8e" />
<rect x="168" y="152" width="2" height="2" fill="#707d8e" />
<rect x="84" y="156" width="2" height="2" fill="#707d8e" />
<rect x="92" y="156" width="2" height="2" fill="#707d8e" />
<rect x="100" y="156" width="2" height="2" fill="#707d8e" />
<rect x="108" y="156" width="2" height="2" fill="#707d8e" />
<rect x="116" y="156" width="2" height="2" fill="#707d8e" />
<rect x="124" y="156" width="2" height="2" fill="#707d8e" />
<rect x="132" y="156" width="2" height="2" fill="#707d8e" />
<rect x="140" y="156" width="2" height="2" fill="#707d8e" />
<rect x="148" y="156" width="2" height="2" fill="#707d8e" />
<rect x="156" y="156" width="2" height="2" fill="#707d8e" />
<rect x="164" y="156" width="2" height="2" fill="#707d8e" />
<rect x="88" y="160" width="2" height="2" fill="#707d8e" />
<rect x="96" y="160" width="2" height="2" fill="#707d8e" />
<rect x="104" y="160" width="2" height="2" fill="#707d8e" />
<rect x="112" y="160" width="2" height="2" fill="#707d8e" />
<rect x="120" y="160" width="2" height="2" fill="#707d8e" />
<rect x="128" y="160" width="2" height="2" fill="#707d8e" />
<rect x="136" y="160" width="2" height="2" fill="#707d8e" />
<rect x="144" y="160" width="2" height="2" fill="#707d8e" />
<rect x="152" y="160" width="2" height="2" fill="#707d8e" />
<rect x="160" y="160" width="2" height="2" fill="#707d8e" />
<rect x="168" y="160" width="2" height="2" fill="#707d8e" />
<rect x="84" y="164" width="2" height="2" fill="#707d8e" />
<rect x="92" y="164" width="2" height="2" fill="#707d8e" />
<rect x="100" y="164" width="2" height="2" fill="#707d8e" />
<rect x="108" y="164" width="2" height="2" fill="#707d8e" />
<rect x="116" y="164" width="2" height="2" fill="#707d8e" />
<rect x="124" y="164" width="2" height="2" fill="#707d8e" />
<rect x="132" y="164" width="2" height="2" fill="#707d8e" />
<rect x="140" y="164" width="2" height="2" fill="#707d8e" />
<rect x="148" y="164" width="2" height="2" fill="#707d8e" />
<rect x="156" y="164" width="2" height="2" fill="#707d8e" />
<rect x="164" y="164" width="2" height="2" fill="#707d8e" />
<rect x="88" y="168" width="2" height="2" fill="#707d8e" />
<rect x="96" y="168" width="2" height="2" fill="#707d8e" />
<rect x="104" y="168" width="2" height="2" fill="#707d8e" />
<rect x="112" y="168" width="2" height="2" fill="#707d8e" />
<rect x="120" y="168" width="2" height="2" fill="#707d8e" />
<rect x="128" y="168" width="2" height="2" fill="#707d8e" />
<rect x="136" y="168" width="2" height="2" fill="#707d8e" />
<rect x="144" y="168" width="2" height="2" fill="#707d8e" />
<rect x="152" y="168" width="2" height="2" fill="#707d8e" />
<rect x="160" y="168" width="2" height="2" fill="#707d8e" />
<rect x="168" y="168" width="2" height="2" fill="#707d8e" />
<rect x="84" y="172" width="2" height="2" fill="#707d8e" />
<rect x="92" y="172" width="2" height="2" fill="#707d8e" />
<rect x="100" y="172" width="2" height="2" fill="#707d8e" />
<rect x="108" y="172" width="2" height="2" fill="#707d8e" />
<rect x="116" y="172" width="2" height="2" fill="#707d8e" />
<rect x="124" y="172" width="2" height="2" fill="#707d8e" />
<rect x="132" y="172" width="2" height="2" fill="#707d8e" />
<rect x="140" y="172" width="2" height="2" fill="#707d8e" />
<rect x="148" y="172" width="2" height="2" fill="#707d8e" />
<rect x="156" y="172" width="2" height="2" fill="#707d8e" />
<rect x="164" y="172" width="2" height="2" fill="#707d8e" />
<rect x="88" y="176" width="2" height="2" fill="#707d8e" />
<rect x="96" y="176" width="2" height="2" fill="#707d8e" />
<rect x="104" y="176" width="2" height="2" fill="#707d8e" />
<rect x="112" y="176" width="2" height="2" fill="#707d8e" />
<rect x="120" y="176" width="2" height="2" fill="#707d8e" />
<rect x="128" y="176" width="2" height="2" fill="#707d8e" />
<rect x="136" y="176" width="2" height="2" fill="#707d8e" />
<rect x="144" y="176" width="2" height="2" fill="#707d8e" />
<rect x="152" y="176" width="2" height="2" fill="#707d8e" />
<rect x="160" y="176" width="2" height="2" fill="#707d8e" />
<rect x="168" y="176" width="2" height="2" fill="#707d8e" />
<rect x="84" y="180" width="2" height="2" fill="#707d8e" />
<rect x="92" y="180" width="2" height="2" fill="#707d8e" />
<rect x="100" y="180" width="2" height="2" fill="#707d8e" />
<rect x="108" y="180" width="2" height="2" fill="#707d8e" />
<rect x="116" y="180" width="2" height="2" fill="#707d8e" />
<rect x="124" y="180" width="2" height="2" fill="#707d8e" />
<rect x="132" y="180" width="2" height="2" fill="#707d8e" />
<rect x="140" y="180" width="2" height="2" fill="#707d8e" />
<rect x="148" y="180" width="2" height="2" fill="#707d8e" />
<rect x="156" y="180" width="2" height="2" fill="#707d8e" />
<rect x="164" y="180" width="2" height="2" fill="#707d8e" />
<rect x="88" y="184" width="2" height="2" fill="#707d8e" />
<rect x="96" y="184" width="2" height="2" fill="#707d8e" />
<rect x="104" y="184" width="2" height="2" fill="#707d8e" />
<rect x="112" y="184" width="2" height="2" fill="#707d8e" />
<rect x="120" y="184" width="2" height="2" fill="#707d8e" />
<rect x="128" y="184" width="2" height="2" fill="#707d8e" />
<rect x="136" y="184" width="2" height="2" fill="#707d8e" />
<rect x="144" y="184" width="2" height="2" fill="#707d8e" />
<rect x="152" y="184" width="2" height="2" fill="#707d8e" />
<rect x="160" y="184" width="2" height="2" fill="#707d8e" />
<rect x="168" y="184" width="2" height="2" fill="#707d8e" />
<rect x="84" y="188" width="2" height="2" fill="#707d8e" />
<rect x="92" y="188" width="2" height="2" fill="#707d8e" />
<rect x="100" y="188" width="2" height="2" fill="#707d8e" />
<rect x="108" y="188" width="2" height="2" fill="#707d8e" />
<rect x="116" y="188" width="2" height="2" fill="#707d8e" />
<rect x="124" y="188" width="2" height="2" fill="#707d8e" />
<rect x="132" y="188" width="2" height="2" fill="#707d8e" />
<rect x="140" y="188" width="2" height="2" fill="#707d8e" />
<rect x="148" y="188" width="2" height="2" fill="#707d8e" />
<rect x="156" y="188" width="2" height="2" fill="#707d8e" />
<rect x="164" y="188" width="2" height="2" fill="#707d8e" />
<rect x="88" y="192" width="2" height="2" fill="#707d8e" />
<rect x="96" y="192" width="2" height="2" fill="#707d8e" />
<rect x="104" y="192" width="2" height="2" fill="#707d8e" />
<rect x="112" y="192" width="2" height="2" fill="#707d8e" />
<rect x="120" y="192" width="2" height="2" fill="#707d8e" />
<rect x="128" y="192" width="2" height="2" fill="#707d8e" />
<rect x="136" y="192" width="2" height="2" fill="#707d8e" />
<rect x="144" y="192" width="2" height="2" fill="#707d8e" />
<rect x="152" y="192" width="2" height="2" fill="#707d8e" />
<rect x="160" y="192" width="2" height="2" fill="#707d8e" />
<rect x="168" y="192" width="2" height="2" fill="#707d8e" />
<rect x="86" y="84" width="84" height="1" fill="#4b5460" />
<rect x="86" y="94" width="84" height="1" fill="#4b5460" />
<rect x="86" y="104" width="84" height="1" fill="#4b5460" />
<rect x="86" y="114" width="84" height="1" fill="#4b5460" />
<rect x="86" y="124" width="84" height="1" fill="#4b5460" />
<rect x="86" y="134" width="84" height="1" fill="#4b5460" />
<rect x="86" y="144" width="84" height="1" fill="#4b5460" />
<rect x="86" y="154" width="84" height="1" fill="#4b5460" />
<rect x="86" y="164" width="84" height="1" fill="#4b5460" />
<rect x="86" y="174" width="84" height="1" fill="#4b5460" />
<rect x="116" y="80" width="24" height="108" fill="#232d3f" />
<circle cx="98" cy="84" r="1.2" fill="#4b5460" />
<circle cx="118" cy="84" r="1.2" fill="#4b5460" />
<circle cx="138" cy="84" r="1.2" fill="#4b5460" />
<circle cx="154" cy="84" r="1.2" fill="#4b5460" />
<circle cx="174" cy="84" r="1.2" fill="#4b5460" />
<circle cx="194" cy="84" r="1.2" fill="#4b5460" />
<rect x="62" y="208" width="132" height="20" fill="#232d3f" />
<circle cx="128" cy="128" r="20" fill="#91afba" opacity="0.76" />
<circle cx="128" cy="128" r="10" fill="#dcfbff" />
</svg>
