<?xml version="1.0" encoding="UTF-8"?>
<svg xmlns="http://www.w3.org/2000/svg" width="256" height="256" viewBox="0 0 256 256" shape-rendering="crispEdges">
<rect x="68" y="68" width="120" height="120" fill="#0b1320" />
<rect x="69" y="69" width="118" height="118" fill="#bc6f3d" />
<rect x="69" y="69" width="118" height="1" fill="#ffb37f" />
<rect x="69" y="69" width="1" height="118" fill="#ffb37f" />
<rect x="69" y="186" width="118" height="1" fill="#8f3f1a" />
<rect x="186" y="69" width="1" height="118" fill="#8f3f1a" />
<rect x="86" y="86" width="84" height="84" fill="#212838" />
<rect x="94" y="90" width="2" height="2" fill="#1f2838" />
<rect x="102" y="90" width="2" height="2" fill="#1f2838" />
<rect x="110" y="90" width="2" height="2" fill="#1f2838" />
<rect x="118" y="90" width="2" height="2" fill="#1f2838" />
<rect x="126" y="90" width="2" height="2" fill="#1f2838" />
<rect x="134" y="90" width="2" height="2" fill="#1f2838" />
<rect x="142" y="90" width="2" height="2" fill="#1f2838" />
<rect x="150" y="90" width="2" height="2" fill="#1f2838" />
<rect x="158" y="90" width="2" height="2" fill="#1f2838" />
<rect x="90" y="94" width="2" height="2" fill="#1f2838" />
<rect x="98" y="94" width="2" height="2" fill="#1f2838" />
<rect x="106" y="94" width="2" height="2" fill="#1f2838" />
<rect x="114" y="94" width="2" height="2" fill="#1f2838" />
<rect x="122" y="94" width="2" height="2" fill="#1f2838" />
<rect x="130" y="94" width="2" height="2" fill="#1f2838" />
<rect x="138" y="94" width="2" height="2" fill="#1f2838" />
<rect x="146" y="94" width="2" height="2" fill="#1f2838" />
<rect x="154" y="94" width="2" height="2" fill="#1f2838" />
<rect x="162" y="94" width="2" height="2" fill="#1f2838" />
<rect x="94" y="98" width="2" height="2" fill="#1f2838" />
<rect x="102" y="98" width="2" height="2" fill="#1f2838" />
<rect x="110" y="98" width="2" height="2" fill="#1f2838" />
<rect x="118" y="98" width="2" height="2" fill="#1f2838" />
<rect x="126" y="98" width="2" height="2" fill="#1f2838" />
<rect x="134" y="98" width="2" height="2" fill="#1f2838" />
<rect x="142" y="98" width="2" height="2" fill="#1f2838" />
<rect x="150" y="98" width="2" height="2" fill="#1f2838" />
<rect x="158" y="98" width="2" height="2" fill="#1f2838" />
<rect x="90" y="102" width="2" height="2" fill="#1f2838" />
<rect x="98" y="102" width="2" height="2" fill="#1f2838" />
<rect x="106" y="102" width="2" height="2" fill="#1f2838" />
<rect x="114" y="102" width="2" height="2" fill="#1f2838" />
<rect x="122" y="102" width="2" height="2" fill="#1f2838" />
<rect x="130" y="102" width="2" height="2" fill="#1f2838" />
<rect x="138" y="102" width="2" height="2" fill="#1f2838" />
<rect x="146" y="102" width="2" height="2" fill="#1f2838" />
<rect x="154" y="102" width="2" height="2" fill="#1f2838" />
<rect x="162" y="102" width="2" height="2" fill="#1f2838" />
<rect x="94" y="106" width="2" height="2" fill="#1f2838" />
<rect x="102" y="106" width="2" height="2" fill="#1f2838" />
<rect x="110" y="106" width="2" height="2" fill="#1f2838" />
<rect x="118" y="106" width="2" height="2" fill="#1f2838" />
<rect x="126" y="106" width="2" height="2" fill="#1f2838" />
<rect x="134" y="106" width="2" height="2" fill="#1f2838" />
<rect x="142" y="106" width="2" height="2" fill="#1f2838" />
<rect x="150" y="106" width="2" height="2" fill="#1f2838" />
<rect x="158" y="106" width="2" height="2" fill="#1f2838" />
<rect x="90" y="110" width="2" height="2" fill="#1f2838" />
<rect x="98" y="110" width="2" height="2" fill="#1f2838" />
<rect x="106" y="110" width="2" height="2" fill="#1f2838" />
<rect x="114" y="110" width="2" height="2" fill="#1f2838" />
<rect x="122" y="110" width="2" height="2" fill="#1f2838" />
<rect x="130" y="110" width="2" height="2" fill="#1f2838" />
<rect x="138" y="110" width="2" height="2" fill="#1f2838" />
<rect x="146" y="110" width="2" height="2" fill="#1f2838" />
<rect x="154" y="110" width="2" height="2" fill="#1f2838" />
<rect x="162" y="110" width="2" height="2" fill="#1f2838" />
<rect x="94" y="114" width="2" height="2" fill="#1f2838" />
<rect x="102" y="114" width="2" height="2" fill="#1f2838" />
<rect x="110" y="114" width="2" height="2" fill="#1f2838" />
<rect x="118" y="114" width="2" height="2" fill="#1f2838" />
<rect x="126" y="114" width="2" height="2" fill="#1f2838" />
<rect x="134" y="114" width="2" height="2" fill="#1f2838" />
<rect x="142" y="114" width="2" height="2" fill="#1f2838" />
<rect x="150" y="114" width="2" height="2" fill="#1f2838" />
<rect x="158" y="114" width="2" height="2" fill="#1f2838" />
<rect x="90" y="118" width="2" height="2" fill="#1f2838" />
<rect x="98" y="118" width="2" height="2" fill="#1f2838" />
<rect x="106" y="118" width="2" height="2" fill="#1f2838" />
<rect x="114" y="118" width="2" height="2" fill="#1f2838" />
<rect x="122" y="118" width="2" height="2" fill="#1f2838" />
<rect x="130" y="118" width="2" height="2" fill="#1f2838" />
<rect x="138" y="118" width="2" height="2" fill="#1f2838" />
<rect x="146" y="118" width="2" height="2" fill="#1f2838" />
<rect x="154" y="118" width="2" height="2" fill="#1f2838" />
<rect x="162" y="118" width="2" height="2" fill="#1f2838" />
<rect x="94" y="122" width="2" height="2" fill="#1f2838" />
<rect x="102" y="122" width="2" height="2" fill="#1f2838" />
<rect x="110" y="122" width="2" height="2" fill="#1f2838" />
<rect x="118" y="122" width="2" height="2" fill="#1f2838" />
<rect x="126" y="122" width="2" height="2" fill="#1f2838" />
<rect x="134" y="122" width="2" height="2" fill="#1f2838" />
<rect x="142" y="122" width="2" height="2" fill="#1f2838" />
<rect x="150" y="122" width="2" height="2" fill="#1f2838" />
<rect x="158" y="122" width="2" height="2" fill="#1f2838" />
<rect x="90" y="126" width="2" height="2" fill="#1f2838" />
<rect x="98" y="126" width="2" height="2" fill="#1f2838" />
<rect x="106" y="126" width="2" height="2" fill="#1f2838" />
<rect x="114" y="126" width="2" height="2" fill="#1f2838" />
<rect x="122" y="126" width="2" height="2" fill="#1f2838" />
<rect x="130" y="126" width="2" height="2" fill="#1f2838" />
<rect x="138" y="126" width="2" height="2" fill="#1f2838" />
<rect x="146" y="126" width="2" height="2" fill="#1f2838" />
<rect x="154" y="126" width="2" height="2" fill="#1f2838" />
<rect x="162" y="126" width="2" height="2" fill="#1f2838" />
<rect x="94" y="130" width="2" height="2" fill="#1f2838" />
<rect x="102" y="130" width="2" height="2" fill="#1f2838" />
<rect x="110" y="130" width="2" height="2" fill="#1f2838" />
<rect x="118" y="130" width="2" height="2" fill="#1f2838" />
<rect x="126" y="130" width="2" height="2" fill="#1f2838" />
<rect x="134" y="130" width="2" height="2" fill="#1f2838" />
<rect x="142" y="130" width="2" height="2" fill="#1f2838" />
<rect x="150" y="130" width="2" height="2" fill="#1f2838" />
<rect x="158" y="130" width="2" height="2" fill="#1f2838" />
<rect x="90" y="134" width="2" height="2" fill="#1f2838" />
<rect x="98" y="134" width="2" height="2" fill="#1f2838" />
<rect x="106" y="134" width="2" height="2" fill="#1f2838" />
<rect x="114" y="134" width="2" height="2" fill="#1f2838" />
<rect x="122" y="134" width="2" height="2" fill="#1f2838" />
<rect x="130" y="134" width="2" height="2" fill="#1f2838" />
<rect x="138" y="134" width="2" height="2" fill="#1f2838" />
<rect x="146" y="134" width="2" height="2" fill="#1f2838" />
<rect x="154" y="134" width="2" height="2" fill="#1f2838" />
<rect x="162" y="134" width="2" height="2" fill="#1f2838" />
<rect x="94" y="138" width="2" height="2" fill="#1f2838" />
<rect x="102" y="138" width="2" height="2" fill="#1f2838" />
<rect x="110" y="138" width="2" height="2" fill="#1f2838" />
<rect x="118" y="138" width="2" height="2" fill="#1f2838" />
<rect x="126" y="138" width="2" height="2" fill="#1f2838" />
<rect x="134" y="138" width="2" height="2" fill="#1f2838" />
<rect x="142" y="138" width="2" height="2" fill="#1f2838" />
<rect x="150" y="138" width="2" height="2" fill="#1f2838" />
<rect x="158" y="138" width="2" height="2" fill="#1f2838" />
<rect x="90" y="142" width="2" height="2" fill="#1f2838" />
<rect x="98" y="142" width="2" height="2" fill="#1f2838" />
<rect x="106" y="142" width="2" height="2" fill="#1f2838" />
<rect x="114" y="142" width="2" height="2" fill="#1f2838" />
<rect x="122" y="142" width="2" height="2" fill="#1f2838" />
<rect x="130" y="142" width="2" height="2" fill="#1f2838" />
<rect x="138" y="142" width="2" height="2" fill="#1f2838" />
<rect x="146" y="142" width="2" height="2" fill="#1f2838" />
<rect x="154" y="142" width="2" height="2" fill="#1f2838" />
<rect x="162" y="142" width="2" height="2" fill="#1f2838" />
<rect x="94" y="146" width="2" height="2" fill="#1f2838" />
<rect x="102" y="146" width="2" height="2" fill="#1f2838" />
<rect x="110" y="146" width="2" height="2" fill="#1f2838" />
<rect x="118" y="146" width="2" height="2" fill="#1f2838" />
<rect x="126" y="146" width="2" height="2" fill="#1f2838" />
<rect x="134" y="146" width="2" height="2" fill="#1f2838" />
<rect x="142" y="146" width="2" height="2" fill="#1f2838" />
<rect x="150" y="146" width="2" height="2" fill="#1f2838" />
<rect x="158" y="146" width="2" height="2" fill="#1f2838" />
<rect x="90" y="150" width="2" height="2" fill="#1f2838" />
<rect x="98" y="150" width="2" height="2" fill="#1f2838" />
<rect x="106" y="150" width="2" height="2" fill="#1f2838" />
<rect x="114" y="150" width="2" height="2" fill="#1f2838" />
<rect x="122" y="150" width="2" height="2" fill="#1f2838" />
<rect x="130" y="150" width="2" height="2" fill="#1f2838" />
<rect x="138" y="150" width="2" height="2" fill="#1f2838" />
<rect x="146" y="150" width="2" height="2" fill="#1f2838" />
<rect x="154" y="150" width="2" height="2" fill="#1f2838" />
<rect x="162" y="150" width="2" height="2" fill="#1f2838" />
<rect x="94" y="154" width="2" height="2" fill="#1f2838" />
<rect x="102" y="154" width="2" height="2" fill="#1f2838" />
<rect x="110" y="154" width="2" height="2" fill="#1f2838" />
<rect x="118" y="154" width="2" height="2" fill="#1f2838" />
<rect x="126" y="154" width="2" height="2" fill="#1f2838" />
<rect x="134" y="154" width="2" height="2" fill="#1f2838" />
<rect x="142" y="154" width="2" height="2" fill="#1f2838" />
<rect x="150" y="154" width="2" height="2" fill="#1f2838" />
<rect x="158" y="154" width="2" height="2" fill="#1f2838" />
<rect x="90" y="158" width="2" height="2" fill="#1f2838" />
<rect x="98" y="158" width="2" height="2" fill="#1f2838" />
<rect x="106" y="158" width="2" height="2" fill="#1f2838" />
<rect x="114" y="158" width="2" height="2" fill="#1f2838" />
<rect x="122" y="158" width="2" height="2" fill="#1f2838" />
<rect x="130" y="158" width="2" height="2" fill="#1f2838" />
<rect x="138" y="158" width="2" height="2" fill="#1f2838" />
<rect x="146" y="158" width="2" height="2" fill="#1f2838" />
<rect x="154" y="158" width="2" height="2" fill="#1f2838" />
<rect x="162" y="158" width="2" height="2" fill="#1f2838" />
<rect x="94" y="162" width="2" height="2" fill="#1f2838" />
<rect x="102" y="162" width="2" height="2" fill="#1f2838" />
<rect x="110" y="162" width="2" height="2" fill="#1f2838" />
<rect x="118" y="162" width="2" height="2" fill="#1f2838" />
<rect x="126" y="162" width="2" height="2" fill="#1f2838" />
<rect x="134" y="162" width="2" height="2" fill="#1f2838" />
<rect x="142" y="162" width="2" height="2" fill="#1f2838" />
<rect x="150" y="162" width="2" height="2" fill="#1f2838" />
<rect x="158" y="162" width="2" height="2" fill="#1f2838" />
<polygon points="128,94 152,130 140,166 116,166 104,130" fill="#bc6f3d" />
<polygon points="128,104 142,130 134,154 122,154 114,130" fill="#ffd79f" />
<rect x="112" y="166" width="32" height="8" fill="#53301c" />
<circle cx="106" cy="150" r="1" fill="#bc6f3d" />
<circle cx="118" cy="150" r="1" fill="#bc6f3d" />
<circle cx="130" cy="150" r="1" fill="#bc6f3d" />
<circle cx="142" cy="150" r="1" fill="#bc6f3d" />
<circle cx="154" cy="150" r="1" fill="#bc6f3d" />
<circle cx="128" cy="128" r="44" fill="#bc6f3d" opacity="0.46" />
</svg>
