<?xml version="1.0" encoding="UTF-8"?>
<svg xmlns="http://www.w3.org/2000/svg" width="256" height="256" viewBox="0 0 256 256" shape-rendering="crispEdges">
<rect x="68" y="68" width="120" height="120" fill="#0b1320" />
<rect x="69" y="69" width="118" height="118" fill="#61e7ff" />
<rect x="69" y="69" width="118" height="1" fill="#ccfbff" />
<rect x="69" y="69" width="1" height="118" fill="#ccfbff" />
<rect x="69" y="186" width="118" height="1" fill="#2688a4" />
<rect x="186" y="69" width="1" height="118" fill="#2688a4" />
<rect x="86" y="86" width="84" height="84" fill="#212838" />
<rect x="90" y="90" width="2" height="2" fill="#182334" />
<rect x="98" y="90" width="2" height="2" fill="#182334" />
<rect x="106" y="90" width="2" height="2" fill="#182334" />
<rect x="114" y="90" width="2" height="2" fill="#182334" />
<rect x="122" y="90" width="2" height="2" fill="#182334" />
<rect x="130" y="90" width="2" height="2" fill="#182334" />
<rect x="138" y="90" width="2" height="2" fill="#182334" />
<rect x="146" y="90" width="2" height="2" fill="#182334" />
<rect x="154" y="90" width="2" height="2" fill="#182334" />
<rect x="162" y="90" width="2" height="2" fill="#182334" />
<rect x="94" y="94" width="2" height="2" fill="#182334" />
<rect x="102" y="94" width="2" height="2" fill="#182334" />
<rect x="110" y="94" width="2" height="2" fill="#182334" />
<rect x="118" y="94" width="2" height="2" fill="#182334" />
<rect x="126" y="94" width="2" height="2" fill="#182334" />
<rect x="134" y="94" width="2" height="2" fill="#182334" />
<rect x="142" y="94" width="2" height="2" fill="#182334" />
<rect x="150" y="94" width="2" height="2" fill="#182334" />
<rect x="158" y="94" width="2" height="2" fill="#182334" />
<rect x="90" y="98" width="2" height="2" fill="#182334" />
<rect x="98" y="98" width="2" height="2" fill="#182334" />
<rect x="106" y="98" width="2" height="2" fill="#182334" />
<rect x="114" y="98" width="2" height="2" fill="#182334" />
<rect x="122" y="98" width="2" height="2" fill="#182334" />
<rect x="130" y="98" width="2" height="2" fill="#182334" />
<rect x="138" y="98" width="2" height="2" fill="#182334" />
<rect x="146" y="98" width="2" height="2" fill="#182334" />
<rect x="154" y="98" width="2" height="2" fill="#182334" />
<rect x="162" y="98" width="2" height="2" fill="#182334" />
<rect x="94" y="102" width="2" height="2" fill="#182334" />
<rect x="102" y="102" width="2" height="2" fill="#182334" />
<rect x="110" y="102" width="2" height="2" fill="#182334" />
<rect x="118" y="102" width="2" height="2" fill="#182334" />
<rect x="126" y="102" width="2" height="2" fill="#182334" />
<rect x="134" y="102" width="2" height="2" fill="#182334" />
<rect x="142" y="102" width="2" height="2" fill="#182334" />
<rect x="150" y="102" width="2" height="2" fill="#182334" />
<rect x="158" y="102" width="2" height="2" fill="#182334" />
<rect x="90" y="106" width="2" height="2" fill="#182334" />
<rect x="98" y="106" width="2" height="2" fill="#182334" />
<rect x="106" y="106" width="2" height="2" fill="#182334" />
<rect x="114" y="106" width="2" height="2" fill="#182334" />
<rect x="122" y="106" width="2" height="2" fill="#182334" />
<rect x="130" y="106" width="2" height="2" fill="#182334" />
<rect x="138" y="106" width="2" height="2" fill="#182334" />
<rect x="146" y="106" width="2" height="2" fill="#182334" />
<rect x="154" y="106" width="2" height="2" fill="#182334" />
<rect x="162" y="106" width="2" height="2" fill="#182334" />
<rect x="94" y="110" width="2" height="2" fill="#182334" />
<rect x="102" y="110" width="2" height="2" fill="#182334" />
<rect x="110" y="110" width="2" height="2" fill="#182334" />
<rect x="118" y="110" width="2" height="2" fill="#182334" />
<rect x="126" y="110" width="2" height="2" fill="#182334" />
<rect x="134" y="110" width="2" height="2" fill="#182334" />
<rect x="142" y="110" width="2" height="2" fill="#182334" />
<rect x="150" y="110" width="2" height="2" fill="#182334" />
<rect x="158" y="110" width="2" height="2" fill="#182334" />
<rect x="90" y="114" width="2" height="2" fill="#182334" />
<rect x="98" y="114" width="2" height="2" fill="#182334" />
<rect x="106" y="114" width="2" height="2" fill="#182334" />
<rect x="114" y="114" width="2" height="2" fill="#182334" />
<rect x="122" y="114" width="2" height="2" fill="#182334" />
<rect x="130" y="114" width="2" height="2" fill="#182334" />
<rect x="138" y="114" width="2" height="2" fill="#182334" />
<rect x="146" y="114" width="2" height="2" fill="#182334" />
<rect x="154" y="114" width="2" height="2" fill="#182334" />
<rect x="162" y="114" width="2" height="2" fill="#182334" />
<rect x="94" y="118" width="2" height="2" fill="#182334" />
<rect x="102" y="118" width="2" height="2" fill="#182334" />
<rect x="110" y="118" width="2" height="2" fill="#182334" />
<rect x="118" y="118" width="2" height="2" fill="#182334" />
<rect x="126" y="118" width="2" height="2" fill="#182334" />
<rect x="134" y="118" width="2" height="2" fill="#182334" />
<rect x="142" y="118" width="2" height="2" fill="#182334" />
<rect x="150" y="118" width="2" height="2" fill="#182334" />
<rect x="158" y="118" width="2" height="2" fill="#182334" />
<rect x="90" y="122" width="2" height="2" fill="#182334" />
<rect x="98" y="122" width="2" height="2" fill="#182334" />
<rect x="106" y="122" width="2" height="2" fill="#182334" />
<rect x="114" y="122" width="2" height="2" fill="#182334" />
<rect x="122" y="122" width="2" height="2" fill="#182334" />
<rect x="130" y="122" width="2" height="2" fill="#182334" />
<rect x="138" y="122" width="2" height="2" fill="#182334" />
<rect x="146" y="122" width="2" height="2" fill="#182334" />
<rect x="154" y="122" width="2" height="2" fill="#182334" />
<rect x="162" y="122" width="2" height="2" fill="#182334" />
<rect x="94" y="126" width="2" height="2" fill="#182334" />
<rect x="102" y="126" width="2" height="2" fill="#182334" />
<rect x="110" y="126" width="2" height="2" fill="#182334" />
<rect x="118" y="126" width="2" height="2" fill="#182334" />
<rect x="126" y="126" width="2" height="2" fill="#182334" />
<rect x="134" y="126" width="2" height="2" fill="#182334" />
<rect x="142" y="126" width="2" height="2" fill="#182334" />
<rect x="150" y="126" width="2" height="2" fill="#182334" />
<rect x="158" y="126" width="2" height="2" fill="#182334" />
<rect x="90" y="130" width="2" height="2" fill="#182334" />
<rect x="98" y="130" width="2" height="2" fill="#182334" />
<rect x="106" y="130" width="2" height="2" fill="#182334" />
<rect x="114" y="130" width="2" height="2" fill="#182334" />
<rect x="122" y="130" width="2" height="2" fill="#182334" />
<rect x="130" y="130" width="2" height="2" fill="#182334" />
<rect x="138" y="130" width="2" height="2" fill="#182334" />
<rect x="146" y="130" width="2" height="2" fill="#182334" />
<rect x="154" y="130" width="2" height="2" fill="#182334" />
<rect x="162" y="130" width="2" height="2" fill="#182334" />
<rect x="94" y="134" width="2" height="2" fill="#182334" />
<rect x="102" y="134" width="2" height="2" fill="#182334" />
<rect x="110" y="134" width="2" height="2" fill="#182334" />
<rect x="118" y="134" width="2" height="2" fill="#182334" />
<rect x="126" y="134" width="2" height="2" fill="#182334" />
<rect x="134" y="134" width="2" height="2" fill="#182334" />
<rect x="142" y="134" width="2" height="2" fill="#182334" />
<rect x="150" y="134" width="2" height="2" fill="#182334" />
<rect x="158" y="134" width="2" height="2" fill="#182334" />
<rect x="90" y="138" width="2" height="2" fill="#182334" />
<rect x="98" y="138" width="2" height="2" fill="#182334" />
<rect x="106" y="138" width="2" height="2" fill="#182334" />
<rect x="114" y="138" width="2" height="2" fill="#182334" />
<rect x="122" y="138" width="2" height="2" fill="#182334" />
<rect x="130" y="138" width="2" height="2" fill="#182334" />
<rect x="138" y="138" width="2" height="2" fill="#182334" />
<rect x="146" y="138" width="2" height="2" fill="#182334" />
<rect x="154" y="138" width="2" height="2" fill="#182334" />
<rect x="162" y="138" width="2" height="2" fill="#182334" />
<rect x="94" y="142" width="2" height="2" fill="#182334" />
<rect x="102" y="142" width="2" height="2" fill="#182334" />
<rect x="110" y="142" width="2" height="2" fill="#182334" />
<rect x="118" y="142" width="2" height="2" fill="#182334" />
<rect x="126" y="142" width="2" height="2" fill="#182334" />
<rect x="134" y="142" width="2" height="2" fill="#182334" />
<rect x="142" y="142" width="2" height="2" fill="#182334" />
<rect x="150" y="142" width="2" height="2" fill="#182334" />
<rect x="158" y="142" width="2" height="2" fill="#182334" />
<rect x="90" y="146" width="2" height="2" fill="#182334" />
<rect x="98" y="146" width="2" height="2" fill="#182334" />
<rect x="106" y="146" width="2" height="2" fill="#182334" />
<rect x="114" y="146" width="2" height="2" fill="#182334" />
<rect x="122" y="146" width="2" height="2" fill="#182334" />
<rect x="130" y="146" width="2" height="2" fill="#182334" />
<rect x="138" y="146" width="2" height="2" fill="#182334" />
<rect x="146" y="146" width="2" height="2" fill="#182334" />
<rect x="154" y="146" width="2" height="2" fill="#182334" />
<rect x="162" y="146" width="2" height="2" fill="#182334" />
<rect x="94" y="150" width="2" height="2" fill="#182334" />
<rect x="102" y="150" width="2" height="2" fill="#182334" />
<rect x="110" y="150" width="2" height="2" fill="#182334" />
<rect x="118" y="150" width="2" height="2" fill="#182334" />
<rect x="126" y="150" width="2" height="2" fill="#182334" />
<rect x="134" y="150" width="2" height="2" fill="#182334" />
<rect x="142" y="150" width="2" height="2" fill="#182334" />
<rect x="150" y="150" width="2" height="2" fill="#182334" />
<rect x="158" y="150" width="2" height="2" fill="#182334" />
<rect x="90" y="154" width="2" height="2" fill="#182334" />
<rect x="98" y="154" width="2" height="2" fill="#182334" />
<rect x="106" y="154" width="2" height="2" fill="#182334" />
<rect x="114" y="154" width="2" height="2" fill="#182334" />
<rect x="122" y="154" width="2" height="2" fill="#182334" />
<rect x="130" y="154" width="2" height="2" fill="#182334" />
<rect x="138" y="154" width="2" height="2" fill="#182334" />
<rect x="146" y="154" width="2" height="2" fill="#182334" />
<rect x="154" y="154" width="2" height="2" fill="#182334" />
<rect x="162" y="154" width="2" height="2" fill="#182334" />
<rect x="94" y="158" width="2" height="2" fill="#182334" />
<rect x="102" y="158" width="2" height="2" fill="#182334" />
<rect x="110" y="158" width="2" height="2" fill="#182334" />
<rect x="118" y="158" width="2" height="2" fill="#182334" />
<rect x="126" y="158" width="2" height="2" fill="#182334" />
<rect x="134" y="158" width="2" height="2" fill="#182334" />
<rect x="142" y="158" width="2" height="2" fill="#182334" />
<rect x="150" y="158" width="2" height="2" fill="#182334" />
<rect x="158" y="158" width="2" height="2" fill="#182334" />
<rect x="90" y="162" width="2" height="2" fill="#182334" />
<rect x="98" y="162" width="2" height="2" fill="#182334" />
<rect x="106" y="162" width="2" height="2" fill="#182334" />
<rect x="114" y="162" width="2" height="2" fill="#182334" />
<rect x="122" y="162" width="2" height="2" fill="#182334" />
<rect x="130" y="162" width="2" height="2" fill="#182334" />
<rect x="138" y="162" width="2" height="2" fill="#182334" />
<rect x="146" y="162" width="2" height="2" fill="#182334" />
<rect x="154" y="162" width="2" height="2" fill="#182334" />
<rect x="162" y="162" width="2" height="2" fill="#182334" />
<rect x="106" y="96" width="44" height="64" fill="#61e7ff" />
<rect x="96" y="128" width="64" height="10" fill="#b6f7ff" />
<rect x="112" y="86" width="32" height="8" fill="#dffcff" />
<circle cx="104" cy="152" r="1" fill="#61e7ff" />
<circle cx="116" cy="152" r="1" fill="#61e7ff" />
<circle cx="128" cy="152" r="1" fill="#61e7ff" />
<circle cx="140" cy="152" r="1" fill="#61e7ff" />
<circle cx="152" cy="152" r="1" fill="#61e7ff" />
<circle cx="128" cy="128" r="44" fill="#61e7ff" opacity="0.46" />
</svg>
