<?xml version="1.0" encoding="UTF-8"?>
<svg xmlns="http://www.w3.org/2000/svg" width="256" height="256" viewBox="0 0 256 256" shape-rendering="crispEdges">
<rect x="68" y="68" width="120" height="120" fill="#0b1320" />
<rect x="69" y="69" width="118" height="118" fill="#5ba17a" />
<rect x="69" y="69" width="118" height="1" fill="#9dffc3" />
<rect x="69" y="69" width="1" height="118" fill="#9dffc3" />
<rect x="69" y="186" width="118" height="1" fill="#1a4f38" />
<rect x="186" y="69" width="1" height="118" fill="#1a4f38" />
<rect x="112" y="90" width="32" height="76" fill="#1a4f38" />
<rect x="90" y="112" width="76" height="32" fill="#1a4f38" />
<rect x="76" y="76" width="2" height="2" fill="#1a4f38" />
<rect x="84" y="76" width="2" height="2" fill="#1a4f38" />
<rect x="92" y="76" width="2" height="2" fill="#1a4f38" />
<rect x="100" y="76" width="2" height="2" fill="#1a4f38" />
<rect x="108" y="76" width="2" height="2" fill="#1a4f38" />
<rect x="116" y="76" width="2" height="2" fill="#1a4f38" />
<rect x="124" y="76" width="2" height="2" fill="#1a4f38" />
<rect x="132" y="76" width="2" height="2" fill="#1a4f38" />
<rect x="140" y="76" width="2" height="2" fill="#1a4f38" />
<rect x="148" y="76" width="2" height="2" fill="#1a4f38" />
<rect x="156" y="76" width="2" height="2" fill="#1a4f38" />
<rect x="164" y="76" width="2" height="2" fill="#1a4f38" />
<rect x="172" y="76" width="2" height="2" fill="#1a4f38" />
<rect x="80" y="80" width="2" height="2" fill="#1a4f38" />
<rect x="88" y="80" width="2" height="2" fill="#1a4f38" />
<rect x="96" y="80" width="2" height="2" fill="#1a4f38" />
<rect x="104" y="80" width="2" height="2" fill="#1a4f38" />
<rect x="112" y="80" width="2" height="2" fill="#1a4f38" />
<rect x="120" y="80" width="2" height="2" fill="#1a4f38" />
<rect x="128" y="80" width="2" height="2" fill="#1a4f38" />
<rect x="136" y="80" width="2" height="2" fill="#1a4f38" />
<rect x="144" y="80" width="2" height="2" fill="#1a4f38" />
<rect x="152" y="80" width="2" height="2" fill="#1a4f38" />
<rect x="160" y="80" width="2" height="2" fill="#1a4f38" />
<rect x="168" y="80" width="2" height="2" fill="#1a4f38" />
<rect x="176" y="80" width="2" height="2" fill="#1a4f38" />
<rect x="76" y="84" width="2" height="2" fill="#1a4f38" />
<rect x="84" y="84" width="2" height="2" fill="#1a4f38" />
<rect x="92" y="84" width="2" height="2" fill="#1a4f38" />
<rect x="100" y="84" width="2" height="2" fill="#1a4f38" />
<rect x="108" y="84" width="2" height="2" fill="#1a4f38" />
<rect x="116" y="84" width="2" height="2" fill="#1a4f38" />
<rect x="124" y="84" width="2" height="2" fill="#1a4f38" />
<rect x="132" y="84" width="2" height="2" fill="#1a4f38" />
<rect x="140" y="84" width="2" height="2" fill="#1a4f38" />
<rect x="148" y="84" width="2" height="2" fill="#1a4f38" />
<rect x="156" y="84" width="2" height="2" fill="#1a4f38" />
<rect x="164" y="84" width="2" height="2" fill="#1a4f38" />
<rect x="172" y="84" width="2" height="2" fill="#1a4f38" />
<rect x="80" y="88" width="2" height="2" fill="#1a4f38" />
<rect x="88" y="88" width="2" height="2" fill="#1a4f38" />
<rect x="96" y="88" width="2" height="2" fill="#1a4f38" />
<rect x="104" y="88" width="2" height="2" fill="#1a4f38" />
<rect x="112" y="88" width="2" height="2" fill="#1a4f38" />
<rect x="120" y="88" width="2" height="2" fill="#1a4f38" />
<rect x="128" y="88" width="2" height="2" fill="#1a4f38" />
<rect x="136" y="88" width="2" height="2" fill="#1a4f38" />
<rect x="144" y="88" width="2" height="2" fill="#1a4f38" />
<rect x="152" y="88" width="2" height="2" fill="#1a4f38" />
<rect x="160" y="88" width="2" height="2" fill="#1a4f38" />
<rect x="168" y="88" width="2" height="2" fill="#1a4f38" />
<rect x="176" y="88" width="2" height="2" fill="#1a4f38" />
<rect x="76" y="92" width="2" height="2" fill="#1a4f38" />
<rect x="84" y="92" width="2" height="2" fill="#1a4f38" />
<rect x="92" y="92" width="2" height="2" fill="#1a4f38" />
<rect x="100" y="92" width="2" height="2" fill="#1a4f38" />
<rect x="108" y="92" width="2" height="2" fill="#1a4f38" />
<rect x="116" y="92" width="2" height="2" fill="#1a4f38" />
<rect x="124" y="92" width="2" height="2" fill="#1a4f38" />
<rect x="132" y="92" width="2" height="2" fill="#1a4f38" />
<rect x="140" y="92" width="2" height="2" fill="#1a4f38" />
<rect x="148" y="92" width="2" height="2" fill="#1a4f38" />
<rect x="156" y="92" width="2" height="2" fill="#1a4f38" />
<rect x="164" y="92" width="2" height="2" fill="#1a4f38" />
<rect x="172" y="92" width="2" height="2" fill="#1a4f38" />
<rect x="80" y="96" width="2" height="2" fill="#1a4f38" />
<rect x="88" y="96" width="2" height="2" fill="#1a4f38" />
<rect x="96" y="96" width="2" height="2" fill="#1a4f38" />
<rect x="104" y="96" width="2" height="2" fill="#1a4f38" />
<rect x="112" y="96" width="2" height="2" fill="#1a4f38" />
<rect x="120" y="96" width="2" height="2" fill="#1a4f38" />
<rect x="128" y="96" width="2" height="2" fill="#1a4f38" />
<rect x="136" y="96" width="2" height="2" fill="#1a4f38" />
<rect x="144" y="96" width="2" height="2" fill="#1a4f38" />
<rect x="152" y="96" width="2" height="2" fill="#1a4f38" />
<rect x="160" y="96" width="2" height="2" fill="#1a4f38" />
<rect x="168" y="96" width="2" height="2" fill="#1a4f38" />
<rect x="176" y="96" width="2" height="2" fill="#1a4f38" />
<rect x="76" y="100" width="2" height="2" fill="#1a4f38" />
<rect x="84" y="100" width="2" height="2" fill="#1a4f38" />
<rect x="92" y="100" width="2" height="2" fill="#1a4f38" />
<rect x="100" y="100" width="2" height="2" fill="#1a4f38" />
<rect x="108" y="100" width="2" height="2" fill="#1a4f38" />
<rect x="116" y="100" width="2" height="2" fill="#1a4f38" />
<rect x="124" y="100" width="2" height="2" fill="#1a4f38" />
<rect x="132" y="100" width="2" height="2" fill="#1a4f38" />
<rect x="140" y="100" width="2" height="2" fill="#1a4f38" />
<rect x="148" y="100" width="2" height="2" fill="#1a4f38" />
<rect x="156" y="100" width="2" height="2" fill="#1a4f38" />
<rect x="164" y="100" width="2" height="2" fill="#1a4f38" />
<rect x="172" y="100" width="2" height="2" fill="#1a4f38" />
<rect x="80" y="104" width="2" height="2" fill="#1a4f38" />
<rect x="88" y="104" width="2" height="2" fill="#1a4f38" />
<rect x="96" y="104" width="2" height="2" fill="#1a4f38" />
<rect x="104" y="104" width="2" height="2" fill="#1a4f38" />
<rect x="112" y="104" width="2" height="2" fill="#1a4f38" />
<rect x="120" y="104" width="2" height="2" fill="#1a4f38" />
<rect x="128" y="104" width="2" height="2" fill="#1a4f38" />
<rect x="136" y="104" width="2" height="2" fill="#1a4f38" />
<rect x="144" y="104" width="2" height="2" fill="#1a4f38" />
<rect x="152" y="104" width="2" height="2" fill="#1a4f38" />
<rect x="160" y="104" width="2" height="2" fill="#1a4f38" />
<rect x="168" y="104" width="2" height="2" fill="#1a4f38" />
<rect x="176" y="104" width="2" height="2" fill="#1a4f38" />
<rect x="76" y="108" width="2" height="2" fill="#1a4f38" />
<rect x="84" y="108" width="2" height="2" fill="#1a4f38" />
<rect x="92" y="108" width="2" height="2" fill="#1a4f38" />
<rect x="100" y="108" width="2" height="2" fill="#1a4f38" />
<rect x="108" y="108" width="2" height="2" fill="#1a4f38" />
<rect x="116" y="108" width="2" height="2" fill="#1a4f38" />
<rect x="124" y="108" width="2" height="2" fill="#1a4f38" />
<rect x="132" y="108" width="2" height="2" fill="#1a4f38" />
<rect x="140" y="108" width="2" height="2" fill="#1a4f38" />
<rect x="148" y="108" width="2" height="2" fill="#1a4f38" />
<rect x="156" y="108" width="2" height="2" fill="#1a4f38" />
<rect x="164" y="108" width="2" height="2" fill="#1a4f38" />
<rect x="172" y="108" width="2" height="2" fill="#1a4f38" />
<rect x="80" y="112" width="2" height="2" fill="#1a4f38" />
<rect x="88" y="112" width="2" height="2" fill="#1a4f38" />
<rect x="96" y="112" width="2" height="2" fill="#1a4f38" />
<rect x="104" y="112" width="2" height="2" fill="#1a4f38" />
<rect x="112" y="112" width="2" height="2" fill="#1a4f38" />
<rect x="120" y="112" width="2" height="2" fill="#1a4f38" />
<rect x="128" y="112" width="2" height="2" fill="#1a4f38" />
<rect x="136" y="112" width="2" height="2" fill="#1a4f38" />
<rect x="144" y="112" width="2" height="2" fill="#1a4f38" />
<rect x="152" y="112" width="2" height="2" fill="#1a4f38" />
<rect x="160" y="112" width="2" height="2" fill="#1a4f38" />
<rect x="168" y="112" width="2" height="2" fill="#1a4f38" />
<rect x="176" y="112" width="2" height="2" fill="#1a4f38" />
<rect x="76" y="116" width="2" height="2" fill="#1a4f38" />
<rect x="84" y="116" width="2" height="2" fill="#1a4f38" />
<rect x="92" y="116" width="2" height="2" fill="#1a4f38" />
<rect x="100" y="116" width="2" height="2" fill="#1a4f38" />
<rect x="108" y="116" width="2" height="2" fill="#1a4f38" />
<rect x="116" y="116" width="2" height="2" fill="#1a4f38" />
<rect x="124" y="116" width="2" height="2" fill="#1a4f38" />
<rect x="132" y="116" width="2" height="2" fill="#1a4f38" />
<rect x="140" y="116" width="2" height="2" fill="#1a4f38" />
<rect x="148" y="116" width="2" height="2" fill="#1a4f38" />
<rect x="156" y="116" width="2" height="2" fill="#1a4f38" />
<rect x="164" y="116" width="2" height="2" fill="#1a4f38" />
<rect x="172" y="116" width="2" height="2" fill="#1a4f38" />
<rect x="80" y="120" width="2" height="2" fill="#1a4f38" />
<rect x="88" y="120" width="2" height="2" fill="#1a4f38" />
<rect x="96" y="120" width="2" height="2" fill="#1a4f38" />
<rect x="104" y="120" width="2" height="2" fill="#1a4f38" />
<rect x="112" y="120" width="2" height="2" fill="#1a4f38" />
<rect x="120" y="120" width="2" height="2" fill="#1a4f38" />
<rect x="128" y="120" width="2" height="2" fill="#1a4f38" />
<rect x="136" y="120" width="2" height="2" fill="#1a4f38" />
<rect x="144" y="120" width="2" height="2" fill="#1a4f38" />
<rect x="152" y="120" width="2" height="2" fill="#1a4f38" />
<rect x="160" y="120" width="2" height="2" fill="#1a4f38" />
<rect x="168" y="120" width="2" height="2" fill="#1a4f38" />
<rect x="176" y="120" width="2" height="2" fill="#1a4f38" />
<rect x="76" y="124" width="2" height="2" fill="#1a4f38" />
<rect x="84" y="124" width="2" height="2" fill="#1a4f38" />
<rect x="92" y="124" width="2" height="2" fill="#1a4f38" />
<rect x="100" y="124" width="2" height="2" fill="#1a4f38" />
<rect x="108" y="124" width="2" height="2" fill="#1a4f38" />
<rect x="116" y="124" width="2" height="2" fill="#1a4f38" />
<rect x="124" y="124" width="2" height="2" fill="#1a4f38" />
<rect x="132" y="124" width="2" height="2" fill="#1a4f38" />
<rect x="140" y="124" width="2" height="2" fill="#1a4f38" />
<rect x="148" y="124" width="2" height="2" fill="#1a4f38" />
<rect x="156" y="124" width="2" height="2" fill="#1a4f38" />
<rect x="164" y="124" width="2" height="2" fill="#1a4f38" />
<rect x="172" y="124" width="2" height="2" fill="#1a4f38" />
<rect x="80" y="128" width="2" height="2" fill="#1a4f38" />
<rect x="88" y="128" width="2" height="2" fill="#1a4f38" />
<rect x="96" y="128" width="2" height="2" fill="#1a4f38" />
<rect x="104" y="128" width="2" height="2" fill="#1a4f38" />
<rect x="112" y="128" width="2" height="2" fill="#1a4f38" />
<rect x="120" y="128" width="2" height="2" fill="#1a4f38" />
<rect x="128" y="128" width="2" height="2" fill="#1a4f38" />
<rect x="136" y="128" width="2" height="2" fill="#1a4f38" />
<rect x="144" y="128" width="2" height="2" fill="#1a4f38" />
<rect x="152" y="128" width="2" height="2" fill="#1a4f38" />
<rect x="160" y="128" width="2" height="2" fill="#1a4f38" />
<rect x="168" y="128" width="2" height="2" fill="#1a4f38" />
<rect x="176" y="128" width="2" height="2" fill="#1a4f38" />
<rect x="76" y="132" width="2" height="2" fill="#1a4f38" />
<rect x="84" y="132" width="2" height="2" fill="#1a4f38" />
<rect x="92" y="132" width="2" height="2" fill="#1a4f38" />
<rect x="100" y="132" width="2" height="2" fill="#1a4f38" />
<rect x="108" y="132" width="2" height="2" fill="#1a4f38" />
<rect x="116" y="132" width="2" height="2" fill="#1a4f38" />
<rect x="124" y="132" width="2" height="2" fill="#1a4f38" />
<rect x="132" y="132" width="2" height="2" fill="#1a4f38" />
<rect x="140" y="132" width="2" height="2" fill="#1a4f38" />
<rect x="148" y="132" width="2" height="2" fill="#1a4f38" />
<rect x="156" y="132" width="2" height="2" fill="#1a4f38" />
<rect x="164" y="132" width="2" height="2" fill="#1a4f38" />
<rect x="172" y="132" width="2" height="2" fill="#1a4f38" />
<rect x="80" y="136" width="2" height="2" fill="#1a4f38" />
<rect x="88" y="136" width="2" height="2" fill="#1a4f38" />
<rect x="96" y="136" width="2" height="2" fill="#1a4f38" />
<rect x="104" y="136" width="2" height="2" fill="#1a4f38" />
<rect x="112" y="136" width="2" height="2" fill="#1a4f38" />
<rect x="120" y="136" width="2" height="2" fill="#1a4f38" />
<rect x="128" y="136" width="2" height="2" fill="#1a4f38" />
<rect x="136" y="136" width="2" height="2" fill="#1a4f38" />
<rect x="144" y="136" width="2" height="2" fill="#1a4f38" />
<rect x="152" y="136" width="2" height="2" fill="#1a4f38" />
<rect x="160" y="136" width="2" height="2" fill="#1a4f38" />
<rect x="168" y="136" width="2" height="2" fill="#1a4f38" />
<rect x="176" y="136" width="2" height="2" fill="#1a4f38" />
<rect x="76" y="140" width="2" height="2" fill="#1a4f38" />
<rect x="84" y="140" width="2" height="2" fill="#1a4f38" />
<rect x="92" y="140" width="2" height="2" fill="#1a4f38" />
<rect x="100" y="140" width="2" height="2" fill="#1a4f38" />
<rect x="108" y="140" width="2" height="2" fill="#1a4f38" />
<rect x="116" y="140" width="2" height="2" fill="#1a4f38" />
<rect x="124" y="140" width="2" height="2" fill="#1a4f38" />
<rect x="132" y="140" width="2" height="2" fill="#1a4f38" />
<rect x="140" y="140" width="2" height="2" fill="#1a4f38" />
<rect x="148" y="140" width="2" height="2" fill="#1a4f38" />
<rect x="156" y="140" width="2" height="2" fill="#1a4f38" />
<rect x="164" y="140" width="2" height="2" fill="#1a4f38" />
<rect x="172" y="140" width="2" height="2" fill="#1a4f38" />
<rect x="80" y="144" width="2" height="2" fill="#1a4f38" />
<rect x="88" y="144" width="2" height="2" fill="#1a4f38" />
<rect x="96" y="144" width="2" height="2" fill="#1a4f38" />
<rect x="104" y="144" width="2" height="2" fill="#1a4f38" />
<rect x="112" y="144" width="2" height="2" fill="#1a4f38" />
<rect x="120" y="144" width="2" height="2" fill="#1a4f38" />
<rect x="128" y="144" width="2" height="2" fill="#1a4f38" />
<rect x="136" y="144" width="2" height="2" fill="#1a4f38" />
<rect x="144" y="144" width="2" height="2" fill="#1a4f38" />
<rect x="152" y="144" width="2" height="2" fill="#1a4f38" />
<rect x="160" y="144" width="2" height="2" fill="#1a4f38" />
<rect x="168" y="144" width="2" height="2" fill="#1a4f38" />
<rect x="176" y="144" width="2" height="2" fill="#1a4f38" />
<rect x="76" y="148" width="2" height="2" fill="#1a4f38" />
<rect x="84" y="148" width="2" height="2" fill="#1a4f38" />
<rect x="92" y="148" width="2" height="2" fill="#1a4f38" />
<rect x="100" y="148" width="2" height="2" fill="#1a4f38" />
<rect x="108" y="148" width="2" height="2" fill="#1a4f38" />
<rect x="116" y="148" width="2" height="2" fill="#1a4f38" />
<rect x="124" y="148" width="2" height="2" fill="#1a4f38" />
<rect x="132" y="148" width="2" height="2" fill="#1a4f38" />
<rect x="140" y="148" width="2" height="2" fill="#1a4f38" />
<rect x="148" y="148" width="2" height="2" fill="#1a4f38" />
<rect x="156" y="148" width="2" height="2" fill="#1a4f38" />
<rect x="164" y="148" width="2" height="2" fill="#1a4f38" />
<rect x="172" y="148" width="2" height="2" fill="#1a4f38" />
<rect x="80" y="152" width="2" height="2" fill="#1a4f38" />
<rect x="88" y="152" width="2" height="2" fill="#1a4f38" />
<rect x="96" y="152" width="2" height="2" fill="#1a4f38" />
<rect x="104" y="152" width="2" height="2" fill="#1a4f38" />
<rect x="112" y="152" width="2" height="2" fill="#1a4f38" />
<rect x="120" y="152" width="2" height="2" fill="#1a4f38" />
<rect x="128" y="152" width="2" height="2" fill="#1a4f38" />
<rect x="136" y="152" width="2" height="2" fill="#1a4f38" />
<rect x="144" y="152" width="2" height="2" fill="#1a4f38" />
<rect x="152" y="152" width="2" height="2" fill="#1a4f38" />
<rect x="160" y="152" width="2" height="2" fill="#1a4f38" />
<rect x="168" y="152" width="2" height="2" fill="#1a4f38" />
<rect x="176" y="152" width="2" height="2" fill="#1a4f38" />
<rect x="76" y="156" width="2" height="2" fill="#1a4f38" />
<rect x="84" y="156" width="2" height="2" fill="#1a4f38" />
<rect x="92" y="156" width="2" height="2" fill="#1a4f38" />
<rect x="100" y="156" width="2" height="2" fill="#1a4f38" />
<rect x="108" y="156" width="2" height="2" fill="#1a4f38" />
<rect x="116" y="156" width="2" height="2" fill="#1a4f38" />
<rect x="124" y="156" width="2" height="2" fill="#1a4f38" />
<rect x="132" y="156" width="2" height="2" fill="#1a4f38" />
<rect x="140" y="156" width="2" height="2" fill="#1a4f38" />
<rect x="148" y="156" width="2" height="2" fill="#1a4f38" />
<rect x="156" y="156" width="2" height="2" fill="#1a4f38" />
<rect x="164" y="156" width="2" height="2" fill="#1a4f38" />
<rect x="172" y="156" width="2" height="2" fill="#1a4f38" />
<rect x="80" y="160" width="2" height="2" fill="#1a4f38" />
<rect x="88" y="160" width="2" height="2" fill="#1a4f38" />
<rect x="96" y="160" width="2" height="2" fill="#1a4f38" />
<rect x="104" y="160" width="2" height="2" fill="#1a4f38" />
<rect x="112" y="160" width="2" height="2" fill="#1a4f38" />
<rect x="120" y="160" width="2" height="2" fill="#1a4f38" />
<rect x="128" y="160" width="2" height="2" fill="#1a4f38" />
<rect x="136" y="160" width="2" height="2" fill="#1a4f38" />
<rect x="144" y="160" width="2" height="2" fill="#1a4f38" />
<rect x="152" y="160" width="2" height="2" fill="#1a4f38" />
<rect x="160" y="160" width="2" height="2" fill="#1a4f38" />
<rect x="168" y="160" width="2" height="2" fill="#1a4f38" />
<rect x="176" y="160" width="2" height="2" fill="#1a4f38" />
<rect x="76" y="164" width="2" height="2" fill="#1a4f38" />
<rect x="84" y="164" width="2" height="2" fill="#1a4f38" />
<rect x="92" y="164" width="2" height="2" fill="#1a4f38" />
<rect x="100" y="164" width="2" height="2" fill="#1a4f38" />
<rect x="108" y="164" width="2" height="2" fill="#1a4f38" />
<rect x="116" y="164" width="2" height="2" fill="#1a4f38" />
<rect x="124" y="164" width="2" height="2" fill="#1a4f38" />
<rect x="132" y="164" width="2" height="2" fill="#1a4f38" />
<rect x="140" y="164" width="2" height="2" fill="#1a4f38" />
<rect x="148" y="164" width="2" height="2" fill="#1a4f38" />
<rect x="156" y="164" width="2" height="2" fill="#1a4f38" />
<rect x="164" y="164" width="2" height="2" fill="#1a4f38" />
<rect x="172" y="164" width="2" height="2" fill="#1a4f38" />
<rect x="80" y="168" width="2" height="2" fill="#1a4f38" />
<rect x="88" y="168" width="2" height="2" fill="#1a4f38" />
<rect x="96" y="168" width="2" height="2" fill="#1a4f38" />
<rect x="104" y="168" width="2" height="2" fill="#1a4f38" />
<rect x="112" y="168" width="2" height="2" fill="#1a4f38" />
<rect x="120" y="168" width="2" height="2" fill="#1a4f38" />
<rect x="128" y="168" width="2" height="2" fill="#1a4f38" />
<rect x="136" y="168" width="2" height="2" fill="#1a4f38" />
<rect x="144" y="168" width="2" height="2" fill="#1a4f38" />
<rect x="152" y="168" width="2" height="2" fill="#1a4f38" />
<rect x="160" y="168" width="2" height="2" fill="#1a4f38" />
<rect x="168" y="168" width="2" height="2" fill="#1a4f38" />
<rect x="176" y="168" width="2" height="2" fill="#1a4f38" />
<rect x="76" y="172" width="2" height="2" fill="#1a4f38" />
<rect x="84" y="172" width="2" height="2" fill="#1a4f38" />
<rect x="92" y="172" width="2" height="2" fill="#1a4f38" />
<rect x="100" y="172" width="2" height="2" fill="#1a4f38" />
<rect x="108" y="172" width="2" height="2" fill="#1a4f38" />
<rect x="116" y="172" width="2" height="2" fill="#1a4f38" />
<rect x="124" y="172" width="2" height="2" fill="#1a4f38" />
<rect x="132" y="172" width="2" height="2" fill="#1a4f38" />
<rect x="140" y="172" width="2" height="2" fill="#1a4f38" />
<rect x="148" y="172" width="2" height="2" fill="#1a4f38" />
<rect x="156" y="172" width="2" height="2" fill="#1a4f38" />
<rect x="164" y="172" width="2" height="2" fill="#1a4f38" />
<rect x="172" y="172" width="2" height="2" fill="#1a4f38" />
<rect x="80" y="176" width="2" height="2" fill="#1a4f38" />
<rect x="88" y="176" width="2" height="2" fill="#1a4f38" />
<rect x="96" y="176" width="2" height="2" fill="#1a4f38" />
<rect x="104" y="176" width="2" height="2" fill="#1a4f38" />
<rect x="112" y="176" width="2" height="2" fill="#1a4f38" />
<rect x="120" y="176" width="2" height="2" fill="#1a4f38" />
<rect x="128" y="176" width="2" height="2" fill="#1a4f38" />
<rect x="136" y="176" width="2" height="2" fill="#1a4f38" />
<rect x="144" y="176" width="2" height="2" fill="#1a4f38" />
<rect x="152" y="176" width="2" height="2" fill="#1a4f38" />
<rect x="160" y="176" width="2" height="2" fill="#1a4f38" />
<rect x="168" y="176" width="2" height="2" fill="#1a4f38" />
<rect x="176" y="176" width="2" height="2" fill="#1a4f38" />
<rect x="84" y="84" width="88" height="8" fill="#d8ffe6" />
<rect x="84" y="160" width="88" height="8" fill="#4e9f6b" />
<circle cx="88" cy="172" r="1" fill="#1a4f38" />
<circle cx="100" cy="172" r="1" fill="#1a4f38" />
<circle cx="112" cy="172" r="1" fill="#1a4f38" />
<circle cx="124" cy="172" r="1" fill="#1a4f38" />
<circle cx="136" cy="172" r="1" fill="#1a4f38" />
<circle cx="148" cy="172" r="1" fill="#1a4f38" />
<circle cx="160" cy="172" r="1" fill="#1a4f38" />
<circle cx="128" cy="128" r="44" fill="#5ba17a" opacity="0.26" />
</svg>
