<?xml version="1.0" encoding="UTF-8"?>
<svg xmlns="http://www.w3.org/2000/svg" width="256" height="256" viewBox="0 0 256 256" shape-rendering="crispEdges">
<polygon points="97,60 133,56 147,66 145,88 117,94 103,84" fill="#0b1320" />
<polygon points="99,62 131,58 143,66 141,86 117,92 105,82" fill="#cb9975" />
<polygon points="97,54 133,50 149,57 141,62 105,60" fill="#9b4f4f" />
<polygon points="93,62 105,60 103,80 91,76" fill="#4a2b1f" />
<rect x="109" y="90" width="10" height="8" fill="#996846" />
<rect x="119" y="90" width="6" height="4" fill="#cb9975" />
<rect x="113" y="69" width="8" height="2" fill="#0b1320" />
<rect x="117" y="72" width="6" height="4" fill="#142033" />
<rect x="115" y="82" width="12" height="4" fill="#6e5140" />
<rect x="133" y="74" width="8" height="2" fill="#996846" />
<polygon points="97,106 135,98 155,108 159,150 107,158" fill="#0b1320" />
<polygon points="101,108 133,102 151,110 155,148 109,154" fill="#dad3c2" />
<rect x="105" y="110" width="26" height="10" fill="#f3ecdb" />
<rect x="107" y="124" width="36" height="3" fill="#8f8878" />
<rect x="109" y="132" width="40" height="3" fill="#8f8878" />
<rect x="107" y="116" width="6" height="22" fill="#cb9975" />
<rect x="131" y="112" width="6" height="18" fill="#cb9975" />
<polygon points="111,106 119,104 131,132 123,134" fill="#88724a" />
<rect x="121" y="138" width="14" height="10" fill="#2a3a58" />
<polygon points="97,116 109,114 111,146 99,150" fill="#cb9975" />
<rect x="99" y="124" width="7" height="20" fill="#8f8878" />
<rect x="95" y="146" width="10" height="6" fill="#cb9975" />
<polygon points="129,120 143,122 123,121 115,121" fill="#cb9975" />
<polygon points="137,136 149,136 127,129 121,133" fill="#8f8878" />
<rect x="119" y="120" width="7" height="7" fill="#cb9975" />
<rect x="149" y="119" width="7" height="7" fill="#cb9975" />
<rect x="131" y="115" width="74" height="10" fill="#0b1320" />
<rect x="132" y="116" width="72" height="8" fill="#a8b2bf" />
<rect x="132" y="116" width="72" height="1" fill="#f3f8ff" />
<rect x="132" y="116" width="1" height="8" fill="#f3f8ff" />
<rect x="132" y="123" width="72" height="1" fill="#62707c" />
<rect x="203" y="116" width="1" height="8" fill="#62707c" />
<rect x="137" y="117" width="62" height="2" fill="#edf6ff" />
<rect x="121" y="117" width="14" height="6" fill="#62707c" />
<rect x="199" y="117" width="18" height="6" fill="#62707c" />
<rect x="151" y="125" width="10" height="16" fill="#62707c" />
<polygon points="147,125 155,139 165,139 159,125" fill="#62707c" />
<rect x="141" y="123" width="18" height="2" fill="#0b1320" />
<rect x="95" y="158" width="20" height="60" fill="#0b1320" />
<rect x="96" y="159" width="18" height="58" fill="#33441f" />
<rect x="96" y="159" width="18" height="1" fill="#8aa05b" />
<rect x="96" y="159" width="1" height="58" fill="#8aa05b" />
<rect x="96" y="216" width="18" height="1" fill="#101a2a" />
<rect x="113" y="159" width="1" height="58" fill="#101a2a" />
<rect x="124" y="154" width="22" height="62" fill="#0b1320" />
<rect x="125" y="155" width="20" height="60" fill="#61773f" />
<rect x="125" y="155" width="20" height="1" fill="#8aa05b" />
<rect x="125" y="155" width="1" height="60" fill="#8aa05b" />
<rect x="125" y="214" width="20" height="1" fill="#101a2a" />
<rect x="144" y="155" width="1" height="60" fill="#101a2a" />
<rect x="100" y="166" width="12" height="6" fill="#33441f" />
<rect x="116" y="174" width="10" height="5" fill="#8aa05b" />
<rect x="104" y="188" width="14" height="6" fill="#dad3c2" />
<rect x="114" y="200" width="12" height="6" fill="#33441f" />
<rect x="98" y="206" width="10" height="5" fill="#8aa05b" />
<rect x="129" y="166" width="12" height="6" fill="#8aa05b" />
<rect x="145" y="174" width="10" height="5" fill="#dad3c2" />
<rect x="133" y="188" width="14" height="6" fill="#33441f" />
<rect x="143" y="200" width="12" height="6" fill="#8aa05b" />
<rect x="127" y="206" width="10" height="5" fill="#dad3c2" />
<rect x="101" y="188" width="10" height="8" fill="#8f8878" />
<rect x="132" y="180" width="10" height="8" fill="#8f8878" />
<rect x="91" y="236" width="34" height="12" fill="#0b1320" />
<rect x="92" y="237" width="32" height="10" fill="#101a2a" />
<rect x="92" y="237" width="32" height="1" fill="#33441f" />
<rect x="92" y="237" width="1" height="10" fill="#33441f" />
<rect x="92" y="246" width="32" height="1" fill="#0b1320" />
<rect x="123" y="237" width="1" height="10" fill="#0b1320" />
<rect x="120" y="236" width="40" height="12" fill="#0b1320" />
<rect x="121" y="237" width="38" height="10" fill="#101a2a" />
<rect x="121" y="237" width="38" height="1" fill="#33441f" />
<rect x="121" y="237" width="1" height="10" fill="#33441f" />
<rect x="121" y="246" width="38" height="1" fill="#0b1320" />
<rect x="158" y="237" width="1" height="10" fill="#0b1320" />
</svg>
