<?xml version="1.0" encoding="UTF-8"?>
<svg xmlns="http://www.w3.org/2000/svg" width="256" height="256" viewBox="0 0 256 256" shape-rendering="crispEdges">
<rect x="82" y="91" width="96" height="100" fill="#0b1320" />
<rect x="83" y="92" width="94" height="98" fill="#325eb7" />
<rect x="83" y="92" width="94" height="1" fill="#4f7fd9" />
<rect x="83" y="92" width="1" height="98" fill="#4f7fd9" />
<rect x="83" y="189" width="94" height="1" fill="#233f7d" />
<rect x="176" y="92" width="1" height="98" fill="#233f7d" />
<rect x="90" y="101" width="80" height="24" fill="#4f7fd9" />
<rect x="95" y="103" width="1" height="1" fill="#325eb7" />
<rect x="101" y="103" width="1" height="1" fill="#325eb7" />
<rect x="107" y="103" width="1" height="1" fill="#325eb7" />
<rect x="113" y="103" width="1" height="1" fill="#325eb7" />
<rect x="119" y="103" width="1" height="1" fill="#325eb7" />
<rect x="125" y="103" width="1" height="1" fill="#325eb7" />
<rect x="131" y="103" width="1" height="1" fill="#325eb7" />
<rect x="137" y="103" width="1" height="1" fill="#325eb7" />
<rect x="143" y="103" width="1" height="1" fill="#325eb7" />
<rect x="149" y="103" width="1" height="1" fill="#325eb7" />
<rect x="155" y="103" width="1" height="1" fill="#325eb7" />
<rect x="161" y="103" width="1" height="1" fill="#325eb7" />
<rect x="167" y="103" width="1" height="1" fill="#325eb7" />
<rect x="92" y="106" width="1" height="1" fill="#325eb7" />
<rect x="98" y="106" width="1" height="1" fill="#325eb7" />
<rect x="104" y="106" width="1" height="1" fill="#325eb7" />
<rect x="110" y="106" width="1" height="1" fill="#325eb7" />
<rect x="116" y="106" width="1" height="1" fill="#325eb7" />
<rect x="122" y="106" width="1" height="1" fill="#325eb7" />
<rect x="128" y="106" width="1" height="1" fill="#325eb7" />
<rect x="134" y="106" width="1" height="1" fill="#325eb7" />
<rect x="140" y="106" width="1" height="1" fill="#325eb7" />
<rect x="146" y="106" width="1" height="1" fill="#325eb7" />
<rect x="152" y="106" width="1" height="1" fill="#325eb7" />
<rect x="158" y="106" width="1" height="1" fill="#325eb7" />
<rect x="164" y="106" width="1" height="1" fill="#325eb7" />
<rect x="95" y="109" width="1" height="1" fill="#325eb7" />
<rect x="101" y="109" width="1" height="1" fill="#325eb7" />
<rect x="107" y="109" width="1" height="1" fill="#325eb7" />
<rect x="113" y="109" width="1" height="1" fill="#325eb7" />
<rect x="119" y="109" width="1" height="1" fill="#325eb7" />
<rect x="125" y="109" width="1" height="1" fill="#325eb7" />
<rect x="131" y="109" width="1" height="1" fill="#325eb7" />
<rect x="137" y="109" width="1" height="1" fill="#325eb7" />
<rect x="143" y="109" width="1" height="1" fill="#325eb7" />
<rect x="149" y="109" width="1" height="1" fill="#325eb7" />
<rect x="155" y="109" width="1" height="1" fill="#325eb7" />
<rect x="161" y="109" width="1" height="1" fill="#325eb7" />
<rect x="167" y="109" width="1" height="1" fill="#325eb7" />
<rect x="92" y="112" width="1" height="1" fill="#325eb7" />
<rect x="98" y="112" width="1" height="1" fill="#325eb7" />
<rect x="104" y="112" width="1" height="1" fill="#325eb7" />
<rect x="110" y="112" width="1" height="1" fill="#325eb7" />
<rect x="116" y="112" width="1" height="1" fill="#325eb7" />
<rect x="122" y="112" width="1" height="1" fill="#325eb7" />
<rect x="128" y="112" width="1" height="1" fill="#325eb7" />
<rect x="134" y="112" width="1" height="1" fill="#325eb7" />
<rect x="140" y="112" width="1" height="1" fill="#325eb7" />
<rect x="146" y="112" width="1" height="1" fill="#325eb7" />
<rect x="152" y="112" width="1" height="1" fill="#325eb7" />
<rect x="158" y="112" width="1" height="1" fill="#325eb7" />
<rect x="164" y="112" width="1" height="1" fill="#325eb7" />
<rect x="95" y="115" width="1" height="1" fill="#325eb7" />
<rect x="101" y="115" width="1" height="1" fill="#325eb7" />
<rect x="107" y="115" width="1" height="1" fill="#325eb7" />
<rect x="113" y="115" width="1" height="1" fill="#325eb7" />
<rect x="119" y="115" width="1" height="1" fill="#325eb7" />
<rect x="125" y="115" width="1" height="1" fill="#325eb7" />
<rect x="131" y="115" width="1" height="1" fill="#325eb7" />
<rect x="137" y="115" width="1" height="1" fill="#325eb7" />
<rect x="143" y="115" width="1" height="1" fill="#325eb7" />
<rect x="149" y="115" width="1" height="1" fill="#325eb7" />
<rect x="155" y="115" width="1" height="1" fill="#325eb7" />
<rect x="161" y="115" width="1" height="1" fill="#325eb7" />
<rect x="167" y="115" width="1" height="1" fill="#325eb7" />
<rect x="92" y="118" width="1" height="1" fill="#325eb7" />
<rect x="98" y="118" width="1" height="1" fill="#325eb7" />
<rect x="104" y="118" width="1" height="1" fill="#325eb7" />
<rect x="110" y="118" width="1" height="1" fill="#325eb7" />
<rect x="116" y="118" width="1" height="1" fill="#325eb7" />
<rect x="122" y="118" width="1" height="1" fill="#325eb7" />
<rect x="128" y="118" width="1" height="1" fill="#325eb7" />
<rect x="134" y="118" width="1" height="1" fill="#325eb7" />
<rect x="140" y="118" width="1" height="1" fill="#325eb7" />
<rect x="146" y="118" width="1" height="1" fill="#325eb7" />
<rect x="152" y="118" width="1" height="1" fill="#325eb7" />
<rect x="158" y="118" width="1" height="1" fill="#325eb7" />
<rect x="164" y="118" width="1" height="1" fill="#325eb7" />
<rect x="95" y="121" width="1" height="1" fill="#325eb7" />
<rect x="101" y="121" width="1" height="1" fill="#325eb7" />
<rect x="107" y="121" width="1" height="1" fill="#325eb7" />
<rect x="113" y="121" width="1" height="1" fill="#325eb7" />
<rect x="119" y="121" width="1" height="1" fill="#325eb7" />
<rect x="125" y="121" width="1" height="1" fill="#325eb7" />
<rect x="131" y="121" width="1" height="1" fill="#325eb7" />
<rect x="137" y="121" width="1" height="1" fill="#325eb7" />
<rect x="143" y="121" width="1" height="1" fill="#325eb7" />
<rect x="149" y="121" width="1" height="1" fill="#325eb7" />
<rect x="155" y="121" width="1" height="1" fill="#325eb7" />
<rect x="161" y="121" width="1" height="1" fill="#325eb7" />
<rect x="167" y="121" width="1" height="1" fill="#325eb7" />
<rect x="96" y="133" width="68" height="1" fill="#233f7d" />
<rect x="96" y="139" width="68" height="1" fill="#233f7d" />
<rect x="96" y="145" width="68" height="1" fill="#233f7d" />
<rect x="96" y="151" width="68" height="1" fill="#233f7d" />
<rect x="98" y="157" width="64" height="10" fill="#2a3a58" />
<rect x="102" y="165" width="56" height="8" fill="#233f7d" />
<circle cx="104" cy="171" r="1.1" fill="#4f7fd9" />
<circle cx="116" cy="171" r="1.1" fill="#4f7fd9" />
<circle cx="128" cy="171" r="1.1" fill="#4f7fd9" />
<circle cx="140" cy="171" r="1.1" fill="#4f7fd9" />
<circle cx="152" cy="171" r="1.1" fill="#4f7fd9" />
<rect x="98" y="67" width="64" height="38" fill="#0b1320" />
<rect x="99" y="68" width="62" height="36" fill="#e5edf8" />
<rect x="99" y="68" width="62" height="1" fill="#f5fbff" />
<rect x="99" y="68" width="1" height="36" fill="#f5fbff" />
<rect x="99" y="103" width="62" height="1" fill="#c4d0de" />
<rect x="160" y="68" width="1" height="36" fill="#c4d0de" />
<rect x="92" y="59" width="76" height="10" fill="#d74453" />
<rect x="98" y="57" width="64" height="2" fill="#0b1320" />
<rect x="96" y="75" width="68" height="3" fill="#0b1320" />
<circle cx="102" cy="69" r="1.2" fill="#4f7fd9" />
<circle cx="112" cy="69" r="1.2" fill="#4f7fd9" />
<circle cx="122" cy="69" r="1.2" fill="#4f7fd9" />
<circle cx="132" cy="69" r="1.2" fill="#4f7fd9" />
<circle cx="142" cy="69" r="1.2" fill="#4f7fd9" />
<circle cx="152" cy="69" r="1.2" fill="#4f7fd9" />
<rect x="74" y="103" width="16" height="64" fill="#0b1320" />
<rect x="75" y="104" width="14" height="62" fill="#2a3a58" />
<rect x="75" y="104" width="14" height="1" fill="#4f7fd9" />
<rect x="75" y="104" width="1" height="62" fill="#4f7fd9" />
<rect x="75" y="165" width="14" height="1" fill="#233f7d" />
<rect x="88" y="104" width="1" height="62" fill="#233f7d" />
<rect x="170" y="103" width="16" height="64" fill="#0b1320" />
<rect x="171" y="104" width="14" height="62" fill="#2a3a58" />
<rect x="171" y="104" width="14" height="1" fill="#4f7fd9" />
<rect x="171" y="104" width="1" height="62" fill="#4f7fd9" />
<rect x="171" y="165" width="14" height="1" fill="#233f7d" />
<rect x="184" y="104" width="1" height="62" fill="#233f7d" />
<rect x="76" y="111" width="12" height="6" fill="#4f7fd9" />
<rect x="172" y="111" width="12" height="6" fill="#4f7fd9" />
<rect x="76" y="127" width="12" height="6" fill="#233f7d" />
<rect x="172" y="127" width="12" height="6" fill="#233f7d" />
<rect x="72" y="103" width="20" height="8" fill="#0b1320" />
<rect x="168" y="103" width="20" height="8" fill="#0b1320" />
<rect x="86" y="176" width="34" height="66" fill="#0b1320" />
<rect x="87" y="177" width="32" height="64" fill="#1f2d49" />
<rect x="87" y="177" width="32" height="1" fill="#4f7fd9" />
<rect x="87" y="177" width="1" height="64" fill="#4f7fd9" />
<rect x="87" y="240" width="32" height="1" fill="#101a2a" />
<rect x="118" y="177" width="1" height="64" fill="#101a2a" />
<rect x="136" y="176" width="34" height="66" fill="#0b1320" />
<rect x="137" y="177" width="32" height="64" fill="#1f2d49" />
<rect x="137" y="177" width="32" height="1" fill="#4f7fd9" />
<rect x="137" y="177" width="1" height="64" fill="#4f7fd9" />
<rect x="137" y="240" width="32" height="1" fill="#101a2a" />
<rect x="168" y="177" width="1" height="64" fill="#101a2a" />
<rect x="90" y="180" width="1" height="1" fill="#233f7d" />
<rect x="96" y="180" width="1" height="1" fill="#233f7d" />
<rect x="102" y="180" width="1" height="1" fill="#233f7d" />
<rect x="108" y="180" width="1" height="1" fill="#233f7d" />
<rect x="114" y="180" width="1" height="1" fill="#233f7d" />
<rect x="93" y="183" width="1" height="1" fill="#233f7d" />
<rect x="99" y="183" width="1" height="1" fill="#233f7d" />
<rect x="105" y="183" width="1" height="1" fill="#233f7d" />
<rect x="111" y="183" width="1" height="1" fill="#233f7d" />
<rect x="90" y="186" width="1" height="1" fill="#233f7d" />
<rect x="96" y="186" width="1" height="1" fill="#233f7d" />
<rect x="102" y="186" width="1" height="1" fill="#233f7d" />
<rect x="108" y="186" width="1" height="1" fill="#233f7d" />
<rect x="114" y="186" width="1" height="1" fill="#233f7d" />
<rect x="93" y="189" width="1" height="1" fill="#233f7d" />
<rect x="99" y="189" width="1" height="1" fill="#233f7d" />
<rect x="105" y="189" width="1" height="1" fill="#233f7d" />
<rect x="111" y="189" width="1" height="1" fill="#233f7d" />
<rect x="90" y="192" width="1" height="1" fill="#233f7d" />
<rect x="96" y="192" width="1" height="1" fill="#233f7d" />
<rect x="102" y="192" width="1" height="1" fill="#233f7d" />
<rect x="108" y="192" width="1" height="1" fill="#233f7d" />
<rect x="114" y="192" width="1" height="1" fill="#233f7d" />
<rect x="93" y="195" width="1" height="1" fill="#233f7d" />
<rect x="99" y="195" width="1" height="1" fill="#233f7d" />
<rect x="105" y="195" width="1" height="1" fill="#233f7d" />
<rect x="111" y="195" width="1" height="1" fill="#233f7d" />
<rect x="90" y="198" width="1" height="1" fill="#233f7d" />
<rect x="96" y="198" width="1" height="1" fill="#233f7d" />
<rect x="102" y="198" width="1" height="1" fill="#233f7d" />
<rect x="108" y="198" width="1" height="1" fill="#233f7d" />
<rect x="114" y="198" width="1" height="1" fill="#233f7d" />
<rect x="93" y="201" width="1" height="1" fill="#233f7d" />
<rect x="99" y="201" width="1" height="1" fill="#233f7d" />
<rect x="105" y="201" width="1" height="1" fill="#233f7d" />
<rect x="111" y="201" width="1" height="1" fill="#233f7d" />
<rect x="90" y="204" width="1" height="1" fill="#233f7d" />
<rect x="96" y="204" width="1" height="1" fill="#233f7d" />
<rect x="102" y="204" width="1" height="1" fill="#233f7d" />
<rect x="108" y="204" width="1" height="1" fill="#233f7d" />
<rect x="114" y="204" width="1" height="1" fill="#233f7d" />
<rect x="93" y="207" width="1" height="1" fill="#233f7d" />
<rect x="99" y="207" width="1" height="1" fill="#233f7d" />
<rect x="105" y="207" width="1" height="1" fill="#233f7d" />
<rect x="111" y="207" width="1" height="1" fill="#233f7d" />
<rect x="90" y="210" width="1" height="1" fill="#233f7d" />
<rect x="96" y="210" width="1" height="1" fill="#233f7d" />
<rect x="102" y="210" width="1" height="1" fill="#233f7d" />
<rect x="108" y="210" width="1" height="1" fill="#233f7d" />
<rect x="114" y="210" width="1" height="1" fill="#233f7d" />
<rect x="93" y="213" width="1" height="1" fill="#233f7d" />
<rect x="99" y="213" width="1" height="1" fill="#233f7d" />
<rect x="105" y="213" width="1" height="1" fill="#233f7d" />
<rect x="111" y="213" width="1" height="1" fill="#233f7d" />
<rect x="90" y="216" width="1" height="1" fill="#233f7d" />
<rect x="96" y="216" width="1" height="1" fill="#233f7d" />
<rect x="102" y="216" width="1" height="1" fill="#233f7d" />
<rect x="108" y="216" width="1" height="1" fill="#233f7d" />
<rect x="114" y="216" width="1" height="1" fill="#233f7d" />
<rect x="93" y="219" width="1" height="1" fill="#233f7d" />
<rect x="99" y="219" width="1" height="1" fill="#233f7d" />
<rect x="105" y="219" width="1" height="1" fill="#233f7d" />
<rect x="111" y="219" width="1" height="1" fill="#233f7d" />
<rect x="90" y="222" width="1" height="1" fill="#233f7d" />
<rect x="96" y="222" width="1" height="1" fill="#233f7d" />
<rect x="102" y="222" width="1" height="1" fill="#233f7d" />
<rect x="108" y="222" width="1" height="1" fill="#233f7d" />
<rect x="114" y="222" width="1" height="1" fill="#233f7d" />
<rect x="143" y="180" width="1" height="1" fill="#233f7d" />
<rect x="149" y="180" width="1" height="1" fill="#233f7d" />
<rect x="155" y="180" width="1" height="1" fill="#233f7d" />
<rect x="161" y="180" width="1" height="1" fill="#233f7d" />
<rect x="140" y="183" width="1" height="1" fill="#233f7d" />
<rect x="146" y="183" width="1" height="1" fill="#233f7d" />
<rect x="152" y="183" width="1" height="1" fill="#233f7d" />
<rect x="158" y="183" width="1" height="1" fill="#233f7d" />
<rect x="164" y="183" width="1" height="1" fill="#233f7d" />
<rect x="143" y="186" width="1" height="1" fill="#233f7d" />
<rect x="149" y="186" width="1" height="1" fill="#233f7d" />
<rect x="155" y="186" width="1" height="1" fill="#233f7d" />
<rect x="161" y="186" width="1" height="1" fill="#233f7d" />
<rect x="140" y="189" width="1" height="1" fill="#233f7d" />
<rect x="146" y="189" width="1" height="1" fill="#233f7d" />
<rect x="152" y="189" width="1" height="1" fill="#233f7d" />
<rect x="158" y="189" width="1" height="1" fill="#233f7d" />
<rect x="164" y="189" width="1" height="1" fill="#233f7d" />
<rect x="143" y="192" width="1" height="1" fill="#233f7d" />
<rect x="149" y="192" width="1" height="1" fill="#233f7d" />
<rect x="155" y="192" width="1" height="1" fill="#233f7d" />
<rect x="161" y="192" width="1" height="1" fill="#233f7d" />
<rect x="140" y="195" width="1" height="1" fill="#233f7d" />
<rect x="146" y="195" width="1" height="1" fill="#233f7d" />
<rect x="152" y="195" width="1" height="1" fill="#233f7d" />
<rect x="158" y="195" width="1" height="1" fill="#233f7d" />
<rect x="164" y="195" width="1" height="1" fill="#233f7d" />
<rect x="143" y="198" width="1" height="1" fill="#233f7d" />
<rect x="149" y="198" width="1" height="1" fill="#233f7d" />
<rect x="155" y="198" width="1" height="1" fill="#233f7d" />
<rect x="161" y="198" width="1" height="1" fill="#233f7d" />
<rect x="140" y="201" width="1" height="1" fill="#233f7d" />
<rect x="146" y="201" width="1" height="1" fill="#233f7d" />
<rect x="152" y="201" width="1" height="1" fill="#233f7d" />
<rect x="158" y="201" width="1" height="1" fill="#233f7d" />
<rect x="164" y="201" width="1" height="1" fill="#233f7d" />
<rect x="143" y="204" width="1" height="1" fill="#233f7d" />
<rect x="149" y="204" width="1" height="1" fill="#233f7d" />
<rect x="155" y="204" width="1" height="1" fill="#233f7d" />
<rect x="161" y="204" width="1" height="1" fill="#233f7d" />
<rect x="140" y="207" width="1" height="1" fill="#233f7d" />
<rect x="146" y="207" width="1" height="1" fill="#233f7d" />
<rect x="152" y="207" width="1" height="1" fill="#233f7d" />
<rect x="158" y="207" width="1" height="1" fill="#233f7d" />
<rect x="164" y="207" width="1" height="1" fill="#233f7d" />
<rect x="143" y="210" width="1" height="1" fill="#233f7d" />
<rect x="149" y="210" width="1" height="1" fill="#233f7d" />
<rect x="155" y="210" width="1" height="1" fill="#233f7d" />
<rect x="161" y="210" width="1" height="1" fill="#233f7d" />
<rect x="140" y="213" width="1" height="1" fill="#233f7d" />
<rect x="146" y="213" width="1" height="1" fill="#233f7d" />
<rect x="152" y="213" width="1" height="1" fill="#233f7d" />
<rect x="158" y="213" width="1" height="1" fill="#233f7d" />
<rect x="164" y="213" width="1" height="1" fill="#233f7d" />
<rect x="143" y="216" width="1" height="1" fill="#233f7d" />
<rect x="149" y="216" width="1" height="1" fill="#233f7d" />
<rect x="155" y="216" width="1" height="1" fill="#233f7d" />
<rect x="161" y="216" width="1" height="1" fill="#233f7d" />
<rect x="140" y="219" width="1" height="1" fill="#233f7d" />
<rect x="146" y="219" width="1" height="1" fill="#233f7d" />
<rect x="152" y="219" width="1" height="1" fill="#233f7d" />
<rect x="158" y="219" width="1" height="1" fill="#233f7d" />
<rect x="164" y="219" width="1" height="1" fill="#233f7d" />
<rect x="143" y="222" width="1" height="1" fill="#233f7d" />
<rect x="149" y="222" width="1" height="1" fill="#233f7d" />
<rect x="155" y="222" width="1" height="1" fill="#233f7d" />
<rect x="161" y="222" width="1" height="1" fill="#233f7d" />
<rect x="92" y="188" width="22" height="1" fill="#101a2a" />
<rect x="92" y="197" width="22" height="1" fill="#101a2a" />
<rect x="92" y="206" width="22" height="1" fill="#101a2a" />
<rect x="92" y="215" width="22" height="1" fill="#101a2a" />
<rect x="142" y="188" width="22" height="1" fill="#101a2a" />
<rect x="142" y="197" width="22" height="1" fill="#101a2a" />
<rect x="142" y="206" width="22" height="1" fill="#101a2a" />
<rect x="142" y="215" width="22" height="1" fill="#101a2a" />
<rect x="90" y="200" width="26" height="8" fill="#233f7d" />
<rect x="140" y="200" width="26" height="8" fill="#233f7d" />
<rect x="78" y="238" width="52" height="14" fill="#0b1320" />
<rect x="79" y="239" width="50" height="12" fill="#101a2a" />
<rect x="79" y="239" width="50" height="1" fill="#233f7d" />
<rect x="79" y="239" width="1" height="12" fill="#233f7d" />
<rect x="79" y="250" width="50" height="1" fill="#0b1320" />
<rect x="128" y="239" width="1" height="12" fill="#0b1320" />
<rect x="132" y="238" width="52" height="14" fill="#0b1320" />
<rect x="133" y="239" width="50" height="12" fill="#101a2a" />
<rect x="133" y="239" width="50" height="1" fill="#233f7d" />
<rect x="133" y="239" width="1" height="12" fill="#233f7d" />
<rect x="133" y="250" width="50" height="1" fill="#0b1320" />
<rect x="182" y="239" width="1" height="12" fill="#0b1320" />
<circle cx="82" cy="244" r="1.1" fill="#2a3a58" />
<circle cx="88" cy="244" r="1.1" fill="#2a3a58" />
<circle cx="94" cy="244" r="1.1" fill="#2a3a58" />
<circle cx="100" cy="244" r="1.1" fill="#2a3a58" />
<circle cx="106" cy="244" r="1.1" fill="#2a3a58" />
<circle cx="112" cy="244" r="1.1" fill="#2a3a58" />
<circle cx="118" cy="244" r="1.1" fill="#2a3a58" />
<circle cx="124" cy="244" r="1.1" fill="#2a3a58" />
<circle cx="136" cy="244" r="1.1" fill="#2a3a58" />
<circle cx="142" cy="244" r="1.1" fill="#2a3a58" />
<circle cx="148" cy="244" r="1.1" fill="#2a3a58" />
<circle cx="154" cy="244" r="1.1" fill="#2a3a58" />
<circle cx="160" cy="244" r="1.1" fill="#2a3a58" />
<circle cx="166" cy="244" r="1.1" fill="#2a3a58" />
<circle cx="172" cy="244" r="1.1" fill="#2a3a58" />
<circle cx="178" cy="244" r="1.1" fill="#2a3a58" />
<rect x="154" y="168" width="60" height="12" fill="#0b1320" />
<rect x="155" y="169" width="58" height="10" fill="#d3deee" />
<rect x="155" y="169" width="58" height="1" fill="#f1f7ff" />
<rect x="155" y="169" width="1" height="10" fill="#f1f7ff" />
<rect x="155" y="178" width="58" height="1" fill="#7485a4" />
<rect x="212" y="169" width="1" height="10" fill="#7485a4" />
<rect x="156" y="170" width="56" height="4" fill="#7485a4" />
<rect x="202" y="170" width="26" height="8" fill="#7485a4" />
<rect x="154" y="178" width="54" height="2" fill="#0b1320" />
<circle cx="162" cy="172" r="1" fill="#4f7fd9" />
<circle cx="174" cy="172" r="1" fill="#4f7fd9" />
<circle cx="186" cy="172" r="1" fill="#4f7fd9" />
<circle cx="198" cy="172" r="1" fill="#4f7fd9" />
<rect x="108" y="83" width="14" height="6" fill="#142033" />
<rect x="138" y="83" width="14" height="6" fill="#142033" />
<rect x="122" y="87" width="14" height="4" fill="#87e4ff" />
<rect x="114" y="83" width="2" height="6" fill="#c4d0de" />
<rect x="144" y="83" width="2" height="6" fill="#c4d0de" />
</svg>
