<?xml version="1.0" encoding="UTF-8"?>
<svg xmlns="http://www.w3.org/2000/svg" width="256" height="256" viewBox="0 0 256 256" shape-rendering="crispEdges">
<polygon points="102,57 138,53 152,63 150,85 122,91 108,81" fill="#0b1320" />
<polygon points="104,59 136,55 148,63 146,83 122,89 110,79" fill="#cb9975" />
<polygon points="102,51 138,47 154,54 146,59 110,57" fill="#9b4f4f" />
<polygon points="98,59 110,57 108,77 96,73" fill="#4a2b1f" />
<rect x="114" y="87" width="10" height="8" fill="#996846" />
<rect x="124" y="87" width="6" height="4" fill="#cb9975" />
<rect x="118" y="66" width="8" height="2" fill="#0b1320" />
<rect x="122" y="69" width="6" height="4" fill="#142033" />
<rect x="120" y="79" width="12" height="4" fill="#6e5140" />
<rect x="138" y="71" width="8" height="2" fill="#996846" />
<polygon points="102,103 140,95 160,105 164,147 112,155" fill="#0b1320" />
<polygon points="106,105 138,99 156,107 160,145 114,151" fill="#dad3c2" />
<rect x="110" y="107" width="26" height="10" fill="#f3ecdb" />
<rect x="112" y="121" width="36" height="3" fill="#8f8878" />
<rect x="114" y="129" width="40" height="3" fill="#8f8878" />
<rect x="112" y="113" width="6" height="22" fill="#cb9975" />
<rect x="136" y="109" width="6" height="18" fill="#cb9975" />
<polygon points="116,103 124,101 136,129 128,131" fill="#88724a" />
<rect x="126" y="135" width="14" height="10" fill="#2a3a58" />
<polygon points="102,109 114,107 116,139 104,143" fill="#cb9975" />
<rect x="104" y="117" width="7" height="20" fill="#8f8878" />
<rect x="100" y="139" width="10" height="6" fill="#cb9975" />
<polygon points="134,105 148,107 128,109 120,109" fill="#cb9975" />
<polygon points="142,121 154,121 132,117 126,121" fill="#8f8878" />
<rect x="124" y="108" width="7" height="7" fill="#cb9975" />
<rect x="154" y="107" width="7" height="7" fill="#cb9975" />
<rect x="136" y="103" width="74" height="10" fill="#0b1320" />
<rect x="137" y="104" width="72" height="8" fill="#a8b2bf" />
<rect x="137" y="104" width="72" height="1" fill="#f3f8ff" />
<rect x="137" y="104" width="1" height="8" fill="#f3f8ff" />
<rect x="137" y="111" width="72" height="1" fill="#62707c" />
<rect x="208" y="104" width="1" height="8" fill="#62707c" />
<rect x="142" y="105" width="62" height="2" fill="#edf6ff" />
<rect x="126" y="105" width="14" height="6" fill="#62707c" />
<rect x="204" y="105" width="18" height="6" fill="#62707c" />
<rect x="156" y="113" width="10" height="16" fill="#62707c" />
<polygon points="152,113 160,127 170,127 164,113" fill="#62707c" />
<rect x="146" y="111" width="18" height="2" fill="#0b1320" />
<rect x="106" y="165" width="20" height="60" fill="#0b1320" />
<rect x="107" y="166" width="18" height="58" fill="#33441f" />
<rect x="107" y="166" width="18" height="1" fill="#8aa05b" />
<rect x="107" y="166" width="1" height="58" fill="#8aa05b" />
<rect x="107" y="223" width="18" height="1" fill="#101a2a" />
<rect x="124" y="166" width="1" height="58" fill="#101a2a" />
<rect x="119" y="165" width="22" height="62" fill="#0b1320" />
<rect x="120" y="166" width="20" height="60" fill="#61773f" />
<rect x="120" y="166" width="20" height="1" fill="#8aa05b" />
<rect x="120" y="166" width="1" height="60" fill="#8aa05b" />
<rect x="120" y="225" width="20" height="1" fill="#101a2a" />
<rect x="139" y="166" width="1" height="60" fill="#101a2a" />
<rect x="111" y="173" width="12" height="6" fill="#33441f" />
<rect x="127" y="181" width="10" height="5" fill="#8aa05b" />
<rect x="115" y="195" width="14" height="6" fill="#dad3c2" />
<rect x="125" y="207" width="12" height="6" fill="#33441f" />
<rect x="109" y="213" width="10" height="5" fill="#8aa05b" />
<rect x="124" y="177" width="12" height="6" fill="#8aa05b" />
<rect x="140" y="185" width="10" height="5" fill="#dad3c2" />
<rect x="128" y="199" width="14" height="6" fill="#33441f" />
<rect x="138" y="211" width="12" height="6" fill="#8aa05b" />
<rect x="122" y="217" width="10" height="5" fill="#dad3c2" />
<rect x="112" y="195" width="10" height="8" fill="#8f8878" />
<rect x="127" y="191" width="10" height="8" fill="#8f8878" />
<rect x="102" y="246" width="34" height="12" fill="#0b1320" />
<rect x="103" y="247" width="32" height="10" fill="#101a2a" />
<rect x="103" y="247" width="32" height="1" fill="#33441f" />
<rect x="103" y="247" width="1" height="10" fill="#33441f" />
<rect x="103" y="256" width="32" height="1" fill="#0b1320" />
<rect x="134" y="247" width="1" height="10" fill="#0b1320" />
<rect x="115" y="250" width="40" height="12" fill="#0b1320" />
<rect x="116" y="251" width="38" height="10" fill="#101a2a" />
<rect x="116" y="251" width="38" height="1" fill="#33441f" />
<rect x="116" y="251" width="1" height="10" fill="#33441f" />
<rect x="116" y="260" width="38" height="1" fill="#0b1320" />
<rect x="153" y="251" width="1" height="10" fill="#0b1320" />
<polygon points="100,172 114,156 124,170 116,208 100,204" fill="#33441f" />
<polygon points="126,166 154,150 168,166 160,204 132,200" fill="#61773f" />
<rect x="92" y="201" width="34" height="12" fill="#0b1320" />
<rect x="93" y="202" width="32" height="10" fill="#101a2a" />
<rect x="93" y="202" width="32" height="1" fill="#33441f" />
<rect x="93" y="202" width="1" height="10" fill="#33441f" />
<rect x="93" y="211" width="32" height="1" fill="#0b1320" />
<rect x="124" y="202" width="1" height="10" fill="#0b1320" />
<rect x="140" y="197" width="38" height="12" fill="#0b1320" />
<rect x="141" y="198" width="36" height="10" fill="#101a2a" />
<rect x="141" y="198" width="36" height="1" fill="#33441f" />
<rect x="141" y="198" width="1" height="10" fill="#33441f" />
<rect x="141" y="207" width="36" height="1" fill="#0b1320" />
<rect x="176" y="198" width="1" height="10" fill="#0b1320" />
</svg>
