<?xml version="1.0" encoding="UTF-8"?>
<svg xmlns="http://www.w3.org/2000/svg" width="256" height="256" viewBox="0 0 256 256" shape-rendering="crispEdges">
<rect x="82" y="93" width="96" height="100" fill="#0b1320" />
<rect x="83" y="94" width="94" height="98" fill="#325eb7" />
<rect x="83" y="94" width="94" height="1" fill="#4f7fd9" />
<rect x="83" y="94" width="1" height="98" fill="#4f7fd9" />
<rect x="83" y="191" width="94" height="1" fill="#233f7d" />
<rect x="176" y="94" width="1" height="98" fill="#233f7d" />
<rect x="90" y="103" width="80" height="24" fill="#4f7fd9" />
<rect x="95" y="105" width="1" height="1" fill="#325eb7" />
<rect x="101" y="105" width="1" height="1" fill="#325eb7" />
<rect x="107" y="105" width="1" height="1" fill="#325eb7" />
<rect x="113" y="105" width="1" height="1" fill="#325eb7" />
<rect x="119" y="105" width="1" height="1" fill="#325eb7" />
<rect x="125" y="105" width="1" height="1" fill="#325eb7" />
<rect x="131" y="105" width="1" height="1" fill="#325eb7" />
<rect x="137" y="105" width="1" height="1" fill="#325eb7" />
<rect x="143" y="105" width="1" height="1" fill="#325eb7" />
<rect x="149" y="105" width="1" height="1" fill="#325eb7" />
<rect x="155" y="105" width="1" height="1" fill="#325eb7" />
<rect x="161" y="105" width="1" height="1" fill="#325eb7" />
<rect x="167" y="105" width="1" height="1" fill="#325eb7" />
<rect x="92" y="108" width="1" height="1" fill="#325eb7" />
<rect x="98" y="108" width="1" height="1" fill="#325eb7" />
<rect x="104" y="108" width="1" height="1" fill="#325eb7" />
<rect x="110" y="108" width="1" height="1" fill="#325eb7" />
<rect x="116" y="108" width="1" height="1" fill="#325eb7" />
<rect x="122" y="108" width="1" height="1" fill="#325eb7" />
<rect x="128" y="108" width="1" height="1" fill="#325eb7" />
<rect x="134" y="108" width="1" height="1" fill="#325eb7" />
<rect x="140" y="108" width="1" height="1" fill="#325eb7" />
<rect x="146" y="108" width="1" height="1" fill="#325eb7" />
<rect x="152" y="108" width="1" height="1" fill="#325eb7" />
<rect x="158" y="108" width="1" height="1" fill="#325eb7" />
<rect x="164" y="108" width="1" height="1" fill="#325eb7" />
<rect x="95" y="111" width="1" height="1" fill="#325eb7" />
<rect x="101" y="111" width="1" height="1" fill="#325eb7" />
<rect x="107" y="111" width="1" height="1" fill="#325eb7" />
<rect x="113" y="111" width="1" height="1" fill="#325eb7" />
<rect x="119" y="111" width="1" height="1" fill="#325eb7" />
<rect x="125" y="111" width="1" height="1" fill="#325eb7" />
<rect x="131" y="111" width="1" height="1" fill="#325eb7" />
<rect x="137" y="111" width="1" height="1" fill="#325eb7" />
<rect x="143" y="111" width="1" height="1" fill="#325eb7" />
<rect x="149" y="111" width="1" height="1" fill="#325eb7" />
<rect x="155" y="111" width="1" height="1" fill="#325eb7" />
<rect x="161" y="111" width="1" height="1" fill="#325eb7" />
<rect x="167" y="111" width="1" height="1" fill="#325eb7" />
<rect x="92" y="114" width="1" height="1" fill="#325eb7" />
<rect x="98" y="114" width="1" height="1" fill="#325eb7" />
<rect x="104" y="114" width="1" height="1" fill="#325eb7" />
<rect x="110" y="114" width="1" height="1" fill="#325eb7" />
<rect x="116" y="114" width="1" height="1" fill="#325eb7" />
<rect x="122" y="114" width="1" height="1" fill="#325eb7" />
<rect x="128" y="114" width="1" height="1" fill="#325eb7" />
<rect x="134" y="114" width="1" height="1" fill="#325eb7" />
<rect x="140" y="114" width="1" height="1" fill="#325eb7" />
<rect x="146" y="114" width="1" height="1" fill="#325eb7" />
<rect x="152" y="114" width="1" height="1" fill="#325eb7" />
<rect x="158" y="114" width="1" height="1" fill="#325eb7" />
<rect x="164" y="114" width="1" height="1" fill="#325eb7" />
<rect x="95" y="117" width="1" height="1" fill="#325eb7" />
<rect x="101" y="117" width="1" height="1" fill="#325eb7" />
<rect x="107" y="117" width="1" height="1" fill="#325eb7" />
<rect x="113" y="117" width="1" height="1" fill="#325eb7" />
<rect x="119" y="117" width="1" height="1" fill="#325eb7" />
<rect x="125" y="117" width="1" height="1" fill="#325eb7" />
<rect x="131" y="117" width="1" height="1" fill="#325eb7" />
<rect x="137" y="117" width="1" height="1" fill="#325eb7" />
<rect x="143" y="117" width="1" height="1" fill="#325eb7" />
<rect x="149" y="117" width="1" height="1" fill="#325eb7" />
<rect x="155" y="117" width="1" height="1" fill="#325eb7" />
<rect x="161" y="117" width="1" height="1" fill="#325eb7" />
<rect x="167" y="117" width="1" height="1" fill="#325eb7" />
<rect x="92" y="120" width="1" height="1" fill="#325eb7" />
<rect x="98" y="120" width="1" height="1" fill="#325eb7" />
<rect x="104" y="120" width="1" height="1" fill="#325eb7" />
<rect x="110" y="120" width="1" height="1" fill="#325eb7" />
<rect x="116" y="120" width="1" height="1" fill="#325eb7" />
<rect x="122" y="120" width="1" height="1" fill="#325eb7" />
<rect x="128" y="120" width="1" height="1" fill="#325eb7" />
<rect x="134" y="120" width="1" height="1" fill="#325eb7" />
<rect x="140" y="120" width="1" height="1" fill="#325eb7" />
<rect x="146" y="120" width="1" height="1" fill="#325eb7" />
<rect x="152" y="120" width="1" height="1" fill="#325eb7" />
<rect x="158" y="120" width="1" height="1" fill="#325eb7" />
<rect x="164" y="120" width="1" height="1" fill="#325eb7" />
<rect x="95" y="123" width="1" height="1" fill="#325eb7" />
<rect x="101" y="123" width="1" height="1" fill="#325eb7" />
<rect x="107" y="123" width="1" height="1" fill="#325eb7" />
<rect x="113" y="123" width="1" height="1" fill="#325eb7" />
<rect x="119" y="123" width="1" height="1" fill="#325eb7" />
<rect x="125" y="123" width="1" height="1" fill="#325eb7" />
<rect x="131" y="123" width="1" height="1" fill="#325eb7" />
<rect x="137" y="123" width="1" height="1" fill="#325eb7" />
<rect x="143" y="123" width="1" height="1" fill="#325eb7" />
<rect x="149" y="123" width="1" height="1" fill="#325eb7" />
<rect x="155" y="123" width="1" height="1" fill="#325eb7" />
<rect x="161" y="123" width="1" height="1" fill="#325eb7" />
<rect x="167" y="123" width="1" height="1" fill="#325eb7" />
<rect x="96" y="135" width="68" height="1" fill="#233f7d" />
<rect x="96" y="141" width="68" height="1" fill="#233f7d" />
<rect x="96" y="147" width="68" height="1" fill="#233f7d" />
<rect x="96" y="153" width="68" height="1" fill="#233f7d" />
<rect x="98" y="159" width="64" height="10" fill="#2a3a58" />
<rect x="102" y="167" width="56" height="8" fill="#233f7d" />
<circle cx="104" cy="173" r="1.1" fill="#4f7fd9" />
<circle cx="116" cy="173" r="1.1" fill="#4f7fd9" />
<circle cx="128" cy="173" r="1.1" fill="#4f7fd9" />
<circle cx="140" cy="173" r="1.1" fill="#4f7fd9" />
<circle cx="152" cy="173" r="1.1" fill="#4f7fd9" />
<rect x="98" y="69" width="64" height="38" fill="#0b1320" />
<rect x="99" y="70" width="62" height="36" fill="#e5edf8" />
<rect x="99" y="70" width="62" height="1" fill="#f5fbff" />
<rect x="99" y="70" width="1" height="36" fill="#f5fbff" />
<rect x="99" y="105" width="62" height="1" fill="#c4d0de" />
<rect x="160" y="70" width="1" height="36" fill="#c4d0de" />
<rect x="92" y="61" width="76" height="10" fill="#d74453" />
<rect x="98" y="59" width="64" height="2" fill="#0b1320" />
<rect x="96" y="77" width="68" height="3" fill="#0b1320" />
<circle cx="102" cy="71" r="1.2" fill="#4f7fd9" />
<circle cx="112" cy="71" r="1.2" fill="#4f7fd9" />
<circle cx="122" cy="71" r="1.2" fill="#4f7fd9" />
<circle cx="132" cy="71" r="1.2" fill="#4f7fd9" />
<circle cx="142" cy="71" r="1.2" fill="#4f7fd9" />
<circle cx="152" cy="71" r="1.2" fill="#4f7fd9" />
<rect x="74" y="105" width="16" height="64" fill="#0b1320" />
<rect x="75" y="106" width="14" height="62" fill="#2a3a58" />
<rect x="75" y="106" width="14" height="1" fill="#4f7fd9" />
<rect x="75" y="106" width="1" height="62" fill="#4f7fd9" />
<rect x="75" y="167" width="14" height="1" fill="#233f7d" />
<rect x="88" y="106" width="1" height="62" fill="#233f7d" />
<rect x="170" y="105" width="16" height="64" fill="#0b1320" />
<rect x="171" y="106" width="14" height="62" fill="#2a3a58" />
<rect x="171" y="106" width="14" height="1" fill="#4f7fd9" />
<rect x="171" y="106" width="1" height="62" fill="#4f7fd9" />
<rect x="171" y="167" width="14" height="1" fill="#233f7d" />
<rect x="184" y="106" width="1" height="62" fill="#233f7d" />
<rect x="76" y="113" width="12" height="6" fill="#4f7fd9" />
<rect x="172" y="113" width="12" height="6" fill="#4f7fd9" />
<rect x="76" y="129" width="12" height="6" fill="#233f7d" />
<rect x="172" y="129" width="12" height="6" fill="#233f7d" />
<rect x="72" y="105" width="20" height="8" fill="#0b1320" />
<rect x="168" y="105" width="20" height="8" fill="#0b1320" />
<rect x="86" y="178" width="34" height="66" fill="#0b1320" />
<rect x="87" y="179" width="32" height="64" fill="#1f2d49" />
<rect x="87" y="179" width="32" height="1" fill="#4f7fd9" />
<rect x="87" y="179" width="1" height="64" fill="#4f7fd9" />
<rect x="87" y="242" width="32" height="1" fill="#101a2a" />
<rect x="118" y="179" width="1" height="64" fill="#101a2a" />
<rect x="136" y="177" width="34" height="66" fill="#0b1320" />
<rect x="137" y="178" width="32" height="64" fill="#1f2d49" />
<rect x="137" y="178" width="32" height="1" fill="#4f7fd9" />
<rect x="137" y="178" width="1" height="64" fill="#4f7fd9" />
<rect x="137" y="241" width="32" height="1" fill="#101a2a" />
<rect x="168" y="178" width="1" height="64" fill="#101a2a" />
<rect x="90" y="182" width="1" height="1" fill="#233f7d" />
<rect x="96" y="182" width="1" height="1" fill="#233f7d" />
<rect x="102" y="182" width="1" height="1" fill="#233f7d" />
<rect x="108" y="182" width="1" height="1" fill="#233f7d" />
<rect x="114" y="182" width="1" height="1" fill="#233f7d" />
<rect x="93" y="185" width="1" height="1" fill="#233f7d" />
<rect x="99" y="185" width="1" height="1" fill="#233f7d" />
<rect x="105" y="185" width="1" height="1" fill="#233f7d" />
<rect x="111" y="185" width="1" height="1" fill="#233f7d" />
<rect x="90" y="188" width="1" height="1" fill="#233f7d" />
<rect x="96" y="188" width="1" height="1" fill="#233f7d" />
<rect x="102" y="188" width="1" height="1" fill="#233f7d" />
<rect x="108" y="188" width="1" height="1" fill="#233f7d" />
<rect x="114" y="188" width="1" height="1" fill="#233f7d" />
<rect x="93" y="191" width="1" height="1" fill="#233f7d" />
<rect x="99" y="191" width="1" height="1" fill="#233f7d" />
<rect x="105" y="191" width="1" height="1" fill="#233f7d" />
<rect x="111" y="191" width="1" height="1" fill="#233f7d" />
<rect x="90" y="194" width="1" height="1" fill="#233f7d" />
<rect x="96" y="194" width="1" height="1" fill="#233f7d" />
<rect x="102" y="194" width="1" height="1" fill="#233f7d" />
<rect x="108" y="194" width="1" height="1" fill="#233f7d" />
<rect x="114" y="194" width="1" height="1" fill="#233f7d" />
<rect x="93" y="197" width="1" height="1" fill="#233f7d" />
<rect x="99" y="197" width="1" height="1" fill="#233f7d" />
<rect x="105" y="197" width="1" height="1" fill="#233f7d" />
<rect x="111" y="197" width="1" height="1" fill="#233f7d" />
<rect x="90" y="200" width="1" height="1" fill="#233f7d" />
<rect x="96" y="200" width="1" height="1" fill="#233f7d" />
<rect x="102" y="200" width="1" height="1" fill="#233f7d" />
<rect x="108" y="200" width="1" height="1" fill="#233f7d" />
<rect x="114" y="200" width="1" height="1" fill="#233f7d" />
<rect x="93" y="203" width="1" height="1" fill="#233f7d" />
<rect x="99" y="203" width="1" height="1" fill="#233f7d" />
<rect x="105" y="203" width="1" height="1" fill="#233f7d" />
<rect x="111" y="203" width="1" height="1" fill="#233f7d" />
<rect x="90" y="206" width="1" height="1" fill="#233f7d" />
<rect x="96" y="206" width="1" height="1" fill="#233f7d" />
<rect x="102" y="206" width="1" height="1" fill="#233f7d" />
<rect x="108" y="206" width="1" height="1" fill="#233f7d" />
<rect x="114" y="206" width="1" height="1" fill="#233f7d" />
<rect x="93" y="209" width="1" height="1" fill="#233f7d" />
<rect x="99" y="209" width="1" height="1" fill="#233f7d" />
<rect x="105" y="209" width="1" height="1" fill="#233f7d" />
<rect x="111" y="209" width="1" height="1" fill="#233f7d" />
<rect x="90" y="212" width="1" height="1" fill="#233f7d" />
<rect x="96" y="212" width="1" height="1" fill="#233f7d" />
<rect x="102" y="212" width="1" height="1" fill="#233f7d" />
<rect x="108" y="212" width="1" height="1" fill="#233f7d" />
<rect x="114" y="212" width="1" height="1" fill="#233f7d" />
<rect x="93" y="215" width="1" height="1" fill="#233f7d" />
<rect x="99" y="215" width="1" height="1" fill="#233f7d" />
<rect x="105" y="215" width="1" height="1" fill="#233f7d" />
<rect x="111" y="215" width="1" height="1" fill="#233f7d" />
<rect x="90" y="218" width="1" height="1" fill="#233f7d" />
<rect x="96" y="218" width="1" height="1" fill="#233f7d" />
<rect x="102" y="218" width="1" height="1" fill="#233f7d" />
<rect x="108" y="218" width="1" height="1" fill="#233f7d" />
<rect x="114" y="218" width="1" height="1" fill="#233f7d" />
<rect x="93" y="221" width="1" height="1" fill="#233f7d" />
<rect x="99" y="221" width="1" height="1" fill="#233f7d" />
<rect x="105" y="221" width="1" height="1" fill="#233f7d" />
<rect x="111" y="221" width="1" height="1" fill="#233f7d" />
<rect x="90" y="224" width="1" height="1" fill="#233f7d" />
<rect x="96" y="224" width="1" height="1" fill="#233f7d" />
<rect x="102" y="224" width="1" height="1" fill="#233f7d" />
<rect x="108" y="224" width="1" height="1" fill="#233f7d" />
<rect x="114" y="224" width="1" height="1" fill="#233f7d" />
<rect x="143" y="181" width="1" height="1" fill="#233f7d" />
<rect x="149" y="181" width="1" height="1" fill="#233f7d" />
<rect x="155" y="181" width="1" height="1" fill="#233f7d" />
<rect x="161" y="181" width="1" height="1" fill="#233f7d" />
<rect x="140" y="184" width="1" height="1" fill="#233f7d" />
<rect x="146" y="184" width="1" height="1" fill="#233f7d" />
<rect x="152" y="184" width="1" height="1" fill="#233f7d" />
<rect x="158" y="184" width="1" height="1" fill="#233f7d" />
<rect x="164" y="184" width="1" height="1" fill="#233f7d" />
<rect x="143" y="187" width="1" height="1" fill="#233f7d" />
<rect x="149" y="187" width="1" height="1" fill="#233f7d" />
<rect x="155" y="187" width="1" height="1" fill="#233f7d" />
<rect x="161" y="187" width="1" height="1" fill="#233f7d" />
<rect x="140" y="190" width="1" height="1" fill="#233f7d" />
<rect x="146" y="190" width="1" height="1" fill="#233f7d" />
<rect x="152" y="190" width="1" height="1" fill="#233f7d" />
<rect x="158" y="190" width="1" height="1" fill="#233f7d" />
<rect x="164" y="190" width="1" height="1" fill="#233f7d" />
<rect x="143" y="193" width="1" height="1" fill="#233f7d" />
<rect x="149" y="193" width="1" height="1" fill="#233f7d" />
<rect x="155" y="193" width="1" height="1" fill="#233f7d" />
<rect x="161" y="193" width="1" height="1" fill="#233f7d" />
<rect x="140" y="196" width="1" height="1" fill="#233f7d" />
<rect x="146" y="196" width="1" height="1" fill="#233f7d" />
<rect x="152" y="196" width="1" height="1" fill="#233f7d" />
<rect x="158" y="196" width="1" height="1" fill="#233f7d" />
<rect x="164" y="196" width="1" height="1" fill="#233f7d" />
<rect x="143" y="199" width="1" height="1" fill="#233f7d" />
<rect x="149" y="199" width="1" height="1" fill="#233f7d" />
<rect x="155" y="199" width="1" height="1" fill="#233f7d" />
<rect x="161" y="199" width="1" height="1" fill="#233f7d" />
<rect x="140" y="202" width="1" height="1" fill="#233f7d" />
<rect x="146" y="202" width="1" height="1" fill="#233f7d" />
<rect x="152" y="202" width="1" height="1" fill="#233f7d" />
<rect x="158" y="202" width="1" height="1" fill="#233f7d" />
<rect x="164" y="202" width="1" height="1" fill="#233f7d" />
<rect x="143" y="205" width="1" height="1" fill="#233f7d" />
<rect x="149" y="205" width="1" height="1" fill="#233f7d" />
<rect x="155" y="205" width="1" height="1" fill="#233f7d" />
<rect x="161" y="205" width="1" height="1" fill="#233f7d" />
<rect x="140" y="208" width="1" height="1" fill="#233f7d" />
<rect x="146" y="208" width="1" height="1" fill="#233f7d" />
<rect x="152" y="208" width="1" height="1" fill="#233f7d" />
<rect x="158" y="208" width="1" height="1" fill="#233f7d" />
<rect x="164" y="208" width="1" height="1" fill="#233f7d" />
<rect x="143" y="211" width="1" height="1" fill="#233f7d" />
<rect x="149" y="211" width="1" height="1" fill="#233f7d" />
<rect x="155" y="211" width="1" height="1" fill="#233f7d" />
<rect x="161" y="211" width="1" height="1" fill="#233f7d" />
<rect x="140" y="214" width="1" height="1" fill="#233f7d" />
<rect x="146" y="214" width="1" height="1" fill="#233f7d" />
<rect x="152" y="214" width="1" height="1" fill="#233f7d" />
<rect x="158" y="214" width="1" height="1" fill="#233f7d" />
<rect x="164" y="214" width="1" height="1" fill="#233f7d" />
<rect x="143" y="217" width="1" height="1" fill="#233f7d" />
<rect x="149" y="217" width="1" height="1" fill="#233f7d" />
<rect x="155" y="217" width="1" height="1" fill="#233f7d" />
<rect x="161" y="217" width="1" height="1" fill="#233f7d" />
<rect x="140" y="220" width="1" height="1" fill="#233f7d" />
<rect x="146" y="220" width="1" height="1" fill="#233f7d" />
<rect x="152" y="220" width="1" height="1" fill="#233f7d" />
<rect x="158" y="220" width="1" height="1" fill="#233f7d" />
<rect x="164" y="220" width="1" height="1" fill="#233f7d" />
<rect x="143" y="223" width="1" height="1" fill="#233f7d" />
<rect x="149" y="223" width="1" height="1" fill="#233f7d" />
<rect x="155" y="223" width="1" height="1" fill="#233f7d" />
<rect x="161" y="223" width="1" height="1" fill="#233f7d" />
<rect x="92" y="190" width="22" height="1" fill="#101a2a" />
<rect x="92" y="199" width="22" height="1" fill="#101a2a" />
<rect x="92" y="208" width="22" height="1" fill="#101a2a" />
<rect x="92" y="217" width="22" height="1" fill="#101a2a" />
<rect x="142" y="189" width="22" height="1" fill="#101a2a" />
<rect x="142" y="198" width="22" height="1" fill="#101a2a" />
<rect x="142" y="207" width="22" height="1" fill="#101a2a" />
<rect x="142" y="216" width="22" height="1" fill="#101a2a" />
<rect x="90" y="202" width="26" height="8" fill="#233f7d" />
<rect x="140" y="201" width="26" height="8" fill="#233f7d" />
<rect x="78" y="238" width="52" height="14" fill="#0b1320" />
<rect x="79" y="239" width="50" height="12" fill="#101a2a" />
<rect x="79" y="239" width="50" height="1" fill="#233f7d" />
<rect x="79" y="239" width="1" height="12" fill="#233f7d" />
<rect x="79" y="250" width="50" height="1" fill="#0b1320" />
<rect x="128" y="239" width="1" height="12" fill="#0b1320" />
<rect x="132" y="238" width="52" height="14" fill="#0b1320" />
<rect x="133" y="239" width="50" height="12" fill="#101a2a" />
<rect x="133" y="239" width="50" height="1" fill="#233f7d" />
<rect x="133" y="239" width="1" height="12" fill="#233f7d" />
<rect x="133" y="250" width="50" height="1" fill="#0b1320" />
<rect x="182" y="239" width="1" height="12" fill="#0b1320" />
<circle cx="82" cy="244" r="1.1" fill="#2a3a58" />
<circle cx="88" cy="244" r="1.1" fill="#2a3a58" />
<circle cx="94" cy="244" r="1.1" fill="#2a3a58" />
<circle cx="100" cy="244" r="1.1" fill="#2a3a58" />
<circle cx="106" cy="244" r="1.1" fill="#2a3a58" />
<circle cx="112" cy="244" r="1.1" fill="#2a3a58" />
<circle cx="118" cy="244" r="1.1" fill="#2a3a58" />
<circle cx="124" cy="244" r="1.1" fill="#2a3a58" />
<circle cx="136" cy="244" r="1.1" fill="#2a3a58" />
<circle cx="142" cy="244" r="1.1" fill="#2a3a58" />
<circle cx="148" cy="244" r="1.1" fill="#2a3a58" />
<circle cx="154" cy="244" r="1.1" fill="#2a3a58" />
<circle cx="160" cy="244" r="1.1" fill="#2a3a58" />
<circle cx="166" cy="244" r="1.1" fill="#2a3a58" />
<circle cx="172" cy="244" r="1.1" fill="#2a3a58" />
<circle cx="178" cy="244" r="1.1" fill="#2a3a58" />
<rect x="154" y="172" width="60" height="12" fill="#0b1320" />
<rect x="155" y="173" width="58" height="10" fill="#d3deee" />
<rect x="155" y="173" width="58" height="1" fill="#f1f7ff" />
<rect x="155" y="173" width="1" height="10" fill="#f1f7ff" />
<rect x="155" y="182" width="58" height="1" fill="#7485a4" />
<rect x="212" y="173" width="1" height="10" fill="#7485a4" />
<rect x="156" y="174" width="56" height="4" fill="#7485a4" />
<rect x="202" y="174" width="26" height="8" fill="#7485a4" />
<rect x="154" y="182" width="54" height="2" fill="#0b1320" />
<circle cx="162" cy="176" r="1" fill="#4f7fd9" />
<circle cx="174" cy="176" r="1" fill="#4f7fd9" />
<circle cx="186" cy="176" r="1" fill="#4f7fd9" />
<circle cx="198" cy="176" r="1" fill="#4f7fd9" />
<rect x="108" y="85" width="14" height="6" fill="#142033" />
<rect x="138" y="85" width="14" height="6" fill="#142033" />
<rect x="122" y="89" width="14" height="4" fill="#87e4ff" />
<rect x="114" y="85" width="2" height="6" fill="#c4d0de" />
<rect x="144" y="85" width="2" height="6" fill="#c4d0de" />
</svg>
