<?xml version="1.0" encoding="UTF-8"?>
<svg xmlns="http://www.w3.org/2000/svg" width="256" height="256" viewBox="0 0 256 256" shape-rendering="crispEdges">
<rect x="81" y="92" width="96" height="100" fill="#0b1320" />
<rect x="82" y="93" width="94" height="98" fill="#325eb7" />
<rect x="82" y="93" width="94" height="1" fill="#4f7fd9" />
<rect x="82" y="93" width="1" height="98" fill="#4f7fd9" />
<rect x="82" y="190" width="94" height="1" fill="#233f7d" />
<rect x="175" y="93" width="1" height="98" fill="#233f7d" />
<rect x="89" y="102" width="80" height="24" fill="#4f7fd9" />
<rect x="94" y="104" width="1" height="1" fill="#325eb7" />
<rect x="100" y="104" width="1" height="1" fill="#325eb7" />
<rect x="106" y="104" width="1" height="1" fill="#325eb7" />
<rect x="112" y="104" width="1" height="1" fill="#325eb7" />
<rect x="118" y="104" width="1" height="1" fill="#325eb7" />
<rect x="124" y="104" width="1" height="1" fill="#325eb7" />
<rect x="130" y="104" width="1" height="1" fill="#325eb7" />
<rect x="136" y="104" width="1" height="1" fill="#325eb7" />
<rect x="142" y="104" width="1" height="1" fill="#325eb7" />
<rect x="148" y="104" width="1" height="1" fill="#325eb7" />
<rect x="154" y="104" width="1" height="1" fill="#325eb7" />
<rect x="160" y="104" width="1" height="1" fill="#325eb7" />
<rect x="166" y="104" width="1" height="1" fill="#325eb7" />
<rect x="91" y="107" width="1" height="1" fill="#325eb7" />
<rect x="97" y="107" width="1" height="1" fill="#325eb7" />
<rect x="103" y="107" width="1" height="1" fill="#325eb7" />
<rect x="109" y="107" width="1" height="1" fill="#325eb7" />
<rect x="115" y="107" width="1" height="1" fill="#325eb7" />
<rect x="121" y="107" width="1" height="1" fill="#325eb7" />
<rect x="127" y="107" width="1" height="1" fill="#325eb7" />
<rect x="133" y="107" width="1" height="1" fill="#325eb7" />
<rect x="139" y="107" width="1" height="1" fill="#325eb7" />
<rect x="145" y="107" width="1" height="1" fill="#325eb7" />
<rect x="151" y="107" width="1" height="1" fill="#325eb7" />
<rect x="157" y="107" width="1" height="1" fill="#325eb7" />
<rect x="163" y="107" width="1" height="1" fill="#325eb7" />
<rect x="94" y="110" width="1" height="1" fill="#325eb7" />
<rect x="100" y="110" width="1" height="1" fill="#325eb7" />
<rect x="106" y="110" width="1" height="1" fill="#325eb7" />
<rect x="112" y="110" width="1" height="1" fill="#325eb7" />
<rect x="118" y="110" width="1" height="1" fill="#325eb7" />
<rect x="124" y="110" width="1" height="1" fill="#325eb7" />
<rect x="130" y="110" width="1" height="1" fill="#325eb7" />
<rect x="136" y="110" width="1" height="1" fill="#325eb7" />
<rect x="142" y="110" width="1" height="1" fill="#325eb7" />
<rect x="148" y="110" width="1" height="1" fill="#325eb7" />
<rect x="154" y="110" width="1" height="1" fill="#325eb7" />
<rect x="160" y="110" width="1" height="1" fill="#325eb7" />
<rect x="166" y="110" width="1" height="1" fill="#325eb7" />
<rect x="91" y="113" width="1" height="1" fill="#325eb7" />
<rect x="97" y="113" width="1" height="1" fill="#325eb7" />
<rect x="103" y="113" width="1" height="1" fill="#325eb7" />
<rect x="109" y="113" width="1" height="1" fill="#325eb7" />
<rect x="115" y="113" width="1" height="1" fill="#325eb7" />
<rect x="121" y="113" width="1" height="1" fill="#325eb7" />
<rect x="127" y="113" width="1" height="1" fill="#325eb7" />
<rect x="133" y="113" width="1" height="1" fill="#325eb7" />
<rect x="139" y="113" width="1" height="1" fill="#325eb7" />
<rect x="145" y="113" width="1" height="1" fill="#325eb7" />
<rect x="151" y="113" width="1" height="1" fill="#325eb7" />
<rect x="157" y="113" width="1" height="1" fill="#325eb7" />
<rect x="163" y="113" width="1" height="1" fill="#325eb7" />
<rect x="94" y="116" width="1" height="1" fill="#325eb7" />
<rect x="100" y="116" width="1" height="1" fill="#325eb7" />
<rect x="106" y="116" width="1" height="1" fill="#325eb7" />
<rect x="112" y="116" width="1" height="1" fill="#325eb7" />
<rect x="118" y="116" width="1" height="1" fill="#325eb7" />
<rect x="124" y="116" width="1" height="1" fill="#325eb7" />
<rect x="130" y="116" width="1" height="1" fill="#325eb7" />
<rect x="136" y="116" width="1" height="1" fill="#325eb7" />
<rect x="142" y="116" width="1" height="1" fill="#325eb7" />
<rect x="148" y="116" width="1" height="1" fill="#325eb7" />
<rect x="154" y="116" width="1" height="1" fill="#325eb7" />
<rect x="160" y="116" width="1" height="1" fill="#325eb7" />
<rect x="166" y="116" width="1" height="1" fill="#325eb7" />
<rect x="91" y="119" width="1" height="1" fill="#325eb7" />
<rect x="97" y="119" width="1" height="1" fill="#325eb7" />
<rect x="103" y="119" width="1" height="1" fill="#325eb7" />
<rect x="109" y="119" width="1" height="1" fill="#325eb7" />
<rect x="115" y="119" width="1" height="1" fill="#325eb7" />
<rect x="121" y="119" width="1" height="1" fill="#325eb7" />
<rect x="127" y="119" width="1" height="1" fill="#325eb7" />
<rect x="133" y="119" width="1" height="1" fill="#325eb7" />
<rect x="139" y="119" width="1" height="1" fill="#325eb7" />
<rect x="145" y="119" width="1" height="1" fill="#325eb7" />
<rect x="151" y="119" width="1" height="1" fill="#325eb7" />
<rect x="157" y="119" width="1" height="1" fill="#325eb7" />
<rect x="163" y="119" width="1" height="1" fill="#325eb7" />
<rect x="94" y="122" width="1" height="1" fill="#325eb7" />
<rect x="100" y="122" width="1" height="1" fill="#325eb7" />
<rect x="106" y="122" width="1" height="1" fill="#325eb7" />
<rect x="112" y="122" width="1" height="1" fill="#325eb7" />
<rect x="118" y="122" width="1" height="1" fill="#325eb7" />
<rect x="124" y="122" width="1" height="1" fill="#325eb7" />
<rect x="130" y="122" width="1" height="1" fill="#325eb7" />
<rect x="136" y="122" width="1" height="1" fill="#325eb7" />
<rect x="142" y="122" width="1" height="1" fill="#325eb7" />
<rect x="148" y="122" width="1" height="1" fill="#325eb7" />
<rect x="154" y="122" width="1" height="1" fill="#325eb7" />
<rect x="160" y="122" width="1" height="1" fill="#325eb7" />
<rect x="166" y="122" width="1" height="1" fill="#325eb7" />
<rect x="95" y="134" width="68" height="1" fill="#233f7d" />
<rect x="95" y="140" width="68" height="1" fill="#233f7d" />
<rect x="95" y="146" width="68" height="1" fill="#233f7d" />
<rect x="95" y="152" width="68" height="1" fill="#233f7d" />
<rect x="97" y="158" width="64" height="10" fill="#2a3a58" />
<rect x="101" y="166" width="56" height="8" fill="#233f7d" />
<circle cx="103" cy="172" r="1.1" fill="#4f7fd9" />
<circle cx="115" cy="172" r="1.1" fill="#4f7fd9" />
<circle cx="127" cy="172" r="1.1" fill="#4f7fd9" />
<circle cx="139" cy="172" r="1.1" fill="#4f7fd9" />
<circle cx="151" cy="172" r="1.1" fill="#4f7fd9" />
<rect x="97" y="68" width="64" height="38" fill="#0b1320" />
<rect x="98" y="69" width="62" height="36" fill="#e5edf8" />
<rect x="98" y="69" width="62" height="1" fill="#f5fbff" />
<rect x="98" y="69" width="1" height="36" fill="#f5fbff" />
<rect x="98" y="104" width="62" height="1" fill="#c4d0de" />
<rect x="159" y="69" width="1" height="36" fill="#c4d0de" />
<rect x="91" y="60" width="76" height="10" fill="#d74453" />
<rect x="97" y="58" width="64" height="2" fill="#0b1320" />
<rect x="95" y="76" width="68" height="3" fill="#0b1320" />
<circle cx="101" cy="70" r="1.2" fill="#4f7fd9" />
<circle cx="111" cy="70" r="1.2" fill="#4f7fd9" />
<circle cx="121" cy="70" r="1.2" fill="#4f7fd9" />
<circle cx="131" cy="70" r="1.2" fill="#4f7fd9" />
<circle cx="141" cy="70" r="1.2" fill="#4f7fd9" />
<circle cx="151" cy="70" r="1.2" fill="#4f7fd9" />
<rect x="73" y="102" width="16" height="64" fill="#0b1320" />
<rect x="74" y="103" width="14" height="62" fill="#2a3a58" />
<rect x="74" y="103" width="14" height="1" fill="#4f7fd9" />
<rect x="74" y="103" width="1" height="62" fill="#4f7fd9" />
<rect x="74" y="164" width="14" height="1" fill="#233f7d" />
<rect x="87" y="103" width="1" height="62" fill="#233f7d" />
<rect x="169" y="108" width="16" height="64" fill="#0b1320" />
<rect x="170" y="109" width="14" height="62" fill="#2a3a58" />
<rect x="170" y="109" width="14" height="1" fill="#4f7fd9" />
<rect x="170" y="109" width="1" height="62" fill="#4f7fd9" />
<rect x="170" y="170" width="14" height="1" fill="#233f7d" />
<rect x="183" y="109" width="1" height="62" fill="#233f7d" />
<rect x="75" y="110" width="12" height="6" fill="#4f7fd9" />
<rect x="171" y="116" width="12" height="6" fill="#4f7fd9" />
<rect x="75" y="126" width="12" height="6" fill="#233f7d" />
<rect x="171" y="132" width="12" height="6" fill="#233f7d" />
<rect x="71" y="102" width="20" height="8" fill="#0b1320" />
<rect x="167" y="108" width="20" height="8" fill="#0b1320" />
<rect x="85" y="170" width="34" height="66" fill="#0b1320" />
<rect x="86" y="171" width="32" height="64" fill="#1f2d49" />
<rect x="86" y="171" width="32" height="1" fill="#4f7fd9" />
<rect x="86" y="171" width="1" height="64" fill="#4f7fd9" />
<rect x="86" y="234" width="32" height="1" fill="#101a2a" />
<rect x="117" y="171" width="1" height="64" fill="#101a2a" />
<rect x="135" y="182" width="34" height="66" fill="#0b1320" />
<rect x="136" y="183" width="32" height="64" fill="#1f2d49" />
<rect x="136" y="183" width="32" height="1" fill="#4f7fd9" />
<rect x="136" y="183" width="1" height="64" fill="#4f7fd9" />
<rect x="136" y="246" width="32" height="1" fill="#101a2a" />
<rect x="167" y="183" width="1" height="64" fill="#101a2a" />
<rect x="89" y="174" width="1" height="1" fill="#233f7d" />
<rect x="95" y="174" width="1" height="1" fill="#233f7d" />
<rect x="101" y="174" width="1" height="1" fill="#233f7d" />
<rect x="107" y="174" width="1" height="1" fill="#233f7d" />
<rect x="113" y="174" width="1" height="1" fill="#233f7d" />
<rect x="92" y="177" width="1" height="1" fill="#233f7d" />
<rect x="98" y="177" width="1" height="1" fill="#233f7d" />
<rect x="104" y="177" width="1" height="1" fill="#233f7d" />
<rect x="110" y="177" width="1" height="1" fill="#233f7d" />
<rect x="89" y="180" width="1" height="1" fill="#233f7d" />
<rect x="95" y="180" width="1" height="1" fill="#233f7d" />
<rect x="101" y="180" width="1" height="1" fill="#233f7d" />
<rect x="107" y="180" width="1" height="1" fill="#233f7d" />
<rect x="113" y="180" width="1" height="1" fill="#233f7d" />
<rect x="92" y="183" width="1" height="1" fill="#233f7d" />
<rect x="98" y="183" width="1" height="1" fill="#233f7d" />
<rect x="104" y="183" width="1" height="1" fill="#233f7d" />
<rect x="110" y="183" width="1" height="1" fill="#233f7d" />
<rect x="89" y="186" width="1" height="1" fill="#233f7d" />
<rect x="95" y="186" width="1" height="1" fill="#233f7d" />
<rect x="101" y="186" width="1" height="1" fill="#233f7d" />
<rect x="107" y="186" width="1" height="1" fill="#233f7d" />
<rect x="113" y="186" width="1" height="1" fill="#233f7d" />
<rect x="92" y="189" width="1" height="1" fill="#233f7d" />
<rect x="98" y="189" width="1" height="1" fill="#233f7d" />
<rect x="104" y="189" width="1" height="1" fill="#233f7d" />
<rect x="110" y="189" width="1" height="1" fill="#233f7d" />
<rect x="89" y="192" width="1" height="1" fill="#233f7d" />
<rect x="95" y="192" width="1" height="1" fill="#233f7d" />
<rect x="101" y="192" width="1" height="1" fill="#233f7d" />
<rect x="107" y="192" width="1" height="1" fill="#233f7d" />
<rect x="113" y="192" width="1" height="1" fill="#233f7d" />
<rect x="92" y="195" width="1" height="1" fill="#233f7d" />
<rect x="98" y="195" width="1" height="1" fill="#233f7d" />
<rect x="104" y="195" width="1" height="1" fill="#233f7d" />
<rect x="110" y="195" width="1" height="1" fill="#233f7d" />
<rect x="89" y="198" width="1" height="1" fill="#233f7d" />
<rect x="95" y="198" width="1" height="1" fill="#233f7d" />
<rect x="101" y="198" width="1" height="1" fill="#233f7d" />
<rect x="107" y="198" width="1" height="1" fill="#233f7d" />
<rect x="113" y="198" width="1" height="1" fill="#233f7d" />
<rect x="92" y="201" width="1" height="1" fill="#233f7d" />
<rect x="98" y="201" width="1" height="1" fill="#233f7d" />
<rect x="104" y="201" width="1" height="1" fill="#233f7d" />
<rect x="110" y="201" width="1" height="1" fill="#233f7d" />
<rect x="89" y="204" width="1" height="1" fill="#233f7d" />
<rect x="95" y="204" width="1" height="1" fill="#233f7d" />
<rect x="101" y="204" width="1" height="1" fill="#233f7d" />
<rect x="107" y="204" width="1" height="1" fill="#233f7d" />
<rect x="113" y="204" width="1" height="1" fill="#233f7d" />
<rect x="92" y="207" width="1" height="1" fill="#233f7d" />
<rect x="98" y="207" width="1" height="1" fill="#233f7d" />
<rect x="104" y="207" width="1" height="1" fill="#233f7d" />
<rect x="110" y="207" width="1" height="1" fill="#233f7d" />
<rect x="89" y="210" width="1" height="1" fill="#233f7d" />
<rect x="95" y="210" width="1" height="1" fill="#233f7d" />
<rect x="101" y="210" width="1" height="1" fill="#233f7d" />
<rect x="107" y="210" width="1" height="1" fill="#233f7d" />
<rect x="113" y="210" width="1" height="1" fill="#233f7d" />
<rect x="92" y="213" width="1" height="1" fill="#233f7d" />
<rect x="98" y="213" width="1" height="1" fill="#233f7d" />
<rect x="104" y="213" width="1" height="1" fill="#233f7d" />
<rect x="110" y="213" width="1" height="1" fill="#233f7d" />
<rect x="89" y="216" width="1" height="1" fill="#233f7d" />
<rect x="95" y="216" width="1" height="1" fill="#233f7d" />
<rect x="101" y="216" width="1" height="1" fill="#233f7d" />
<rect x="107" y="216" width="1" height="1" fill="#233f7d" />
<rect x="113" y="216" width="1" height="1" fill="#233f7d" />
<rect x="142" y="186" width="1" height="1" fill="#233f7d" />
<rect x="148" y="186" width="1" height="1" fill="#233f7d" />
<rect x="154" y="186" width="1" height="1" fill="#233f7d" />
<rect x="160" y="186" width="1" height="1" fill="#233f7d" />
<rect x="139" y="189" width="1" height="1" fill="#233f7d" />
<rect x="145" y="189" width="1" height="1" fill="#233f7d" />
<rect x="151" y="189" width="1" height="1" fill="#233f7d" />
<rect x="157" y="189" width="1" height="1" fill="#233f7d" />
<rect x="163" y="189" width="1" height="1" fill="#233f7d" />
<rect x="142" y="192" width="1" height="1" fill="#233f7d" />
<rect x="148" y="192" width="1" height="1" fill="#233f7d" />
<rect x="154" y="192" width="1" height="1" fill="#233f7d" />
<rect x="160" y="192" width="1" height="1" fill="#233f7d" />
<rect x="139" y="195" width="1" height="1" fill="#233f7d" />
<rect x="145" y="195" width="1" height="1" fill="#233f7d" />
<rect x="151" y="195" width="1" height="1" fill="#233f7d" />
<rect x="157" y="195" width="1" height="1" fill="#233f7d" />
<rect x="163" y="195" width="1" height="1" fill="#233f7d" />
<rect x="142" y="198" width="1" height="1" fill="#233f7d" />
<rect x="148" y="198" width="1" height="1" fill="#233f7d" />
<rect x="154" y="198" width="1" height="1" fill="#233f7d" />
<rect x="160" y="198" width="1" height="1" fill="#233f7d" />
<rect x="139" y="201" width="1" height="1" fill="#233f7d" />
<rect x="145" y="201" width="1" height="1" fill="#233f7d" />
<rect x="151" y="201" width="1" height="1" fill="#233f7d" />
<rect x="157" y="201" width="1" height="1" fill="#233f7d" />
<rect x="163" y="201" width="1" height="1" fill="#233f7d" />
<rect x="142" y="204" width="1" height="1" fill="#233f7d" />
<rect x="148" y="204" width="1" height="1" fill="#233f7d" />
<rect x="154" y="204" width="1" height="1" fill="#233f7d" />
<rect x="160" y="204" width="1" height="1" fill="#233f7d" />
<rect x="139" y="207" width="1" height="1" fill="#233f7d" />
<rect x="145" y="207" width="1" height="1" fill="#233f7d" />
<rect x="151" y="207" width="1" height="1" fill="#233f7d" />
<rect x="157" y="207" width="1" height="1" fill="#233f7d" />
<rect x="163" y="207" width="1" height="1" fill="#233f7d" />
<rect x="142" y="210" width="1" height="1" fill="#233f7d" />
<rect x="148" y="210" width="1" height="1" fill="#233f7d" />
<rect x="154" y="210" width="1" height="1" fill="#233f7d" />
<rect x="160" y="210" width="1" height="1" fill="#233f7d" />
<rect x="139" y="213" width="1" height="1" fill="#233f7d" />
<rect x="145" y="213" width="1" height="1" fill="#233f7d" />
<rect x="151" y="213" width="1" height="1" fill="#233f7d" />
<rect x="157" y="213" width="1" height="1" fill="#233f7d" />
<rect x="163" y="213" width="1" height="1" fill="#233f7d" />
<rect x="142" y="216" width="1" height="1" fill="#233f7d" />
<rect x="148" y="216" width="1" height="1" fill="#233f7d" />
<rect x="154" y="216" width="1" height="1" fill="#233f7d" />
<rect x="160" y="216" width="1" height="1" fill="#233f7d" />
<rect x="139" y="219" width="1" height="1" fill="#233f7d" />
<rect x="145" y="219" width="1" height="1" fill="#233f7d" />
<rect x="151" y="219" width="1" height="1" fill="#233f7d" />
<rect x="157" y="219" width="1" height="1" fill="#233f7d" />
<rect x="163" y="219" width="1" height="1" fill="#233f7d" />
<rect x="142" y="222" width="1" height="1" fill="#233f7d" />
<rect x="148" y="222" width="1" height="1" fill="#233f7d" />
<rect x="154" y="222" width="1" height="1" fill="#233f7d" />
<rect x="160" y="222" width="1" height="1" fill="#233f7d" />
<rect x="139" y="225" width="1" height="1" fill="#233f7d" />
<rect x="145" y="225" width="1" height="1" fill="#233f7d" />
<rect x="151" y="225" width="1" height="1" fill="#233f7d" />
<rect x="157" y="225" width="1" height="1" fill="#233f7d" />
<rect x="163" y="225" width="1" height="1" fill="#233f7d" />
<rect x="142" y="228" width="1" height="1" fill="#233f7d" />
<rect x="148" y="228" width="1" height="1" fill="#233f7d" />
<rect x="154" y="228" width="1" height="1" fill="#233f7d" />
<rect x="160" y="228" width="1" height="1" fill="#233f7d" />
<rect x="91" y="182" width="22" height="1" fill="#101a2a" />
<rect x="91" y="191" width="22" height="1" fill="#101a2a" />
<rect x="91" y="200" width="22" height="1" fill="#101a2a" />
<rect x="91" y="209" width="22" height="1" fill="#101a2a" />
<rect x="141" y="194" width="22" height="1" fill="#101a2a" />
<rect x="141" y="203" width="22" height="1" fill="#101a2a" />
<rect x="141" y="212" width="22" height="1" fill="#101a2a" />
<rect x="141" y="221" width="22" height="1" fill="#101a2a" />
<rect x="89" y="194" width="26" height="8" fill="#233f7d" />
<rect x="139" y="206" width="26" height="8" fill="#233f7d" />
<rect x="77" y="238" width="52" height="14" fill="#0b1320" />
<rect x="78" y="239" width="50" height="12" fill="#101a2a" />
<rect x="78" y="239" width="50" height="1" fill="#233f7d" />
<rect x="78" y="239" width="1" height="12" fill="#233f7d" />
<rect x="78" y="250" width="50" height="1" fill="#0b1320" />
<rect x="127" y="239" width="1" height="12" fill="#0b1320" />
<rect x="131" y="238" width="52" height="14" fill="#0b1320" />
<rect x="132" y="239" width="50" height="12" fill="#101a2a" />
<rect x="132" y="239" width="50" height="1" fill="#233f7d" />
<rect x="132" y="239" width="1" height="12" fill="#233f7d" />
<rect x="132" y="250" width="50" height="1" fill="#0b1320" />
<rect x="181" y="239" width="1" height="12" fill="#0b1320" />
<circle cx="81" cy="244" r="1.1" fill="#2a3a58" />
<circle cx="87" cy="244" r="1.1" fill="#2a3a58" />
<circle cx="93" cy="244" r="1.1" fill="#2a3a58" />
<circle cx="99" cy="244" r="1.1" fill="#2a3a58" />
<circle cx="105" cy="244" r="1.1" fill="#2a3a58" />
<circle cx="111" cy="244" r="1.1" fill="#2a3a58" />
<circle cx="117" cy="244" r="1.1" fill="#2a3a58" />
<circle cx="123" cy="244" r="1.1" fill="#2a3a58" />
<circle cx="135" cy="244" r="1.1" fill="#2a3a58" />
<circle cx="141" cy="244" r="1.1" fill="#2a3a58" />
<circle cx="147" cy="244" r="1.1" fill="#2a3a58" />
<circle cx="153" cy="244" r="1.1" fill="#2a3a58" />
<circle cx="159" cy="244" r="1.1" fill="#2a3a58" />
<circle cx="165" cy="244" r="1.1" fill="#2a3a58" />
<circle cx="171" cy="244" r="1.1" fill="#2a3a58" />
<circle cx="177" cy="244" r="1.1" fill="#2a3a58" />
<rect x="153" y="169" width="60" height="12" fill="#0b1320" />
<rect x="154" y="170" width="58" height="10" fill="#d3deee" />
<rect x="154" y="170" width="58" height="1" fill="#f1f7ff" />
<rect x="154" y="170" width="1" height="10" fill="#f1f7ff" />
<rect x="154" y="179" width="58" height="1" fill="#7485a4" />
<rect x="211" y="170" width="1" height="10" fill="#7485a4" />
<rect x="155" y="171" width="56" height="4" fill="#7485a4" />
<rect x="201" y="171" width="26" height="8" fill="#7485a4" />
<rect x="153" y="179" width="54" height="2" fill="#0b1320" />
<circle cx="161" cy="173" r="1" fill="#4f7fd9" />
<circle cx="173" cy="173" r="1" fill="#4f7fd9" />
<circle cx="185" cy="173" r="1" fill="#4f7fd9" />
<circle cx="197" cy="173" r="1" fill="#4f7fd9" />
<rect x="107" y="84" width="14" height="6" fill="#142033" />
<rect x="137" y="84" width="14" height="6" fill="#142033" />
<rect x="121" y="88" width="14" height="4" fill="#87e4ff" />
<rect x="113" y="84" width="2" height="6" fill="#c4d0de" />
<rect x="143" y="84" width="2" height="6" fill="#c4d0de" />
</svg>
