<?xml version="1.0" encoding="UTF-8"?>
<svg xmlns="http://www.w3.org/2000/svg" width="256" height="256" viewBox="0 0 256 256" shape-rendering="crispEdges">
<polygon points="98,61 134,57 148,67 146,89 118,95 104,85" fill="#0b1320" />
<polygon points="100,63 132,59 144,67 142,87 118,93 106,83" fill="#cb9975" />
<polygon points="98,55 134,51 150,58 142,63 106,61" fill="#9b4f4f" />
<polygon points="94,63 106,61 104,81 92,77" fill="#4a2b1f" />
<rect x="110" y="91" width="10" height="8" fill="#996846" />
<rect x="120" y="91" width="6" height="4" fill="#cb9975" />
<rect x="114" y="70" width="8" height="2" fill="#0b1320" />
<rect x="118" y="73" width="6" height="4" fill="#142033" />
<rect x="116" y="83" width="12" height="4" fill="#6e5140" />
<rect x="134" y="75" width="8" height="2" fill="#996846" />
<polygon points="98,107 136,99 156,109 160,151 108,159" fill="#0b1320" />
<polygon points="102,109 134,103 152,111 156,149 110,155" fill="#dad3c2" />
<rect x="106" y="111" width="26" height="10" fill="#f3ecdb" />
<rect x="108" y="125" width="36" height="3" fill="#8f8878" />
<rect x="110" y="133" width="40" height="3" fill="#8f8878" />
<rect x="108" y="117" width="6" height="22" fill="#cb9975" />
<rect x="132" y="113" width="6" height="18" fill="#cb9975" />
<polygon points="112,107 120,105 132,133 124,135" fill="#88724a" />
<rect x="122" y="139" width="14" height="10" fill="#2a3a58" />
<polygon points="98,119 110,117 112,149 100,153" fill="#cb9975" />
<rect x="100" y="127" width="7" height="20" fill="#8f8878" />
<rect x="96" y="149" width="10" height="6" fill="#cb9975" />
<polygon points="130,117 144,119 124,124 116,124" fill="#cb9975" />
<polygon points="138,133 150,133 128,132 122,136" fill="#8f8878" />
<rect x="120" y="123" width="7" height="7" fill="#cb9975" />
<rect x="150" y="122" width="7" height="7" fill="#cb9975" />
<rect x="132" y="118" width="74" height="10" fill="#0b1320" />
<rect x="133" y="119" width="72" height="8" fill="#a8b2bf" />
<rect x="133" y="119" width="72" height="1" fill="#f3f8ff" />
<rect x="133" y="119" width="1" height="8" fill="#f3f8ff" />
<rect x="133" y="126" width="72" height="1" fill="#62707c" />
<rect x="204" y="119" width="1" height="8" fill="#62707c" />
<rect x="138" y="120" width="62" height="2" fill="#edf6ff" />
<rect x="122" y="120" width="14" height="6" fill="#62707c" />
<rect x="200" y="120" width="18" height="6" fill="#62707c" />
<rect x="152" y="128" width="10" height="16" fill="#62707c" />
<polygon points="148,128 156,142 166,142 160,128" fill="#62707c" />
<rect x="142" y="126" width="18" height="2" fill="#0b1320" />
<rect x="98" y="160" width="20" height="60" fill="#0b1320" />
<rect x="99" y="161" width="18" height="58" fill="#33441f" />
<rect x="99" y="161" width="18" height="1" fill="#8aa05b" />
<rect x="99" y="161" width="1" height="58" fill="#8aa05b" />
<rect x="99" y="218" width="18" height="1" fill="#101a2a" />
<rect x="116" y="161" width="1" height="58" fill="#101a2a" />
<rect x="122" y="155" width="22" height="62" fill="#0b1320" />
<rect x="123" y="156" width="20" height="60" fill="#61773f" />
<rect x="123" y="156" width="20" height="1" fill="#8aa05b" />
<rect x="123" y="156" width="1" height="60" fill="#8aa05b" />
<rect x="123" y="215" width="20" height="1" fill="#101a2a" />
<rect x="142" y="156" width="1" height="60" fill="#101a2a" />
<rect x="103" y="168" width="12" height="6" fill="#33441f" />
<rect x="119" y="176" width="10" height="5" fill="#8aa05b" />
<rect x="107" y="190" width="14" height="6" fill="#dad3c2" />
<rect x="117" y="202" width="12" height="6" fill="#33441f" />
<rect x="101" y="208" width="10" height="5" fill="#8aa05b" />
<rect x="127" y="167" width="12" height="6" fill="#8aa05b" />
<rect x="143" y="175" width="10" height="5" fill="#dad3c2" />
<rect x="131" y="189" width="14" height="6" fill="#33441f" />
<rect x="141" y="201" width="12" height="6" fill="#8aa05b" />
<rect x="125" y="207" width="10" height="5" fill="#dad3c2" />
<rect x="104" y="190" width="10" height="8" fill="#8f8878" />
<rect x="130" y="181" width="10" height="8" fill="#8f8878" />
<rect x="94" y="237" width="34" height="12" fill="#0b1320" />
<rect x="95" y="238" width="32" height="10" fill="#101a2a" />
<rect x="95" y="238" width="32" height="1" fill="#33441f" />
<rect x="95" y="238" width="1" height="10" fill="#33441f" />
<rect x="95" y="247" width="32" height="1" fill="#0b1320" />
<rect x="126" y="238" width="1" height="10" fill="#0b1320" />
<rect x="118" y="236" width="40" height="12" fill="#0b1320" />
<rect x="119" y="237" width="38" height="10" fill="#101a2a" />
<rect x="119" y="237" width="38" height="1" fill="#33441f" />
<rect x="119" y="237" width="1" height="10" fill="#33441f" />
<rect x="119" y="246" width="38" height="1" fill="#0b1320" />
<rect x="156" y="237" width="1" height="10" fill="#0b1320" />
</svg>
