<?xml version="1.0" encoding="UTF-8"?>
<svg xmlns="http://www.w3.org/2000/svg" width="256" height="256" viewBox="0 0 256 256" shape-rendering="crispEdges">
<polygon points="97,61 133,57 147,67 145,89 117,95 103,85" fill="#0b1320" />
<polygon points="99,63 131,59 143,67 141,87 117,93 105,83" fill="#cb9975" />
<polygon points="97,55 133,51 149,58 141,63 105,61" fill="#9b4f4f" />
<polygon points="93,63 105,61 103,81 91,77" fill="#4a2b1f" />
<rect x="109" y="91" width="10" height="8" fill="#996846" />
<rect x="119" y="91" width="6" height="4" fill="#cb9975" />
<rect x="113" y="70" width="8" height="2" fill="#0b1320" />
<rect x="117" y="73" width="6" height="4" fill="#142033" />
<rect x="115" y="83" width="12" height="4" fill="#6e5140" />
<rect x="133" y="75" width="8" height="2" fill="#996846" />
<polygon points="97,107 135,99 155,109 159,151 107,159" fill="#0b1320" />
<polygon points="101,109 133,103 151,111 155,149 109,155" fill="#dad3c2" />
<rect x="105" y="111" width="26" height="10" fill="#f3ecdb" />
<rect x="107" y="125" width="36" height="3" fill="#8f8878" />
<rect x="109" y="133" width="40" height="3" fill="#8f8878" />
<rect x="107" y="117" width="6" height="22" fill="#cb9975" />
<rect x="131" y="113" width="6" height="18" fill="#cb9975" />
<polygon points="111,107 119,105 131,133 123,135" fill="#88724a" />
<rect x="121" y="139" width="14" height="10" fill="#2a3a58" />
<polygon points="97,118 109,116 111,148 99,152" fill="#cb9975" />
<rect x="99" y="126" width="7" height="20" fill="#8f8878" />
<rect x="95" y="148" width="10" height="6" fill="#cb9975" />
<polygon points="129,118 143,120 123,122 115,122" fill="#cb9975" />
<polygon points="137,134 149,134 127,130 121,134" fill="#8f8878" />
<rect x="119" y="121" width="7" height="7" fill="#cb9975" />
<rect x="149" y="120" width="7" height="7" fill="#cb9975" />
<rect x="131" y="116" width="74" height="10" fill="#0b1320" />
<rect x="132" y="117" width="72" height="8" fill="#a8b2bf" />
<rect x="132" y="117" width="72" height="1" fill="#f3f8ff" />
<rect x="132" y="117" width="1" height="8" fill="#f3f8ff" />
<rect x="132" y="124" width="72" height="1" fill="#62707c" />
<rect x="203" y="117" width="1" height="8" fill="#62707c" />
<rect x="137" y="118" width="62" height="2" fill="#edf6ff" />
<rect x="121" y="118" width="14" height="6" fill="#62707c" />
<rect x="199" y="118" width="18" height="6" fill="#62707c" />
<rect x="151" y="126" width="10" height="16" fill="#62707c" />
<polygon points="147,126 155,140 165,140 159,126" fill="#62707c" />
<rect x="141" y="124" width="18" height="2" fill="#0b1320" />
<rect x="95" y="159" width="20" height="60" fill="#0b1320" />
<rect x="96" y="160" width="18" height="58" fill="#33441f" />
<rect x="96" y="160" width="18" height="1" fill="#8aa05b" />
<rect x="96" y="160" width="1" height="58" fill="#8aa05b" />
<rect x="96" y="217" width="18" height="1" fill="#101a2a" />
<rect x="113" y="160" width="1" height="58" fill="#101a2a" />
<rect x="123" y="155" width="22" height="62" fill="#0b1320" />
<rect x="124" y="156" width="20" height="60" fill="#61773f" />
<rect x="124" y="156" width="20" height="1" fill="#8aa05b" />
<rect x="124" y="156" width="1" height="60" fill="#8aa05b" />
<rect x="124" y="215" width="20" height="1" fill="#101a2a" />
<rect x="143" y="156" width="1" height="60" fill="#101a2a" />
<rect x="100" y="167" width="12" height="6" fill="#33441f" />
<rect x="116" y="175" width="10" height="5" fill="#8aa05b" />
<rect x="104" y="189" width="14" height="6" fill="#dad3c2" />
<rect x="114" y="201" width="12" height="6" fill="#33441f" />
<rect x="98" y="207" width="10" height="5" fill="#8aa05b" />
<rect x="128" y="167" width="12" height="6" fill="#8aa05b" />
<rect x="144" y="175" width="10" height="5" fill="#dad3c2" />
<rect x="132" y="189" width="14" height="6" fill="#33441f" />
<rect x="142" y="201" width="12" height="6" fill="#8aa05b" />
<rect x="126" y="207" width="10" height="5" fill="#dad3c2" />
<rect x="101" y="189" width="10" height="8" fill="#8f8878" />
<rect x="131" y="181" width="10" height="8" fill="#8f8878" />
<rect x="91" y="236" width="34" height="12" fill="#0b1320" />
<rect x="92" y="237" width="32" height="10" fill="#101a2a" />
<rect x="92" y="237" width="32" height="1" fill="#33441f" />
<rect x="92" y="237" width="1" height="10" fill="#33441f" />
<rect x="92" y="246" width="32" height="1" fill="#0b1320" />
<rect x="123" y="237" width="1" height="10" fill="#0b1320" />
<rect x="119" y="236" width="40" height="12" fill="#0b1320" />
<rect x="120" y="237" width="38" height="10" fill="#101a2a" />
<rect x="120" y="237" width="38" height="1" fill="#33441f" />
<rect x="120" y="237" width="1" height="10" fill="#33441f" />
<rect x="120" y="246" width="38" height="1" fill="#0b1320" />
<rect x="157" y="237" width="1" height="10" fill="#0b1320" />
</svg>
