<?xml version="1.0" encoding="UTF-8"?>
<svg xmlns="http://www.w3.org/2000/svg" width="256" height="256" viewBox="0 0 256 256" shape-rendering="crispEdges">
<polygon points="102,54 138,50 152,60 150,82 122,88 108,78" fill="#0b1320" />
<polygon points="104,56 136,52 148,60 146,80 122,86 110,76" fill="#cb9975" />
<polygon points="102,48 138,44 154,51 146,56 110,54" fill="#9b4f4f" />
<polygon points="98,56 110,54 108,74 96,70" fill="#4a2b1f" />
<rect x="114" y="84" width="10" height="8" fill="#996846" />
<rect x="124" y="84" width="6" height="4" fill="#cb9975" />
<rect x="118" y="63" width="8" height="2" fill="#0b1320" />
<rect x="122" y="66" width="6" height="4" fill="#142033" />
<rect x="120" y="76" width="12" height="4" fill="#6e5140" />
<rect x="138" y="68" width="8" height="2" fill="#996846" />
<polygon points="102,100 140,92 160,102 164,144 112,152" fill="#0b1320" />
<polygon points="106,102 138,96 156,104 160,142 114,148" fill="#dad3c2" />
<rect x="110" y="104" width="26" height="10" fill="#f3ecdb" />
<rect x="112" y="118" width="36" height="3" fill="#8f8878" />
<rect x="114" y="126" width="40" height="3" fill="#8f8878" />
<rect x="112" y="110" width="6" height="22" fill="#cb9975" />
<rect x="136" y="106" width="6" height="18" fill="#cb9975" />
<polygon points="116,100 124,98 136,126 128,128" fill="#88724a" />
<rect x="126" y="132" width="14" height="10" fill="#2a3a58" />
<polygon points="102,106 114,104 116,136 104,140" fill="#cb9975" />
<rect x="104" y="114" width="7" height="20" fill="#8f8878" />
<rect x="100" y="136" width="10" height="6" fill="#cb9975" />
<polygon points="134,102 148,104 128,106 120,106" fill="#cb9975" />
<polygon points="142,118 154,118 132,114 126,118" fill="#8f8878" />
<rect x="124" y="105" width="7" height="7" fill="#cb9975" />
<rect x="154" y="104" width="7" height="7" fill="#cb9975" />
<rect x="136" y="100" width="74" height="10" fill="#0b1320" />
<rect x="137" y="101" width="72" height="8" fill="#a8b2bf" />
<rect x="137" y="101" width="72" height="1" fill="#f3f8ff" />
<rect x="137" y="101" width="1" height="8" fill="#f3f8ff" />
<rect x="137" y="108" width="72" height="1" fill="#62707c" />
<rect x="208" y="101" width="1" height="8" fill="#62707c" />
<rect x="142" y="102" width="62" height="2" fill="#edf6ff" />
<rect x="126" y="102" width="14" height="6" fill="#62707c" />
<rect x="204" y="102" width="18" height="6" fill="#62707c" />
<rect x="156" y="110" width="10" height="16" fill="#62707c" />
<polygon points="152,110 160,124 170,124 164,110" fill="#62707c" />
<rect x="146" y="108" width="18" height="2" fill="#0b1320" />
<rect x="106" y="162" width="20" height="60" fill="#0b1320" />
<rect x="107" y="163" width="18" height="58" fill="#33441f" />
<rect x="107" y="163" width="18" height="1" fill="#8aa05b" />
<rect x="107" y="163" width="1" height="58" fill="#8aa05b" />
<rect x="107" y="220" width="18" height="1" fill="#101a2a" />
<rect x="124" y="163" width="1" height="58" fill="#101a2a" />
<rect x="119" y="162" width="22" height="62" fill="#0b1320" />
<rect x="120" y="163" width="20" height="60" fill="#61773f" />
<rect x="120" y="163" width="20" height="1" fill="#8aa05b" />
<rect x="120" y="163" width="1" height="60" fill="#8aa05b" />
<rect x="120" y="222" width="20" height="1" fill="#101a2a" />
<rect x="139" y="163" width="1" height="60" fill="#101a2a" />
<rect x="111" y="170" width="12" height="6" fill="#33441f" />
<rect x="127" y="178" width="10" height="5" fill="#8aa05b" />
<rect x="115" y="192" width="14" height="6" fill="#dad3c2" />
<rect x="125" y="204" width="12" height="6" fill="#33441f" />
<rect x="109" y="210" width="10" height="5" fill="#8aa05b" />
<rect x="124" y="174" width="12" height="6" fill="#8aa05b" />
<rect x="140" y="182" width="10" height="5" fill="#dad3c2" />
<rect x="128" y="196" width="14" height="6" fill="#33441f" />
<rect x="138" y="208" width="12" height="6" fill="#8aa05b" />
<rect x="122" y="214" width="10" height="5" fill="#dad3c2" />
<rect x="112" y="192" width="10" height="8" fill="#8f8878" />
<rect x="127" y="188" width="10" height="8" fill="#8f8878" />
<rect x="102" y="246" width="34" height="12" fill="#0b1320" />
<rect x="103" y="247" width="32" height="10" fill="#101a2a" />
<rect x="103" y="247" width="32" height="1" fill="#33441f" />
<rect x="103" y="247" width="1" height="10" fill="#33441f" />
<rect x="103" y="256" width="32" height="1" fill="#0b1320" />
<rect x="134" y="247" width="1" height="10" fill="#0b1320" />
<rect x="115" y="250" width="40" height="12" fill="#0b1320" />
<rect x="116" y="251" width="38" height="10" fill="#101a2a" />
<rect x="116" y="251" width="38" height="1" fill="#33441f" />
<rect x="116" y="251" width="1" height="10" fill="#33441f" />
<rect x="116" y="260" width="38" height="1" fill="#0b1320" />
<rect x="153" y="251" width="1" height="10" fill="#0b1320" />
<polygon points="100,172 118,156 128,170 120,208 100,204" fill="#33441f" />
<polygon points="126,166 150,150 164,166 156,204 132,200" fill="#61773f" />
<rect x="96" y="198" width="34" height="12" fill="#0b1320" />
<rect x="97" y="199" width="32" height="10" fill="#101a2a" />
<rect x="97" y="199" width="32" height="1" fill="#33441f" />
<rect x="97" y="199" width="1" height="10" fill="#33441f" />
<rect x="97" y="208" width="32" height="1" fill="#0b1320" />
<rect x="128" y="199" width="1" height="10" fill="#0b1320" />
<rect x="136" y="194" width="38" height="12" fill="#0b1320" />
<rect x="137" y="195" width="36" height="10" fill="#101a2a" />
<rect x="137" y="195" width="36" height="1" fill="#33441f" />
<rect x="137" y="195" width="1" height="10" fill="#33441f" />
<rect x="137" y="204" width="36" height="1" fill="#0b1320" />
<rect x="172" y="195" width="1" height="10" fill="#0b1320" />
</svg>
