<?xml version="1.0" encoding="UTF-8"?>
<svg xmlns="http://www.w3.org/2000/svg" width="256" height="256" viewBox="0 0 256 256" shape-rendering="crispEdges">
<rect x="84" y="90" width="96" height="100" fill="#0b1320" />
<rect x="85" y="91" width="94" height="98" fill="#325eb7" />
<rect x="85" y="91" width="94" height="1" fill="#4f7fd9" />
<rect x="85" y="91" width="1" height="98" fill="#4f7fd9" />
<rect x="85" y="188" width="94" height="1" fill="#233f7d" />
<rect x="178" y="91" width="1" height="98" fill="#233f7d" />
<rect x="92" y="100" width="80" height="24" fill="#4f7fd9" />
<rect x="97" y="102" width="1" height="1" fill="#325eb7" />
<rect x="103" y="102" width="1" height="1" fill="#325eb7" />
<rect x="109" y="102" width="1" height="1" fill="#325eb7" />
<rect x="115" y="102" width="1" height="1" fill="#325eb7" />
<rect x="121" y="102" width="1" height="1" fill="#325eb7" />
<rect x="127" y="102" width="1" height="1" fill="#325eb7" />
<rect x="133" y="102" width="1" height="1" fill="#325eb7" />
<rect x="139" y="102" width="1" height="1" fill="#325eb7" />
<rect x="145" y="102" width="1" height="1" fill="#325eb7" />
<rect x="151" y="102" width="1" height="1" fill="#325eb7" />
<rect x="157" y="102" width="1" height="1" fill="#325eb7" />
<rect x="163" y="102" width="1" height="1" fill="#325eb7" />
<rect x="169" y="102" width="1" height="1" fill="#325eb7" />
<rect x="94" y="105" width="1" height="1" fill="#325eb7" />
<rect x="100" y="105" width="1" height="1" fill="#325eb7" />
<rect x="106" y="105" width="1" height="1" fill="#325eb7" />
<rect x="112" y="105" width="1" height="1" fill="#325eb7" />
<rect x="118" y="105" width="1" height="1" fill="#325eb7" />
<rect x="124" y="105" width="1" height="1" fill="#325eb7" />
<rect x="130" y="105" width="1" height="1" fill="#325eb7" />
<rect x="136" y="105" width="1" height="1" fill="#325eb7" />
<rect x="142" y="105" width="1" height="1" fill="#325eb7" />
<rect x="148" y="105" width="1" height="1" fill="#325eb7" />
<rect x="154" y="105" width="1" height="1" fill="#325eb7" />
<rect x="160" y="105" width="1" height="1" fill="#325eb7" />
<rect x="166" y="105" width="1" height="1" fill="#325eb7" />
<rect x="97" y="108" width="1" height="1" fill="#325eb7" />
<rect x="103" y="108" width="1" height="1" fill="#325eb7" />
<rect x="109" y="108" width="1" height="1" fill="#325eb7" />
<rect x="115" y="108" width="1" height="1" fill="#325eb7" />
<rect x="121" y="108" width="1" height="1" fill="#325eb7" />
<rect x="127" y="108" width="1" height="1" fill="#325eb7" />
<rect x="133" y="108" width="1" height="1" fill="#325eb7" />
<rect x="139" y="108" width="1" height="1" fill="#325eb7" />
<rect x="145" y="108" width="1" height="1" fill="#325eb7" />
<rect x="151" y="108" width="1" height="1" fill="#325eb7" />
<rect x="157" y="108" width="1" height="1" fill="#325eb7" />
<rect x="163" y="108" width="1" height="1" fill="#325eb7" />
<rect x="169" y="108" width="1" height="1" fill="#325eb7" />
<rect x="94" y="111" width="1" height="1" fill="#325eb7" />
<rect x="100" y="111" width="1" height="1" fill="#325eb7" />
<rect x="106" y="111" width="1" height="1" fill="#325eb7" />
<rect x="112" y="111" width="1" height="1" fill="#325eb7" />
<rect x="118" y="111" width="1" height="1" fill="#325eb7" />
<rect x="124" y="111" width="1" height="1" fill="#325eb7" />
<rect x="130" y="111" width="1" height="1" fill="#325eb7" />
<rect x="136" y="111" width="1" height="1" fill="#325eb7" />
<rect x="142" y="111" width="1" height="1" fill="#325eb7" />
<rect x="148" y="111" width="1" height="1" fill="#325eb7" />
<rect x="154" y="111" width="1" height="1" fill="#325eb7" />
<rect x="160" y="111" width="1" height="1" fill="#325eb7" />
<rect x="166" y="111" width="1" height="1" fill="#325eb7" />
<rect x="97" y="114" width="1" height="1" fill="#325eb7" />
<rect x="103" y="114" width="1" height="1" fill="#325eb7" />
<rect x="109" y="114" width="1" height="1" fill="#325eb7" />
<rect x="115" y="114" width="1" height="1" fill="#325eb7" />
<rect x="121" y="114" width="1" height="1" fill="#325eb7" />
<rect x="127" y="114" width="1" height="1" fill="#325eb7" />
<rect x="133" y="114" width="1" height="1" fill="#325eb7" />
<rect x="139" y="114" width="1" height="1" fill="#325eb7" />
<rect x="145" y="114" width="1" height="1" fill="#325eb7" />
<rect x="151" y="114" width="1" height="1" fill="#325eb7" />
<rect x="157" y="114" width="1" height="1" fill="#325eb7" />
<rect x="163" y="114" width="1" height="1" fill="#325eb7" />
<rect x="169" y="114" width="1" height="1" fill="#325eb7" />
<rect x="94" y="117" width="1" height="1" fill="#325eb7" />
<rect x="100" y="117" width="1" height="1" fill="#325eb7" />
<rect x="106" y="117" width="1" height="1" fill="#325eb7" />
<rect x="112" y="117" width="1" height="1" fill="#325eb7" />
<rect x="118" y="117" width="1" height="1" fill="#325eb7" />
<rect x="124" y="117" width="1" height="1" fill="#325eb7" />
<rect x="130" y="117" width="1" height="1" fill="#325eb7" />
<rect x="136" y="117" width="1" height="1" fill="#325eb7" />
<rect x="142" y="117" width="1" height="1" fill="#325eb7" />
<rect x="148" y="117" width="1" height="1" fill="#325eb7" />
<rect x="154" y="117" width="1" height="1" fill="#325eb7" />
<rect x="160" y="117" width="1" height="1" fill="#325eb7" />
<rect x="166" y="117" width="1" height="1" fill="#325eb7" />
<rect x="97" y="120" width="1" height="1" fill="#325eb7" />
<rect x="103" y="120" width="1" height="1" fill="#325eb7" />
<rect x="109" y="120" width="1" height="1" fill="#325eb7" />
<rect x="115" y="120" width="1" height="1" fill="#325eb7" />
<rect x="121" y="120" width="1" height="1" fill="#325eb7" />
<rect x="127" y="120" width="1" height="1" fill="#325eb7" />
<rect x="133" y="120" width="1" height="1" fill="#325eb7" />
<rect x="139" y="120" width="1" height="1" fill="#325eb7" />
<rect x="145" y="120" width="1" height="1" fill="#325eb7" />
<rect x="151" y="120" width="1" height="1" fill="#325eb7" />
<rect x="157" y="120" width="1" height="1" fill="#325eb7" />
<rect x="163" y="120" width="1" height="1" fill="#325eb7" />
<rect x="169" y="120" width="1" height="1" fill="#325eb7" />
<rect x="98" y="132" width="68" height="1" fill="#233f7d" />
<rect x="98" y="138" width="68" height="1" fill="#233f7d" />
<rect x="98" y="144" width="68" height="1" fill="#233f7d" />
<rect x="98" y="150" width="68" height="1" fill="#233f7d" />
<rect x="100" y="156" width="64" height="10" fill="#2a3a58" />
<rect x="104" y="164" width="56" height="8" fill="#233f7d" />
<circle cx="106" cy="170" r="1.1" fill="#4f7fd9" />
<circle cx="118" cy="170" r="1.1" fill="#4f7fd9" />
<circle cx="130" cy="170" r="1.1" fill="#4f7fd9" />
<circle cx="142" cy="170" r="1.1" fill="#4f7fd9" />
<circle cx="154" cy="170" r="1.1" fill="#4f7fd9" />
<rect x="100" y="66" width="64" height="38" fill="#0b1320" />
<rect x="101" y="67" width="62" height="36" fill="#e5edf8" />
<rect x="101" y="67" width="62" height="1" fill="#f5fbff" />
<rect x="101" y="67" width="1" height="36" fill="#f5fbff" />
<rect x="101" y="102" width="62" height="1" fill="#c4d0de" />
<rect x="162" y="67" width="1" height="36" fill="#c4d0de" />
<rect x="94" y="58" width="76" height="10" fill="#d74453" />
<rect x="100" y="56" width="64" height="2" fill="#0b1320" />
<rect x="98" y="74" width="68" height="3" fill="#0b1320" />
<circle cx="104" cy="68" r="1.2" fill="#4f7fd9" />
<circle cx="114" cy="68" r="1.2" fill="#4f7fd9" />
<circle cx="124" cy="68" r="1.2" fill="#4f7fd9" />
<circle cx="134" cy="68" r="1.2" fill="#4f7fd9" />
<circle cx="144" cy="68" r="1.2" fill="#4f7fd9" />
<circle cx="154" cy="68" r="1.2" fill="#4f7fd9" />
<rect x="76" y="102" width="16" height="64" fill="#0b1320" />
<rect x="77" y="103" width="14" height="62" fill="#2a3a58" />
<rect x="77" y="103" width="14" height="1" fill="#4f7fd9" />
<rect x="77" y="103" width="1" height="62" fill="#4f7fd9" />
<rect x="77" y="164" width="14" height="1" fill="#233f7d" />
<rect x="90" y="103" width="1" height="62" fill="#233f7d" />
<rect x="172" y="104" width="16" height="64" fill="#0b1320" />
<rect x="173" y="105" width="14" height="62" fill="#2a3a58" />
<rect x="173" y="105" width="14" height="1" fill="#4f7fd9" />
<rect x="173" y="105" width="1" height="62" fill="#4f7fd9" />
<rect x="173" y="166" width="14" height="1" fill="#233f7d" />
<rect x="186" y="105" width="1" height="62" fill="#233f7d" />
<rect x="78" y="110" width="12" height="6" fill="#4f7fd9" />
<rect x="174" y="112" width="12" height="6" fill="#4f7fd9" />
<rect x="78" y="126" width="12" height="6" fill="#233f7d" />
<rect x="174" y="128" width="12" height="6" fill="#233f7d" />
<rect x="74" y="102" width="20" height="8" fill="#0b1320" />
<rect x="170" y="104" width="20" height="8" fill="#0b1320" />
<rect x="88" y="176" width="34" height="66" fill="#0b1320" />
<rect x="89" y="177" width="32" height="64" fill="#1f2d49" />
<rect x="89" y="177" width="32" height="1" fill="#4f7fd9" />
<rect x="89" y="177" width="1" height="64" fill="#4f7fd9" />
<rect x="89" y="240" width="32" height="1" fill="#101a2a" />
<rect x="120" y="177" width="1" height="64" fill="#101a2a" />
<rect x="138" y="174" width="34" height="66" fill="#0b1320" />
<rect x="139" y="175" width="32" height="64" fill="#1f2d49" />
<rect x="139" y="175" width="32" height="1" fill="#4f7fd9" />
<rect x="139" y="175" width="1" height="64" fill="#4f7fd9" />
<rect x="139" y="238" width="32" height="1" fill="#101a2a" />
<rect x="170" y="175" width="1" height="64" fill="#101a2a" />
<rect x="92" y="180" width="1" height="1" fill="#233f7d" />
<rect x="98" y="180" width="1" height="1" fill="#233f7d" />
<rect x="104" y="180" width="1" height="1" fill="#233f7d" />
<rect x="110" y="180" width="1" height="1" fill="#233f7d" />
<rect x="116" y="180" width="1" height="1" fill="#233f7d" />
<rect x="95" y="183" width="1" height="1" fill="#233f7d" />
<rect x="101" y="183" width="1" height="1" fill="#233f7d" />
<rect x="107" y="183" width="1" height="1" fill="#233f7d" />
<rect x="113" y="183" width="1" height="1" fill="#233f7d" />
<rect x="92" y="186" width="1" height="1" fill="#233f7d" />
<rect x="98" y="186" width="1" height="1" fill="#233f7d" />
<rect x="104" y="186" width="1" height="1" fill="#233f7d" />
<rect x="110" y="186" width="1" height="1" fill="#233f7d" />
<rect x="116" y="186" width="1" height="1" fill="#233f7d" />
<rect x="95" y="189" width="1" height="1" fill="#233f7d" />
<rect x="101" y="189" width="1" height="1" fill="#233f7d" />
<rect x="107" y="189" width="1" height="1" fill="#233f7d" />
<rect x="113" y="189" width="1" height="1" fill="#233f7d" />
<rect x="92" y="192" width="1" height="1" fill="#233f7d" />
<rect x="98" y="192" width="1" height="1" fill="#233f7d" />
<rect x="104" y="192" width="1" height="1" fill="#233f7d" />
<rect x="110" y="192" width="1" height="1" fill="#233f7d" />
<rect x="116" y="192" width="1" height="1" fill="#233f7d" />
<rect x="95" y="195" width="1" height="1" fill="#233f7d" />
<rect x="101" y="195" width="1" height="1" fill="#233f7d" />
<rect x="107" y="195" width="1" height="1" fill="#233f7d" />
<rect x="113" y="195" width="1" height="1" fill="#233f7d" />
<rect x="92" y="198" width="1" height="1" fill="#233f7d" />
<rect x="98" y="198" width="1" height="1" fill="#233f7d" />
<rect x="104" y="198" width="1" height="1" fill="#233f7d" />
<rect x="110" y="198" width="1" height="1" fill="#233f7d" />
<rect x="116" y="198" width="1" height="1" fill="#233f7d" />
<rect x="95" y="201" width="1" height="1" fill="#233f7d" />
<rect x="101" y="201" width="1" height="1" fill="#233f7d" />
<rect x="107" y="201" width="1" height="1" fill="#233f7d" />
<rect x="113" y="201" width="1" height="1" fill="#233f7d" />
<rect x="92" y="204" width="1" height="1" fill="#233f7d" />
<rect x="98" y="204" width="1" height="1" fill="#233f7d" />
<rect x="104" y="204" width="1" height="1" fill="#233f7d" />
<rect x="110" y="204" width="1" height="1" fill="#233f7d" />
<rect x="116" y="204" width="1" height="1" fill="#233f7d" />
<rect x="95" y="207" width="1" height="1" fill="#233f7d" />
<rect x="101" y="207" width="1" height="1" fill="#233f7d" />
<rect x="107" y="207" width="1" height="1" fill="#233f7d" />
<rect x="113" y="207" width="1" height="1" fill="#233f7d" />
<rect x="92" y="210" width="1" height="1" fill="#233f7d" />
<rect x="98" y="210" width="1" height="1" fill="#233f7d" />
<rect x="104" y="210" width="1" height="1" fill="#233f7d" />
<rect x="110" y="210" width="1" height="1" fill="#233f7d" />
<rect x="116" y="210" width="1" height="1" fill="#233f7d" />
<rect x="95" y="213" width="1" height="1" fill="#233f7d" />
<rect x="101" y="213" width="1" height="1" fill="#233f7d" />
<rect x="107" y="213" width="1" height="1" fill="#233f7d" />
<rect x="113" y="213" width="1" height="1" fill="#233f7d" />
<rect x="92" y="216" width="1" height="1" fill="#233f7d" />
<rect x="98" y="216" width="1" height="1" fill="#233f7d" />
<rect x="104" y="216" width="1" height="1" fill="#233f7d" />
<rect x="110" y="216" width="1" height="1" fill="#233f7d" />
<rect x="116" y="216" width="1" height="1" fill="#233f7d" />
<rect x="95" y="219" width="1" height="1" fill="#233f7d" />
<rect x="101" y="219" width="1" height="1" fill="#233f7d" />
<rect x="107" y="219" width="1" height="1" fill="#233f7d" />
<rect x="113" y="219" width="1" height="1" fill="#233f7d" />
<rect x="92" y="222" width="1" height="1" fill="#233f7d" />
<rect x="98" y="222" width="1" height="1" fill="#233f7d" />
<rect x="104" y="222" width="1" height="1" fill="#233f7d" />
<rect x="110" y="222" width="1" height="1" fill="#233f7d" />
<rect x="116" y="222" width="1" height="1" fill="#233f7d" />
<rect x="145" y="178" width="1" height="1" fill="#233f7d" />
<rect x="151" y="178" width="1" height="1" fill="#233f7d" />
<rect x="157" y="178" width="1" height="1" fill="#233f7d" />
<rect x="163" y="178" width="1" height="1" fill="#233f7d" />
<rect x="142" y="181" width="1" height="1" fill="#233f7d" />
<rect x="148" y="181" width="1" height="1" fill="#233f7d" />
<rect x="154" y="181" width="1" height="1" fill="#233f7d" />
<rect x="160" y="181" width="1" height="1" fill="#233f7d" />
<rect x="166" y="181" width="1" height="1" fill="#233f7d" />
<rect x="145" y="184" width="1" height="1" fill="#233f7d" />
<rect x="151" y="184" width="1" height="1" fill="#233f7d" />
<rect x="157" y="184" width="1" height="1" fill="#233f7d" />
<rect x="163" y="184" width="1" height="1" fill="#233f7d" />
<rect x="142" y="187" width="1" height="1" fill="#233f7d" />
<rect x="148" y="187" width="1" height="1" fill="#233f7d" />
<rect x="154" y="187" width="1" height="1" fill="#233f7d" />
<rect x="160" y="187" width="1" height="1" fill="#233f7d" />
<rect x="166" y="187" width="1" height="1" fill="#233f7d" />
<rect x="145" y="190" width="1" height="1" fill="#233f7d" />
<rect x="151" y="190" width="1" height="1" fill="#233f7d" />
<rect x="157" y="190" width="1" height="1" fill="#233f7d" />
<rect x="163" y="190" width="1" height="1" fill="#233f7d" />
<rect x="142" y="193" width="1" height="1" fill="#233f7d" />
<rect x="148" y="193" width="1" height="1" fill="#233f7d" />
<rect x="154" y="193" width="1" height="1" fill="#233f7d" />
<rect x="160" y="193" width="1" height="1" fill="#233f7d" />
<rect x="166" y="193" width="1" height="1" fill="#233f7d" />
<rect x="145" y="196" width="1" height="1" fill="#233f7d" />
<rect x="151" y="196" width="1" height="1" fill="#233f7d" />
<rect x="157" y="196" width="1" height="1" fill="#233f7d" />
<rect x="163" y="196" width="1" height="1" fill="#233f7d" />
<rect x="142" y="199" width="1" height="1" fill="#233f7d" />
<rect x="148" y="199" width="1" height="1" fill="#233f7d" />
<rect x="154" y="199" width="1" height="1" fill="#233f7d" />
<rect x="160" y="199" width="1" height="1" fill="#233f7d" />
<rect x="166" y="199" width="1" height="1" fill="#233f7d" />
<rect x="145" y="202" width="1" height="1" fill="#233f7d" />
<rect x="151" y="202" width="1" height="1" fill="#233f7d" />
<rect x="157" y="202" width="1" height="1" fill="#233f7d" />
<rect x="163" y="202" width="1" height="1" fill="#233f7d" />
<rect x="142" y="205" width="1" height="1" fill="#233f7d" />
<rect x="148" y="205" width="1" height="1" fill="#233f7d" />
<rect x="154" y="205" width="1" height="1" fill="#233f7d" />
<rect x="160" y="205" width="1" height="1" fill="#233f7d" />
<rect x="166" y="205" width="1" height="1" fill="#233f7d" />
<rect x="145" y="208" width="1" height="1" fill="#233f7d" />
<rect x="151" y="208" width="1" height="1" fill="#233f7d" />
<rect x="157" y="208" width="1" height="1" fill="#233f7d" />
<rect x="163" y="208" width="1" height="1" fill="#233f7d" />
<rect x="142" y="211" width="1" height="1" fill="#233f7d" />
<rect x="148" y="211" width="1" height="1" fill="#233f7d" />
<rect x="154" y="211" width="1" height="1" fill="#233f7d" />
<rect x="160" y="211" width="1" height="1" fill="#233f7d" />
<rect x="166" y="211" width="1" height="1" fill="#233f7d" />
<rect x="145" y="214" width="1" height="1" fill="#233f7d" />
<rect x="151" y="214" width="1" height="1" fill="#233f7d" />
<rect x="157" y="214" width="1" height="1" fill="#233f7d" />
<rect x="163" y="214" width="1" height="1" fill="#233f7d" />
<rect x="142" y="217" width="1" height="1" fill="#233f7d" />
<rect x="148" y="217" width="1" height="1" fill="#233f7d" />
<rect x="154" y="217" width="1" height="1" fill="#233f7d" />
<rect x="160" y="217" width="1" height="1" fill="#233f7d" />
<rect x="166" y="217" width="1" height="1" fill="#233f7d" />
<rect x="145" y="220" width="1" height="1" fill="#233f7d" />
<rect x="151" y="220" width="1" height="1" fill="#233f7d" />
<rect x="157" y="220" width="1" height="1" fill="#233f7d" />
<rect x="163" y="220" width="1" height="1" fill="#233f7d" />
<rect x="94" y="188" width="22" height="1" fill="#101a2a" />
<rect x="94" y="197" width="22" height="1" fill="#101a2a" />
<rect x="94" y="206" width="22" height="1" fill="#101a2a" />
<rect x="94" y="215" width="22" height="1" fill="#101a2a" />
<rect x="144" y="186" width="22" height="1" fill="#101a2a" />
<rect x="144" y="195" width="22" height="1" fill="#101a2a" />
<rect x="144" y="204" width="22" height="1" fill="#101a2a" />
<rect x="144" y="213" width="22" height="1" fill="#101a2a" />
<rect x="92" y="200" width="26" height="8" fill="#233f7d" />
<rect x="142" y="198" width="26" height="8" fill="#233f7d" />
<rect x="80" y="238" width="52" height="14" fill="#0b1320" />
<rect x="81" y="239" width="50" height="12" fill="#101a2a" />
<rect x="81" y="239" width="50" height="1" fill="#233f7d" />
<rect x="81" y="239" width="1" height="12" fill="#233f7d" />
<rect x="81" y="250" width="50" height="1" fill="#0b1320" />
<rect x="130" y="239" width="1" height="12" fill="#0b1320" />
<rect x="134" y="238" width="52" height="14" fill="#0b1320" />
<rect x="135" y="239" width="50" height="12" fill="#101a2a" />
<rect x="135" y="239" width="50" height="1" fill="#233f7d" />
<rect x="135" y="239" width="1" height="12" fill="#233f7d" />
<rect x="135" y="250" width="50" height="1" fill="#0b1320" />
<rect x="184" y="239" width="1" height="12" fill="#0b1320" />
<circle cx="84" cy="244" r="1.1" fill="#2a3a58" />
<circle cx="90" cy="244" r="1.1" fill="#2a3a58" />
<circle cx="96" cy="244" r="1.1" fill="#2a3a58" />
<circle cx="102" cy="244" r="1.1" fill="#2a3a58" />
<circle cx="108" cy="244" r="1.1" fill="#2a3a58" />
<circle cx="114" cy="244" r="1.1" fill="#2a3a58" />
<circle cx="120" cy="244" r="1.1" fill="#2a3a58" />
<circle cx="126" cy="244" r="1.1" fill="#2a3a58" />
<circle cx="138" cy="244" r="1.1" fill="#2a3a58" />
<circle cx="144" cy="244" r="1.1" fill="#2a3a58" />
<circle cx="150" cy="244" r="1.1" fill="#2a3a58" />
<circle cx="156" cy="244" r="1.1" fill="#2a3a58" />
<circle cx="162" cy="244" r="1.1" fill="#2a3a58" />
<circle cx="168" cy="244" r="1.1" fill="#2a3a58" />
<circle cx="174" cy="244" r="1.1" fill="#2a3a58" />
<circle cx="180" cy="244" r="1.1" fill="#2a3a58" />
<rect x="156" y="168" width="60" height="12" fill="#0b1320" />
<rect x="157" y="169" width="58" height="10" fill="#d3deee" />
<rect x="157" y="169" width="58" height="1" fill="#f1f7ff" />
<rect x="157" y="169" width="1" height="10" fill="#f1f7ff" />
<rect x="157" y="178" width="58" height="1" fill="#7485a4" />
<rect x="214" y="169" width="1" height="10" fill="#7485a4" />
<rect x="158" y="170" width="56" height="4" fill="#7485a4" />
<rect x="204" y="170" width="26" height="8" fill="#7485a4" />
<rect x="156" y="178" width="54" height="2" fill="#0b1320" />
<circle cx="164" cy="172" r="1" fill="#4f7fd9" />
<circle cx="176" cy="172" r="1" fill="#4f7fd9" />
<circle cx="188" cy="172" r="1" fill="#4f7fd9" />
<circle cx="200" cy="172" r="1" fill="#4f7fd9" />
<rect x="110" y="82" width="14" height="6" fill="#142033" />
<rect x="140" y="82" width="14" height="6" fill="#142033" />
<rect x="124" y="86" width="14" height="4" fill="#87e4ff" />
<rect x="116" y="82" width="2" height="6" fill="#c4d0de" />
<rect x="146" y="82" width="2" height="6" fill="#c4d0de" />
</svg>
