<?xml version="1.0" encoding="UTF-8"?>
<svg xmlns="http://www.w3.org/2000/svg" width="256" height="256" viewBox="0 0 256 256" shape-rendering="crispEdges">
<rect x="81" y="93" width="96" height="100" fill="#0b1320" />
<rect x="82" y="94" width="94" height="98" fill="#325eb7" />
<rect x="82" y="94" width="94" height="1" fill="#4f7fd9" />
<rect x="82" y="94" width="1" height="98" fill="#4f7fd9" />
<rect x="82" y="191" width="94" height="1" fill="#233f7d" />
<rect x="175" y="94" width="1" height="98" fill="#233f7d" />
<rect x="89" y="103" width="80" height="24" fill="#4f7fd9" />
<rect x="94" y="105" width="1" height="1" fill="#325eb7" />
<rect x="100" y="105" width="1" height="1" fill="#325eb7" />
<rect x="106" y="105" width="1" height="1" fill="#325eb7" />
<rect x="112" y="105" width="1" height="1" fill="#325eb7" />
<rect x="118" y="105" width="1" height="1" fill="#325eb7" />
<rect x="124" y="105" width="1" height="1" fill="#325eb7" />
<rect x="130" y="105" width="1" height="1" fill="#325eb7" />
<rect x="136" y="105" width="1" height="1" fill="#325eb7" />
<rect x="142" y="105" width="1" height="1" fill="#325eb7" />
<rect x="148" y="105" width="1" height="1" fill="#325eb7" />
<rect x="154" y="105" width="1" height="1" fill="#325eb7" />
<rect x="160" y="105" width="1" height="1" fill="#325eb7" />
<rect x="166" y="105" width="1" height="1" fill="#325eb7" />
<rect x="91" y="108" width="1" height="1" fill="#325eb7" />
<rect x="97" y="108" width="1" height="1" fill="#325eb7" />
<rect x="103" y="108" width="1" height="1" fill="#325eb7" />
<rect x="109" y="108" width="1" height="1" fill="#325eb7" />
<rect x="115" y="108" width="1" height="1" fill="#325eb7" />
<rect x="121" y="108" width="1" height="1" fill="#325eb7" />
<rect x="127" y="108" width="1" height="1" fill="#325eb7" />
<rect x="133" y="108" width="1" height="1" fill="#325eb7" />
<rect x="139" y="108" width="1" height="1" fill="#325eb7" />
<rect x="145" y="108" width="1" height="1" fill="#325eb7" />
<rect x="151" y="108" width="1" height="1" fill="#325eb7" />
<rect x="157" y="108" width="1" height="1" fill="#325eb7" />
<rect x="163" y="108" width="1" height="1" fill="#325eb7" />
<rect x="94" y="111" width="1" height="1" fill="#325eb7" />
<rect x="100" y="111" width="1" height="1" fill="#325eb7" />
<rect x="106" y="111" width="1" height="1" fill="#325eb7" />
<rect x="112" y="111" width="1" height="1" fill="#325eb7" />
<rect x="118" y="111" width="1" height="1" fill="#325eb7" />
<rect x="124" y="111" width="1" height="1" fill="#325eb7" />
<rect x="130" y="111" width="1" height="1" fill="#325eb7" />
<rect x="136" y="111" width="1" height="1" fill="#325eb7" />
<rect x="142" y="111" width="1" height="1" fill="#325eb7" />
<rect x="148" y="111" width="1" height="1" fill="#325eb7" />
<rect x="154" y="111" width="1" height="1" fill="#325eb7" />
<rect x="160" y="111" width="1" height="1" fill="#325eb7" />
<rect x="166" y="111" width="1" height="1" fill="#325eb7" />
<rect x="91" y="114" width="1" height="1" fill="#325eb7" />
<rect x="97" y="114" width="1" height="1" fill="#325eb7" />
<rect x="103" y="114" width="1" height="1" fill="#325eb7" />
<rect x="109" y="114" width="1" height="1" fill="#325eb7" />
<rect x="115" y="114" width="1" height="1" fill="#325eb7" />
<rect x="121" y="114" width="1" height="1" fill="#325eb7" />
<rect x="127" y="114" width="1" height="1" fill="#325eb7" />
<rect x="133" y="114" width="1" height="1" fill="#325eb7" />
<rect x="139" y="114" width="1" height="1" fill="#325eb7" />
<rect x="145" y="114" width="1" height="1" fill="#325eb7" />
<rect x="151" y="114" width="1" height="1" fill="#325eb7" />
<rect x="157" y="114" width="1" height="1" fill="#325eb7" />
<rect x="163" y="114" width="1" height="1" fill="#325eb7" />
<rect x="94" y="117" width="1" height="1" fill="#325eb7" />
<rect x="100" y="117" width="1" height="1" fill="#325eb7" />
<rect x="106" y="117" width="1" height="1" fill="#325eb7" />
<rect x="112" y="117" width="1" height="1" fill="#325eb7" />
<rect x="118" y="117" width="1" height="1" fill="#325eb7" />
<rect x="124" y="117" width="1" height="1" fill="#325eb7" />
<rect x="130" y="117" width="1" height="1" fill="#325eb7" />
<rect x="136" y="117" width="1" height="1" fill="#325eb7" />
<rect x="142" y="117" width="1" height="1" fill="#325eb7" />
<rect x="148" y="117" width="1" height="1" fill="#325eb7" />
<rect x="154" y="117" width="1" height="1" fill="#325eb7" />
<rect x="160" y="117" width="1" height="1" fill="#325eb7" />
<rect x="166" y="117" width="1" height="1" fill="#325eb7" />
<rect x="91" y="120" width="1" height="1" fill="#325eb7" />
<rect x="97" y="120" width="1" height="1" fill="#325eb7" />
<rect x="103" y="120" width="1" height="1" fill="#325eb7" />
<rect x="109" y="120" width="1" height="1" fill="#325eb7" />
<rect x="115" y="120" width="1" height="1" fill="#325eb7" />
<rect x="121" y="120" width="1" height="1" fill="#325eb7" />
<rect x="127" y="120" width="1" height="1" fill="#325eb7" />
<rect x="133" y="120" width="1" height="1" fill="#325eb7" />
<rect x="139" y="120" width="1" height="1" fill="#325eb7" />
<rect x="145" y="120" width="1" height="1" fill="#325eb7" />
<rect x="151" y="120" width="1" height="1" fill="#325eb7" />
<rect x="157" y="120" width="1" height="1" fill="#325eb7" />
<rect x="163" y="120" width="1" height="1" fill="#325eb7" />
<rect x="94" y="123" width="1" height="1" fill="#325eb7" />
<rect x="100" y="123" width="1" height="1" fill="#325eb7" />
<rect x="106" y="123" width="1" height="1" fill="#325eb7" />
<rect x="112" y="123" width="1" height="1" fill="#325eb7" />
<rect x="118" y="123" width="1" height="1" fill="#325eb7" />
<rect x="124" y="123" width="1" height="1" fill="#325eb7" />
<rect x="130" y="123" width="1" height="1" fill="#325eb7" />
<rect x="136" y="123" width="1" height="1" fill="#325eb7" />
<rect x="142" y="123" width="1" height="1" fill="#325eb7" />
<rect x="148" y="123" width="1" height="1" fill="#325eb7" />
<rect x="154" y="123" width="1" height="1" fill="#325eb7" />
<rect x="160" y="123" width="1" height="1" fill="#325eb7" />
<rect x="166" y="123" width="1" height="1" fill="#325eb7" />
<rect x="95" y="135" width="68" height="1" fill="#233f7d" />
<rect x="95" y="141" width="68" height="1" fill="#233f7d" />
<rect x="95" y="147" width="68" height="1" fill="#233f7d" />
<rect x="95" y="153" width="68" height="1" fill="#233f7d" />
<rect x="97" y="159" width="64" height="10" fill="#2a3a58" />
<rect x="101" y="167" width="56" height="8" fill="#233f7d" />
<circle cx="103" cy="173" r="1.1" fill="#4f7fd9" />
<circle cx="115" cy="173" r="1.1" fill="#4f7fd9" />
<circle cx="127" cy="173" r="1.1" fill="#4f7fd9" />
<circle cx="139" cy="173" r="1.1" fill="#4f7fd9" />
<circle cx="151" cy="173" r="1.1" fill="#4f7fd9" />
<rect x="97" y="69" width="64" height="38" fill="#0b1320" />
<rect x="98" y="70" width="62" height="36" fill="#e5edf8" />
<rect x="98" y="70" width="62" height="1" fill="#f5fbff" />
<rect x="98" y="70" width="1" height="36" fill="#f5fbff" />
<rect x="98" y="105" width="62" height="1" fill="#c4d0de" />
<rect x="159" y="70" width="1" height="36" fill="#c4d0de" />
<rect x="91" y="61" width="76" height="10" fill="#d74453" />
<rect x="97" y="59" width="64" height="2" fill="#0b1320" />
<rect x="95" y="77" width="68" height="3" fill="#0b1320" />
<circle cx="101" cy="71" r="1.2" fill="#4f7fd9" />
<circle cx="111" cy="71" r="1.2" fill="#4f7fd9" />
<circle cx="121" cy="71" r="1.2" fill="#4f7fd9" />
<circle cx="131" cy="71" r="1.2" fill="#4f7fd9" />
<circle cx="141" cy="71" r="1.2" fill="#4f7fd9" />
<circle cx="151" cy="71" r="1.2" fill="#4f7fd9" />
<rect x="73" y="104" width="16" height="64" fill="#0b1320" />
<rect x="74" y="105" width="14" height="62" fill="#2a3a58" />
<rect x="74" y="105" width="14" height="1" fill="#4f7fd9" />
<rect x="74" y="105" width="1" height="62" fill="#4f7fd9" />
<rect x="74" y="166" width="14" height="1" fill="#233f7d" />
<rect x="87" y="105" width="1" height="62" fill="#233f7d" />
<rect x="169" y="106" width="16" height="64" fill="#0b1320" />
<rect x="170" y="107" width="14" height="62" fill="#2a3a58" />
<rect x="170" y="107" width="14" height="1" fill="#4f7fd9" />
<rect x="170" y="107" width="1" height="62" fill="#4f7fd9" />
<rect x="170" y="168" width="14" height="1" fill="#233f7d" />
<rect x="183" y="107" width="1" height="62" fill="#233f7d" />
<rect x="75" y="112" width="12" height="6" fill="#4f7fd9" />
<rect x="171" y="114" width="12" height="6" fill="#4f7fd9" />
<rect x="75" y="128" width="12" height="6" fill="#233f7d" />
<rect x="171" y="130" width="12" height="6" fill="#233f7d" />
<rect x="71" y="104" width="20" height="8" fill="#0b1320" />
<rect x="167" y="106" width="20" height="8" fill="#0b1320" />
<rect x="85" y="173" width="34" height="66" fill="#0b1320" />
<rect x="86" y="174" width="32" height="64" fill="#1f2d49" />
<rect x="86" y="174" width="32" height="1" fill="#4f7fd9" />
<rect x="86" y="174" width="1" height="64" fill="#4f7fd9" />
<rect x="86" y="237" width="32" height="1" fill="#101a2a" />
<rect x="117" y="174" width="1" height="64" fill="#101a2a" />
<rect x="135" y="181" width="34" height="66" fill="#0b1320" />
<rect x="136" y="182" width="32" height="64" fill="#1f2d49" />
<rect x="136" y="182" width="32" height="1" fill="#4f7fd9" />
<rect x="136" y="182" width="1" height="64" fill="#4f7fd9" />
<rect x="136" y="245" width="32" height="1" fill="#101a2a" />
<rect x="167" y="182" width="1" height="64" fill="#101a2a" />
<rect x="89" y="177" width="1" height="1" fill="#233f7d" />
<rect x="95" y="177" width="1" height="1" fill="#233f7d" />
<rect x="101" y="177" width="1" height="1" fill="#233f7d" />
<rect x="107" y="177" width="1" height="1" fill="#233f7d" />
<rect x="113" y="177" width="1" height="1" fill="#233f7d" />
<rect x="92" y="180" width="1" height="1" fill="#233f7d" />
<rect x="98" y="180" width="1" height="1" fill="#233f7d" />
<rect x="104" y="180" width="1" height="1" fill="#233f7d" />
<rect x="110" y="180" width="1" height="1" fill="#233f7d" />
<rect x="89" y="183" width="1" height="1" fill="#233f7d" />
<rect x="95" y="183" width="1" height="1" fill="#233f7d" />
<rect x="101" y="183" width="1" height="1" fill="#233f7d" />
<rect x="107" y="183" width="1" height="1" fill="#233f7d" />
<rect x="113" y="183" width="1" height="1" fill="#233f7d" />
<rect x="92" y="186" width="1" height="1" fill="#233f7d" />
<rect x="98" y="186" width="1" height="1" fill="#233f7d" />
<rect x="104" y="186" width="1" height="1" fill="#233f7d" />
<rect x="110" y="186" width="1" height="1" fill="#233f7d" />
<rect x="89" y="189" width="1" height="1" fill="#233f7d" />
<rect x="95" y="189" width="1" height="1" fill="#233f7d" />
<rect x="101" y="189" width="1" height="1" fill="#233f7d" />
<rect x="107" y="189" width="1" height="1" fill="#233f7d" />
<rect x="113" y="189" width="1" height="1" fill="#233f7d" />
<rect x="92" y="192" width="1" height="1" fill="#233f7d" />
<rect x="98" y="192" width="1" height="1" fill="#233f7d" />
<rect x="104" y="192" width="1" height="1" fill="#233f7d" />
<rect x="110" y="192" width="1" height="1" fill="#233f7d" />
<rect x="89" y="195" width="1" height="1" fill="#233f7d" />
<rect x="95" y="195" width="1" height="1" fill="#233f7d" />
<rect x="101" y="195" width="1" height="1" fill="#233f7d" />
<rect x="107" y="195" width="1" height="1" fill="#233f7d" />
<rect x="113" y="195" width="1" height="1" fill="#233f7d" />
<rect x="92" y="198" width="1" height="1" fill="#233f7d" />
<rect x="98" y="198" width="1" height="1" fill="#233f7d" />
<rect x="104" y="198" width="1" height="1" fill="#233f7d" />
<rect x="110" y="198" width="1" height="1" fill="#233f7d" />
<rect x="89" y="201" width="1" height="1" fill="#233f7d" />
<rect x="95" y="201" width="1" height="1" fill="#233f7d" />
<rect x="101" y="201" width="1" height="1" fill="#233f7d" />
<rect x="107" y="201" width="1" height="1" fill="#233f7d" />
<rect x="113" y="201" width="1" height="1" fill="#233f7d" />
<rect x="92" y="204" width="1" height="1" fill="#233f7d" />
<rect x="98" y="204" width="1" height="1" fill="#233f7d" />
<rect x="104" y="204" width="1" height="1" fill="#233f7d" />
<rect x="110" y="204" width="1" height="1" fill="#233f7d" />
<rect x="89" y="207" width="1" height="1" fill="#233f7d" />
<rect x="95" y="207" width="1" height="1" fill="#233f7d" />
<rect x="101" y="207" width="1" height="1" fill="#233f7d" />
<rect x="107" y="207" width="1" height="1" fill="#233f7d" />
<rect x="113" y="207" width="1" height="1" fill="#233f7d" />
<rect x="92" y="210" width="1" height="1" fill="#233f7d" />
<rect x="98" y="210" width="1" height="1" fill="#233f7d" />
<rect x="104" y="210" width="1" height="1" fill="#233f7d" />
<rect x="110" y="210" width="1" height="1" fill="#233f7d" />
<rect x="89" y="213" width="1" height="1" fill="#233f7d" />
<rect x="95" y="213" width="1" height="1" fill="#233f7d" />
<rect x="101" y="213" width="1" height="1" fill="#233f7d" />
<rect x="107" y="213" width="1" height="1" fill="#233f7d" />
<rect x="113" y="213" width="1" height="1" fill="#233f7d" />
<rect x="92" y="216" width="1" height="1" fill="#233f7d" />
<rect x="98" y="216" width="1" height="1" fill="#233f7d" />
<rect x="104" y="216" width="1" height="1" fill="#233f7d" />
<rect x="110" y="216" width="1" height="1" fill="#233f7d" />
<rect x="89" y="219" width="1" height="1" fill="#233f7d" />
<rect x="95" y="219" width="1" height="1" fill="#233f7d" />
<rect x="101" y="219" width="1" height="1" fill="#233f7d" />
<rect x="107" y="219" width="1" height="1" fill="#233f7d" />
<rect x="113" y="219" width="1" height="1" fill="#233f7d" />
<rect x="142" y="185" width="1" height="1" fill="#233f7d" />
<rect x="148" y="185" width="1" height="1" fill="#233f7d" />
<rect x="154" y="185" width="1" height="1" fill="#233f7d" />
<rect x="160" y="185" width="1" height="1" fill="#233f7d" />
<rect x="139" y="188" width="1" height="1" fill="#233f7d" />
<rect x="145" y="188" width="1" height="1" fill="#233f7d" />
<rect x="151" y="188" width="1" height="1" fill="#233f7d" />
<rect x="157" y="188" width="1" height="1" fill="#233f7d" />
<rect x="163" y="188" width="1" height="1" fill="#233f7d" />
<rect x="142" y="191" width="1" height="1" fill="#233f7d" />
<rect x="148" y="191" width="1" height="1" fill="#233f7d" />
<rect x="154" y="191" width="1" height="1" fill="#233f7d" />
<rect x="160" y="191" width="1" height="1" fill="#233f7d" />
<rect x="139" y="194" width="1" height="1" fill="#233f7d" />
<rect x="145" y="194" width="1" height="1" fill="#233f7d" />
<rect x="151" y="194" width="1" height="1" fill="#233f7d" />
<rect x="157" y="194" width="1" height="1" fill="#233f7d" />
<rect x="163" y="194" width="1" height="1" fill="#233f7d" />
<rect x="142" y="197" width="1" height="1" fill="#233f7d" />
<rect x="148" y="197" width="1" height="1" fill="#233f7d" />
<rect x="154" y="197" width="1" height="1" fill="#233f7d" />
<rect x="160" y="197" width="1" height="1" fill="#233f7d" />
<rect x="139" y="200" width="1" height="1" fill="#233f7d" />
<rect x="145" y="200" width="1" height="1" fill="#233f7d" />
<rect x="151" y="200" width="1" height="1" fill="#233f7d" />
<rect x="157" y="200" width="1" height="1" fill="#233f7d" />
<rect x="163" y="200" width="1" height="1" fill="#233f7d" />
<rect x="142" y="203" width="1" height="1" fill="#233f7d" />
<rect x="148" y="203" width="1" height="1" fill="#233f7d" />
<rect x="154" y="203" width="1" height="1" fill="#233f7d" />
<rect x="160" y="203" width="1" height="1" fill="#233f7d" />
<rect x="139" y="206" width="1" height="1" fill="#233f7d" />
<rect x="145" y="206" width="1" height="1" fill="#233f7d" />
<rect x="151" y="206" width="1" height="1" fill="#233f7d" />
<rect x="157" y="206" width="1" height="1" fill="#233f7d" />
<rect x="163" y="206" width="1" height="1" fill="#233f7d" />
<rect x="142" y="209" width="1" height="1" fill="#233f7d" />
<rect x="148" y="209" width="1" height="1" fill="#233f7d" />
<rect x="154" y="209" width="1" height="1" fill="#233f7d" />
<rect x="160" y="209" width="1" height="1" fill="#233f7d" />
<rect x="139" y="212" width="1" height="1" fill="#233f7d" />
<rect x="145" y="212" width="1" height="1" fill="#233f7d" />
<rect x="151" y="212" width="1" height="1" fill="#233f7d" />
<rect x="157" y="212" width="1" height="1" fill="#233f7d" />
<rect x="163" y="212" width="1" height="1" fill="#233f7d" />
<rect x="142" y="215" width="1" height="1" fill="#233f7d" />
<rect x="148" y="215" width="1" height="1" fill="#233f7d" />
<rect x="154" y="215" width="1" height="1" fill="#233f7d" />
<rect x="160" y="215" width="1" height="1" fill="#233f7d" />
<rect x="139" y="218" width="1" height="1" fill="#233f7d" />
<rect x="145" y="218" width="1" height="1" fill="#233f7d" />
<rect x="151" y="218" width="1" height="1" fill="#233f7d" />
<rect x="157" y="218" width="1" height="1" fill="#233f7d" />
<rect x="163" y="218" width="1" height="1" fill="#233f7d" />
<rect x="142" y="221" width="1" height="1" fill="#233f7d" />
<rect x="148" y="221" width="1" height="1" fill="#233f7d" />
<rect x="154" y="221" width="1" height="1" fill="#233f7d" />
<rect x="160" y="221" width="1" height="1" fill="#233f7d" />
<rect x="139" y="224" width="1" height="1" fill="#233f7d" />
<rect x="145" y="224" width="1" height="1" fill="#233f7d" />
<rect x="151" y="224" width="1" height="1" fill="#233f7d" />
<rect x="157" y="224" width="1" height="1" fill="#233f7d" />
<rect x="163" y="224" width="1" height="1" fill="#233f7d" />
<rect x="142" y="227" width="1" height="1" fill="#233f7d" />
<rect x="148" y="227" width="1" height="1" fill="#233f7d" />
<rect x="154" y="227" width="1" height="1" fill="#233f7d" />
<rect x="160" y="227" width="1" height="1" fill="#233f7d" />
<rect x="91" y="185" width="22" height="1" fill="#101a2a" />
<rect x="91" y="194" width="22" height="1" fill="#101a2a" />
<rect x="91" y="203" width="22" height="1" fill="#101a2a" />
<rect x="91" y="212" width="22" height="1" fill="#101a2a" />
<rect x="141" y="193" width="22" height="1" fill="#101a2a" />
<rect x="141" y="202" width="22" height="1" fill="#101a2a" />
<rect x="141" y="211" width="22" height="1" fill="#101a2a" />
<rect x="141" y="220" width="22" height="1" fill="#101a2a" />
<rect x="89" y="197" width="26" height="8" fill="#233f7d" />
<rect x="139" y="205" width="26" height="8" fill="#233f7d" />
<rect x="77" y="238" width="52" height="14" fill="#0b1320" />
<rect x="78" y="239" width="50" height="12" fill="#101a2a" />
<rect x="78" y="239" width="50" height="1" fill="#233f7d" />
<rect x="78" y="239" width="1" height="12" fill="#233f7d" />
<rect x="78" y="250" width="50" height="1" fill="#0b1320" />
<rect x="127" y="239" width="1" height="12" fill="#0b1320" />
<rect x="131" y="238" width="52" height="14" fill="#0b1320" />
<rect x="132" y="239" width="50" height="12" fill="#101a2a" />
<rect x="132" y="239" width="50" height="1" fill="#233f7d" />
<rect x="132" y="239" width="1" height="12" fill="#233f7d" />
<rect x="132" y="250" width="50" height="1" fill="#0b1320" />
<rect x="181" y="239" width="1" height="12" fill="#0b1320" />
<circle cx="81" cy="244" r="1.1" fill="#2a3a58" />
<circle cx="87" cy="244" r="1.1" fill="#2a3a58" />
<circle cx="93" cy="244" r="1.1" fill="#2a3a58" />
<circle cx="99" cy="244" r="1.1" fill="#2a3a58" />
<circle cx="105" cy="244" r="1.1" fill="#2a3a58" />
<circle cx="111" cy="244" r="1.1" fill="#2a3a58" />
<circle cx="117" cy="244" r="1.1" fill="#2a3a58" />
<circle cx="123" cy="244" r="1.1" fill="#2a3a58" />
<circle cx="135" cy="244" r="1.1" fill="#2a3a58" />
<circle cx="141" cy="244" r="1.1" fill="#2a3a58" />
<circle cx="147" cy="244" r="1.1" fill="#2a3a58" />
<circle cx="153" cy="244" r="1.1" fill="#2a3a58" />
<circle cx="159" cy="244" r="1.1" fill="#2a3a58" />
<circle cx="165" cy="244" r="1.1" fill="#2a3a58" />
<circle cx="171" cy="244" r="1.1" fill="#2a3a58" />
<circle cx="177" cy="244" r="1.1" fill="#2a3a58" />
<rect x="153" y="170" width="60" height="12" fill="#0b1320" />
<rect x="154" y="171" width="58" height="10" fill="#d3deee" />
<rect x="154" y="171" width="58" height="1" fill="#f1f7ff" />
<rect x="154" y="171" width="1" height="10" fill="#f1f7ff" />
<rect x="154" y="180" width="58" height="1" fill="#7485a4" />
<rect x="211" y="171" width="1" height="10" fill="#7485a4" />
<rect x="155" y="172" width="56" height="4" fill="#7485a4" />
<rect x="201" y="172" width="26" height="8" fill="#7485a4" />
<rect x="153" y="180" width="54" height="2" fill="#0b1320" />
<circle cx="161" cy="174" r="1" fill="#4f7fd9" />
<circle cx="173" cy="174" r="1" fill="#4f7fd9" />
<circle cx="185" cy="174" r="1" fill="#4f7fd9" />
<circle cx="197" cy="174" r="1" fill="#4f7fd9" />
<rect x="107" y="85" width="14" height="6" fill="#142033" />
<rect x="137" y="85" width="14" height="6" fill="#142033" />
<rect x="121" y="89" width="14" height="4" fill="#87e4ff" />
<rect x="113" y="85" width="2" height="6" fill="#c4d0de" />
<rect x="143" y="85" width="2" height="6" fill="#c4d0de" />
</svg>
