<?xml version="1.0" encoding="UTF-8"?>
<svg xmlns="http://www.w3.org/2000/svg" width="256" height="256" viewBox="0 0 256 256" shape-rendering="crispEdges">
<polygon points="99,59 135,55 149,65 147,87 119,93 105,83" fill="#0b1320" />
<polygon points="101,61 133,57 145,65 143,85 119,91 107,81" fill="#cb9975" />
<polygon points="99,53 135,49 151,56 143,61 107,59" fill="#9b4f4f" />
<polygon points="95,61 107,59 105,79 93,75" fill="#4a2b1f" />
<rect x="111" y="89" width="10" height="8" fill="#996846" />
<rect x="121" y="89" width="6" height="4" fill="#cb9975" />
<rect x="115" y="68" width="8" height="2" fill="#0b1320" />
<rect x="119" y="71" width="6" height="4" fill="#142033" />
<rect x="117" y="81" width="12" height="4" fill="#6e5140" />
<rect x="135" y="73" width="8" height="2" fill="#996846" />
<polygon points="99,105 137,97 157,107 161,149 109,157" fill="#0b1320" />
<polygon points="103,107 135,101 153,109 157,147 111,153" fill="#dad3c2" />
<rect x="107" y="109" width="26" height="10" fill="#f3ecdb" />
<rect x="109" y="123" width="36" height="3" fill="#8f8878" />
<rect x="111" y="131" width="40" height="3" fill="#8f8878" />
<rect x="109" y="115" width="6" height="22" fill="#cb9975" />
<rect x="133" y="111" width="6" height="18" fill="#cb9975" />
<polygon points="113,105 121,103 133,131 125,133" fill="#88724a" />
<rect x="123" y="137" width="14" height="10" fill="#2a3a58" />
<polygon points="99,115 111,113 113,145 101,149" fill="#cb9975" />
<rect x="101" y="123" width="7" height="20" fill="#8f8878" />
<rect x="97" y="145" width="10" height="6" fill="#cb9975" />
<polygon points="131,119 145,121 125,120 117,120" fill="#cb9975" />
<polygon points="139,135 151,135 129,128 123,132" fill="#8f8878" />
<rect x="121" y="119" width="7" height="7" fill="#cb9975" />
<rect x="151" y="118" width="7" height="7" fill="#cb9975" />
<rect x="133" y="114" width="74" height="10" fill="#0b1320" />
<rect x="134" y="115" width="72" height="8" fill="#a8b2bf" />
<rect x="134" y="115" width="72" height="1" fill="#f3f8ff" />
<rect x="134" y="115" width="1" height="8" fill="#f3f8ff" />
<rect x="134" y="122" width="72" height="1" fill="#62707c" />
<rect x="205" y="115" width="1" height="8" fill="#62707c" />
<rect x="139" y="116" width="62" height="2" fill="#edf6ff" />
<rect x="123" y="116" width="14" height="6" fill="#62707c" />
<rect x="201" y="116" width="18" height="6" fill="#62707c" />
<rect x="153" y="124" width="10" height="16" fill="#62707c" />
<polygon points="149,124 157,138 167,138 161,124" fill="#62707c" />
<rect x="143" y="122" width="18" height="2" fill="#0b1320" />
<rect x="97" y="157" width="20" height="60" fill="#0b1320" />
<rect x="98" y="158" width="18" height="58" fill="#33441f" />
<rect x="98" y="158" width="18" height="1" fill="#8aa05b" />
<rect x="98" y="158" width="1" height="58" fill="#8aa05b" />
<rect x="98" y="215" width="18" height="1" fill="#101a2a" />
<rect x="115" y="158" width="1" height="58" fill="#101a2a" />
<rect x="126" y="153" width="22" height="62" fill="#0b1320" />
<rect x="127" y="154" width="20" height="60" fill="#61773f" />
<rect x="127" y="154" width="20" height="1" fill="#8aa05b" />
<rect x="127" y="154" width="1" height="60" fill="#8aa05b" />
<rect x="127" y="213" width="20" height="1" fill="#101a2a" />
<rect x="146" y="154" width="1" height="60" fill="#101a2a" />
<rect x="102" y="165" width="12" height="6" fill="#33441f" />
<rect x="118" y="173" width="10" height="5" fill="#8aa05b" />
<rect x="106" y="187" width="14" height="6" fill="#dad3c2" />
<rect x="116" y="199" width="12" height="6" fill="#33441f" />
<rect x="100" y="205" width="10" height="5" fill="#8aa05b" />
<rect x="131" y="165" width="12" height="6" fill="#8aa05b" />
<rect x="147" y="173" width="10" height="5" fill="#dad3c2" />
<rect x="135" y="187" width="14" height="6" fill="#33441f" />
<rect x="145" y="199" width="12" height="6" fill="#8aa05b" />
<rect x="129" y="205" width="10" height="5" fill="#dad3c2" />
<rect x="103" y="187" width="10" height="8" fill="#8f8878" />
<rect x="134" y="179" width="10" height="8" fill="#8f8878" />
<rect x="93" y="236" width="34" height="12" fill="#0b1320" />
<rect x="94" y="237" width="32" height="10" fill="#101a2a" />
<rect x="94" y="237" width="32" height="1" fill="#33441f" />
<rect x="94" y="237" width="1" height="10" fill="#33441f" />
<rect x="94" y="246" width="32" height="1" fill="#0b1320" />
<rect x="125" y="237" width="1" height="10" fill="#0b1320" />
<rect x="122" y="236" width="40" height="12" fill="#0b1320" />
<rect x="123" y="237" width="38" height="10" fill="#101a2a" />
<rect x="123" y="237" width="38" height="1" fill="#33441f" />
<rect x="123" y="237" width="1" height="10" fill="#33441f" />
<rect x="123" y="246" width="38" height="1" fill="#0b1320" />
<rect x="160" y="237" width="1" height="10" fill="#0b1320" />
</svg>
