<?xml version="1.0" encoding="UTF-8"?>
<svg xmlns="http://www.w3.org/2000/svg" width="256" height="256" viewBox="0 0 256 256" shape-rendering="crispEdges">
<polygon points="100,58 136,54 150,64 148,86 120,92 106,82" fill="#0b1320" />
<polygon points="102,60 134,56 146,64 144,84 120,90 108,80" fill="#cb9975" />
<polygon points="100,52 136,48 152,55 144,60 108,58" fill="#9b4f4f" />
<polygon points="96,60 108,58 106,78 94,74" fill="#4a2b1f" />
<rect x="112" y="88" width="10" height="8" fill="#996846" />
<rect x="122" y="88" width="6" height="4" fill="#cb9975" />
<rect x="116" y="67" width="8" height="2" fill="#0b1320" />
<rect x="120" y="70" width="6" height="4" fill="#142033" />
<rect x="118" y="80" width="12" height="4" fill="#6e5140" />
<rect x="136" y="72" width="8" height="2" fill="#996846" />
<polygon points="100,104 138,96 158,106 162,148 110,156" fill="#0b1320" />
<polygon points="104,106 136,100 154,108 158,146 112,152" fill="#dad3c2" />
<rect x="108" y="108" width="26" height="10" fill="#f3ecdb" />
<rect x="110" y="122" width="36" height="3" fill="#8f8878" />
<rect x="112" y="130" width="40" height="3" fill="#8f8878" />
<rect x="110" y="114" width="6" height="22" fill="#cb9975" />
<rect x="134" y="110" width="6" height="18" fill="#cb9975" />
<polygon points="114,104 122,102 134,130 126,132" fill="#88724a" />
<rect x="124" y="136" width="14" height="10" fill="#2a3a58" />
<polygon points="100,116 112,114 114,146 102,150" fill="#cb9975" />
<rect x="102" y="124" width="7" height="20" fill="#8f8878" />
<rect x="98" y="146" width="10" height="6" fill="#cb9975" />
<polygon points="132,116 146,118 126,120 118,120" fill="#cb9975" />
<polygon points="140,132 152,132 130,128 124,132" fill="#8f8878" />
<rect x="122" y="119" width="7" height="7" fill="#cb9975" />
<rect x="152" y="118" width="7" height="7" fill="#cb9975" />
<rect x="134" y="114" width="74" height="10" fill="#0b1320" />
<rect x="135" y="115" width="72" height="8" fill="#a8b2bf" />
<rect x="135" y="115" width="72" height="1" fill="#f3f8ff" />
<rect x="135" y="115" width="1" height="8" fill="#f3f8ff" />
<rect x="135" y="122" width="72" height="1" fill="#62707c" />
<rect x="206" y="115" width="1" height="8" fill="#62707c" />
<rect x="140" y="116" width="62" height="2" fill="#edf6ff" />
<rect x="124" y="116" width="14" height="6" fill="#62707c" />
<rect x="202" y="116" width="18" height="6" fill="#62707c" />
<rect x="154" y="124" width="10" height="16" fill="#62707c" />
<polygon points="150,124 158,138 168,138 162,124" fill="#62707c" />
<rect x="144" y="122" width="18" height="2" fill="#0b1320" />
<rect x="101" y="158" width="20" height="60" fill="#0b1320" />
<rect x="102" y="159" width="18" height="58" fill="#33441f" />
<rect x="102" y="159" width="18" height="1" fill="#8aa05b" />
<rect x="102" y="159" width="1" height="58" fill="#8aa05b" />
<rect x="102" y="216" width="18" height="1" fill="#101a2a" />
<rect x="119" y="159" width="1" height="58" fill="#101a2a" />
<rect x="124" y="152" width="22" height="62" fill="#0b1320" />
<rect x="125" y="153" width="20" height="60" fill="#61773f" />
<rect x="125" y="153" width="20" height="1" fill="#8aa05b" />
<rect x="125" y="153" width="1" height="60" fill="#8aa05b" />
<rect x="125" y="212" width="20" height="1" fill="#101a2a" />
<rect x="144" y="153" width="1" height="60" fill="#101a2a" />
<rect x="106" y="166" width="12" height="6" fill="#33441f" />
<rect x="122" y="174" width="10" height="5" fill="#8aa05b" />
<rect x="110" y="188" width="14" height="6" fill="#dad3c2" />
<rect x="120" y="200" width="12" height="6" fill="#33441f" />
<rect x="104" y="206" width="10" height="5" fill="#8aa05b" />
<rect x="129" y="164" width="12" height="6" fill="#8aa05b" />
<rect x="145" y="172" width="10" height="5" fill="#dad3c2" />
<rect x="133" y="186" width="14" height="6" fill="#33441f" />
<rect x="143" y="198" width="12" height="6" fill="#8aa05b" />
<rect x="127" y="204" width="10" height="5" fill="#dad3c2" />
<rect x="107" y="188" width="10" height="8" fill="#8f8878" />
<rect x="132" y="178" width="10" height="8" fill="#8f8878" />
<rect x="97" y="238" width="34" height="12" fill="#0b1320" />
<rect x="98" y="239" width="32" height="10" fill="#101a2a" />
<rect x="98" y="239" width="32" height="1" fill="#33441f" />
<rect x="98" y="239" width="1" height="10" fill="#33441f" />
<rect x="98" y="248" width="32" height="1" fill="#0b1320" />
<rect x="129" y="239" width="1" height="10" fill="#0b1320" />
<rect x="120" y="236" width="40" height="12" fill="#0b1320" />
<rect x="121" y="237" width="38" height="10" fill="#101a2a" />
<rect x="121" y="237" width="38" height="1" fill="#33441f" />
<rect x="121" y="237" width="1" height="10" fill="#33441f" />
<rect x="121" y="246" width="38" height="1" fill="#0b1320" />
<rect x="158" y="237" width="1" height="10" fill="#0b1320" />
</svg>
