<?xml version="1.0" encoding="UTF-8"?>
<svg xmlns="http://www.w3.org/2000/svg" width="256" height="256" viewBox="0 0 256 256" shape-rendering="crispEdges">
<rect x="76" y="128" width="104" height="62" fill="#0b1320" />
<rect x="80" y="132" width="96" height="56" fill="#325eb7" />
<rect x="84" y="138" width="88" height="18" fill="#4f7fd9" />
<rect x="86" y="160" width="84" height="10" fill="#233f7d" />
<rect x="100" y="102" width="58" height="32" fill="#e5edf8" />
<rect x="100" y="122" width="58" height="12" fill="#c4d0de" />
<rect x="92" y="94" width="74" height="9" fill="#d74453" />
<rect x="74" y="140" width="18" height="42" fill="#2a3a58" />
<rect x="170" y="140" width="18" height="42" fill="#2a3a58" />
<rect x="84" y="186" width="82" height="40" fill="#1f2d49" />
<rect x="80" y="226" width="52" height="18" fill="#101a2a" />
<rect x="126" y="226" width="52" height="18" fill="#101a2a" />
<rect x="158" y="166" width="68" height="10" fill="#d3deee" />
<rect x="210" y="167" width="20" height="7" fill="#7485a4" />
<rect x="108" y="118" width="14" height="5" fill="#142033" />
<rect x="136" y="118" width="14" height="5" fill="#142033" />
<rect x="122" y="122" width="14" height="4" fill="#87e4ff" />
</svg>
