<?xml version="1.0" encoding="UTF-8"?>
<svg xmlns="http://www.w3.org/2000/svg" width="256" height="256" viewBox="0 0 256 256" shape-rendering="crispEdges">
<polygon points="106,98 142,94 156,102 154,122 126,128 112,118" fill="#0b1320" />
<polygon points="108,100 140,96 152,104 150,122 126,126 114,116" fill="#cb9975" />
<polygon points="106,94 144,90 156,95 150,100 112,98" fill="#9b4f4f" />
<rect x="118" y="124" width="10" height="8" fill="#996846" />
<polygon points="88,138 122,134 148,148 146,174 102,180" fill="#0b1320" />
<polygon points="94,140 120,138 142,150 140,172 104,176" fill="#dad3c2" />
<rect x="102" y="144" width="24" height="9" fill="#f3ecdb" />
<rect x="106" y="160" width="30" height="3" fill="#8f8878" />
<rect x="100" y="148" width="6" height="18" fill="#cb9975" />
<rect x="120" y="144" width="6" height="16" fill="#cb9975" />
<polygon points="98,148 110,150 114,174 102,176" fill="#cb9975" />
<polygon points="120,146 134,150 126,136 118,138" fill="#cb9975" />
<polygon points="118,160 134,162 132,144 126,148" fill="#8f8878" />
<rect x="124" y="135" width="7" height="7" fill="#cb9975" />
<rect x="154" y="134" width="7" height="7" fill="#cb9975" />
<rect x="136" y="130" width="72" height="10" fill="#0b1320" />
<rect x="137" y="131" width="70" height="8" fill="#a8b2bf" />
<rect x="137" y="131" width="70" height="1" fill="#f3f8ff" />
<rect x="137" y="131" width="1" height="8" fill="#f3f8ff" />
<rect x="137" y="138" width="70" height="1" fill="#62707c" />
<rect x="206" y="131" width="1" height="8" fill="#62707c" />
<rect x="142" y="132" width="60" height="2" fill="#edf6ff" />
<rect x="126" y="132" width="14" height="6" fill="#62707c" />
<rect x="202" y="132" width="18" height="6" fill="#62707c" />
<rect x="156" y="140" width="10" height="16" fill="#62707c" />
<polygon points="152,140 160,154 170,154 164,140" fill="#62707c" />
<rect x="146" y="138" width="18" height="2" fill="#0b1320" />
<polygon points="102,176 126,162 148,174 140,208 112,206" fill="#33441f" />
<polygon points="132,178 154,168 174,184 170,212 144,212" fill="#61773f" />
<rect x="110" y="180" width="12" height="6" fill="#33441f" />
<rect x="126" y="188" width="10" height="5" fill="#8aa05b" />
<rect x="114" y="202" width="14" height="6" fill="#dad3c2" />
<rect x="124" y="214" width="12" height="6" fill="#33441f" />
<rect x="108" y="220" width="10" height="5" fill="#8aa05b" />
<rect x="142" y="184" width="12" height="6" fill="#8aa05b" />
<rect x="158" y="192" width="10" height="5" fill="#dad3c2" />
<rect x="146" y="206" width="14" height="6" fill="#33441f" />
<rect x="156" y="218" width="12" height="6" fill="#8aa05b" />
<rect x="140" y="224" width="10" height="5" fill="#dad3c2" />
<rect x="100" y="212" width="44" height="12" fill="#0b1320" />
<rect x="101" y="213" width="42" height="10" fill="#101a2a" />
<rect x="101" y="213" width="42" height="1" fill="#33441f" />
<rect x="101" y="213" width="1" height="10" fill="#33441f" />
<rect x="101" y="222" width="42" height="1" fill="#0b1320" />
<rect x="142" y="213" width="1" height="10" fill="#0b1320" />
<rect x="136" y="216" width="42" height="12" fill="#0b1320" />
<rect x="137" y="217" width="40" height="10" fill="#101a2a" />
<rect x="137" y="217" width="40" height="1" fill="#33441f" />
<rect x="137" y="217" width="1" height="10" fill="#33441f" />
<rect x="137" y="226" width="40" height="1" fill="#0b1320" />
<rect x="176" y="217" width="1" height="10" fill="#0b1320" />
<rect x="124" y="108" width="7" height="3" fill="#142033" />
<rect x="122" y="105" width="9" height="2" fill="#0b1320" />
<rect x="126" y="118" width="10" height="4" fill="#6e5140" />
</svg>
