<?xml version="1.0" encoding="UTF-8"?>
<svg xmlns="http://www.w3.org/2000/svg" width="256" height="256" viewBox="0 0 256 256" shape-rendering="crispEdges">
<rect x="82" y="86" width="96" height="100" fill="#0b1320" />
<rect x="83" y="87" width="94" height="98" fill="#325eb7" />
<rect x="83" y="87" width="94" height="1" fill="#4f7fd9" />
<rect x="83" y="87" width="1" height="98" fill="#4f7fd9" />
<rect x="83" y="184" width="94" height="1" fill="#233f7d" />
<rect x="176" y="87" width="1" height="98" fill="#233f7d" />
<rect x="90" y="96" width="80" height="24" fill="#4f7fd9" />
<rect x="95" y="98" width="1" height="1" fill="#325eb7" />
<rect x="101" y="98" width="1" height="1" fill="#325eb7" />
<rect x="107" y="98" width="1" height="1" fill="#325eb7" />
<rect x="113" y="98" width="1" height="1" fill="#325eb7" />
<rect x="119" y="98" width="1" height="1" fill="#325eb7" />
<rect x="125" y="98" width="1" height="1" fill="#325eb7" />
<rect x="131" y="98" width="1" height="1" fill="#325eb7" />
<rect x="137" y="98" width="1" height="1" fill="#325eb7" />
<rect x="143" y="98" width="1" height="1" fill="#325eb7" />
<rect x="149" y="98" width="1" height="1" fill="#325eb7" />
<rect x="155" y="98" width="1" height="1" fill="#325eb7" />
<rect x="161" y="98" width="1" height="1" fill="#325eb7" />
<rect x="167" y="98" width="1" height="1" fill="#325eb7" />
<rect x="92" y="101" width="1" height="1" fill="#325eb7" />
<rect x="98" y="101" width="1" height="1" fill="#325eb7" />
<rect x="104" y="101" width="1" height="1" fill="#325eb7" />
<rect x="110" y="101" width="1" height="1" fill="#325eb7" />
<rect x="116" y="101" width="1" height="1" fill="#325eb7" />
<rect x="122" y="101" width="1" height="1" fill="#325eb7" />
<rect x="128" y="101" width="1" height="1" fill="#325eb7" />
<rect x="134" y="101" width="1" height="1" fill="#325eb7" />
<rect x="140" y="101" width="1" height="1" fill="#325eb7" />
<rect x="146" y="101" width="1" height="1" fill="#325eb7" />
<rect x="152" y="101" width="1" height="1" fill="#325eb7" />
<rect x="158" y="101" width="1" height="1" fill="#325eb7" />
<rect x="164" y="101" width="1" height="1" fill="#325eb7" />
<rect x="95" y="104" width="1" height="1" fill="#325eb7" />
<rect x="101" y="104" width="1" height="1" fill="#325eb7" />
<rect x="107" y="104" width="1" height="1" fill="#325eb7" />
<rect x="113" y="104" width="1" height="1" fill="#325eb7" />
<rect x="119" y="104" width="1" height="1" fill="#325eb7" />
<rect x="125" y="104" width="1" height="1" fill="#325eb7" />
<rect x="131" y="104" width="1" height="1" fill="#325eb7" />
<rect x="137" y="104" width="1" height="1" fill="#325eb7" />
<rect x="143" y="104" width="1" height="1" fill="#325eb7" />
<rect x="149" y="104" width="1" height="1" fill="#325eb7" />
<rect x="155" y="104" width="1" height="1" fill="#325eb7" />
<rect x="161" y="104" width="1" height="1" fill="#325eb7" />
<rect x="167" y="104" width="1" height="1" fill="#325eb7" />
<rect x="92" y="107" width="1" height="1" fill="#325eb7" />
<rect x="98" y="107" width="1" height="1" fill="#325eb7" />
<rect x="104" y="107" width="1" height="1" fill="#325eb7" />
<rect x="110" y="107" width="1" height="1" fill="#325eb7" />
<rect x="116" y="107" width="1" height="1" fill="#325eb7" />
<rect x="122" y="107" width="1" height="1" fill="#325eb7" />
<rect x="128" y="107" width="1" height="1" fill="#325eb7" />
<rect x="134" y="107" width="1" height="1" fill="#325eb7" />
<rect x="140" y="107" width="1" height="1" fill="#325eb7" />
<rect x="146" y="107" width="1" height="1" fill="#325eb7" />
<rect x="152" y="107" width="1" height="1" fill="#325eb7" />
<rect x="158" y="107" width="1" height="1" fill="#325eb7" />
<rect x="164" y="107" width="1" height="1" fill="#325eb7" />
<rect x="95" y="110" width="1" height="1" fill="#325eb7" />
<rect x="101" y="110" width="1" height="1" fill="#325eb7" />
<rect x="107" y="110" width="1" height="1" fill="#325eb7" />
<rect x="113" y="110" width="1" height="1" fill="#325eb7" />
<rect x="119" y="110" width="1" height="1" fill="#325eb7" />
<rect x="125" y="110" width="1" height="1" fill="#325eb7" />
<rect x="131" y="110" width="1" height="1" fill="#325eb7" />
<rect x="137" y="110" width="1" height="1" fill="#325eb7" />
<rect x="143" y="110" width="1" height="1" fill="#325eb7" />
<rect x="149" y="110" width="1" height="1" fill="#325eb7" />
<rect x="155" y="110" width="1" height="1" fill="#325eb7" />
<rect x="161" y="110" width="1" height="1" fill="#325eb7" />
<rect x="167" y="110" width="1" height="1" fill="#325eb7" />
<rect x="92" y="113" width="1" height="1" fill="#325eb7" />
<rect x="98" y="113" width="1" height="1" fill="#325eb7" />
<rect x="104" y="113" width="1" height="1" fill="#325eb7" />
<rect x="110" y="113" width="1" height="1" fill="#325eb7" />
<rect x="116" y="113" width="1" height="1" fill="#325eb7" />
<rect x="122" y="113" width="1" height="1" fill="#325eb7" />
<rect x="128" y="113" width="1" height="1" fill="#325eb7" />
<rect x="134" y="113" width="1" height="1" fill="#325eb7" />
<rect x="140" y="113" width="1" height="1" fill="#325eb7" />
<rect x="146" y="113" width="1" height="1" fill="#325eb7" />
<rect x="152" y="113" width="1" height="1" fill="#325eb7" />
<rect x="158" y="113" width="1" height="1" fill="#325eb7" />
<rect x="164" y="113" width="1" height="1" fill="#325eb7" />
<rect x="95" y="116" width="1" height="1" fill="#325eb7" />
<rect x="101" y="116" width="1" height="1" fill="#325eb7" />
<rect x="107" y="116" width="1" height="1" fill="#325eb7" />
<rect x="113" y="116" width="1" height="1" fill="#325eb7" />
<rect x="119" y="116" width="1" height="1" fill="#325eb7" />
<rect x="125" y="116" width="1" height="1" fill="#325eb7" />
<rect x="131" y="116" width="1" height="1" fill="#325eb7" />
<rect x="137" y="116" width="1" height="1" fill="#325eb7" />
<rect x="143" y="116" width="1" height="1" fill="#325eb7" />
<rect x="149" y="116" width="1" height="1" fill="#325eb7" />
<rect x="155" y="116" width="1" height="1" fill="#325eb7" />
<rect x="161" y="116" width="1" height="1" fill="#325eb7" />
<rect x="167" y="116" width="1" height="1" fill="#325eb7" />
<rect x="96" y="128" width="68" height="1" fill="#233f7d" />
<rect x="96" y="134" width="68" height="1" fill="#233f7d" />
<rect x="96" y="140" width="68" height="1" fill="#233f7d" />
<rect x="96" y="146" width="68" height="1" fill="#233f7d" />
<rect x="98" y="152" width="64" height="10" fill="#2a3a58" />
<rect x="102" y="160" width="56" height="8" fill="#233f7d" />
<circle cx="104" cy="166" r="1.1" fill="#4f7fd9" />
<circle cx="116" cy="166" r="1.1" fill="#4f7fd9" />
<circle cx="128" cy="166" r="1.1" fill="#4f7fd9" />
<circle cx="140" cy="166" r="1.1" fill="#4f7fd9" />
<circle cx="152" cy="166" r="1.1" fill="#4f7fd9" />
<rect x="98" y="62" width="64" height="38" fill="#0b1320" />
<rect x="99" y="63" width="62" height="36" fill="#e5edf8" />
<rect x="99" y="63" width="62" height="1" fill="#f5fbff" />
<rect x="99" y="63" width="1" height="36" fill="#f5fbff" />
<rect x="99" y="98" width="62" height="1" fill="#c4d0de" />
<rect x="160" y="63" width="1" height="36" fill="#c4d0de" />
<rect x="92" y="54" width="76" height="10" fill="#d74453" />
<rect x="98" y="52" width="64" height="2" fill="#0b1320" />
<rect x="96" y="70" width="68" height="3" fill="#0b1320" />
<circle cx="102" cy="64" r="1.2" fill="#4f7fd9" />
<circle cx="112" cy="64" r="1.2" fill="#4f7fd9" />
<circle cx="122" cy="64" r="1.2" fill="#4f7fd9" />
<circle cx="132" cy="64" r="1.2" fill="#4f7fd9" />
<circle cx="142" cy="64" r="1.2" fill="#4f7fd9" />
<circle cx="152" cy="64" r="1.2" fill="#4f7fd9" />
<rect x="74" y="94" width="16" height="64" fill="#0b1320" />
<rect x="75" y="95" width="14" height="62" fill="#2a3a58" />
<rect x="75" y="95" width="14" height="1" fill="#4f7fd9" />
<rect x="75" y="95" width="1" height="62" fill="#4f7fd9" />
<rect x="75" y="156" width="14" height="1" fill="#233f7d" />
<rect x="88" y="95" width="1" height="62" fill="#233f7d" />
<rect x="170" y="90" width="16" height="64" fill="#0b1320" />
<rect x="171" y="91" width="14" height="62" fill="#2a3a58" />
<rect x="171" y="91" width="14" height="1" fill="#4f7fd9" />
<rect x="171" y="91" width="1" height="62" fill="#4f7fd9" />
<rect x="171" y="152" width="14" height="1" fill="#233f7d" />
<rect x="184" y="91" width="1" height="62" fill="#233f7d" />
<rect x="76" y="102" width="12" height="6" fill="#4f7fd9" />
<rect x="172" y="98" width="12" height="6" fill="#4f7fd9" />
<rect x="76" y="118" width="12" height="6" fill="#233f7d" />
<rect x="172" y="114" width="12" height="6" fill="#233f7d" />
<rect x="72" y="94" width="20" height="8" fill="#0b1320" />
<rect x="168" y="90" width="20" height="8" fill="#0b1320" />
<rect x="86" y="180" width="34" height="66" fill="#0b1320" />
<rect x="87" y="181" width="32" height="64" fill="#1f2d49" />
<rect x="87" y="181" width="32" height="1" fill="#4f7fd9" />
<rect x="87" y="181" width="1" height="64" fill="#4f7fd9" />
<rect x="87" y="244" width="32" height="1" fill="#101a2a" />
<rect x="118" y="181" width="1" height="64" fill="#101a2a" />
<rect x="136" y="180" width="34" height="66" fill="#0b1320" />
<rect x="137" y="181" width="32" height="64" fill="#1f2d49" />
<rect x="137" y="181" width="32" height="1" fill="#4f7fd9" />
<rect x="137" y="181" width="1" height="64" fill="#4f7fd9" />
<rect x="137" y="244" width="32" height="1" fill="#101a2a" />
<rect x="168" y="181" width="1" height="64" fill="#101a2a" />
<rect x="90" y="184" width="1" height="1" fill="#233f7d" />
<rect x="96" y="184" width="1" height="1" fill="#233f7d" />
<rect x="102" y="184" width="1" height="1" fill="#233f7d" />
<rect x="108" y="184" width="1" height="1" fill="#233f7d" />
<rect x="114" y="184" width="1" height="1" fill="#233f7d" />
<rect x="93" y="187" width="1" height="1" fill="#233f7d" />
<rect x="99" y="187" width="1" height="1" fill="#233f7d" />
<rect x="105" y="187" width="1" height="1" fill="#233f7d" />
<rect x="111" y="187" width="1" height="1" fill="#233f7d" />
<rect x="90" y="190" width="1" height="1" fill="#233f7d" />
<rect x="96" y="190" width="1" height="1" fill="#233f7d" />
<rect x="102" y="190" width="1" height="1" fill="#233f7d" />
<rect x="108" y="190" width="1" height="1" fill="#233f7d" />
<rect x="114" y="190" width="1" height="1" fill="#233f7d" />
<rect x="93" y="193" width="1" height="1" fill="#233f7d" />
<rect x="99" y="193" width="1" height="1" fill="#233f7d" />
<rect x="105" y="193" width="1" height="1" fill="#233f7d" />
<rect x="111" y="193" width="1" height="1" fill="#233f7d" />
<rect x="90" y="196" width="1" height="1" fill="#233f7d" />
<rect x="96" y="196" width="1" height="1" fill="#233f7d" />
<rect x="102" y="196" width="1" height="1" fill="#233f7d" />
<rect x="108" y="196" width="1" height="1" fill="#233f7d" />
<rect x="114" y="196" width="1" height="1" fill="#233f7d" />
<rect x="93" y="199" width="1" height="1" fill="#233f7d" />
<rect x="99" y="199" width="1" height="1" fill="#233f7d" />
<rect x="105" y="199" width="1" height="1" fill="#233f7d" />
<rect x="111" y="199" width="1" height="1" fill="#233f7d" />
<rect x="90" y="202" width="1" height="1" fill="#233f7d" />
<rect x="96" y="202" width="1" height="1" fill="#233f7d" />
<rect x="102" y="202" width="1" height="1" fill="#233f7d" />
<rect x="108" y="202" width="1" height="1" fill="#233f7d" />
<rect x="114" y="202" width="1" height="1" fill="#233f7d" />
<rect x="93" y="205" width="1" height="1" fill="#233f7d" />
<rect x="99" y="205" width="1" height="1" fill="#233f7d" />
<rect x="105" y="205" width="1" height="1" fill="#233f7d" />
<rect x="111" y="205" width="1" height="1" fill="#233f7d" />
<rect x="90" y="208" width="1" height="1" fill="#233f7d" />
<rect x="96" y="208" width="1" height="1" fill="#233f7d" />
<rect x="102" y="208" width="1" height="1" fill="#233f7d" />
<rect x="108" y="208" width="1" height="1" fill="#233f7d" />
<rect x="114" y="208" width="1" height="1" fill="#233f7d" />
<rect x="93" y="211" width="1" height="1" fill="#233f7d" />
<rect x="99" y="211" width="1" height="1" fill="#233f7d" />
<rect x="105" y="211" width="1" height="1" fill="#233f7d" />
<rect x="111" y="211" width="1" height="1" fill="#233f7d" />
<rect x="90" y="214" width="1" height="1" fill="#233f7d" />
<rect x="96" y="214" width="1" height="1" fill="#233f7d" />
<rect x="102" y="214" width="1" height="1" fill="#233f7d" />
<rect x="108" y="214" width="1" height="1" fill="#233f7d" />
<rect x="114" y="214" width="1" height="1" fill="#233f7d" />
<rect x="93" y="217" width="1" height="1" fill="#233f7d" />
<rect x="99" y="217" width="1" height="1" fill="#233f7d" />
<rect x="105" y="217" width="1" height="1" fill="#233f7d" />
<rect x="111" y="217" width="1" height="1" fill="#233f7d" />
<rect x="90" y="220" width="1" height="1" fill="#233f7d" />
<rect x="96" y="220" width="1" height="1" fill="#233f7d" />
<rect x="102" y="220" width="1" height="1" fill="#233f7d" />
<rect x="108" y="220" width="1" height="1" fill="#233f7d" />
<rect x="114" y="220" width="1" height="1" fill="#233f7d" />
<rect x="93" y="223" width="1" height="1" fill="#233f7d" />
<rect x="99" y="223" width="1" height="1" fill="#233f7d" />
<rect x="105" y="223" width="1" height="1" fill="#233f7d" />
<rect x="111" y="223" width="1" height="1" fill="#233f7d" />
<rect x="90" y="226" width="1" height="1" fill="#233f7d" />
<rect x="96" y="226" width="1" height="1" fill="#233f7d" />
<rect x="102" y="226" width="1" height="1" fill="#233f7d" />
<rect x="108" y="226" width="1" height="1" fill="#233f7d" />
<rect x="114" y="226" width="1" height="1" fill="#233f7d" />
<rect x="143" y="184" width="1" height="1" fill="#233f7d" />
<rect x="149" y="184" width="1" height="1" fill="#233f7d" />
<rect x="155" y="184" width="1" height="1" fill="#233f7d" />
<rect x="161" y="184" width="1" height="1" fill="#233f7d" />
<rect x="140" y="187" width="1" height="1" fill="#233f7d" />
<rect x="146" y="187" width="1" height="1" fill="#233f7d" />
<rect x="152" y="187" width="1" height="1" fill="#233f7d" />
<rect x="158" y="187" width="1" height="1" fill="#233f7d" />
<rect x="164" y="187" width="1" height="1" fill="#233f7d" />
<rect x="143" y="190" width="1" height="1" fill="#233f7d" />
<rect x="149" y="190" width="1" height="1" fill="#233f7d" />
<rect x="155" y="190" width="1" height="1" fill="#233f7d" />
<rect x="161" y="190" width="1" height="1" fill="#233f7d" />
<rect x="140" y="193" width="1" height="1" fill="#233f7d" />
<rect x="146" y="193" width="1" height="1" fill="#233f7d" />
<rect x="152" y="193" width="1" height="1" fill="#233f7d" />
<rect x="158" y="193" width="1" height="1" fill="#233f7d" />
<rect x="164" y="193" width="1" height="1" fill="#233f7d" />
<rect x="143" y="196" width="1" height="1" fill="#233f7d" />
<rect x="149" y="196" width="1" height="1" fill="#233f7d" />
<rect x="155" y="196" width="1" height="1" fill="#233f7d" />
<rect x="161" y="196" width="1" height="1" fill="#233f7d" />
<rect x="140" y="199" width="1" height="1" fill="#233f7d" />
<rect x="146" y="199" width="1" height="1" fill="#233f7d" />
<rect x="152" y="199" width="1" height="1" fill="#233f7d" />
<rect x="158" y="199" width="1" height="1" fill="#233f7d" />
<rect x="164" y="199" width="1" height="1" fill="#233f7d" />
<rect x="143" y="202" width="1" height="1" fill="#233f7d" />
<rect x="149" y="202" width="1" height="1" fill="#233f7d" />
<rect x="155" y="202" width="1" height="1" fill="#233f7d" />
<rect x="161" y="202" width="1" height="1" fill="#233f7d" />
<rect x="140" y="205" width="1" height="1" fill="#233f7d" />
<rect x="146" y="205" width="1" height="1" fill="#233f7d" />
<rect x="152" y="205" width="1" height="1" fill="#233f7d" />
<rect x="158" y="205" width="1" height="1" fill="#233f7d" />
<rect x="164" y="205" width="1" height="1" fill="#233f7d" />
<rect x="143" y="208" width="1" height="1" fill="#233f7d" />
<rect x="149" y="208" width="1" height="1" fill="#233f7d" />
<rect x="155" y="208" width="1" height="1" fill="#233f7d" />
<rect x="161" y="208" width="1" height="1" fill="#233f7d" />
<rect x="140" y="211" width="1" height="1" fill="#233f7d" />
<rect x="146" y="211" width="1" height="1" fill="#233f7d" />
<rect x="152" y="211" width="1" height="1" fill="#233f7d" />
<rect x="158" y="211" width="1" height="1" fill="#233f7d" />
<rect x="164" y="211" width="1" height="1" fill="#233f7d" />
<rect x="143" y="214" width="1" height="1" fill="#233f7d" />
<rect x="149" y="214" width="1" height="1" fill="#233f7d" />
<rect x="155" y="214" width="1" height="1" fill="#233f7d" />
<rect x="161" y="214" width="1" height="1" fill="#233f7d" />
<rect x="140" y="217" width="1" height="1" fill="#233f7d" />
<rect x="146" y="217" width="1" height="1" fill="#233f7d" />
<rect x="152" y="217" width="1" height="1" fill="#233f7d" />
<rect x="158" y="217" width="1" height="1" fill="#233f7d" />
<rect x="164" y="217" width="1" height="1" fill="#233f7d" />
<rect x="143" y="220" width="1" height="1" fill="#233f7d" />
<rect x="149" y="220" width="1" height="1" fill="#233f7d" />
<rect x="155" y="220" width="1" height="1" fill="#233f7d" />
<rect x="161" y="220" width="1" height="1" fill="#233f7d" />
<rect x="140" y="223" width="1" height="1" fill="#233f7d" />
<rect x="146" y="223" width="1" height="1" fill="#233f7d" />
<rect x="152" y="223" width="1" height="1" fill="#233f7d" />
<rect x="158" y="223" width="1" height="1" fill="#233f7d" />
<rect x="164" y="223" width="1" height="1" fill="#233f7d" />
<rect x="143" y="226" width="1" height="1" fill="#233f7d" />
<rect x="149" y="226" width="1" height="1" fill="#233f7d" />
<rect x="155" y="226" width="1" height="1" fill="#233f7d" />
<rect x="161" y="226" width="1" height="1" fill="#233f7d" />
<rect x="92" y="192" width="22" height="1" fill="#101a2a" />
<rect x="92" y="201" width="22" height="1" fill="#101a2a" />
<rect x="92" y="210" width="22" height="1" fill="#101a2a" />
<rect x="92" y="219" width="22" height="1" fill="#101a2a" />
<rect x="142" y="192" width="22" height="1" fill="#101a2a" />
<rect x="142" y="201" width="22" height="1" fill="#101a2a" />
<rect x="142" y="210" width="22" height="1" fill="#101a2a" />
<rect x="142" y="219" width="22" height="1" fill="#101a2a" />
<rect x="90" y="204" width="26" height="8" fill="#233f7d" />
<rect x="140" y="204" width="26" height="8" fill="#233f7d" />
<rect x="78" y="238" width="52" height="14" fill="#0b1320" />
<rect x="79" y="239" width="50" height="12" fill="#101a2a" />
<rect x="79" y="239" width="50" height="1" fill="#233f7d" />
<rect x="79" y="239" width="1" height="12" fill="#233f7d" />
<rect x="79" y="250" width="50" height="1" fill="#0b1320" />
<rect x="128" y="239" width="1" height="12" fill="#0b1320" />
<rect x="132" y="238" width="52" height="14" fill="#0b1320" />
<rect x="133" y="239" width="50" height="12" fill="#101a2a" />
<rect x="133" y="239" width="50" height="1" fill="#233f7d" />
<rect x="133" y="239" width="1" height="12" fill="#233f7d" />
<rect x="133" y="250" width="50" height="1" fill="#0b1320" />
<rect x="182" y="239" width="1" height="12" fill="#0b1320" />
<circle cx="82" cy="244" r="1.1" fill="#2a3a58" />
<circle cx="88" cy="244" r="1.1" fill="#2a3a58" />
<circle cx="94" cy="244" r="1.1" fill="#2a3a58" />
<circle cx="100" cy="244" r="1.1" fill="#2a3a58" />
<circle cx="106" cy="244" r="1.1" fill="#2a3a58" />
<circle cx="112" cy="244" r="1.1" fill="#2a3a58" />
<circle cx="118" cy="244" r="1.1" fill="#2a3a58" />
<circle cx="124" cy="244" r="1.1" fill="#2a3a58" />
<circle cx="136" cy="244" r="1.1" fill="#2a3a58" />
<circle cx="142" cy="244" r="1.1" fill="#2a3a58" />
<circle cx="148" cy="244" r="1.1" fill="#2a3a58" />
<circle cx="154" cy="244" r="1.1" fill="#2a3a58" />
<circle cx="160" cy="244" r="1.1" fill="#2a3a58" />
<circle cx="166" cy="244" r="1.1" fill="#2a3a58" />
<circle cx="172" cy="244" r="1.1" fill="#2a3a58" />
<circle cx="178" cy="244" r="1.1" fill="#2a3a58" />
<rect x="154" y="158" width="60" height="12" fill="#0b1320" />
<rect x="155" y="159" width="58" height="10" fill="#d3deee" />
<rect x="155" y="159" width="58" height="1" fill="#f1f7ff" />
<rect x="155" y="159" width="1" height="10" fill="#f1f7ff" />
<rect x="155" y="168" width="58" height="1" fill="#7485a4" />
<rect x="212" y="159" width="1" height="10" fill="#7485a4" />
<rect x="156" y="160" width="56" height="4" fill="#7485a4" />
<rect x="202" y="160" width="26" height="8" fill="#7485a4" />
<rect x="154" y="168" width="54" height="2" fill="#0b1320" />
<circle cx="162" cy="162" r="1" fill="#4f7fd9" />
<circle cx="174" cy="162" r="1" fill="#4f7fd9" />
<circle cx="186" cy="162" r="1" fill="#4f7fd9" />
<circle cx="198" cy="162" r="1" fill="#4f7fd9" />
<rect x="108" y="78" width="14" height="6" fill="#142033" />
<rect x="138" y="78" width="14" height="6" fill="#142033" />
<rect x="122" y="82" width="14" height="4" fill="#87e4ff" />
<rect x="114" y="78" width="2" height="6" fill="#c4d0de" />
<rect x="144" y="78" width="2" height="6" fill="#c4d0de" />
<rect x="92" y="198" width="30" height="34" fill="#1f2d49" />
<rect x="138" y="188" width="30" height="34" fill="#1f2d49" />
<rect x="92" y="222" width="28" height="10" fill="#101a2a" />
<rect x="140" y="216" width="28" height="10" fill="#101a2a" />
</svg>
