<?xml version="1.0" encoding="UTF-8"?>
<svg xmlns="http://www.w3.org/2000/svg" width="256" height="256" viewBox="0 0 256 256" shape-rendering="crispEdges">
<polygon points="98,59 134,55 148,65 146,87 118,93 104,83" fill="#0b1320" />
<polygon points="100,61 132,57 144,65 142,85 118,91 106,81" fill="#cb9975" />
<polygon points="98,53 134,49 150,56 142,61 106,59" fill="#9b4f4f" />
<polygon points="94,61 106,59 104,79 92,75" fill="#4a2b1f" />
<rect x="110" y="89" width="10" height="8" fill="#996846" />
<rect x="120" y="89" width="6" height="4" fill="#cb9975" />
<rect x="114" y="68" width="8" height="2" fill="#0b1320" />
<rect x="118" y="71" width="6" height="4" fill="#142033" />
<rect x="116" y="81" width="12" height="4" fill="#6e5140" />
<rect x="134" y="73" width="8" height="2" fill="#996846" />
<polygon points="98,105 136,97 156,107 160,149 108,157" fill="#0b1320" />
<polygon points="102,107 134,101 152,109 156,147 110,153" fill="#dad3c2" />
<rect x="106" y="109" width="26" height="10" fill="#f3ecdb" />
<rect x="108" y="123" width="36" height="3" fill="#8f8878" />
<rect x="110" y="131" width="40" height="3" fill="#8f8878" />
<rect x="108" y="115" width="6" height="22" fill="#cb9975" />
<rect x="132" y="111" width="6" height="18" fill="#cb9975" />
<polygon points="112,105 120,103 132,131 124,133" fill="#88724a" />
<rect x="122" y="137" width="14" height="10" fill="#2a3a58" />
<polygon points="98,117 110,115 112,147 100,151" fill="#cb9975" />
<rect x="100" y="125" width="7" height="20" fill="#8f8878" />
<rect x="96" y="147" width="10" height="6" fill="#cb9975" />
<polygon points="130,115 144,117 124,120 116,120" fill="#cb9975" />
<polygon points="138,131 150,131 128,128 122,132" fill="#8f8878" />
<rect x="120" y="119" width="7" height="7" fill="#cb9975" />
<rect x="150" y="118" width="7" height="7" fill="#cb9975" />
<rect x="132" y="114" width="74" height="10" fill="#0b1320" />
<rect x="133" y="115" width="72" height="8" fill="#a8b2bf" />
<rect x="133" y="115" width="72" height="1" fill="#f3f8ff" />
<rect x="133" y="115" width="1" height="8" fill="#f3f8ff" />
<rect x="133" y="122" width="72" height="1" fill="#62707c" />
<rect x="204" y="115" width="1" height="8" fill="#62707c" />
<rect x="138" y="116" width="62" height="2" fill="#edf6ff" />
<rect x="122" y="116" width="14" height="6" fill="#62707c" />
<rect x="200" y="116" width="18" height="6" fill="#62707c" />
<rect x="152" y="124" width="10" height="16" fill="#62707c" />
<polygon points="148,124 156,138 166,138 160,124" fill="#62707c" />
<rect x="142" y="122" width="18" height="2" fill="#0b1320" />
<rect x="98" y="158" width="20" height="60" fill="#0b1320" />
<rect x="99" y="159" width="18" height="58" fill="#33441f" />
<rect x="99" y="159" width="18" height="1" fill="#8aa05b" />
<rect x="99" y="159" width="1" height="58" fill="#8aa05b" />
<rect x="99" y="216" width="18" height="1" fill="#101a2a" />
<rect x="116" y="159" width="1" height="58" fill="#101a2a" />
<rect x="123" y="153" width="22" height="62" fill="#0b1320" />
<rect x="124" y="154" width="20" height="60" fill="#61773f" />
<rect x="124" y="154" width="20" height="1" fill="#8aa05b" />
<rect x="124" y="154" width="1" height="60" fill="#8aa05b" />
<rect x="124" y="213" width="20" height="1" fill="#101a2a" />
<rect x="143" y="154" width="1" height="60" fill="#101a2a" />
<rect x="103" y="166" width="12" height="6" fill="#33441f" />
<rect x="119" y="174" width="10" height="5" fill="#8aa05b" />
<rect x="107" y="188" width="14" height="6" fill="#dad3c2" />
<rect x="117" y="200" width="12" height="6" fill="#33441f" />
<rect x="101" y="206" width="10" height="5" fill="#8aa05b" />
<rect x="128" y="165" width="12" height="6" fill="#8aa05b" />
<rect x="144" y="173" width="10" height="5" fill="#dad3c2" />
<rect x="132" y="187" width="14" height="6" fill="#33441f" />
<rect x="142" y="199" width="12" height="6" fill="#8aa05b" />
<rect x="126" y="205" width="10" height="5" fill="#dad3c2" />
<rect x="104" y="188" width="10" height="8" fill="#8f8878" />
<rect x="131" y="179" width="10" height="8" fill="#8f8878" />
<rect x="94" y="237" width="34" height="12" fill="#0b1320" />
<rect x="95" y="238" width="32" height="10" fill="#101a2a" />
<rect x="95" y="238" width="32" height="1" fill="#33441f" />
<rect x="95" y="238" width="1" height="10" fill="#33441f" />
<rect x="95" y="247" width="32" height="1" fill="#0b1320" />
<rect x="126" y="238" width="1" height="10" fill="#0b1320" />
<rect x="119" y="236" width="40" height="12" fill="#0b1320" />
<rect x="120" y="237" width="38" height="10" fill="#101a2a" />
<rect x="120" y="237" width="38" height="1" fill="#33441f" />
<rect x="120" y="237" width="1" height="10" fill="#33441f" />
<rect x="120" y="246" width="38" height="1" fill="#0b1320" />
<rect x="157" y="237" width="1" height="10" fill="#0b1320" />
</svg>
