<?xml version="1.0" encoding="UTF-8"?>
<svg xmlns="http://www.w3.org/2000/svg" width="256" height="256" viewBox="0 0 256 256" shape-rendering="crispEdges">
<rect x="83" y="91" width="96" height="100" fill="#0b1320" />
<rect x="84" y="92" width="94" height="98" fill="#325eb7" />
<rect x="84" y="92" width="94" height="1" fill="#4f7fd9" />
<rect x="84" y="92" width="1" height="98" fill="#4f7fd9" />
<rect x="84" y="189" width="94" height="1" fill="#233f7d" />
<rect x="177" y="92" width="1" height="98" fill="#233f7d" />
<rect x="91" y="101" width="80" height="24" fill="#4f7fd9" />
<rect x="96" y="103" width="1" height="1" fill="#325eb7" />
<rect x="102" y="103" width="1" height="1" fill="#325eb7" />
<rect x="108" y="103" width="1" height="1" fill="#325eb7" />
<rect x="114" y="103" width="1" height="1" fill="#325eb7" />
<rect x="120" y="103" width="1" height="1" fill="#325eb7" />
<rect x="126" y="103" width="1" height="1" fill="#325eb7" />
<rect x="132" y="103" width="1" height="1" fill="#325eb7" />
<rect x="138" y="103" width="1" height="1" fill="#325eb7" />
<rect x="144" y="103" width="1" height="1" fill="#325eb7" />
<rect x="150" y="103" width="1" height="1" fill="#325eb7" />
<rect x="156" y="103" width="1" height="1" fill="#325eb7" />
<rect x="162" y="103" width="1" height="1" fill="#325eb7" />
<rect x="168" y="103" width="1" height="1" fill="#325eb7" />
<rect x="93" y="106" width="1" height="1" fill="#325eb7" />
<rect x="99" y="106" width="1" height="1" fill="#325eb7" />
<rect x="105" y="106" width="1" height="1" fill="#325eb7" />
<rect x="111" y="106" width="1" height="1" fill="#325eb7" />
<rect x="117" y="106" width="1" height="1" fill="#325eb7" />
<rect x="123" y="106" width="1" height="1" fill="#325eb7" />
<rect x="129" y="106" width="1" height="1" fill="#325eb7" />
<rect x="135" y="106" width="1" height="1" fill="#325eb7" />
<rect x="141" y="106" width="1" height="1" fill="#325eb7" />
<rect x="147" y="106" width="1" height="1" fill="#325eb7" />
<rect x="153" y="106" width="1" height="1" fill="#325eb7" />
<rect x="159" y="106" width="1" height="1" fill="#325eb7" />
<rect x="165" y="106" width="1" height="1" fill="#325eb7" />
<rect x="96" y="109" width="1" height="1" fill="#325eb7" />
<rect x="102" y="109" width="1" height="1" fill="#325eb7" />
<rect x="108" y="109" width="1" height="1" fill="#325eb7" />
<rect x="114" y="109" width="1" height="1" fill="#325eb7" />
<rect x="120" y="109" width="1" height="1" fill="#325eb7" />
<rect x="126" y="109" width="1" height="1" fill="#325eb7" />
<rect x="132" y="109" width="1" height="1" fill="#325eb7" />
<rect x="138" y="109" width="1" height="1" fill="#325eb7" />
<rect x="144" y="109" width="1" height="1" fill="#325eb7" />
<rect x="150" y="109" width="1" height="1" fill="#325eb7" />
<rect x="156" y="109" width="1" height="1" fill="#325eb7" />
<rect x="162" y="109" width="1" height="1" fill="#325eb7" />
<rect x="168" y="109" width="1" height="1" fill="#325eb7" />
<rect x="93" y="112" width="1" height="1" fill="#325eb7" />
<rect x="99" y="112" width="1" height="1" fill="#325eb7" />
<rect x="105" y="112" width="1" height="1" fill="#325eb7" />
<rect x="111" y="112" width="1" height="1" fill="#325eb7" />
<rect x="117" y="112" width="1" height="1" fill="#325eb7" />
<rect x="123" y="112" width="1" height="1" fill="#325eb7" />
<rect x="129" y="112" width="1" height="1" fill="#325eb7" />
<rect x="135" y="112" width="1" height="1" fill="#325eb7" />
<rect x="141" y="112" width="1" height="1" fill="#325eb7" />
<rect x="147" y="112" width="1" height="1" fill="#325eb7" />
<rect x="153" y="112" width="1" height="1" fill="#325eb7" />
<rect x="159" y="112" width="1" height="1" fill="#325eb7" />
<rect x="165" y="112" width="1" height="1" fill="#325eb7" />
<rect x="96" y="115" width="1" height="1" fill="#325eb7" />
<rect x="102" y="115" width="1" height="1" fill="#325eb7" />
<rect x="108" y="115" width="1" height="1" fill="#325eb7" />
<rect x="114" y="115" width="1" height="1" fill="#325eb7" />
<rect x="120" y="115" width="1" height="1" fill="#325eb7" />
<rect x="126" y="115" width="1" height="1" fill="#325eb7" />
<rect x="132" y="115" width="1" height="1" fill="#325eb7" />
<rect x="138" y="115" width="1" height="1" fill="#325eb7" />
<rect x="144" y="115" width="1" height="1" fill="#325eb7" />
<rect x="150" y="115" width="1" height="1" fill="#325eb7" />
<rect x="156" y="115" width="1" height="1" fill="#325eb7" />
<rect x="162" y="115" width="1" height="1" fill="#325eb7" />
<rect x="168" y="115" width="1" height="1" fill="#325eb7" />
<rect x="93" y="118" width="1" height="1" fill="#325eb7" />
<rect x="99" y="118" width="1" height="1" fill="#325eb7" />
<rect x="105" y="118" width="1" height="1" fill="#325eb7" />
<rect x="111" y="118" width="1" height="1" fill="#325eb7" />
<rect x="117" y="118" width="1" height="1" fill="#325eb7" />
<rect x="123" y="118" width="1" height="1" fill="#325eb7" />
<rect x="129" y="118" width="1" height="1" fill="#325eb7" />
<rect x="135" y="118" width="1" height="1" fill="#325eb7" />
<rect x="141" y="118" width="1" height="1" fill="#325eb7" />
<rect x="147" y="118" width="1" height="1" fill="#325eb7" />
<rect x="153" y="118" width="1" height="1" fill="#325eb7" />
<rect x="159" y="118" width="1" height="1" fill="#325eb7" />
<rect x="165" y="118" width="1" height="1" fill="#325eb7" />
<rect x="96" y="121" width="1" height="1" fill="#325eb7" />
<rect x="102" y="121" width="1" height="1" fill="#325eb7" />
<rect x="108" y="121" width="1" height="1" fill="#325eb7" />
<rect x="114" y="121" width="1" height="1" fill="#325eb7" />
<rect x="120" y="121" width="1" height="1" fill="#325eb7" />
<rect x="126" y="121" width="1" height="1" fill="#325eb7" />
<rect x="132" y="121" width="1" height="1" fill="#325eb7" />
<rect x="138" y="121" width="1" height="1" fill="#325eb7" />
<rect x="144" y="121" width="1" height="1" fill="#325eb7" />
<rect x="150" y="121" width="1" height="1" fill="#325eb7" />
<rect x="156" y="121" width="1" height="1" fill="#325eb7" />
<rect x="162" y="121" width="1" height="1" fill="#325eb7" />
<rect x="168" y="121" width="1" height="1" fill="#325eb7" />
<rect x="97" y="133" width="68" height="1" fill="#233f7d" />
<rect x="97" y="139" width="68" height="1" fill="#233f7d" />
<rect x="97" y="145" width="68" height="1" fill="#233f7d" />
<rect x="97" y="151" width="68" height="1" fill="#233f7d" />
<rect x="99" y="157" width="64" height="10" fill="#2a3a58" />
<rect x="103" y="165" width="56" height="8" fill="#233f7d" />
<circle cx="105" cy="171" r="1.1" fill="#4f7fd9" />
<circle cx="117" cy="171" r="1.1" fill="#4f7fd9" />
<circle cx="129" cy="171" r="1.1" fill="#4f7fd9" />
<circle cx="141" cy="171" r="1.1" fill="#4f7fd9" />
<circle cx="153" cy="171" r="1.1" fill="#4f7fd9" />
<rect x="99" y="67" width="64" height="38" fill="#0b1320" />
<rect x="100" y="68" width="62" height="36" fill="#e5edf8" />
<rect x="100" y="68" width="62" height="1" fill="#f5fbff" />
<rect x="100" y="68" width="1" height="36" fill="#f5fbff" />
<rect x="100" y="103" width="62" height="1" fill="#c4d0de" />
<rect x="161" y="68" width="1" height="36" fill="#c4d0de" />
<rect x="93" y="59" width="76" height="10" fill="#d74453" />
<rect x="99" y="57" width="64" height="2" fill="#0b1320" />
<rect x="97" y="75" width="68" height="3" fill="#0b1320" />
<circle cx="103" cy="69" r="1.2" fill="#4f7fd9" />
<circle cx="113" cy="69" r="1.2" fill="#4f7fd9" />
<circle cx="123" cy="69" r="1.2" fill="#4f7fd9" />
<circle cx="133" cy="69" r="1.2" fill="#4f7fd9" />
<circle cx="143" cy="69" r="1.2" fill="#4f7fd9" />
<circle cx="153" cy="69" r="1.2" fill="#4f7fd9" />
<rect x="75" y="101" width="16" height="64" fill="#0b1320" />
<rect x="76" y="102" width="14" height="62" fill="#2a3a58" />
<rect x="76" y="102" width="14" height="1" fill="#4f7fd9" />
<rect x="76" y="102" width="1" height="62" fill="#4f7fd9" />
<rect x="76" y="163" width="14" height="1" fill="#233f7d" />
<rect x="89" y="102" width="1" height="62" fill="#233f7d" />
<rect x="171" y="107" width="16" height="64" fill="#0b1320" />
<rect x="172" y="108" width="14" height="62" fill="#2a3a58" />
<rect x="172" y="108" width="14" height="1" fill="#4f7fd9" />
<rect x="172" y="108" width="1" height="62" fill="#4f7fd9" />
<rect x="172" y="169" width="14" height="1" fill="#233f7d" />
<rect x="185" y="108" width="1" height="62" fill="#233f7d" />
<rect x="77" y="109" width="12" height="6" fill="#4f7fd9" />
<rect x="173" y="115" width="12" height="6" fill="#4f7fd9" />
<rect x="77" y="125" width="12" height="6" fill="#233f7d" />
<rect x="173" y="131" width="12" height="6" fill="#233f7d" />
<rect x="73" y="101" width="20" height="8" fill="#0b1320" />
<rect x="169" y="107" width="20" height="8" fill="#0b1320" />
<rect x="87" y="171" width="34" height="66" fill="#0b1320" />
<rect x="88" y="172" width="32" height="64" fill="#1f2d49" />
<rect x="88" y="172" width="32" height="1" fill="#4f7fd9" />
<rect x="88" y="172" width="1" height="64" fill="#4f7fd9" />
<rect x="88" y="235" width="32" height="1" fill="#101a2a" />
<rect x="119" y="172" width="1" height="64" fill="#101a2a" />
<rect x="137" y="181" width="34" height="66" fill="#0b1320" />
<rect x="138" y="182" width="32" height="64" fill="#1f2d49" />
<rect x="138" y="182" width="32" height="1" fill="#4f7fd9" />
<rect x="138" y="182" width="1" height="64" fill="#4f7fd9" />
<rect x="138" y="245" width="32" height="1" fill="#101a2a" />
<rect x="169" y="182" width="1" height="64" fill="#101a2a" />
<rect x="91" y="175" width="1" height="1" fill="#233f7d" />
<rect x="97" y="175" width="1" height="1" fill="#233f7d" />
<rect x="103" y="175" width="1" height="1" fill="#233f7d" />
<rect x="109" y="175" width="1" height="1" fill="#233f7d" />
<rect x="115" y="175" width="1" height="1" fill="#233f7d" />
<rect x="94" y="178" width="1" height="1" fill="#233f7d" />
<rect x="100" y="178" width="1" height="1" fill="#233f7d" />
<rect x="106" y="178" width="1" height="1" fill="#233f7d" />
<rect x="112" y="178" width="1" height="1" fill="#233f7d" />
<rect x="91" y="181" width="1" height="1" fill="#233f7d" />
<rect x="97" y="181" width="1" height="1" fill="#233f7d" />
<rect x="103" y="181" width="1" height="1" fill="#233f7d" />
<rect x="109" y="181" width="1" height="1" fill="#233f7d" />
<rect x="115" y="181" width="1" height="1" fill="#233f7d" />
<rect x="94" y="184" width="1" height="1" fill="#233f7d" />
<rect x="100" y="184" width="1" height="1" fill="#233f7d" />
<rect x="106" y="184" width="1" height="1" fill="#233f7d" />
<rect x="112" y="184" width="1" height="1" fill="#233f7d" />
<rect x="91" y="187" width="1" height="1" fill="#233f7d" />
<rect x="97" y="187" width="1" height="1" fill="#233f7d" />
<rect x="103" y="187" width="1" height="1" fill="#233f7d" />
<rect x="109" y="187" width="1" height="1" fill="#233f7d" />
<rect x="115" y="187" width="1" height="1" fill="#233f7d" />
<rect x="94" y="190" width="1" height="1" fill="#233f7d" />
<rect x="100" y="190" width="1" height="1" fill="#233f7d" />
<rect x="106" y="190" width="1" height="1" fill="#233f7d" />
<rect x="112" y="190" width="1" height="1" fill="#233f7d" />
<rect x="91" y="193" width="1" height="1" fill="#233f7d" />
<rect x="97" y="193" width="1" height="1" fill="#233f7d" />
<rect x="103" y="193" width="1" height="1" fill="#233f7d" />
<rect x="109" y="193" width="1" height="1" fill="#233f7d" />
<rect x="115" y="193" width="1" height="1" fill="#233f7d" />
<rect x="94" y="196" width="1" height="1" fill="#233f7d" />
<rect x="100" y="196" width="1" height="1" fill="#233f7d" />
<rect x="106" y="196" width="1" height="1" fill="#233f7d" />
<rect x="112" y="196" width="1" height="1" fill="#233f7d" />
<rect x="91" y="199" width="1" height="1" fill="#233f7d" />
<rect x="97" y="199" width="1" height="1" fill="#233f7d" />
<rect x="103" y="199" width="1" height="1" fill="#233f7d" />
<rect x="109" y="199" width="1" height="1" fill="#233f7d" />
<rect x="115" y="199" width="1" height="1" fill="#233f7d" />
<rect x="94" y="202" width="1" height="1" fill="#233f7d" />
<rect x="100" y="202" width="1" height="1" fill="#233f7d" />
<rect x="106" y="202" width="1" height="1" fill="#233f7d" />
<rect x="112" y="202" width="1" height="1" fill="#233f7d" />
<rect x="91" y="205" width="1" height="1" fill="#233f7d" />
<rect x="97" y="205" width="1" height="1" fill="#233f7d" />
<rect x="103" y="205" width="1" height="1" fill="#233f7d" />
<rect x="109" y="205" width="1" height="1" fill="#233f7d" />
<rect x="115" y="205" width="1" height="1" fill="#233f7d" />
<rect x="94" y="208" width="1" height="1" fill="#233f7d" />
<rect x="100" y="208" width="1" height="1" fill="#233f7d" />
<rect x="106" y="208" width="1" height="1" fill="#233f7d" />
<rect x="112" y="208" width="1" height="1" fill="#233f7d" />
<rect x="91" y="211" width="1" height="1" fill="#233f7d" />
<rect x="97" y="211" width="1" height="1" fill="#233f7d" />
<rect x="103" y="211" width="1" height="1" fill="#233f7d" />
<rect x="109" y="211" width="1" height="1" fill="#233f7d" />
<rect x="115" y="211" width="1" height="1" fill="#233f7d" />
<rect x="94" y="214" width="1" height="1" fill="#233f7d" />
<rect x="100" y="214" width="1" height="1" fill="#233f7d" />
<rect x="106" y="214" width="1" height="1" fill="#233f7d" />
<rect x="112" y="214" width="1" height="1" fill="#233f7d" />
<rect x="91" y="217" width="1" height="1" fill="#233f7d" />
<rect x="97" y="217" width="1" height="1" fill="#233f7d" />
<rect x="103" y="217" width="1" height="1" fill="#233f7d" />
<rect x="109" y="217" width="1" height="1" fill="#233f7d" />
<rect x="115" y="217" width="1" height="1" fill="#233f7d" />
<rect x="144" y="185" width="1" height="1" fill="#233f7d" />
<rect x="150" y="185" width="1" height="1" fill="#233f7d" />
<rect x="156" y="185" width="1" height="1" fill="#233f7d" />
<rect x="162" y="185" width="1" height="1" fill="#233f7d" />
<rect x="141" y="188" width="1" height="1" fill="#233f7d" />
<rect x="147" y="188" width="1" height="1" fill="#233f7d" />
<rect x="153" y="188" width="1" height="1" fill="#233f7d" />
<rect x="159" y="188" width="1" height="1" fill="#233f7d" />
<rect x="165" y="188" width="1" height="1" fill="#233f7d" />
<rect x="144" y="191" width="1" height="1" fill="#233f7d" />
<rect x="150" y="191" width="1" height="1" fill="#233f7d" />
<rect x="156" y="191" width="1" height="1" fill="#233f7d" />
<rect x="162" y="191" width="1" height="1" fill="#233f7d" />
<rect x="141" y="194" width="1" height="1" fill="#233f7d" />
<rect x="147" y="194" width="1" height="1" fill="#233f7d" />
<rect x="153" y="194" width="1" height="1" fill="#233f7d" />
<rect x="159" y="194" width="1" height="1" fill="#233f7d" />
<rect x="165" y="194" width="1" height="1" fill="#233f7d" />
<rect x="144" y="197" width="1" height="1" fill="#233f7d" />
<rect x="150" y="197" width="1" height="1" fill="#233f7d" />
<rect x="156" y="197" width="1" height="1" fill="#233f7d" />
<rect x="162" y="197" width="1" height="1" fill="#233f7d" />
<rect x="141" y="200" width="1" height="1" fill="#233f7d" />
<rect x="147" y="200" width="1" height="1" fill="#233f7d" />
<rect x="153" y="200" width="1" height="1" fill="#233f7d" />
<rect x="159" y="200" width="1" height="1" fill="#233f7d" />
<rect x="165" y="200" width="1" height="1" fill="#233f7d" />
<rect x="144" y="203" width="1" height="1" fill="#233f7d" />
<rect x="150" y="203" width="1" height="1" fill="#233f7d" />
<rect x="156" y="203" width="1" height="1" fill="#233f7d" />
<rect x="162" y="203" width="1" height="1" fill="#233f7d" />
<rect x="141" y="206" width="1" height="1" fill="#233f7d" />
<rect x="147" y="206" width="1" height="1" fill="#233f7d" />
<rect x="153" y="206" width="1" height="1" fill="#233f7d" />
<rect x="159" y="206" width="1" height="1" fill="#233f7d" />
<rect x="165" y="206" width="1" height="1" fill="#233f7d" />
<rect x="144" y="209" width="1" height="1" fill="#233f7d" />
<rect x="150" y="209" width="1" height="1" fill="#233f7d" />
<rect x="156" y="209" width="1" height="1" fill="#233f7d" />
<rect x="162" y="209" width="1" height="1" fill="#233f7d" />
<rect x="141" y="212" width="1" height="1" fill="#233f7d" />
<rect x="147" y="212" width="1" height="1" fill="#233f7d" />
<rect x="153" y="212" width="1" height="1" fill="#233f7d" />
<rect x="159" y="212" width="1" height="1" fill="#233f7d" />
<rect x="165" y="212" width="1" height="1" fill="#233f7d" />
<rect x="144" y="215" width="1" height="1" fill="#233f7d" />
<rect x="150" y="215" width="1" height="1" fill="#233f7d" />
<rect x="156" y="215" width="1" height="1" fill="#233f7d" />
<rect x="162" y="215" width="1" height="1" fill="#233f7d" />
<rect x="141" y="218" width="1" height="1" fill="#233f7d" />
<rect x="147" y="218" width="1" height="1" fill="#233f7d" />
<rect x="153" y="218" width="1" height="1" fill="#233f7d" />
<rect x="159" y="218" width="1" height="1" fill="#233f7d" />
<rect x="165" y="218" width="1" height="1" fill="#233f7d" />
<rect x="144" y="221" width="1" height="1" fill="#233f7d" />
<rect x="150" y="221" width="1" height="1" fill="#233f7d" />
<rect x="156" y="221" width="1" height="1" fill="#233f7d" />
<rect x="162" y="221" width="1" height="1" fill="#233f7d" />
<rect x="141" y="224" width="1" height="1" fill="#233f7d" />
<rect x="147" y="224" width="1" height="1" fill="#233f7d" />
<rect x="153" y="224" width="1" height="1" fill="#233f7d" />
<rect x="159" y="224" width="1" height="1" fill="#233f7d" />
<rect x="165" y="224" width="1" height="1" fill="#233f7d" />
<rect x="144" y="227" width="1" height="1" fill="#233f7d" />
<rect x="150" y="227" width="1" height="1" fill="#233f7d" />
<rect x="156" y="227" width="1" height="1" fill="#233f7d" />
<rect x="162" y="227" width="1" height="1" fill="#233f7d" />
<rect x="93" y="183" width="22" height="1" fill="#101a2a" />
<rect x="93" y="192" width="22" height="1" fill="#101a2a" />
<rect x="93" y="201" width="22" height="1" fill="#101a2a" />
<rect x="93" y="210" width="22" height="1" fill="#101a2a" />
<rect x="143" y="193" width="22" height="1" fill="#101a2a" />
<rect x="143" y="202" width="22" height="1" fill="#101a2a" />
<rect x="143" y="211" width="22" height="1" fill="#101a2a" />
<rect x="143" y="220" width="22" height="1" fill="#101a2a" />
<rect x="91" y="195" width="26" height="8" fill="#233f7d" />
<rect x="141" y="205" width="26" height="8" fill="#233f7d" />
<rect x="79" y="238" width="52" height="14" fill="#0b1320" />
<rect x="80" y="239" width="50" height="12" fill="#101a2a" />
<rect x="80" y="239" width="50" height="1" fill="#233f7d" />
<rect x="80" y="239" width="1" height="12" fill="#233f7d" />
<rect x="80" y="250" width="50" height="1" fill="#0b1320" />
<rect x="129" y="239" width="1" height="12" fill="#0b1320" />
<rect x="133" y="238" width="52" height="14" fill="#0b1320" />
<rect x="134" y="239" width="50" height="12" fill="#101a2a" />
<rect x="134" y="239" width="50" height="1" fill="#233f7d" />
<rect x="134" y="239" width="1" height="12" fill="#233f7d" />
<rect x="134" y="250" width="50" height="1" fill="#0b1320" />
<rect x="183" y="239" width="1" height="12" fill="#0b1320" />
<circle cx="83" cy="244" r="1.1" fill="#2a3a58" />
<circle cx="89" cy="244" r="1.1" fill="#2a3a58" />
<circle cx="95" cy="244" r="1.1" fill="#2a3a58" />
<circle cx="101" cy="244" r="1.1" fill="#2a3a58" />
<circle cx="107" cy="244" r="1.1" fill="#2a3a58" />
<circle cx="113" cy="244" r="1.1" fill="#2a3a58" />
<circle cx="119" cy="244" r="1.1" fill="#2a3a58" />
<circle cx="125" cy="244" r="1.1" fill="#2a3a58" />
<circle cx="137" cy="244" r="1.1" fill="#2a3a58" />
<circle cx="143" cy="244" r="1.1" fill="#2a3a58" />
<circle cx="149" cy="244" r="1.1" fill="#2a3a58" />
<circle cx="155" cy="244" r="1.1" fill="#2a3a58" />
<circle cx="161" cy="244" r="1.1" fill="#2a3a58" />
<circle cx="167" cy="244" r="1.1" fill="#2a3a58" />
<circle cx="173" cy="244" r="1.1" fill="#2a3a58" />
<circle cx="179" cy="244" r="1.1" fill="#2a3a58" />
<rect x="155" y="168" width="60" height="12" fill="#0b1320" />
<rect x="156" y="169" width="58" height="10" fill="#d3deee" />
<rect x="156" y="169" width="58" height="1" fill="#f1f7ff" />
<rect x="156" y="169" width="1" height="10" fill="#f1f7ff" />
<rect x="156" y="178" width="58" height="1" fill="#7485a4" />
<rect x="213" y="169" width="1" height="10" fill="#7485a4" />
<rect x="157" y="170" width="56" height="4" fill="#7485a4" />
<rect x="203" y="170" width="26" height="8" fill="#7485a4" />
<rect x="155" y="178" width="54" height="2" fill="#0b1320" />
<circle cx="163" cy="172" r="1" fill="#4f7fd9" />
<circle cx="175" cy="172" r="1" fill="#4f7fd9" />
<circle cx="187" cy="172" r="1" fill="#4f7fd9" />
<circle cx="199" cy="172" r="1" fill="#4f7fd9" />
<rect x="109" y="83" width="14" height="6" fill="#142033" />
<rect x="139" y="83" width="14" height="6" fill="#142033" />
<rect x="123" y="87" width="14" height="4" fill="#87e4ff" />
<rect x="115" y="83" width="2" height="6" fill="#c4d0de" />
<rect x="145" y="83" width="2" height="6" fill="#c4d0de" />
</svg>
