<?xml version="1.0" encoding="UTF-8"?>
<svg xmlns="http://www.w3.org/2000/svg" width="256" height="256" viewBox="0 0 256 256" shape-rendering="crispEdges">
<polygon points="106,97 142,93 156,101 154,121 126,127 112,117" fill="#0b1320" />
<polygon points="108,99 140,95 152,103 150,121 126,125 114,115" fill="#cb9975" />
<polygon points="106,93 144,89 156,94 150,99 112,97" fill="#9b4f4f" />
<rect x="118" y="123" width="10" height="8" fill="#996846" />
<polygon points="88,137 122,133 148,147 146,173 102,179" fill="#0b1320" />
<polygon points="94,139 120,137 142,149 140,171 104,175" fill="#dad3c2" />
<rect x="102" y="143" width="24" height="9" fill="#f3ecdb" />
<rect x="106" y="159" width="30" height="3" fill="#8f8878" />
<rect x="100" y="147" width="6" height="18" fill="#cb9975" />
<rect x="120" y="143" width="6" height="16" fill="#cb9975" />
<polygon points="98,147 110,149 114,173 102,175" fill="#cb9975" />
<polygon points="120,145 134,149 126,133 118,135" fill="#cb9975" />
<polygon points="118,159 134,161 132,141 126,145" fill="#8f8878" />
<rect x="124" y="132" width="7" height="7" fill="#cb9975" />
<rect x="154" y="131" width="7" height="7" fill="#cb9975" />
<rect x="136" y="127" width="72" height="10" fill="#0b1320" />
<rect x="137" y="128" width="70" height="8" fill="#a8b2bf" />
<rect x="137" y="128" width="70" height="1" fill="#f3f8ff" />
<rect x="137" y="128" width="1" height="8" fill="#f3f8ff" />
<rect x="137" y="135" width="70" height="1" fill="#62707c" />
<rect x="206" y="128" width="1" height="8" fill="#62707c" />
<rect x="142" y="129" width="60" height="2" fill="#edf6ff" />
<rect x="126" y="129" width="14" height="6" fill="#62707c" />
<rect x="202" y="129" width="18" height="6" fill="#62707c" />
<rect x="156" y="137" width="10" height="16" fill="#62707c" />
<polygon points="152,137 160,151 170,151 164,137" fill="#62707c" />
<rect x="146" y="135" width="18" height="2" fill="#0b1320" />
<polygon points="102,176 126,162 148,174 140,208 112,206" fill="#33441f" />
<polygon points="132,178 154,168 174,184 170,212 144,212" fill="#61773f" />
<rect x="110" y="180" width="12" height="6" fill="#33441f" />
<rect x="126" y="188" width="10" height="5" fill="#8aa05b" />
<rect x="114" y="202" width="14" height="6" fill="#dad3c2" />
<rect x="124" y="214" width="12" height="6" fill="#33441f" />
<rect x="108" y="220" width="10" height="5" fill="#8aa05b" />
<rect x="142" y="184" width="12" height="6" fill="#8aa05b" />
<rect x="158" y="192" width="10" height="5" fill="#dad3c2" />
<rect x="146" y="206" width="14" height="6" fill="#33441f" />
<rect x="156" y="218" width="12" height="6" fill="#8aa05b" />
<rect x="140" y="224" width="10" height="5" fill="#dad3c2" />
<rect x="100" y="211" width="44" height="12" fill="#0b1320" />
<rect x="101" y="212" width="42" height="10" fill="#101a2a" />
<rect x="101" y="212" width="42" height="1" fill="#33441f" />
<rect x="101" y="212" width="1" height="10" fill="#33441f" />
<rect x="101" y="221" width="42" height="1" fill="#0b1320" />
<rect x="142" y="212" width="1" height="10" fill="#0b1320" />
<rect x="136" y="215" width="42" height="12" fill="#0b1320" />
<rect x="137" y="216" width="40" height="10" fill="#101a2a" />
<rect x="137" y="216" width="40" height="1" fill="#33441f" />
<rect x="137" y="216" width="1" height="10" fill="#33441f" />
<rect x="137" y="225" width="40" height="1" fill="#0b1320" />
<rect x="176" y="216" width="1" height="10" fill="#0b1320" />
<rect x="124" y="107" width="7" height="3" fill="#142033" />
<rect x="122" y="104" width="9" height="2" fill="#0b1320" />
<rect x="126" y="117" width="10" height="4" fill="#6e5140" />
</svg>
