<?xml version="1.0" encoding="UTF-8"?>
<svg xmlns="http://www.w3.org/2000/svg" width="256" height="256" viewBox="0 0 256 256" shape-rendering="crispEdges">
<polygon points="98,60 134,56 148,66 146,88 118,94 104,84" fill="#0b1320" />
<polygon points="100,62 132,58 144,66 142,86 118,92 106,82" fill="#cb9975" />
<polygon points="98,54 134,50 150,57 142,62 106,60" fill="#9b4f4f" />
<polygon points="94,62 106,60 104,80 92,76" fill="#4a2b1f" />
<rect x="110" y="90" width="10" height="8" fill="#996846" />
<rect x="120" y="90" width="6" height="4" fill="#cb9975" />
<rect x="114" y="69" width="8" height="2" fill="#0b1320" />
<rect x="118" y="72" width="6" height="4" fill="#142033" />
<rect x="116" y="82" width="12" height="4" fill="#6e5140" />
<rect x="134" y="74" width="8" height="2" fill="#996846" />
<polygon points="98,106 136,98 156,108 160,150 108,158" fill="#0b1320" />
<polygon points="102,108 134,102 152,110 156,148 110,154" fill="#dad3c2" />
<rect x="106" y="110" width="26" height="10" fill="#f3ecdb" />
<rect x="108" y="124" width="36" height="3" fill="#8f8878" />
<rect x="110" y="132" width="40" height="3" fill="#8f8878" />
<rect x="108" y="116" width="6" height="22" fill="#cb9975" />
<rect x="132" y="112" width="6" height="18" fill="#cb9975" />
<polygon points="112,106 120,104 132,132 124,134" fill="#88724a" />
<rect x="122" y="138" width="14" height="10" fill="#2a3a58" />
<polygon points="98,114 110,112 112,144 100,148" fill="#cb9975" />
<rect x="100" y="122" width="7" height="20" fill="#8f8878" />
<rect x="96" y="144" width="10" height="6" fill="#cb9975" />
<polygon points="130,122 144,124 124,120 116,120" fill="#cb9975" />
<polygon points="138,138 150,138 128,128 122,132" fill="#8f8878" />
<rect x="120" y="119" width="7" height="7" fill="#cb9975" />
<rect x="150" y="118" width="7" height="7" fill="#cb9975" />
<rect x="132" y="114" width="74" height="10" fill="#0b1320" />
<rect x="133" y="115" width="72" height="8" fill="#a8b2bf" />
<rect x="133" y="115" width="72" height="1" fill="#f3f8ff" />
<rect x="133" y="115" width="1" height="8" fill="#f3f8ff" />
<rect x="133" y="122" width="72" height="1" fill="#62707c" />
<rect x="204" y="115" width="1" height="8" fill="#62707c" />
<rect x="138" y="116" width="62" height="2" fill="#edf6ff" />
<rect x="122" y="116" width="14" height="6" fill="#62707c" />
<rect x="200" y="116" width="18" height="6" fill="#62707c" />
<rect x="152" y="124" width="10" height="16" fill="#62707c" />
<polygon points="148,124 156,138 166,138 160,124" fill="#62707c" />
<rect x="142" y="122" width="18" height="2" fill="#0b1320" />
<rect x="95" y="158" width="20" height="60" fill="#0b1320" />
<rect x="96" y="159" width="18" height="58" fill="#33441f" />
<rect x="96" y="159" width="18" height="1" fill="#8aa05b" />
<rect x="96" y="159" width="1" height="58" fill="#8aa05b" />
<rect x="96" y="216" width="18" height="1" fill="#101a2a" />
<rect x="113" y="159" width="1" height="58" fill="#101a2a" />
<rect x="127" y="154" width="22" height="62" fill="#0b1320" />
<rect x="128" y="155" width="20" height="60" fill="#61773f" />
<rect x="128" y="155" width="20" height="1" fill="#8aa05b" />
<rect x="128" y="155" width="1" height="60" fill="#8aa05b" />
<rect x="128" y="214" width="20" height="1" fill="#101a2a" />
<rect x="147" y="155" width="1" height="60" fill="#101a2a" />
<rect x="100" y="166" width="12" height="6" fill="#33441f" />
<rect x="116" y="174" width="10" height="5" fill="#8aa05b" />
<rect x="104" y="188" width="14" height="6" fill="#dad3c2" />
<rect x="114" y="200" width="12" height="6" fill="#33441f" />
<rect x="98" y="206" width="10" height="5" fill="#8aa05b" />
<rect x="132" y="166" width="12" height="6" fill="#8aa05b" />
<rect x="148" y="174" width="10" height="5" fill="#dad3c2" />
<rect x="136" y="188" width="14" height="6" fill="#33441f" />
<rect x="146" y="200" width="12" height="6" fill="#8aa05b" />
<rect x="130" y="206" width="10" height="5" fill="#dad3c2" />
<rect x="101" y="188" width="10" height="8" fill="#8f8878" />
<rect x="135" y="180" width="10" height="8" fill="#8f8878" />
<rect x="91" y="236" width="34" height="12" fill="#0b1320" />
<rect x="92" y="237" width="32" height="10" fill="#101a2a" />
<rect x="92" y="237" width="32" height="1" fill="#33441f" />
<rect x="92" y="237" width="1" height="10" fill="#33441f" />
<rect x="92" y="246" width="32" height="1" fill="#0b1320" />
<rect x="123" y="237" width="1" height="10" fill="#0b1320" />
<rect x="123" y="236" width="40" height="12" fill="#0b1320" />
<rect x="124" y="237" width="38" height="10" fill="#101a2a" />
<rect x="124" y="237" width="38" height="1" fill="#33441f" />
<rect x="124" y="237" width="1" height="10" fill="#33441f" />
<rect x="124" y="246" width="38" height="1" fill="#0b1320" />
<rect x="161" y="237" width="1" height="10" fill="#0b1320" />
</svg>
